<svg version="1.1" id="MindsLogo" xmlns="http://www.w3.org/2000/svg" x="0px" y="0px" viewBox="0 0 201.3 170.7" xml:space="preserve"><style type="text/css">
	.st0{fill:#FFCC00;}
	.st1{opacity:0.7;filter:url(#glow);}
	.st2{fill:#999999;}
	.st3{filter:url(#glow);}
</style><filter height="200%" width="200%" x="-50%" y="-50%" id="glow"><feGaussianBlur stdDeviation="13"/></filter><g id="Smoother"><path id="Bulb" class="st0" d="M130.3 80.6L130.3 80.6c3.1-5.2 4.9-11.2 4.9-17.7 0-19.1-15.4-34.5-34.5-34.5 -19.1 0-34.5 15.4-34.5 34.5 0 6.5 1.9 12.5 5 17.7l-0.1 0c0 0 0.6 0.9 1.5 2.2 0.1 0.1 0.1 0.2 0.2 0.3 0 0 0.1 0.1 0.1 0.1 1.4 2.2 3.4 5.1 4 6.2 1 1.8 3.5 7 4.2 10.8 0.5 2.3 0.6 6.5 1.3 8.4 0.6 1.7 2.3 4.3 4.1 4.6 1.6 0.3 4.3 3.4 5.6 4.2 0.8 0.5 8.7 0.1 8.7 0.1s7.9 0.4 8.7-0.1c1.4-0.8 4-3.9 5.6-4.2 1.8-0.3 3.5-2.9 4.1-4.6 0.7-1.9 0.8-6.2 1.3-8.4 0.8-3.8 3.2-9 4.2-10.8 0.7-1.1 2.8-4.4 4.3-6.6 0.3-0.5 0.6-0.9 0.9-1.4C130.1 80.9 130.3 80.6 130.3 80.6z"/><g id="Glow" class="st1"><path id="XMLID_3_" class="st0" d="M139.9 66.9c0 21.7-17.6 39.2-39.2 39.2 -13.1 0-24.7-6.4-31.8-16.3 -4.7-6.5-7.4-14.4-7.4-23 0-21.7 17.6-39.2 39.2-39.2C122.3 27.7 139.9 45.2 139.9 66.9z"/></g><path id="Metal" class="st2" d="M115.9 112.5h-15.2H85.5c0 0.7 0.9 1.3 0.9 2.3 -0.1 4.9-0.4 16.3 1 19 1 2 7.7 9.1 8.4 9.2 1.2 0.1 3.3-0.1 4.2-0.1 0.1 0 0.6 0 0.6 0s0.5 0 0.6 0c1 0 3.1 0.2 4.2 0.1 0.7-0.1 7.4-7.2 8.4-9.2 1.4-2.7 1.1-14.1 1-19C115 113.8 115.9 113.2 115.9 112.5z"/></g></svg>