<svg version="1.1" id="Icons_1_" xmlns="http://www.w3.org/2000/svg" x="0" y="0" viewBox="0 0 517 443" xml:space="preserve"><style type="text/css">
	.st0{fill:#FFCC00;}
	.st1{fill:#999999;}
</style><g id="Simplified"><path id="Bulb_1_" class="st0" d="M362.9 203.4l-0.2 0c11-18.3 17.4-39.6 17.4-62.4 0-67.2-54.4-121.6-121.6-121.6 -67.2 0-121.6 54.4-121.6 121.6 0 22.9 6.6 44.1 17.6 62.4l-0.4 0c0 0 2.2 3.3 5.1 7.7 0.2 0.3 0.4 0.7 0.7 1.1 0.1 0.1 0.2 0.2 0.3 0.3 5.1 7.7 11.8 17.9 14 21.7 3.6 6.3 12.2 24.8 14.9 38.2 1.6 8 2.2 22.9 4.5 29.8 2 5.9 8.2 15.2 14.5 16.3 5.8 1 15 11.8 19.8 14.7 3 1.7 30.6 0.5 30.6 0.5s27.7 1.3 30.6-0.5c4.8-2.8 14-13.7 19.8-14.7 6.2-1.1 12.5-10.4 14.5-16.3 2.3-6.8 2.9-21.8 4.5-29.8 2.7-13.4 11.3-31.9 14.9-38.2 2.3-4 9.9-15.5 15-23.2 1.1-1.6 2.2-3.2 3.2-4.9C362.1 204.5 362.9 203.4 362.9 203.4z"/><path id="Metal_1_" class="st1" d="M312.2 315.8h-53.7 -53.7c0 2.5 3.2 4.6 3.1 8.2 -0.2 17.2-1.3 57.5 3.7 67.1 3.7 7.1 27.1 32.1 29.7 32.4 4.1 0.5 11.5-0.2 15-0.3 0.5 0 2.2-0.1 2.2-0.1s1.7 0.1 2.2 0.1c3.5 0.1 10.9 0.8 15 0.3 2.6-0.3 26.1-25.3 29.7-32.4 4.9-9.6 3.9-49.9 3.7-67.1C309 320.4 312.2 318.3 312.2 315.8z"/></g></svg>