<svg xmlns="http://www.w3.org/2000/svg" width="16" height="16" viewBox="0 0 16 16" fill="none">
    <path
        d="M14.467 8.90033L13.8003 9.56699L12.4337 8.20033L13.1003 7.53366C13.2403 7.39366 13.4737 7.39366 13.6137 7.53366L14.467 8.38699C14.607 8.52699 14.607 8.76033 14.467 8.90033ZM8.00033 12.627L12.0403 8.58699L13.407 9.95366L9.37366 14.0003H8.00033V12.627ZM8.00033 9.33366C5.05366 9.33366 2.66699 10.527 2.66699 12.0003V13.3337H6.66699V12.0737L9.33366 9.40699C8.89366 9.35366 8.44699 9.33366 8.00033 9.33366ZM8.00033 2.66699C7.29308 2.66699 6.6148 2.94794 6.11471 3.44804C5.61461 3.94814 5.33366 4.62641 5.33366 5.33366C5.33366 6.0409 5.61461 6.71918 6.11471 7.21928C6.6148 7.71937 7.29308 8.00033 8.00033 8.00033C8.70757 8.00033 9.38585 7.71937 9.88594 7.21928C10.386 6.71918 10.667 6.0409 10.667 5.33366C10.667 4.62641 10.386 3.94814 9.88594 3.44804C9.38585 2.94794 8.70757 2.66699 8.00033 2.66699Z"
        fill="#EBD3F0" />
</svg>