<!DOCTYPE svg PUBLIC "-//W3C//DTD SVG 1.1//EN" "http://www.w3.org/Graphics/SVG/1.1/DTD/svg11.dtd">
<svg xmlns="http://www.w3.org/2000/svg" xmlns:xlink="http://www.w3.org/1999/xlink" width="381px" height="365px" version="1.1"><defs/><g transform="translate(0.5,0.5)"><path d="M 52 322 L 42 322 L 42 72 L 32 72 L 47 42 L 62 72 L 52 72 Z" fill="#00cccc" stroke="#00cccc" stroke-width="18" stroke-miterlimit="10" pointer-events="none"/><path d="M 42 327 L 42 317 L 308 317 L 308 307 L 338 322 L 308 337 L 308 327 Z" fill="#00cccc" stroke="#00cccc" stroke-width="18" stroke-miterlimit="10" pointer-events="none"/><path d="M 48 147 L 238 147" fill="none" stroke="#00cccc" stroke-width="21" stroke-miterlimit="10" pointer-events="none"/><path d="M 236 322 L 236 142" fill="none" stroke="#00cccc" stroke-width="21" stroke-miterlimit="10" pointer-events="none"/><path d="M 99 87 L 306 87" fill="none" stroke="#00cccc" stroke-width="21" stroke-miterlimit="10" pointer-events="none"/><path d="M 296 262 L 296 82" fill="none" stroke="#00cccc" stroke-width="21" stroke-miterlimit="10" pointer-events="none"/><path d="M 108 262 L 108 82" fill="none" stroke="#00cccc" stroke-width="21" stroke-miterlimit="10" pointer-events="none"/><path d="M 108 257 L 298 257" fill="none" stroke="#00cccc" stroke-width="21" stroke-miterlimit="10" pointer-events="none"/><path d="M 45 141 L 108 84" fill="none" stroke="#00cccc" stroke-width="21" stroke-miterlimit="10" pointer-events="none"/><path d="M 238 148 L 298 88" fill="none" stroke="#00cccc" stroke-width="21" stroke-miterlimit="10" pointer-events="none"/><path d="M 49 314 L 109 254" fill="none" stroke="#00cccc" stroke-width="21" stroke-miterlimit="10" pointer-events="none"/><path d="M 237 319 L 299 252" fill="none" stroke="#00cccc" stroke-width="21" stroke-miterlimit="10" pointer-events="none"/></g></svg>