<?xml version="1.0" encoding="UTF-8"?>
<svg version="1.1" viewBox="0 0 46 42" xmlns="http://www.w3.org/2000/svg" xmlns:xlink="http://www.w3.org/1999/xlink">
<title>Group 2</title>
<defs>
<rect id="c" width="30.4" height="29.45" rx="10"/>
<filter id="f" x="-21.4%" y="-18.7%" width="142.8%" height="144.1%">
<feOffset dx="0" dy="1" in="SourceAlpha" result="shadowOffsetOuter1"/>
<feGaussianBlur in="shadowOffsetOuter1" result="shadowBlurOuter1" stdDeviation="2"/>
<feColorMatrix in="shadowBlurOuter1" values="0 0 0 0 0   0 0 0 0 0   0 0 0 0 0  0 0 0 0.2 0"/>
</filter>
<rect id="b" x="7.6" y="3.8" width="30.4" height="29.45" rx="10"/>
<filter id="e" x="-21.4%" y="-18.7%" width="142.8%" height="144.1%">
<feOffset dx="0" dy="1" in="SourceAlpha" result="shadowOffsetOuter1"/>
<feGaussianBlur in="shadowOffsetOuter1" result="shadowBlurOuter1" stdDeviation="2"/>
<feColorMatrix in="shadowBlurOuter1" values="0 0 0 0 0   0 0 0 0 0   0 0 0 0 0  0 0 0 0.2 0"/>
</filter>
<rect id="a" x="3.8" y="1.9" width="29.45" height="29.45" rx="10"/>
<filter id="d" x="-22.1%" y="-18.7%" width="144.1%" height="144.1%">
<feOffset dx="0" dy="1" in="SourceAlpha" result="shadowOffsetOuter1"/>
<feGaussianBlur in="shadowOffsetOuter1" result="shadowBlurOuter1" stdDeviation="2"/>
<feColorMatrix in="shadowBlurOuter1" values="0 0 0 0 0   0 0 0 0 0   0 0 0 0 0  0 0 0 0.5 0"/>
</filter>
</defs>
<g fill="none" fill-rule="evenodd">
<g transform="translate(-1006 -21)">
<g transform="translate(1010 24)">
<use fill="black" filter="url(#f)" xlink:href="#c"/>
<use fill="#FED12F" fill-rule="evenodd" xlink:href="#c"/>
<use fill="black" filter="url(#e)" xlink:href="#b"/>
<use fill="#555555" fill-rule="evenodd" xlink:href="#b"/>
<use fill="black" filter="url(#d)" xlink:href="#a"/>
<use fill="#DFDCDC" fill-rule="evenodd" xlink:href="#a"/>
<g transform="translate(10.45 8.55)" fill="#333" fill-rule="nonzero">
<path d="m14.996 6.9214h-5.7679v-5.7679c0-0.63677-0.5168-1.1536-1.1536-1.1536s-1.1536 0.5168-1.1536 1.1536v5.7679h-5.7679c-0.63677 0-1.1536 0.5168-1.1536 1.1536s0.5168 1.1536 1.1536 1.1536h5.7679v5.7679c0 0.63677 0.5168 1.1536 1.1536 1.1536s1.1536-0.5168 1.1536-1.1536v-5.7679h5.7679c0.63677 0 1.1536-0.5168 1.1536-1.1536s-0.5168-1.1536-1.1536-1.1536z"/>
</g>
</g>
</g>
</g>
</svg>
