<?xml version="1.0" encoding="UTF-8"?>
<svg width="19px" height="17px" viewBox="0 0 19 17" version="1.1" xmlns="http://www.w3.org/2000/svg" xmlns:xlink="http://www.w3.org/1999/xlink">
    <!-- Generator: Sketch 62 (91390) - https://sketch.com -->
    <title>iconfinder_038_031_like_social_network_friends_android_material_1646933 copy 14</title>
    <desc>Created with Sketch.</desc>
    <g id="Symbols" stroke="none" stroke-width="1" fill="none" fill-rule="evenodd">
        <g id="elements/post/engagement" transform="translate(-70.000000, -1.000000)" fill-rule="nonzero">
            <g id="iconfinder_038_031_like_social_network_friends_android_material_1646933-copy-14" transform="translate(79.500000, 9.500000) rotate(180.000000) translate(-79.500000, -9.500000) translate(70.000000, 1.000000)">
                <rect id="Rectangle" fill="#797B83" x="0" y="7" width="3" height="10"></rect>
                <path d="M17,6 L12,6 L12,1 C12,0.44771525 11.5522847,0 11,0 L10,0 L5.66473,5.37579 C5.23459865,5.90919775 5,6.57377244 5,7.259 L5,15 C5,16.1045695 5.8954305,17 7,17 L13.43481,17 C14.576897,17 15.6199132,16.3515103 16.12518,15.32727 L19,9.5 L19,8 C19,6.8954305 18.1045695,6 17,6 Z" id="Path" fill="#7D7D82"></path>
            </g>
        </g>
    </g>
</svg>