<?xml version="1.0" encoding="iso-8859-1"?>
<!-- Generator: Adobe Illustrator 19.0.0, SVG Export Plug-In . SVG Version: 6.00 Build 0)  -->
<svg version="1.1" id="Capa_1" xmlns="http://www.w3.org/2000/svg" xmlns:xlink="http://www.w3.org/1999/xlink" x="0px" y="0px"
	 viewBox="0 0 511.999 511.999" style="enable-background:new 0 0 511.999 511.999;" xml:space="preserve">
<path style="fill:#EBEEF2;" d="M332.734,57.898C322.202,26.696,307.882,4.365,307.279,3.43c-1.578-2.441-4.423-3.752-7.302-3.362
	c-1.104,0.148-27.38,3.784-57.937,16.063c-41.117,16.522-70.092,40.983-83.795,70.736c-22.852,49.623-46.716,149.609-53.196,222.886
	c-0.279,3.156,1.456,6.147,4.334,7.473l80.786,37.204c1.006,0.463,2.075,0.687,3.135,0.687c1.975,0,3.918-0.78,5.36-2.253
	c51.469-52.556,111.936-135.686,134.79-185.31C347.156,137.802,346.907,99.883,332.734,57.898z"/>
<path style="fill:#D1D6DE;" d="M332.734,57.898C322.202,26.696,307.882,4.365,307.279,3.43c-1.578-2.441-4.423-3.752-7.302-3.362
	c-0.27,0.036-2.058,0.284-5.041,0.814c3.612,7.412,11.512,25.025,17.188,47.84c9.982,40.119,8.046,77.065-5.598,106.844
	c-22.757,49.667-80.233,134.129-128.122,188.279c-1.342,1.517-3.082,2.388-4.805,2.5c-0.361,0.023-0.721,0.003-1.077-0.041
	l17.646,8.126c1.006,0.463,2.075,0.687,3.135,0.687c1.975,0,3.918-0.78,5.36-2.253c51.469-52.556,111.936-135.686,134.79-185.31
	C347.156,137.802,346.907,99.883,332.734,57.898z"/>
<path style="fill:#5C9CEE;" d="M299.977,0.068c-1.104,0.148-27.38,3.784-57.937,16.063c-25.167,10.113-45.776,23.205-61.128,38.66
	l162.359,72.287c1.33-21.087-2.181-44.425-10.538-69.179C322.202,26.696,307.882,4.365,307.279,3.43
	C305.701,0.989,302.856-0.322,299.977,0.068z"/>
<path style="fill:#3580D3;" d="M294.936,0.882c3.612,7.412,11.512,25.025,17.188,47.84c5.885,23.654,7.624,46.203,5.266,66.832
	l25.882,11.523c2.514-39.82-15.238-91.495-35.993-123.647c-1.578-2.441-4.423-3.752-7.302-3.362
	c-0.034,0.005-0.092,0.013-0.172,0.024C299.24,0.17,297.545,0.418,294.936,0.882z"/>
<circle style="fill:#8088A0;" cx="237.369" cy="145.61" r="28.974"/>
<path style="fill:#ED5575;" d="M192.092,283.244c-2.152-5.826-6.443-10.465-12.084-13.063c-5.642-2.598-11.957-2.843-17.781-0.691
	c-5.826,2.152-10.465,6.443-13.063,12.084c-0.149,0.324-0.275,0.659-0.377,1.001l-22.808,76.758l0,0
	c-1.702,5.729,1.003,11.703,6.432,14.203c1.633,0.752,3.343,1.112,5.027,1.112c3.913,0,7.676-1.949,9.946-5.458l43.501-67.228
	c0.194-0.299,0.366-0.613,0.516-0.937C193.998,295.384,194.244,289.069,192.092,283.244z"/>
<path style="fill:#F9C295;" d="M394.781,117.328c-11.661-3.81-24.106-2.853-35.043,2.697c-10.938,5.55-19.062,15.027-22.872,26.686
	l-6.474,19.805c-7.866,24.068,5.315,50.049,29.384,57.916c4.722,1.543,9.515,2.276,14.232,2.276
	c19.33,0,37.358-12.313,43.683-31.659l6.473-19.805C432.03,151.175,418.849,125.194,394.781,117.328z"/>
<path style="fill:#444966;" d="M459.678,100.933c-1.771-1.993-4.464-2.897-7.085-2.369l-29.079,5.85
	c-0.372,0.076-0.762,0.052-1.125-0.066l-28.414-9.287c-20.043-6.549-41.674,4.426-48.225,24.467l-11.117,34.017
	c-1.287,3.938,0.861,8.172,4.799,9.459l22.67,7.409c0.76,0.248,1.546,0.371,2.33,0.371c1.168,0,2.332-0.273,3.394-0.812
	c1.774-0.9,3.118-2.468,3.735-4.359l0.396-1.21c1.579-4.833,6.795-7.48,11.631-5.901l13.749,4.494
	c22.902,7.484,47.623-5.058,55.109-27.959l8.756-26.791C462.029,105.711,461.449,102.927,459.678,100.933z"/>
<path style="fill:#9FD479;" d="M348.317,222.774c-17.454-12.919-42.171-9.232-55.093,8.222l-54.413,73.486
	c-1.256,1.696-1.739,3.844-1.331,5.915s1.671,3.874,3.478,4.966l54.826,33.143c1.209,0.731,2.549,1.082,3.875,1.082
	c2.306,0,4.57-1.063,6.032-3.038l50.852-68.678c5.059-6.846,7.732-14.941,7.732-23.411
	C364.276,242.017,358.311,230.171,348.317,222.774z"/>
<g>
	<path style="fill:#7DB24F;" d="M348.317,222.774c-1.772-1.312-3.621-2.443-5.523-3.415c4.951,6.715,7.738,14.936,7.738,23.438
		c0,8.47-2.674,16.565-7.732,23.411l-50.852,68.678c-1.462,1.975-3.727,3.038-6.032,3.038c-1.326,0-2.666-0.351-3.875-1.082
		l-44.638-26.984c0.022,0.18,0.042,0.361,0.077,0.541c0.409,2.071,1.671,3.874,3.478,4.966l54.826,33.143
		c1.209,0.731,2.549,1.082,3.875,1.082c2.306,0,4.57-1.063,6.032-3.038l50.852-68.678c5.059-6.846,7.732-14.941,7.732-23.411
		C364.276,242.017,358.311,230.171,348.317,222.774z"/>
	<path style="fill:#7DB24F;" d="M337.852,240.036c-3.905-4.747-9.42-7.694-15.534-8.304L202.141,218.31
		c-0.036-0.004-0.071-0.008-0.106-0.011c-12.675-1.237-23.978,8.072-25.21,20.741c-1.23,12.648,8.044,23.941,20.681,25.204
		l120.18,13.422c0.035,0.004,0.07,0.008,0.106,0.011c0.762,0.074,1.521,0.111,2.276,0.111c5.33,0,10.453-1.829,14.623-5.26
		c4.762-3.917,7.713-9.455,8.31-15.591C343.598,250.799,341.769,244.797,337.852,240.036z"/>
</g>
<g>
	<path style="fill:#DCE0E5;" d="M132.454,494.88H57.926c-4.142,0-7.5-3.358-7.5-7.5s3.358-7.5,7.5-7.5h74.528
		c4.142,0,7.5,3.358,7.5,7.5S136.596,494.88,132.454,494.88z"/>
	<path style="fill:#DCE0E5;" d="M132.454,451.828H80.082c-4.142,0-7.5-3.358-7.5-7.5s3.358-7.5,7.5-7.5h52.372
		c4.142,0,7.5,3.358,7.5,7.5S136.596,451.828,132.454,451.828z"/>
	<path style="fill:#DCE0E5;" d="M132.454,408.775h-22.16c-4.142,0-7.5-3.358-7.5-7.5s3.358-7.5,7.5-7.5h22.16
		c4.142,0,7.5,3.358,7.5,7.5S136.596,408.775,132.454,408.775z"/>
</g>
<path style="fill:#F9C295;" d="M222.012,222.805c-1.242-1.594-3.075-2.619-5.083-2.843l-14.788-1.652
	c-0.036-0.004-0.071-0.008-0.106-0.011c-12.661-1.224-23.977,8.072-25.209,20.74c-0.597,6.137,1.231,12.139,5.149,16.901
	c3.905,4.747,9.42,7.694,15.533,8.304l13.547,1.513c0.283,0.032,0.563,0.047,0.841,0.047c3.702,0,6.911-2.735,7.422-6.488
	l4.209-30.887C223.8,226.426,223.254,224.398,222.012,222.805z"/>
<path style="fill:#2E344C;" d="M291.481,362.108c-0.281-1.99-1.35-3.784-2.964-4.979l-51.26-37.947
	c-2.276-1.685-5.308-1.94-7.837-0.665c-1.405,0.708-2.521,1.823-3.236,3.16l-80.213,143.832c-1.962,3.518-0.794,7.958,2.644,10.055
	l34.382,20.978c1.215,0.742,2.565,1.098,3.901,1.098c2.267,0,4.495-1.026,5.961-2.943l97.153-126.983
	C291.232,366.117,291.762,364.098,291.481,362.108z"/>
<path style="fill:#656D88;" d="M356.064,367.424l-107.345-64.897c-3.311-2.001-7.604-1.155-9.907,1.955l-12.044,16.264
	c-0.242,0.327-0.457,0.673-0.641,1.033l-2.325,4.169c-9.489,17.015-3.938,38.362,12.638,48.6l69.118,42.682l-20.639,73.934
	c-1.104,3.954,1.177,8.061,5.116,9.214l38.662,11.319c0.69,0.202,1.4,0.302,2.107,0.302c1.26,0,2.513-0.318,3.635-0.94
	c1.752-0.971,3.043-2.602,3.585-4.53l30.271-107.688C371.815,386.824,366.786,373.905,356.064,367.424z"/>
<g>
</g>
<g>
</g>
<g>
</g>
<g>
</g>
<g>
</g>
<g>
</g>
<g>
</g>
<g>
</g>
<g>
</g>
<g>
</g>
<g>
</g>
<g>
</g>
<g>
</g>
<g>
</g>
<g>
</g>
</svg>
