<?xml version="1.0" encoding="UTF-8"?>
<svg viewBox="0 0 32 32" height="18px" width="18px" version="1.1" xmlns="http://www.w3.org/2000/svg" xmlns:xlink="http://www.w3.org/1999/xlink">
    <path style="fill:white" d="m17.42 18.99c.14-.12.86-.76 2.08-1.86l10.43 8.66h-27.76l10.35-8.67c1.24 1.1 1.98 1.74 2.12 1.85.83.65 1.93.63 2.78.02m11.89-10.67-4.83 4.34c-1.51 1.35-2.8 2.51-3.86 3.46l10.35 8.6c.01.01.01.02.02.03v-17.81c0-.04-.02-.07-.02-.11a3.73 3.73 0 0 0 -.08.07zm-25.19-.7a5347.74 5347.74 0 0 0 4.69 4.19c3.94 3.52 6.51 5.79 6.75 5.97a.76.76 0 0 0 .92.03c.21-.18 2.82-2.52 7.01-6.28l4.82-4.33 1.35-1.21h-27.37l.29.26zm3.66 5.28a4436.65 4436.65 0 0 1 -4.66-4.16c-.56-.5-1.07-.96-1.53-1.37l-.57-.51c0 .03-.01.05-.01.07v17.89l10.38-8.7c-1-.89-2.2-1.95-3.61-3.20" fill-rule="evenodd"></path>
</svg>