<?xml version="1.0" encoding="UTF-8" standalone="no"?>
<!DOCTYPE svg PUBLIC "-//W3C//DTD SVG 1.1//EN" "http://www.w3.org/Graphics/SVG/1.1/DTD/svg11.dtd" >
<svg viewBox="0 0 32 32" height="18px" width="18px" version="1.1" xmlns="http://www.w3.org/2000/svg" xmlns:xlink="http://www.w3.org/1999/xlink">
    <path style="fill:white" d="m8 14.41v-4.17c0-.42.35-.81.77-.81h2.52v-2.08c0-4.84 2.48-7.31 7.42-7.35 1.65 0 3.22.21 4.69.64.46.14.63.42.6.88l-.56 4.06c-.04.18-.14.35-.32.53-.21.11-.42.18-.63.14-.88-.25-1.78-.35-2.8-.35-1.4 0-1.61.28-1.61 1.73v1.8h4.52c.42 0 .81.42.81.88l-.35 4.17c0 .42-.35.71-.77.71h-4.21v16c0 .42-.35.81-.77.81h-5.21c-.42 0-.8-.39-.8-.81v-16h-2.52a.78.78 0 0 1 -.78-.77" fill-rule="evenodd"></path>
</svg>