<svg width="24" height="25" viewBox="0 0 24 25" fill="none" xmlns="http://www.w3.org/2000/svg">
<path d="M3.25 20.6429C3.25 21.3935 3.80859 22 4.5 22H10.75V15.2143H3.25V20.6429ZM13.25 22H19.5C20.1914 22 20.75 21.3935 20.75 20.6429V15.2143H13.25V22ZM20.75 8.42857H19.1055C19.3477 7.9154 19.5 7.3471 19.5 6.73214C19.5 4.67522 17.957 3 16.0625 3C14.4375 3 13.3867 3.90335 12.0391 5.89665C10.6914 3.90335 9.64062 3 8.01562 3C6.12109 3 4.57812 4.67522 4.57812 6.73214C4.57812 7.3471 4.72656 7.9154 4.97266 8.42857H3.25C2.55859 8.42857 2 9.03504 2 9.78571V13.1786C2 13.5518 2.28125 13.8571 2.625 13.8571H21.375C21.7188 13.8571 22 13.5518 22 13.1786V9.78571C22 9.03504 21.4414 8.42857 20.75 8.42857ZM8.01172 8.42857C7.14844 8.42857 6.44922 7.66942 6.44922 6.73214C6.44922 5.79487 7.14844 5.03571 8.01172 5.03571C8.78906 5.03571 9.36328 5.17567 11.375 8.42857H8.01172ZM16.0625 8.42857H12.6992C14.707 5.18415 15.2656 5.03571 16.0625 5.03571C16.9258 5.03571 17.625 5.79487 17.625 6.73214C17.625 7.66942 16.9258 8.42857 16.0625 8.42857Z" fill="#A1A5AB"/>
</svg>
