<?xml version="1.0" encoding="UTF-8"?>
<svg width="26" height="26" viewBox="0 0 26 26" fill="none"
    xmlns="http://www.w3.org/2000/svg">
    <path
        d="M8.7115 20.4847C8.7115 20.5862 8.59558 20.6675 8.44941 20.6675C8.28308 20.6827 8.16715 20.6015 8.16715 20.4847C8.16715 20.3831 8.28308 20.3019 8.42925 20.3019C8.58046 20.2866 8.7115 20.3679 8.7115 20.4847ZM7.14396 20.2562C7.10868 20.3577 7.20949 20.4745 7.3607 20.505C7.49175 20.5558 7.64296 20.505 7.6732 20.4034C7.70344 20.3019 7.60767 20.1851 7.45646 20.1394C7.32542 20.1038 7.17925 20.1546 7.14396 20.2562ZM9.37179 20.1698C9.22562 20.2054 9.12481 20.3019 9.13993 20.4187C9.15505 20.5202 9.2861 20.5862 9.43731 20.5507C9.58348 20.5151 9.68429 20.4187 9.66917 20.3171C9.65404 20.2206 9.51796 20.1546 9.37179 20.1698ZM12.6883 0.710449C5.69739 0.710449 0.349609 6.05771 0.349609 13.1011C0.349609 18.7327 3.86775 23.5519 8.89296 25.2479C9.53812 25.3647 9.76493 24.9636 9.76493 24.6335C9.76493 24.3187 9.74981 22.5819 9.74981 21.5155C9.74981 21.5155 6.22159 22.2772 5.48066 20.0022C5.48066 20.0022 4.90606 18.5245 4.07945 18.1437C4.07945 18.1437 2.92521 17.3464 4.16009 17.3616C4.16009 17.3616 5.41513 17.4632 6.10566 18.6718C7.20949 20.6319 9.05929 20.0683 9.78005 19.7331C9.89598 18.9206 10.2236 18.3569 10.5865 18.0218C7.76896 17.7069 4.92622 17.2956 4.92622 12.4104C4.92622 11.014 5.30929 10.3132 6.11574 9.41943C5.98469 9.08935 5.55626 7.72842 6.24679 5.97139C7.30021 5.64131 9.72461 7.34248 9.72461 7.34248C10.7327 7.05811 11.8163 6.91084 12.8899 6.91084C13.9635 6.91084 15.0472 7.05811 16.0553 7.34248C16.0553 7.34248 18.4797 5.63623 19.5331 5.97139C20.2236 7.7335 19.7952 9.08935 19.6641 9.41943C20.4706 10.3183 20.9645 11.019 20.9645 12.4104C20.9645 17.3108 17.9958 17.7019 15.1782 18.0218C15.6419 18.4229 16.0351 19.1847 16.0351 20.378C16.0351 22.0894 16.02 24.2069 16.02 24.6233C16.02 24.9534 16.2518 25.3546 16.8919 25.2378C21.9323 23.5519 25.3496 18.7327 25.3496 13.1011C25.3496 6.05771 19.6792 0.710449 12.6883 0.710449ZM5.2488 18.2249C5.18328 18.2757 5.1984 18.3925 5.28409 18.489C5.36473 18.5702 5.48066 18.6058 5.54618 18.5397C5.61171 18.489 5.59659 18.3722 5.5109 18.2757C5.43025 18.1944 5.31433 18.1589 5.2488 18.2249ZM4.70445 17.8136C4.66917 17.8796 4.71957 17.9608 4.82038 18.0116C4.90102 18.0624 5.00183 18.0472 5.03711 17.9761C5.07239 17.9101 5.02199 17.8288 4.92118 17.778C4.82038 17.7476 4.73973 17.7628 4.70445 17.8136ZM6.33751 19.6214C6.25687 19.6874 6.28711 19.8397 6.40304 19.9362C6.51896 20.053 6.66513 20.0683 6.73066 19.987C6.79618 19.921 6.76594 19.7687 6.66513 19.6722C6.55425 19.5554 6.40304 19.5401 6.33751 19.6214ZM5.76292 18.8749C5.68227 18.9257 5.68227 19.0577 5.76292 19.1745C5.84356 19.2913 5.97965 19.3421 6.04517 19.2913C6.12582 19.2253 6.12582 19.0933 6.04517 18.9765C5.97461 18.8597 5.84356 18.8089 5.76292 18.8749Z"
        fill="#A1A5AB" />
</svg>