<?xml version="1.0" encoding="UTF-8"?>
<svg width="27" height="27" viewBox="0 0 27 27" fill="none"
    xmlns="http://www.w3.org/2000/svg">
    <path
        d="M13.0102 6.33605C9.31909 6.33605 6.34185 9.31328 6.34185 13.0044C6.34185 16.6954 9.31909 19.6727 13.0102 19.6727C16.7012 19.6727 19.6785 16.6954 19.6785 13.0044C19.6785 9.31328 16.7012 6.33605 13.0102 6.33605ZM13.0102 17.3396C10.6249 17.3396 8.67489 15.3954 8.67489 13.0044C8.67489 10.6133 10.6191 8.66909 13.0102 8.66909C15.4012 8.66909 17.3454 10.6133 17.3454 13.0044C17.3454 15.3954 15.3954 17.3396 13.0102 17.3396ZM21.5066 6.06328C21.5066 6.92801 20.8102 7.61864 19.9512 7.61864C19.0865 7.61864 18.3959 6.92221 18.3959 6.06328C18.3959 5.20435 19.0923 4.50792 19.9512 4.50792C20.8102 4.50792 21.5066 5.20435 21.5066 6.06328ZM25.9231 7.64185C25.8244 5.55837 25.3486 3.71283 23.8222 2.1923C22.3017 0.671763 20.4561 0.195871 18.3727 0.0914062C16.2253 -0.0304687 9.78917 -0.0304687 7.64185 0.0914062C5.56417 0.190067 3.71864 0.66596 2.1923 2.1865C0.66596 3.70703 0.195871 5.55257 0.0914062 7.63605C-0.0304687 9.78337 -0.0304687 16.2195 0.0914062 18.3669C0.190067 20.4503 0.66596 22.2959 2.1923 23.8164C3.71864 25.3369 5.55837 25.8128 7.64185 25.9173C9.78917 26.0392 16.2253 26.0392 18.3727 25.9173C20.4561 25.8186 22.3017 25.3427 23.8222 23.8164C25.3427 22.2959 25.8186 20.4503 25.9231 18.3669C26.045 16.2195 26.045 9.78917 25.9231 7.64185ZM23.149 20.6709C22.6963 21.8084 21.82 22.6847 20.6767 23.1432C18.9646 23.8222 14.9021 23.6655 13.0102 23.6655C11.1182 23.6655 7.04989 23.8164 5.34364 23.1432C4.20614 22.6905 3.3298 21.8142 2.87132 20.6709C2.1923 18.9588 2.349 14.8963 2.349 13.0044C2.349 11.1124 2.1981 7.04408 2.87132 5.33783C3.324 4.20033 4.20033 3.324 5.34364 2.86551C7.05569 2.1865 11.1182 2.34319 13.0102 2.34319C14.9021 2.34319 18.9704 2.1923 20.6767 2.86551C21.8142 3.31819 22.6905 4.19453 23.149 5.33783C23.828 7.04989 23.6713 11.1124 23.6713 13.0044C23.6713 14.8963 23.828 18.9646 23.149 20.6709Z"
        fill="#A1A5AB" />
</svg>