<?xml version="1.0" encoding="UTF-8"?>
<svg width="26" height="22" viewBox="0 0 26 22" fill="none"
    xmlns="http://www.w3.org/2000/svg">
    <path
        d="M24.177 11.8215C26.6077 9.32272 26.6077 5.27603 24.177 2.77726C22.0259 0.565952 18.6358 0.278482 16.1621 2.09618L16.0932 2.14482C15.4737 2.60035 15.3318 3.48488 15.7749 4.11731C16.218 4.74974 17.0784 4.90011 17.6936 4.44458L17.7625 4.39593C19.1435 3.38316 21.0321 3.54237 22.2281 4.77628C23.5833 6.1694 23.5833 8.42493 22.2281 9.81806L17.4011 14.7891C16.0459 16.1822 13.8518 16.1822 12.4966 14.7891C11.2964 13.5552 11.1415 11.6136 12.1267 10.1984L12.174 10.1276C12.6171 9.49078 12.4708 8.60626 11.8556 8.15515C11.2404 7.70405 10.3757 7.84999 9.93688 8.48243L9.88955 8.55319C8.11707 11.0918 8.39671 14.5768 10.5478 16.7881C12.9785 19.2869 16.915 19.2869 19.3457 16.7881L24.177 11.8215ZM1.82303 10.7866C-0.607678 13.2854 -0.607678 17.3321 1.82303 19.8308C3.9741 22.0422 7.36419 22.3296 9.83792 20.5119L9.90676 20.4633C10.5263 20.0078 10.6682 19.1232 10.2251 18.4908C9.782 17.8584 8.92157 17.708 8.30636 18.1635L8.23753 18.2122C6.85654 19.2249 4.9679 19.0657 3.7719 17.8318C2.41673 16.4343 2.41673 14.1787 3.7719 12.7856L8.59891 7.81904C9.95408 6.42591 12.1482 6.42591 13.5034 7.81904C14.7036 9.05294 14.8585 10.9945 13.8733 12.4141L13.826 12.4849C13.3829 13.1217 13.5292 14.0063 14.1444 14.4574C14.7596 14.9085 15.6243 14.7625 16.0631 14.1301L16.1104 14.0593C17.8829 11.5163 17.6033 8.03132 15.4522 5.82001C13.0215 3.32124 9.08505 3.32124 6.65434 5.82001L1.82303 10.7866Z"
        fill="#A1A5AB" />
</svg>