<?xml version="1.0" encoding="UTF-8"?>
<svg width="26" height="27" viewBox="0 0 26 27" fill="none"
    xmlns="http://www.w3.org/2000/svg">
    <path
        d="M25.999 8.84038C25.999 3.20021 22.0362 1.54645 22.0362 1.54645C18.1474 -0.118904 7.8195 -0.101496 3.968 1.54645C3.968 1.54645 0.00454661 3.20021 0.00454661 8.84038C0.00454661 15.554 -0.405981 23.8924 6.57485 25.6158C9.09462 26.2367 11.2598 26.3702 13.0021 26.2773C16.1625 26.1148 17.9359 25.227 17.9359 25.227L17.8301 23.0859C17.8301 23.0859 15.5716 23.7474 13.0332 23.6719C10.5196 23.5907 7.8705 23.4166 7.45811 20.5385C7.41987 20.2711 7.40117 20.0017 7.40213 19.7319C12.7284 20.9447 17.2703 20.26 18.5206 20.1207C22.0113 19.7319 25.0517 17.7242 25.4392 15.8906C26.0488 13.0009 25.999 8.84038 25.999 8.84038ZM21.3265 16.1053H18.426V9.47867C18.426 6.59475 14.4452 6.4845 14.4452 9.87905V13.5057H11.5634V9.87847C11.5634 6.48392 7.58251 6.59417 7.58251 9.47809V16.1047H4.67585C4.67585 9.01968 4.35241 7.5226 5.82097 5.95008C7.43198 4.27312 10.7859 4.16287 12.2793 6.30404L13.0009 7.43556L13.7224 6.30404C15.2221 4.15126 18.5815 4.28472 20.1807 5.95008C21.6555 7.5342 21.3265 9.02606 21.3265 16.1053Z"
        fill="#A1A5AB" />
</svg>