<svg xmlns="http://www.w3.org/2000/svg" width="17" height="17" viewBox="0 0 17 17" fill="none">
    <path
        d="M11.833 6.50033H5.83301V5.16699H11.833V6.50033ZM5.16634 5.16699H3.83301V6.50033H5.16634V5.16699ZM5.16634 3.16699H3.83301V4.50033H5.16634V3.16699ZM7.16634 3.16699H5.83301V4.50033H7.16634V3.16699ZM9.16634 11.8337V13.167H9.83301C10.1997 13.167 10.4997 13.467 10.4997 13.8337H15.1663V15.167H10.4997C10.4997 15.5337 10.1997 15.8337 9.83301 15.8337H7.16634C6.79967 15.8337 6.49967 15.5337 6.49967 15.167H1.83301V13.8337H6.49967C6.49967 13.467 6.79967 13.167 7.16634 13.167H7.83301V11.8337H3.16634C2.42634 11.8337 1.83301 11.2403 1.83301 10.5003V2.50033C1.83301 1.76033 2.43301 1.16699 3.16634 1.16699H13.833C14.573 1.16699 15.1663 1.76033 15.1663 2.50033V10.5003C15.1663 11.2403 14.573 11.8337 13.833 11.8337H9.16634ZM13.833 10.5003V2.50033H3.16634V10.5003H13.833ZM7.83301 4.50033H13.1663V3.16699H7.83301V4.50033ZM3.83301 8.50033H7.83301V7.16699H3.83301V8.50033ZM9.16634 9.83366H13.1663V8.50033H9.16634V9.83366Z"
        fill="#F2F2F2" />
</svg>