<?xml version="1.0" encoding="UTF-8"?>
<svg width="26" height="27" viewBox="0 0 26 27" fill="none"
    xmlns="http://www.w3.org/2000/svg">
    <path
        d="M20.6527 23.8159C18.5047 25.38 15.859 26.3042 13 26.3042C7.3582 26.3042 2.5543 22.7089 0.756641 17.6815C0.878516 17.7679 1.05625 17.8644 1.15781 17.905C1.98555 18.2808 3.19414 17.6308 4.35195 16.4476C4.70234 16.0972 5.0832 15.8179 5.50977 15.569C6.43906 14.9647 7.41914 14.5128 8.47539 14.1878C8.47539 14.1878 9.60781 15.9245 10.6641 17.9862C11.7203 20.0479 9.53164 20.7284 9.28281 20.7284C9.26758 20.7284 9.24219 20.7284 9.20664 20.7233C8.64805 20.6979 5.65195 20.571 6.36289 23.3183C7.11953 26.2331 11.3141 25.1769 13.452 23.7702C15.5898 22.3636 15.0617 17.7628 15.0617 17.7628C17.1488 17.4378 17.8039 19.6468 18.002 20.7792C18.0426 21.0128 18.0578 21.2819 18.073 21.5663C18.1289 22.6429 18.1898 23.8819 19.8656 23.9226C20.1348 23.9226 20.4039 23.8819 20.6527 23.821V23.8159ZM15.8133 22.6124C15.7117 22.587 15.6355 22.4854 15.6609 22.3585C15.7117 22.2315 15.8133 22.1808 15.9148 22.2062C16.0164 22.2315 16.0926 22.3585 16.0672 22.4601C16.0418 22.5616 15.9402 22.6378 15.8133 22.6124ZM5.30156 17.7577C5.37773 17.7323 5.4793 17.8085 5.50469 17.9101C5.50469 18.0116 5.45391 18.1132 5.35234 18.1132C5.27617 18.1386 5.17461 18.0624 5.14922 17.9608C5.12383 17.8847 5.2 17.7831 5.30156 17.7577ZM22.943 21.6831C24.8473 19.4183 26 16.4933 26 13.3042C26 9.87646 24.6746 6.7585 22.5063 4.43271C22.5012 5.62607 22.1965 6.88037 21.6531 7.94678C21.0488 8.97764 19.1648 10.9378 18.1086 11.9433C18.073 11.9585 18.0527 11.989 18.0324 12.0144C18.0223 12.0245 18.0172 12.0347 18.007 12.0448C17.7531 12.3952 17.8039 12.8979 18.1594 13.1519C19.241 13.9542 21.0234 15.4675 21.1758 16.8487C21.3535 18.621 22.5926 20.6878 22.9125 21.2261C22.9531 21.2921 22.9785 21.3327 22.9836 21.3479C22.9836 21.4597 22.9633 21.5663 22.943 21.678V21.6831ZM19.8402 13.0503C19.8148 13.2026 19.891 13.3499 20.0434 13.3753C20.1957 13.4007 20.343 13.3245 20.3684 13.1722C20.3938 13.0198 20.3176 12.8726 20.1652 12.8472C20.0129 12.7964 19.8656 12.8979 19.8402 13.0503ZM22.9582 9.95772L22.3793 10.2319L22.227 10.887L21.9527 10.3081L21.2977 10.1558L21.8766 9.88154L22.0289 9.22646L22.3031 9.80537L22.9582 9.95772ZM20.084 2.40146C19.2613 2.81787 18.9617 4.06709 18.6113 5.51943C18.5961 5.59053 18.5758 5.66162 18.5605 5.73271C18.0781 7.68779 17.0066 7.64209 16.443 7.62178C16.3871 7.62178 16.3414 7.6167 16.2957 7.6167C16.0367 7.6167 15.991 7.41357 15.8438 6.74834C15.7117 6.13389 15.4934 5.12334 14.9348 3.51865C13.782 0.177246 10.7352 1.01006 8.42461 2.39131C5.61641 4.07217 6.67773 7.56592 7.41914 9.97803C7.45469 10.0897 7.49023 10.2015 7.5207 10.3132C7.31758 10.5163 6.81992 10.694 6.20039 10.9175C5.58594 11.1358 4.84961 11.3999 4.15391 11.7757C2.43242 12.6897 0.583984 14.264 0.101562 14.9546C0.0355469 14.4112 0 13.8628 0 13.3042C0 6.12373 5.81953 0.304199 13 0.304199C15.6102 0.304199 18.0477 1.07607 20.084 2.40146ZM2.99102 9.93232C2.91484 9.83076 2.7625 9.77998 2.66602 9.85615C2.56953 9.93232 2.51367 10.0847 2.58984 10.1812C2.66602 10.2776 2.81836 10.3335 2.91484 10.2573C3.0418 10.1812 3.06719 10.0288 2.99102 9.93232ZM16.6207 3.5999C16.7223 3.52373 16.8746 3.57451 16.9457 3.67607C17.0219 3.80303 16.9965 3.95029 16.8695 4.00107C16.768 4.07725 16.6156 4.02646 16.5445 3.9249C16.4734 3.82334 16.5191 3.671 16.6207 3.5999ZM4.8293 5.63623C4.80391 5.7124 4.85469 5.78857 4.93086 5.78857C5.00703 5.81396 5.0832 5.76318 5.0832 5.68701C5.10859 5.61084 5.05781 5.53467 4.98164 5.53467C4.90547 5.53467 4.8293 5.56006 4.8293 5.63623ZM9.13047 5.61084C8.95273 3.42217 11.0145 2.86865 11.0145 2.86865C13.2539 2.08662 13.8582 3.16826 14.3863 4.77803C14.9145 6.38779 14.5387 6.94131 12.4262 7.76904C10.3137 8.59678 9.28281 7.54053 9.13047 5.60576V5.61084ZM13.6805 6.36748H13.7312C13.8582 6.36748 13.9852 6.26592 13.9852 6.11357C14.0867 5.76318 14.0359 5.38232 13.8836 5.05732C13.8074 4.95576 13.6805 4.87959 13.5586 4.93037C13.4062 4.98115 13.3301 5.1335 13.3809 5.28076C13.4824 5.50928 13.5332 5.7835 13.457 6.0374C13.4316 6.18975 13.5332 6.33701 13.6855 6.3624L13.6805 6.36748ZM13.1777 4.25498C13.0762 4.25498 12.9746 4.2042 12.9238 4.10264C12.873 4.00107 12.8223 3.9249 12.7715 3.84873C12.6699 3.74717 12.6699 3.57451 12.7715 3.47295C12.873 3.37139 13.0457 3.37139 13.1473 3.47295C13.2488 3.5999 13.325 3.72686 13.4012 3.84873C13.4773 3.97061 13.4266 4.14834 13.2742 4.22451C13.2437 4.22451 13.2234 4.23467 13.2082 4.23975C13.198 4.24482 13.1879 4.2499 13.1777 4.2499V4.25498Z"
        fill="#A1A5AB" />
</svg>