<svg xmlns="http://www.w3.org/2000/svg" width="16" height="17" viewBox="0 0 16 17" fill="none">
    <path
        d="M13.333 9.83301H3.99967C2.53301 9.83301 1.33301 11.033 1.33301 12.4997C1.33301 13.9663 2.53301 15.1663 3.99967 15.1663H13.333C14.0663 15.1663 14.6663 14.5663 14.6663 13.833V11.1663C14.6663 10.433 14.0663 9.83301 13.333 9.83301ZM3.99967 13.833C3.26634 13.833 2.66634 13.233 2.66634 12.4997C2.66634 11.7663 3.26634 11.1663 3.99967 11.1663C4.73301 11.1663 5.33301 11.7663 5.33301 12.4997C5.33301 13.233 4.73301 13.833 3.99967 13.833ZM4.19967 8.49967L8.66634 4.03301C9.19967 3.49967 9.99967 3.49967 10.533 4.03301L12.3997 5.89967C12.933 6.43301 12.933 7.23301 12.3997 7.76634L11.7997 8.49967H4.19967ZM1.33301 9.49967V3.16634C1.33301 2.43301 1.93301 1.83301 2.66634 1.83301H5.33301C6.06634 1.83301 6.66634 2.43301 6.66634 3.16634V4.16634L1.33301 9.49967Z"
        fill="#EBD3F0" />
</svg>