<?xml version="1.0" encoding="UTF-8"?>
<svg width="25" height="26" viewBox="0 0 25 26" fill="none"
    xmlns="http://www.w3.org/2000/svg">
    <path fill-rule="evenodd" clip-rule="evenodd"
        d="M15.2993 14.2847C16.343 13.5208 16.343 12.045 15.2993 11.2613C13.797 10.1236 12.1675 9.16467 10.4435 8.40377C10.1648 8.28093 9.86186 8.22302 9.55752 8.23438C9.25318 8.24575 8.95539 8.32611 8.68664 8.46938C8.42243 8.61019 8.19509 8.81123 8.02302 9.05624C7.85366 9.29734 7.74571 9.57614 7.70855 9.86843C7.41497 11.7458 7.36089 13.6529 7.5476 15.5439C7.57607 15.8323 7.67636 16.1109 7.83731 16.3561C7.99826 16.6012 8.21864 16.8067 8.47864 16.9565C8.74023 17.1071 9.03252 17.1965 9.33358 17.2179C9.63464 17.2393 9.93665 17.1923 10.2169 17.0803C12.0212 16.3686 13.7287 15.4326 15.2993 14.2946V14.2847ZM23.1043 8.71329C23.6458 9.24158 24.0772 9.87214 24.3732 10.5684C24.6693 11.2646 24.8242 12.0127 24.8289 12.7693C24.8281 13.5257 24.6771 14.2743 24.3846 14.9719C24.0922 15.6694 23.6641 16.3019 23.1253 16.8327C19.1263 20.8454 13.9931 23.6534 8.35483 24.9113C6.92574 25.2598 5.4185 25.0726 4.11807 24.3851C2.84229 23.7163 1.87274 22.5823 1.41036 21.2181C-0.311832 15.8534 -0.0530703 9.78672 1.60474 4.401C2.00309 3.01656 2.92322 1.84076 4.17131 1.12129C5.44501 0.383643 6.94586 0.141214 8.38702 0.440338C13.9213 1.65739 19.1213 4.77367 23.1043 8.71453V8.71329Z"
        fill="#A1A5AB" />
</svg>