<?xml version="1.0" encoding="UTF-8"?>
<svg viewBox="0 0 32 32" height="18px" width="18px" version="1.1" xmlns="http://www.w3.org/2000/svg" xmlns:xlink="http://www.w3.org/1999/xlink">
    <path style="fill:white" d="m23.5 16.5a1.5 1.5 0 1 1 0-3 1.5 1.5 0 0 1 0 3m-7.5 0a1.5 1.5 0 1 1 0-3 1.5 1.5 0 0 1 0 3m-7.5 0a1.5 1.5 0 1 1 0-3 1.5 1.5 0 0 1 0 3m7.5-14.5c-8.82 0-16 5.94-16 13.32 0 2.9 1.12 5.64 3.14 7.92l-.43 6.23a.5.5 0 0 0 .69.5l6.08-2.51c1.99.78 4.21 1.19 6.52 1.19 8.82 0 16-5.94 16-13.32s-7.18-13.33-16-13.32" fill-rule="evenodd"></path>
</svg>