<?xml version="1.0" encoding="UTF-8"?>
<svg width="26" height="25" viewBox="0 0 26 25" fill="none"
    xmlns="http://www.w3.org/2000/svg">
    <path
        d="M25.2349 17.9206C25.0636 17.4546 24.7372 17.2053 24.3659 16.9988C24.296 16.9578 24.2318 16.9251 24.177 16.8999C24.0662 16.8426 23.9529 16.7872 23.8401 16.7286C22.6823 16.1147 21.7779 15.3402 21.1508 14.4221C20.9727 14.1637 20.8182 13.8897 20.6892 13.6035C20.6357 13.4505 20.6385 13.3636 20.6767 13.2843C20.7147 13.2231 20.7651 13.1706 20.8246 13.13C21.0236 12.9984 21.2288 12.8649 21.368 12.7749C21.6161 12.6143 21.8125 12.4871 21.9391 12.3971C22.4145 12.0646 22.747 11.7115 22.9547 11.3166C23.0997 11.0438 23.1843 10.743 23.2027 10.4347C23.2211 10.1263 23.1729 9.81758 23.0613 9.52951C22.7465 8.70086 21.9638 8.1864 21.0155 8.1864C20.8155 8.18623 20.616 8.20734 20.4205 8.24937C20.3682 8.26074 20.3159 8.27268 20.2649 8.28593C20.2738 7.71921 20.2612 7.12101 20.2108 6.53225C20.0319 4.46251 19.3072 3.37757 18.5516 2.51241C18.0678 1.97024 17.4979 1.51156 16.8648 1.15482C15.7179 0.499945 14.4177 0.16748 13.0004 0.16748C11.583 0.16748 10.2886 0.499945 9.14098 1.15482C8.50635 1.51168 7.93525 1.97126 7.45093 2.51489C6.6953 3.38011 5.97055 4.46693 5.79175 6.53479C5.74138 7.12355 5.72878 7.72485 5.73696 8.28842C5.68618 8.27521 5.63433 8.26303 5.58203 8.25191C5.38649 8.20985 5.18703 8.18874 4.98702 8.18894C4.03807 8.18894 3.25411 8.7034 2.94054 9.53205C2.82846 9.82022 2.77973 10.1291 2.79766 10.4378C2.81559 10.7465 2.89975 11.0477 3.04444 11.321C3.25289 11.7157 3.58536 12.069 4.06077 12.4015C4.18671 12.4897 4.38379 12.6168 4.63186 12.7793C4.76597 12.8662 4.96194 12.9934 5.15389 13.1206C5.2211 13.164 5.27823 13.2213 5.32147 13.2887C5.36179 13.3712 5.36301 13.46 5.30319 13.6239C5.17596 13.904 5.02403 14.1723 4.8492 14.4254C4.23592 15.3227 3.35811 16.0833 2.23732 16.6923C1.64338 17.0069 1.02614 17.2173 0.765577 17.9257C0.569155 18.4603 0.697581 19.0686 1.19691 19.5812C1.38017 19.7725 1.59273 19.9334 1.8266 20.0578C2.3132 20.3253 2.83063 20.5323 3.36741 20.6743C3.47819 20.7028 3.58336 20.7499 3.67849 20.8135C3.86044 20.9728 3.83464 21.2127 4.07707 21.564C4.19875 21.7456 4.35337 21.9028 4.53294 22.0275C5.04171 22.3788 5.61346 22.4009 6.21923 22.4241C6.76645 22.445 7.38664 22.4689 8.09504 22.7025C8.38845 22.7995 8.69324 22.9871 9.04648 23.2062C9.89468 23.7275 11.0558 24.4409 12.999 24.4409C14.9422 24.4409 16.1115 23.7237 16.9659 23.2004C17.3167 22.9851 17.6196 22.7993 17.9048 22.7049C18.6132 22.4707 19.2334 22.4473 19.7806 22.4266C20.3863 22.4033 20.9581 22.3812 21.4669 22.0299C21.6795 21.8816 21.8567 21.688 21.9857 21.4632C22.1601 21.1666 22.1558 20.9595 22.3195 20.8146C22.4087 20.7541 22.5075 20.709 22.6116 20.6811C23.1557 20.5386 23.6802 20.3297 24.1732 20.059C24.4217 19.9257 24.6454 19.7506 24.8344 19.5414L24.8407 19.5338C25.3092 19.0327 25.4269 18.442 25.2349 17.9206ZM23.5077 18.8487C22.4542 19.4306 21.754 19.3682 21.2093 19.719C20.7465 20.0168 21.0204 20.6591 20.6842 20.8908C20.2711 21.176 19.0502 20.8705 17.4728 21.3914C16.1719 21.8215 15.342 23.0581 13.0021 23.0581C10.6623 23.0581 9.85187 21.8242 8.52952 21.3883C6.9553 20.8675 5.73188 21.1729 5.31817 20.8877C4.98255 20.6559 5.2552 20.0137 4.79304 19.7158C4.2477 19.3651 3.54753 19.4274 2.49468 18.8487C1.82406 18.4785 2.20441 18.2495 2.42795 18.141C6.24381 16.2935 6.85267 13.4411 6.87974 13.2295C6.91249 12.9732 6.94901 12.7717 6.66692 12.511C6.39427 12.2592 5.18466 11.5106 4.84895 11.2762C4.29355 10.8884 4.04924 10.5011 4.22942 10.0251C4.35535 9.69577 4.66263 9.57171 4.98499 9.57171C5.0869 9.57202 5.18847 9.58343 5.2879 9.60573C5.89728 9.73777 6.48933 10.0433 6.83125 10.1258C6.87242 10.1364 6.91468 10.1421 6.95718 10.1428C7.13999 10.1428 7.20398 10.0509 7.19139 9.84187C7.15239 9.17501 7.05793 7.87536 7.16305 6.66073C7.30727 4.98957 7.84565 4.16153 8.48539 3.42921C8.79267 3.0772 10.2365 1.55152 12.9977 1.55152C15.7588 1.55152 17.2064 3.0709 17.5137 3.42164C18.1541 4.15396 18.6931 4.982 18.836 6.65316C18.9412 7.8678 18.8505 9.1681 18.8077 9.8343C18.7932 10.054 18.8593 10.1353 19.042 10.1353C19.0845 10.1346 19.1267 10.1289 19.1679 10.1183C19.5104 10.0358 20.1023 9.7304 20.7116 9.59817C20.8111 9.57587 20.9126 9.56446 21.0145 9.56414C21.3388 9.56414 21.6442 9.69008 21.7701 10.0175C21.9502 10.4935 21.7072 10.8808 21.1512 11.2687C20.8155 11.5029 19.6059 12.251 19.3332 12.5035C19.0504 12.7642 19.0876 12.9656 19.1204 13.222C19.1474 13.4367 19.7557 16.2892 23.5721 18.1334C23.7979 18.2462 24.1783 18.4753 23.5077 18.8487Z"
        fill="#A1A5AB" />
</svg>