<?xml version="1.0" encoding="UTF-8"?>
<svg width="26" height="27" viewBox="0 0 26 27" fill="none"
    xmlns="http://www.w3.org/2000/svg">
    <path
        d="M13 0.303955C5.82379 0.303955 0 6.12775 0 13.304C0 20.4802 5.82379 26.304 13 26.304C20.1762 26.304 26 20.4802 26 13.304C26 6.12775 20.1762 0.303955 13 0.303955ZM18.2786 19.4318C18.0585 19.4318 17.9222 19.3636 17.7177 19.2431C14.4468 17.2721 10.6411 17.1882 6.88266 17.9588C6.67823 18.0112 6.41089 18.0951 6.25887 18.0951C5.7504 18.0951 5.43064 17.6915 5.43064 17.2669C5.43064 16.7269 5.7504 16.4701 6.14355 16.3862C10.4367 15.4374 14.8242 15.5213 18.5669 17.7596C18.8867 17.964 19.0754 18.1475 19.0754 18.6245C19.0754 19.1015 18.7032 19.4318 18.2786 19.4318ZM19.6887 15.9931C19.4161 15.9931 19.2327 15.8725 19.044 15.7729C15.7677 13.8334 10.8823 13.0523 6.53669 14.2318C6.28508 14.2999 6.14879 14.3681 5.9129 14.3681C5.35202 14.3681 4.89597 13.912 4.89597 13.3511C4.89597 12.7902 5.16855 12.4181 5.70847 12.2661C7.16573 11.8572 8.65444 11.5531 10.8351 11.5531C14.2371 11.5531 17.5238 12.3971 20.1133 13.9382C20.5379 14.1898 20.7056 14.5148 20.7056 14.9709C20.7004 15.537 20.2601 15.9931 19.6887 15.9931ZM21.3137 11.9987C21.0411 11.9987 20.8734 11.9306 20.6375 11.7943C16.9052 9.56645 10.2323 9.03178 5.9129 10.2374C5.72419 10.2898 5.48831 10.3737 5.23669 10.3737C4.54476 10.3737 4.01532 9.83379 4.01532 9.13662C4.01532 8.42371 4.45564 8.02008 4.92742 7.88379C6.77258 7.34387 8.8379 7.08702 11.0867 7.08702C14.9133 7.08702 18.9234 7.88379 21.8536 9.59266C22.2625 9.82855 22.5298 10.1536 22.5298 10.7773C22.5298 11.4902 21.9532 11.9987 21.3137 11.9987Z"
        fill="#A1A5AB" />
</svg>