<?xml version="1.0" encoding="UTF-8"?>
<svg width="26" height="31" viewBox="0 0 26 31" fill="none"
    xmlns="http://www.w3.org/2000/svg">
    <path
        d="M19.8257 13.8276C19.9642 13.8843 20.09 13.9472 20.2222 14.0039C22.06 14.8913 23.4069 16.2193 24.1118 17.8683C25.1 20.1656 25.1944 23.8978 22.2048 26.8811C19.9264 29.1595 17.1508 30.1854 13.2297 30.2169H13.2108C8.79254 30.1854 5.40014 28.7001 3.11547 25.7986C1.08255 23.2181 0.0377633 19.6243 0 15.1242V15.1053V15.0927C0.0314694 10.5926 1.07625 6.99879 3.10917 4.4183C5.39385 1.51682 8.79254 0.0314694 13.2108 0H13.2297C17.6543 0.0314694 21.0908 1.51053 23.4447 4.39942C24.6028 5.82813 25.4587 7.54636 26 9.54152L23.4573 10.2213C23.0104 8.59743 22.337 7.21278 21.4306 6.10506C19.5928 3.85185 16.8361 2.69378 13.2171 2.6686C9.62963 2.70007 6.91697 3.85185 5.14839 6.09247C3.4994 8.18833 2.64343 11.222 2.61196 15.1053C2.64343 18.9886 3.4994 22.0223 5.14839 24.1244C6.91068 26.365 9.62963 27.5168 13.2171 27.5483C16.4522 27.5231 18.5921 26.7553 20.3733 24.9741C22.4062 22.9475 22.3684 20.4551 21.7202 18.9383C21.3362 18.0445 20.6439 17.3019 19.7124 16.7417C19.4795 18.4348 18.9697 19.7817 18.1578 20.8201C17.0816 22.1922 15.5522 22.9349 13.5822 23.0419C12.0968 23.1237 10.6681 22.7649 9.5604 22.0349C8.25127 21.1663 7.48342 19.8446 7.4016 18.3026C7.24425 15.2626 9.64851 13.0787 13.3934 12.8647C14.7214 12.7892 15.9676 12.8458 17.1193 13.0409C16.9683 12.1094 16.6599 11.3667 16.2004 10.8255C15.571 10.0891 14.5892 9.71145 13.2927 9.70516H13.2486C12.2038 9.70516 10.794 9.99467 9.89397 11.3604L7.72888 9.87509C8.9373 8.04357 10.8947 7.03655 13.2549 7.03655H13.3053C17.2452 7.06173 19.5928 9.52263 19.832 13.8151L19.8194 13.8276H19.8257ZM10.0073 18.1578C10.0891 19.7376 11.7947 20.474 13.4437 20.3796C15.055 20.2915 16.8802 19.6621 17.1886 15.7725C16.3578 15.5899 15.4389 15.4955 14.457 15.4955C14.1549 15.4955 13.8528 15.5018 13.5507 15.5207C10.8506 15.6717 9.95062 16.9809 10.0136 18.1515L10.0073 18.1578Z"
        fill="#A1A5AB" />
</svg>