<?xml version="1.0" encoding="UTF-8"?>
<svg width="26" height="31" viewBox="0 0 26 31" fill="none"
    xmlns="http://www.w3.org/2000/svg">
    <path
        d="M26.0003 12.4865C23.4452 12.4926 20.9529 11.6958 18.8752 10.2086V20.5807C18.8745 22.5018 18.2874 24.3768 17.1922 25.9551C16.0971 27.5334 14.5462 28.7398 12.747 29.4129C10.9477 30.086 8.98589 30.1938 7.12374 29.7218C5.26158 29.2498 3.58791 28.2206 2.3265 26.7717C1.06509 25.3228 0.276079 23.5234 0.0649616 21.614C-0.146156 19.7046 0.230687 17.7763 1.1451 16.0868C2.05951 14.3974 3.46791 13.0273 5.18197 12.16C6.89603 11.2926 8.83404 10.9691 10.7369 11.2329V16.4497C9.86614 16.1758 8.93112 16.1841 8.06535 16.4733C7.19957 16.7625 6.44732 17.3179 5.91602 18.0601C5.38472 18.8024 5.10154 19.6935 5.10691 20.6063C5.11229 21.5191 5.40595 22.4069 5.94596 23.1428C6.48597 23.8787 7.24471 24.4252 8.11383 24.7042C8.98295 24.9832 9.918 24.9804 10.7855 24.6963C11.6529 24.4122 12.4084 23.8612 12.9441 23.1221C13.4797 22.383 13.7681 21.4935 13.7681 20.5807V0.304199H18.8752C18.8717 0.735486 18.9078 1.16618 18.9832 1.59085C19.1606 2.53885 19.5296 3.44069 20.0676 4.24119C20.6056 5.04169 21.3012 5.72403 22.1119 6.24648C23.2653 7.00912 24.6175 7.41561 26.0003 7.41532V12.4865Z"
        fill="#A1A5AB" />
</svg>