<?xml version="1.0" encoding="UTF-8"?>
<svg width="19px" height="19px" viewBox="0 0 19 19" version="1.1" xmlns="http://www.w3.org/2000/svg" xmlns:xlink="http://www.w3.org/1999/xlink">
    <!-- Generator: Sketch 62 (91390) - https://sketch.com -->
    <title>iconfinder_image_227584</title>
    <desc>Created with Sketch.</desc>
    <g id="Symbols" stroke="none" stroke-width="1" fill="none" fill-rule="evenodd">
        <g id="elements/post/comment/active" transform="translate(-420.000000, -11.000000)" fill="#9B9B9B" fill-rule="nonzero">
            <g id="iconfinder_image_227584" transform="translate(420.000000, 11.000000)">
                <path d="M16.4090909,0 L2.59090909,0 C1.16007955,0 0,1.16007955 0,2.59090909 L0,16.4090909 C0,17.8399205 1.16007955,19 2.59090909,19 L16.4090909,19 C17.8399205,19 19,17.8399205 19,16.4090909 L19,2.59090909 C19,1.16007955 17.8399205,0 16.4090909,0 Z M1.72727273,16.4090909 L1.72727273,2.59090909 C1.72727273,2.11375 2.11375,1.72727273 2.59090909,1.72727273 L16.4090909,1.72727273 C16.88625,1.72727273 17.2727273,2.11375 17.2727273,2.59090909 L17.2727273,11.7333636 L12.9545455,7.41518182 L3.09678409,17.2727273 L2.59090909,17.2727273 C2.11375,17.2727273 1.72727273,16.88625 1.72727273,16.4090909 Z M16.4090909,17.2727273 L5.53957955,17.2727273 L12.9545455,9.85776136 L17.2727273,14.1757273 L17.2727273,16.4090909 C17.2727273,16.88625 16.88625,17.2727273 16.4090909,17.2727273 Z" id="Shape"></path>
                <path d="M5.7,3.04 C4.231015,3.04 3.04,4.231015 3.04,5.7 C3.04,7.168985 4.231015,8.36 5.7,8.36 C7.168985,8.36 8.36,7.168985 8.36,5.7 C8.36,4.231015 7.168985,3.04 5.7,3.04 Z M5.7,6.58666667 C5.21033833,6.58666667 4.81333333,6.18966167 4.81333333,5.7 C4.81333333,5.21033833 5.21033833,4.81333333 5.7,4.81333333 C6.18966167,4.81333333 6.58666667,5.21033833 6.58666667,5.7 C6.58666667,6.18966167 6.18966167,6.58666667 5.7,6.58666667 Z" id="Shape"></path>
            </g>
        </g>
    </g>
</svg>