<?xml version="1.0" encoding="UTF-8"?>
<svg xmlns="http://www.w3.org/2000/svg" width="16" height="16" viewBox="0 0 16 16" fill="none">
    <path
        d="M10.9997 7.99967C10.9997 7.54634 10.9597 7.10634 10.9063 6.66634H13.1597C13.2663 7.09301 13.333 7.53967 13.333 7.99967C13.333 8.24634 13.313 8.48634 13.2797 8.71967C13.7397 8.78634 14.1663 8.93301 14.5597 9.14634C14.6263 8.77301 14.6663 8.39301 14.6663 7.99967C14.6663 4.33301 11.6663 1.33301 7.99967 1.33301C4.31301 1.33301 1.33301 4.33301 1.33301 7.99967C1.33301 11.6663 4.33301 14.6663 7.99967 14.6663C8.39301 14.6663 8.77301 14.6263 9.14634 14.5597C8.83967 13.9997 8.66634 13.353 8.66634 12.6663C8.66634 12.473 8.68634 12.2863 8.71301 12.0997C8.49967 12.5197 8.26634 12.9263 7.99967 13.3063C7.44634 12.5063 6.99967 11.6197 6.72634 10.6663H9.20634C9.60634 9.97301 10.2063 9.41301 10.933 9.06634C10.973 8.71301 10.9997 8.35967 10.9997 7.99967ZM7.99967 2.68634C8.55301 3.48634 8.99967 4.37967 9.27301 5.33301H6.72634C6.99967 4.37967 7.44634 3.48634 7.99967 2.68634ZM2.83967 9.33301C2.73301 8.90634 2.66634 8.45967 2.66634 7.99967C2.66634 7.53967 2.73301 7.09301 2.83967 6.66634H5.09301C5.03967 7.10634 4.99967 7.54634 4.99967 7.99967C4.99967 8.45301 5.03967 8.89301 5.09301 9.33301H2.83967ZM3.38634 10.6663H5.33301C5.56634 11.4997 5.86634 12.2997 6.26634 13.0397C5.04634 12.6197 4.01967 11.7663 3.38634 10.6663ZM5.33301 5.33301H3.38634C4.01967 4.22634 5.04634 3.37301 6.26634 2.95967C5.86634 3.69967 5.56634 4.49967 5.33301 5.33301ZM9.55968 9.33301H6.43967C6.37301 8.89301 6.33301 8.45301 6.33301 7.99967C6.33301 7.54634 6.37301 7.09967 6.43967 6.66634H9.55968C9.61967 7.09967 9.66634 7.54634 9.66634 7.99967C9.66634 8.45301 9.61967 8.89301 9.55968 9.33301ZM9.72634 2.95967C10.953 3.37967 11.973 4.22634 12.613 5.33301H10.6463C10.433 4.49967 10.1263 3.69967 9.72634 2.95967ZM15.333 11.9997V13.333H13.333V15.333H11.9997V13.333H9.99967V11.9997H11.9997V9.99967H13.333V11.9997H15.333Z"
        fill="#EBD3F0" />
</svg>