<?xml version="1.0" encoding="UTF-8"?>
<svg version="1.1" viewBox="0 0 21 19" xmlns="http://www.w3.org/2000/svg">
<g fill="none" fill-rule="evenodd">
<g transform="translate(-37 -1)" fill="#7D7D82" fill-rule="nonzero">
<g transform="translate(37 1)">
<path id="a" d="m15.306 6.0523c-2.8213 0-5.6809-1.0381-5.6809-3.0136s2.8596-3.0136 5.6809-3.0136 5.6809 1.0381 5.6809 3.0136-2.8596 3.0136-5.6809 3.0136zm0-4.3033c-2.5532 0-3.9319 0.91854-3.9319 1.2897 0 0.37748 1.3787 1.2897 3.9319 1.2897s3.9319-0.91854 3.9319-1.2897c0-0.37748-1.3787-1.2897-3.9319-1.2897z"/>
<path id="Path" d="m15.306 9.5c-2.8213 0-5.6809-1.0381-5.6809-3.0136v-3.4477h1.7489v3.4477c0 0.37748 1.3787 1.2897 3.9319 1.2897s3.9319-0.91854 3.9319-1.2897v-3.4477h1.7489v3.4477c0 1.9755-2.8596 3.0136-5.6809 3.0136z"/>
<path id="Path" d="m15.306 12.941c-2.8213 0-5.6809-1.0381-5.6809-3.0136v-3.4477h1.7489v3.4477c0 0.37748 1.3787 1.2897 3.9319 1.2897s3.9319-0.91854 3.9319-1.2897v-3.4477h1.7489v3.4477c0 1.9818-2.8596 3.0136-5.6809 3.0136z"/>
<path id="Path" d="m15.306 16.389c-2.8213 0-5.6809-1.0381-5.6809-3.0136v-3.4477h1.7489v3.4477c0 0.37748 1.3787 1.2897 3.9319 1.2897s3.9319-0.91854 3.9319-1.2897v-3.4477h1.7489v3.4477c0 1.9755-2.8596 3.0136-5.6809 3.0136z"/>
<path d="m5.6936 12.079c-2.8213 0-5.6809-1.0381-5.6809-3.0136 0-1.9755 2.8596-3.0136 5.6809-3.0136 2.8213 0 5.6809 1.0381 5.6809 3.0136 0 1.9755-2.8596 3.0136-5.6809 3.0136zm0-4.3033c-2.5532 0-3.9319 0.91854-3.9319 1.2897 0 0.37748 1.3787 1.2897 3.9319 1.2897s3.9319-0.91854 3.9319-1.2897-1.3787-1.2897-3.9319-1.2897z"/>
<path id="b" d="m5.6936 15.527c-2.8213 0-5.6809-1.0381-5.6809-3.0136v-3.4477h1.7489v3.4477c0 0.37748 1.3787 1.2897 3.9319 1.2897s3.9319-0.91854 3.9319-1.2897v-3.4477h1.7489v3.4477c0 1.9755-2.8596 3.0136-5.6809 3.0136z"/>
<path d="m5.6936 18.969c-2.8213 0-5.6809-1.0381-5.6809-3.0136v-3.4477h1.7489v3.4477c0 0.37748 1.3787 1.2897 3.9319 1.2897s3.9319-0.91854 3.9319-1.2897v-3.4477h1.7489v3.4477c0 1.9818-2.8596 3.0136-5.6809 3.0136z"/>
</g>
</g>
</g>
</svg>
