<?xml version="1.0" encoding="UTF-8"?>
<svg width="26" height="19" viewBox="0 0 26 19" fill="none"
    xmlns="http://www.w3.org/2000/svg">
    <path
        d="M25.4567 2.86039C25.1577 1.73448 24.2767 0.847744 23.158 0.546818C21.1304 0 13 0 13 0C13 0 4.86961 0 2.84197 0.546818C1.72334 0.847792 0.842317 1.73448 0.543295 2.86039C0 4.90118 0 9.15909 0 9.15909C0 9.15909 0 13.417 0.543295 15.4578C0.842317 16.5837 1.72334 17.4335 2.84197 17.7344C4.86961 18.2812 13 18.2812 13 18.2812C13 18.2812 21.1304 18.2812 23.158 17.7344C24.2767 17.4335 25.1577 16.5837 25.4567 15.4578C26 13.417 26 9.15909 26 9.15909C26 9.15909 26 4.90118 25.4567 2.86039ZM10.3409 13.0249V5.29322L17.1363 9.15918L10.3409 13.0249Z"
        fill="#A1A5AB" />
</svg>