<svg version="1.1" id="Icons_1_" xmlns="http://www.w3.org/2000/svg" x="0" y="0" viewBox="0 0 517 443" xml:space="preserve"><g id="Single_Color"><path id="XMLID_3_" d="M154 203.4c0 0 2.2 3.3 5.1 7.7 0.2 0.3 0.4 0.7 0.7 1.1 0.1 0.1 0.2 0.2 0.3 0.3 5.1 7.7 11.8 18 14 21.7 3.7 6.3 12.3 24.8 14.9 38.2 1.1 5.6 1.8 14.5 2.9 21.8 22.5 11.5 47.8 21.7 66.6 21.7 21.4 0 46.8-10.8 66.6-21.8 1.1-7.2 1.7-16.1 2.9-21.7 2.7-13.4 11.3-31.9 14.9-38.2 2.3-4 9.9-15.5 15-23.3 1.1-1.6 2.2-3.2 3.2-4.9 1.1-1.6 1.8-2.7 1.8-2.7l-0.2 0c11-18.3 17.4-39.6 17.4-62.5 0-67.2-54.5-121.7-121.7-121.7 -67.2 0-121.7 54.5-121.7 121.7 0 22.9 6.6 44.2 17.6 62.5L154 203.4zM258.5 346.5c-15.7 0-33.5-4.8-50.8-11.6 -0.2 19.5-0.3 48.3 3.8 56.3 3.7 7.1 27.1 32.2 29.7 32.5 4.1 0.5 11.5-0.2 15-0.4 0.5 0 2.2-0.1 2.2-0.1s1.7 0.1 2.2 0.1c3.5 0.1 10.9 0.8 15 0.4 2.6-0.3 26.1-25.4 29.7-32.5 4-7.9 4.1-36.2 3.8-55.7C293.1 341.8 275.5 346.5 258.5 346.5z"/></g></svg>