<svg version="1.1" id="Icons_1_" xmlns="http://www.w3.org/2000/svg" x="0" y="0" viewBox="0 0 517 443" xml:space="preserve"><path id="Circle_Inverted" d="M258.5 18.8c-111.9 0-202.7 90.7-202.7 202.7s90.7 202.7 202.7 202.7c111.9 0 202.7-90.7 202.7-202.7S370.4 18.8 258.5 18.8zM292.3 343.8c-2.6 5.1-19.5 23.2-21.4 23.4 -2.9 0.3-8.3-0.2-10.8-0.3 -0.3 0-1.6-0.1-1.6-0.1s-1.3 0-1.6 0.1c-2.5 0.1-7.9 0.6-10.8 0.3 -1.9-0.2-18.8-18.3-21.4-23.4 -2.9-5.7-2.9-26.5-2.7-40.5 12.5 4.9 25.3 8.3 36.6 8.3 12.2 0 24.9-3.4 36.6-7.9C295.3 317.7 295.2 338.1 292.3 343.8zM333.8 208.4c0 0-0.5 0.8-1.3 2 -0.8 1.2-1.5 2.4-2.3 3.5 -3.7 5.6-9.2 13.9-10.8 16.8 -2.6 4.5-8.8 17.9-10.8 27.5 -0.8 4-1.3 10.4-2.1 15.6 -14.3 7.9-32.6 15.7-48 15.7 -13.5 0-31.8-7.3-48-15.6 -0.8-5.2-1.3-11.7-2.1-15.7 -1.9-9.7-8.1-23-10.8-27.5 -1.6-2.7-6.4-10.1-10.1-15.7 -0.1-0.1-0.1-0.2-0.2-0.2 -0.2-0.2-0.3-0.5-0.5-0.8 -2.1-3.2-3.7-5.6-3.7-5.6l0.3 0c-7.9-13.2-12.7-28.5-12.7-45 0-48.4 39.3-87.7 87.7-87.7 48.4 0 87.7 39.3 87.7 87.7 0 16.5-4.6 31.8-12.5 45L333.8 208.4z"/></svg>