<?xml version="1.0" encoding="UTF-8" standalone="no"?>
<!DOCTYPE svg PUBLIC "-//W3C//DTD SVG 1.1//EN" "http://www.w3.org/Graphics/SVG/1.1/DTD/svg11.dtd">
<svg width="100%" height="100%" viewBox="0 0 199 43" version="1.1" xmlns="http://www.w3.org/2000/svg" xmlns:xlink="http://www.w3.org/1999/xlink" xml:space="preserve" xmlns:serif="http://www.serif.com/" style="fill-rule:evenodd;clip-rule:evenodd;stroke-linejoin:round;stroke-miterlimit:1.41421;">
    <g transform="matrix(1,0,0,1,-39253.7,-2349.83)">
        <g transform="matrix(1,0,0,1,-0.0227103,-0.142958)">
            <g transform="matrix(0.36804,0,0,1.03336,34234.6,1060.01)">
                <g transform="matrix(0.66056,0,0,0.235264,-127.414,-1479.67)">
                    <g id="FLAT">
                        <path d="M21262,11646C21270.3,11646 21278.5,11647.3 21286.6,11649L21289.2,11649.5L21289.2,11660.1C21277.8,11655.7 21265.2,11653.6 21252.6,11655.1C21247,11655.7 21239.8,11657.6 21240.7,11661.8C21241.5,11665.7 21248.8,11666.8 21253.6,11667.9C21264.8,11670.6 21276.6,11671.3 21286.8,11676.8C21292.6,11680.1 21296.8,11687.2 21293.1,11693.6C21288,11702.5 21275,11703.6 21264.9,11704C21254.3,11704.4 21243.6,11703.4 21233.3,11700.7L21232.5,11700.5L21230.4,11699.9L21230.4,11688.8C21242.6,11694.6 21256.8,11696.7 21271.6,11694.8C21276.9,11694.1 21284.6,11693 21283.9,11687.6C21283.2,11682.5 21273.4,11681.1 21265.8,11679.6C21256.2,11677.6 21246.2,11676.6 21237.7,11672.1C21233.4,11669.7 21229.8,11665.6 21230.1,11660.7C21230.3,11657 21232.5,11653.7 21235.6,11651.5C21243.1,11646.3 21253,11645.9 21262,11646ZM21481.3,11703.1L21470.9,11703.1L21470.9,11646.9C21482.4,11646.9 21494,11646.9 21505.5,11646.9C21515.5,11647 21526.7,11647.4 21532.2,11655.4C21536.9,11662.2 21534.8,11673 21526.9,11677.2C21525.2,11678.2 21523.3,11678.8 21521.4,11679.3L21521,11679.4L21543.6,11703.1L21530,11703.1L21509.5,11680.9C21509.2,11681 21481.3,11681 21481.3,11681L21481.3,11703.1ZM21620.5,11703.1L21610.1,11703.1L21610.1,11679.9L21576.9,11646.9L21590.3,11646.9C21592.4,11649 21594.6,11651.2 21596.8,11653.4L21610.5,11667C21612.7,11669.2 21614.9,11671.4 21617,11673.5C21615.8,11672.3 21617.2,11669.9 21618.1,11669.1L21640.3,11646.9L21653.7,11646.9L21620.5,11679.9L21620.5,11703.1ZM21173.3,11703.1L21163,11703.1L21163,11646.9L21173.3,11646.9L21173.3,11703.1ZM21078.3,11703.1L21067,11703.1L21032.4,11646.9L21044.2,11646.9C21053.8,11662.3 21064.9,11680.4 21074.5,11695.9C21073.4,11694.1 21074.7,11690.3 21075.9,11688.2L21101.4,11646.9L21113.2,11646.9L21078.3,11703.1ZM21422.1,11703.1L21410.3,11703.1L21400,11687.3C21398.5,11688.6 21396.4,11689.5 21394.2,11689.5L21360.7,11689.5L21355.7,11697.1L21351.8,11703.1L21340.1,11703.1L21376.4,11646.9L21385.7,11646.9L21422.1,11703.1ZM21395.7,11680.6L21381.1,11657.9C21378.8,11661.4 21372.6,11671.1 21366.4,11680.6L21395.7,11680.6ZM21508.6,11655.8L21481.4,11655.8L21481.4,11672L21508.6,11672C21521.7,11672 21524.1,11668.4 21524.2,11663.9L21524.2,11663.9C21524.1,11659.4 21521.7,11655.8 21508.6,11655.8Z" style="fill:rgb(155,214,174);"/>
                    </g>
                </g>
                <g id="BAKED" transform="matrix(0.442232,0,0,0.157505,4250.79,-535.248)">
                    <path d="M21421.5,11437.6C21421.5,11437.6 21334.7,11577.6 21331.6,11582.5C21331.6,11582.5 21331.6,11582.6 21331.5,11582.6C21331.5,11582.6 21331.5,11582.5 21331.5,11582.5C21328.3,11577.8 21237.3,11443.4 21237.3,11443.4C21237.3,11443.4 21239.3,11443.4 21240.9,11443.3C21242,11443.3 21243,11443.8 21243.6,11444.7C21251.8,11456.7 21308.6,11540.6 21319.4,11556.5C21319.4,11556.6 21319.5,11556.6 21319.5,11556.6C21319.6,11556.5 21319.6,11556.5 21319.6,11556.4C21309.4,11539 21253.3,11442.9 21253.3,11442.9C21253.3,11442.9 21255.1,11442.8 21256.6,11442.8C21257.7,11442.7 21258.8,11443.3 21259.4,11444.3C21266,11455.6 21304.6,11521.8 21313,11536.1C21313,11536.2 21313.1,11536.2 21313.1,11536.2C21313.2,11536.1 21313.2,11536.1 21313.2,11536C21305.3,11520.1 21266.6,11442.4 21266.6,11442.4C21266.6,11442.4 21268.2,11442.3 21269.6,11442.3C21270.8,11442.2 21272,11442.9 21272.5,11444C21277.5,11454.1 21301.8,11503 21308,11515.3C21308,11515.4 21308,11515.4 21308.1,11515.4C21308.2,11515.3 21308.2,11515.3 21308.2,11515.2C21302.4,11501.3 21277.7,11442 21277.7,11442C21277.7,11442 21279.1,11442 21280.4,11441.9C21281.7,11441.9 21282.9,11442.6 21283.4,11443.9C21286.9,11452.2 21300.2,11484.4 21304.3,11494.2C21304.4,11494.3 21304.4,11494.3 21304.5,11494.3C21304.5,11494.3 21304.6,11494.2 21304.5,11494.2C21300.6,11482.6 21286.7,11441.7 21286.7,11441.7C21286.7,11441.7 21287.9,11441.6 21289.1,11441.6C21290.5,11441.6 21291.8,11442.4 21292.2,11443.7C21295.4,11453 21307.4,11488.4 21308.3,11490.9C21308.3,11491 21308.3,11491 21308.3,11491C21308.4,11491 21308.4,11491 21308.4,11491C21311,11488.7 21356,11449 21365.4,11440.7C21366.5,11439.7 21367.9,11439.2 21369.4,11439.1C21371.4,11439.1 21374.1,11439 21374.1,11439C21374.1,11439 21316.4,11492.6 21308.2,11500.2C21307.6,11500.8 21307.4,11501.6 21307.7,11502.3C21308.8,11504.9 21311.2,11510.8 21311.7,11511.8C21311.7,11511.8 21311.7,11511.8 21311.7,11511.8C21311.8,11511.8 21311.8,11511.8 21311.8,11511.8C21314.6,11509 21372.3,11450.7 21382.7,11440.3C21383.7,11439.3 21385.1,11438.7 21386.5,11438.6C21388.1,11438.6 21389.9,11438.5 21389.9,11438.5C21389.9,11438.5 21320.9,11511.8 21312.2,11521C21311.6,11521.6 21311.5,11522.5 21311.9,11523.2C21313.1,11525.7 21316,11531.4 21316.4,11532.3C21316.4,11532.4 21316.5,11532.4 21316.5,11532.4C21316.5,11532.4 21316.6,11532.4 21316.6,11532.4C21319.5,11529 21386.2,11452 21396.7,11439.9C21397.6,11438.9 21398.9,11438.3 21400.2,11438.2C21401.4,11438.2 21402.7,11438.1 21402.7,11438.1C21402.7,11438.1 21326.4,11530.8 21317.6,11541.5C21317.1,11542.2 21317,11543 21317.4,11543.7C21318.8,11546.1 21322,11551.6 21322.6,11552.5C21322.6,11552.6 21322.6,11552.6 21322.6,11552.6C21322.7,11552.6 21322.7,11552.6 21322.7,11552.5C21325.6,11548.7 21398.1,11452.8 21408.2,11439.5C21408.9,11438.5 21410,11437.9 21411.2,11437.9C21412.2,11437.9 21413.1,11437.8 21413.1,11437.8C21413.1,11437.8 21333,11549.5 21324.3,11561.6C21323.9,11562.3 21323.9,11563.1 21324.3,11563.8C21325.9,11566.1 21329.4,11571.4 21330,11572.3C21330.1,11572.3 21330.1,11572.3 21330.1,11572.3C21330.2,11572.3 21330.2,11572.3 21330.2,11572.3C21333,11568 21407.2,11454.2 21417,11439.3C21417.7,11438.3 21418.8,11437.7 21420,11437.6C21420.7,11437.6 21421.5,11437.6 21421.5,11437.6ZM21431.4,11417.1C21432.6,11417.1 21433.7,11417.7 21434.3,11418.7C21435.7,11421.2 21438.1,11425.6 21438.1,11425.6L21231.1,11437.8L21225.4,11427.8L21243.9,11426.8L21238.6,11417.8C21238.6,11417.8 21240.7,11417.8 21242.2,11417.9C21243.3,11417.9 21244.3,11418.5 21244.9,11419.4C21246.3,11421.9 21249,11426.6 21249,11426.6L21258.5,11426.1L21254.6,11418.3C21254.6,11418.3 21256.4,11418.3 21257.9,11418.4C21259.1,11418.4 21260.1,11419.1 21260.6,11420.1C21261.7,11422.3 21263.5,11425.8 21263.5,11425.8L21270.8,11425.4L21268,11418.7C21268,11418.7 21269.6,11418.8 21270.9,11418.8C21272.2,11418.8 21273.3,11419.6 21273.8,11420.7C21274.5,11422.6 21275.6,11425.2 21275.6,11425.2L21281,11424.9L21279,11419.1C21279,11419.1 21280.4,11419.1 21281.7,11419.1C21283,11419.2 21284.2,11420 21284.6,11421.3C21285.1,11422.8 21285.7,11424.7 21285.7,11424.7C21285.7,11424.7 21414,11418 21431.4,11417.1ZM21227.8,11401.4L21246.3,11401.6L21241.7,11392.3C21241.7,11392.3 21243.7,11392.5 21245.3,11392.6C21246.4,11392.7 21247.3,11393.4 21247.8,11394.4C21249.1,11396.9 21251.5,11401.7 21251.5,11401.7L21261,11401.9L21257.6,11393.8C21257.6,11393.8 21259.4,11394 21260.9,11394.2C21262,11394.3 21263,11395 21263.5,11396.1C21264.4,11398.3 21265.9,11401.9 21265.9,11401.9L21273.2,11402.1L21270.9,11395.2C21270.9,11395.2 21272.5,11395.3 21273.9,11395.4C21275.1,11395.6 21276.1,11396.4 21276.5,11397.6C21277.2,11399.5 21278.1,11402.1 21278.1,11402.1C21278.1,11402.1 21417.2,11404.3 21435.2,11404.5C21436.4,11404.6 21437.5,11405.2 21438,11406.3C21439.2,11408.9 21441.4,11413.5 21441.4,11413.5L21232.8,11411.8L21227.8,11401.4ZM21231.9,11375.1L21250.5,11376.7L21246.4,11367C21246.4,11367 21248.5,11367.4 21250,11367.6C21251.1,11367.8 21252,11368.5 21252.4,11369.5C21253.5,11372.1 21255.6,11377.1 21255.6,11377.1L21265,11377.9L21262.2,11369.6C21262.2,11369.6 21264,11369.9 21265.5,11370.2C21266.6,11370.4 21267.6,11371.2 21267.9,11372.3C21268.7,11374.6 21270,11378.3 21270,11378.3C21270,11378.3 21417.7,11390.5 21438.5,11392.2C21440,11392.3 21441.3,11393.3 21441.9,11394.7C21443,11397.4 21444.7,11401.5 21444.7,11401.5L21236.3,11385.9L21231.9,11375.1ZM21237.8,11349.3L21256.3,11352L21252.9,11342.1C21252.9,11342.1 21254.9,11342.6 21256.4,11343C21257.5,11343.2 21258.3,11344 21258.7,11345C21259.6,11347.7 21261.3,11352.8 21261.3,11352.8C21261.3,11352.8 21421.8,11377 21442.9,11380.1C21444.3,11380.4 21445.4,11381.3 21445.9,11382.7C21446.8,11385.4 21448.2,11389.8 21448.2,11389.8L21241.5,11360.3L21237.8,11349.3ZM21448.9,11368.6L21451.4,11378.1L21248.4,11335.1L21245.5,11323.9L21448.9,11368.6Z" style="fill:rgb(155,214,174);"/>
                </g>
            </g>
        </g>
    </g>
</svg>
