<?xml version="1.0" encoding="UTF-8"?>
<svg width="1879px" height="691px" viewBox="0 0 1879 691" version="1.1" xmlns="http://www.w3.org/2000/svg" xmlns:xlink="http://www.w3.org/1999/xlink">
    <!-- Generator: Sketch 49 (51002) - http://www.bohemiancoding.com/sketch -->
    <title>Slice 8</title>
    <desc>Created with Sketch.</desc>
    <defs></defs>
    <g id="Page-1" stroke="none" stroke-width="1" fill="none" fill-rule="evenodd">
        <path d="M69.2,263.2 C96.800138,320.000284 124.699859,375.199732 152.9,428.8 C181.100141,482.400268 210.599846,537.399718 241.4,593.8 C245.40002,586.199962 251.199962,575.300071 258.8,561.1 C266.400038,546.899929 275.19995,530.600092 285.2,512.2 C295.20005,493.799908 305.899943,473.900107 317.3,452.5 C328.700057,431.099893 340.299941,409.40011 352.1,387.4 C363.900059,365.39989 375.599942,343.800106 387.2,322.6 C398.800058,301.399894 409.59995,281.600092 419.6,263.2 L427.4,263.2 C431.800022,301.600192 435.899981,338.699821 439.7,374.5 C443.500019,410.300179 447.39998,445.499827 451.4,480.1 C455.40002,514.700173 459.39998,548.899831 463.4,582.7 C467.40002,616.500169 471.799976,649.999834 476.6,683.2 C471.799976,682.399996 467.100023,682 462.5,682 L434.3,682 C429.699977,682 425.000024,682.399996 420.2,683.2 C415.799978,629.999734 411.400022,578.40025 407,528.4 C402.599978,478.39975 397.200032,427.40026 390.8,375.4 L389.6,375.4 C361.999862,425.800252 334.900133,475.899751 308.3,525.7 C281.699867,575.500249 256.40012,627.599728 232.4,682 L227,682 C202.99988,631.599748 177.900131,581.100253 151.7,530.5 C125.499869,479.899747 99.200132,428.200264 72.8,375.4 L71.6,375.4 C68.799986,400.200124 65.700017,427.099855 62.3,456.1 C58.899983,485.100145 55.800014,513.699859 53,541.9 C50.199986,570.100141 47.80001,596.699875 45.8,621.7 C43.79999,646.700125 42.8,667.19992 42.8,683.2 C36.399968,682.399996 29.400038,682 21.8,682 C14.199962,682 7.200032,682.399996 0.8,683.2 C6.000026,650.799838 11.399972,616.60018 17,580.6 C22.600028,544.59982 27.999974,508.400182 33.2,472 C38.400026,435.599818 43.199978,399.700177 47.6,364.3 C52.000022,328.899823 55.799984,295.20016 59,263.2 L69.2,263.2 Z M564.2,426.4 C564.2,399.999868 563.700005,374.100127 562.7,348.7 C561.699995,323.299873 560.600006,297.400132 559.4,271 C564.600026,271.800004 569.599976,272.499997 574.4,273.1 C579.200024,273.700003 583.999976,274 588.8,274 C593.600024,274 598.399976,273.700003 603.2,273.1 C608.000024,272.499997 612.999974,271.800004 618.2,271 C616.999994,297.400132 615.900005,323.299873 614.9,348.7 C613.899995,374.100127 613.4,399.999868 613.4,426.4 L613.4,529.6 C613.4,556.000132 613.899995,581.999872 614.9,607.6 C615.900005,633.200128 616.999994,658.399876 618.2,683.2 C608.999954,682.399996 599.200052,682 588.8,682 C578.399948,682 568.600046,682.399996 559.4,683.2 C560.600006,658.399876 561.699995,633.200128 562.7,607.6 C563.700005,581.999872 564.2,556.000132 564.2,529.6 L564.2,426.4 Z M1068.8,691 C1022.79977,637.799734 973.80026,583.300279 921.8,527.5 C869.79974,471.699721 817.80026,416.200276 765.8,361 C765.399998,372.200056 765.000002,387.199906 764.6,406 C764.199998,424.800094 764,450.399838 764,482.8 C764,491.200042 764.099999,501.599938 764.3,514 C764.500001,526.400062 764.699999,539.399932 764.9,553 C765.100001,566.600068 765.399998,580.39993 765.8,594.4 C766.200002,608.40007 766.599998,621.39994 767,633.4 C767.400002,645.40006 767.799998,655.899955 768.2,664.9 C768.600002,673.900045 768.999998,679.999984 769.4,683.2 C762.999968,682.399996 756.000038,682 748.4,682 C740.39996,682 733.000034,682.399996 726.2,683.2 C727.000004,679.19998 727.899995,671.800054 728.9,661 C729.900005,650.199946 730.799996,637.300075 731.6,622.3 C732.400004,607.299925 733.299995,591.000088 734.3,573.4 C735.300005,555.799912 736.099997,538.200088 736.7,520.6 C737.300003,502.999912 737.799998,485.800084 738.2,469 C738.600002,452.199916 738.8,437.200066 738.8,424 C738.8,385.599808 738.700001,352.600138 738.5,325 C738.299999,297.399862 737.800004,276.800068 737,263.2 L746.6,263.2 C771.000122,289.600132 797.099861,317.899849 824.9,348.1 C852.700139,378.300151 880.299863,408.099853 907.7,437.5 C935.100137,466.900147 961.099877,494.699869 985.7,520.9 C1010.30012,547.100131 1031.79991,569.399908 1050.2,587.8 L1050.2,506.2 C1050.2,464.19979 1049.9,423.300199 1049.3,383.5 C1048.7,343.699801 1047.40001,306.200176 1045.4,271 C1053.40004,273.00001 1060.19997,274 1065.8,274 C1070.60002,274 1076.99996,273.00001 1085,271 C1084.2,279.800044 1083.30001,292.999912 1082.3,310.6 C1081.29999,328.200088 1080.30001,346.9999 1079.3,367 C1078.29999,387.0001 1077.4,406.599904 1076.6,425.8 C1075.8,445.000096 1075.4,460.399942 1075.4,472 L1075.4,508 C1075.4,521.600068 1075.5,535.799926 1075.7,550.6 C1075.9,565.400074 1076.1,580.299925 1076.3,595.3 C1076.5,610.300075 1076.7,624.299935 1076.9,637.3 C1077.1,650.300065 1077.2,661.599952 1077.2,671.2 L1077.2,691 L1068.8,691 Z M1197.8,426.4 C1197.8,399.999868 1197.30001,374.100127 1196.3,348.7 C1195.29999,323.299873 1194.20001,297.400132 1193,271 C1208.20008,271.800004 1223.29992,272.499997 1238.3,273.1 C1253.30008,273.700003 1268.39992,274 1283.6,274 C1298.80008,274 1313.89992,273.500005 1328.9,272.5 C1343.90007,271.499995 1358.99992,271 1374.2,271 C1409.40018,271 1439.49987,275.599954 1464.5,284.8 C1489.50013,294.000046 1509.99992,307.099915 1526,324.1 C1542.00008,341.100085 1553.69996,361.899877 1561.1,386.5 C1568.50004,411.100123 1572.2,438.799846 1572.2,469.6 C1572.2,509.6002 1565.30007,543.299863 1551.5,570.7 C1537.69993,598.100137 1520.10011,620.199916 1498.7,637 C1477.29989,653.800084 1453.70013,665.699965 1427.9,672.7 C1402.09987,679.700035 1377.40012,683.2 1353.8,683.2 C1340.19993,683.2 1326.80007,683.000002 1313.6,682.6 C1300.39993,682.199998 1287.00007,682 1273.4,682 L1233.2,682 C1219.99993,682 1206.60007,682.399996 1193,683.2 C1194.20001,658.399876 1195.29999,633.200128 1196.3,607.6 C1197.30001,581.999872 1197.8,556.000132 1197.8,529.6 L1197.8,426.4 Z M1247,529.6 C1247,572.800216 1248.19999,615.199792 1250.6,656.8 C1259.00004,658.80001 1270.39993,660.299995 1284.8,661.3 C1299.20007,662.300005 1313.99992,662.8 1329.2,662.8 C1351.20011,662.8 1373.19989,660.200026 1395.2,655 C1417.20011,649.799974 1436.89991,640.000072 1454.3,625.6 C1471.70009,611.199928 1485.89995,591.500125 1496.9,566.5 C1507.90006,541.499875 1513.4,509.200198 1513.4,469.6 C1513.4,434.799826 1509.10004,406.200112 1500.5,383.8 C1491.89996,361.399888 1480.10008,343.700065 1465.1,330.7 C1450.09993,317.699935 1432.2001,308.700025 1411.4,303.7 C1390.5999,298.699975 1367.80012,296.2 1343,296.2 C1324.99991,296.2 1308.20008,296.799994 1292.6,298 C1276.99992,299.200006 1263.00006,300.599992 1250.6,302.2 C1249.39999,321.400096 1248.5,341.499895 1247.9,362.5 C1247.3,383.500105 1247,404.799892 1247,426.4 L1247,529.6 Z M1651.4,605.2 C1654.60002,612.400036 1658.89997,619.699963 1664.3,627.1 C1669.70003,634.500037 1676.29996,641.19997 1684.1,647.2 C1691.90004,653.20003 1700.99995,658.099981 1711.4,661.9 C1721.80005,665.700019 1733.39994,667.6 1746.2,667.6 C1759.40007,667.6 1771.29995,665.300023 1781.9,660.7 C1792.50005,656.099977 1801.49996,649.900039 1808.9,642.1 C1816.30004,634.299961 1821.99998,625.100053 1826,614.5 C1830.00002,603.899947 1832,592.60006 1832,580.6 C1832,562.199908 1827.30005,547.600054 1817.9,536.8 C1808.49995,525.999946 1796.80007,517.000036 1782.8,509.8 C1768.79993,502.599964 1753.70008,496.00003 1737.5,490 C1721.29992,483.99997 1706.20007,476.500045 1692.2,467.5 C1678.19993,458.499955 1666.50005,447.00007 1657.1,433 C1647.69995,418.99993 1643,400.200118 1643,376.6 C1643,359.799916 1645.99997,344.500069 1652,330.7 C1658.00003,316.899931 1666.69994,305.00005 1678.1,295 C1689.50006,284.99995 1703.19992,277.200028 1719.2,271.6 C1735.20008,265.999972 1753.1999,263.2 1773.2,263.2 C1792.4001,263.2 1808.99993,265.499977 1823,270.1 C1837.00007,274.700023 1849.99994,281.799952 1862,291.4 C1858.39998,298.200034 1855.40001,305.399962 1853,313 C1850.59999,320.600038 1848.20001,330.199942 1845.8,341.8 L1838.6,341.8 C1836.59999,336.199972 1833.90002,330.100033 1830.5,323.5 C1827.09998,316.899967 1822.50003,310.800028 1816.7,305.2 C1810.89997,299.599972 1804.00004,294.900019 1796,291.1 C1787.99996,287.299981 1778.40006,285.4 1767.2,285.4 C1755.99994,285.4 1745.70005,287.199982 1736.3,290.8 C1726.89995,294.400018 1718.70004,299.499967 1711.7,306.1 C1704.69997,312.700033 1699.30002,320.599954 1695.5,329.8 C1691.69998,339.000046 1689.8,348.999946 1689.8,359.8 C1689.8,378.600094 1694.49995,393.399946 1703.9,404.2 C1713.30005,415.000054 1724.99993,424.099963 1739,431.5 C1753.00007,438.900037 1768.09992,445.499971 1784.3,451.3 C1800.50008,457.100029 1815.59993,464.199958 1829.6,472.6 C1843.60007,481.000042 1855.29995,491.799934 1864.7,505 C1874.10005,518.200066 1878.8,535.79989 1878.8,557.8 C1878.8,576.200092 1875.50003,593.599918 1868.9,610 C1862.29997,626.400082 1852.70006,640.699939 1840.1,652.9 C1827.49994,665.100061 1812.10009,674.499967 1793.9,681.1 C1775.69991,687.700033 1755.00012,691 1731.8,691 C1706.99988,691 1686.90008,687.700033 1671.5,681.1 C1656.09992,674.499967 1643.20005,667.000042 1632.8,658.6 C1636.40002,649.399954 1638.89999,641.100037 1640.3,633.7 C1641.70001,626.299963 1642.99999,616.800058 1644.2,605.2 L1651.4,605.2 Z" id="MINDS" fill="#555555"></path>
        <g id="bulb" transform="translate(433.000000, -27.000000)">
            <g id="Group-5" transform="translate(107.000000, 290.000000)">
                <path d="M24.7524752,43 L22.7722772,72 L24.7524752,43 Z" id="Triangle-3" fill="#656565"></path>
                <polygon id="Triangle-3" fill="#656565" points="0 62 25 41 50 82"></polygon>
                <polygon id="Triangle-3" fill="#787778" points="0 0 0 62 25 41"></polygon>
                <polygon id="Triangle-3" fill="#5C5C5C" points="75 41 50 82 100 62"></polygon>
                <polygon id="Triangle-3" fill="#787778" points="100 62 75 41 100 0"></polygon>
                <polygon id="Triangle-3" fill="#4A4A4A" points="0 0 100 0 50 82"></polygon>
            </g>
            <g id="Group" transform="translate(6.000000, 1.000000)">
                <polygon id="Triangle-3" fill="#FED12F" points="111 100 217 144 141 205"></polygon>
                <polygon id="Triangle-3" fill="#FED12F" points="191 26 251 88 217 144"></polygon>
                <polygon id="Triangle-3" fill="#FED12F" points="101 289 211 257 201 289"></polygon>
                <polygon id="Triangle-3" fill="#FED12F" points="91 257 141 205 101 289"></polygon>
                <polygon id="Triangle-3" fill="#FED12F" points="51 88 111 26 111 100"></polygon>
                <polygon id="Triangle-3" fill="#FFF3CB" points="141 205 211 257 217 144"></polygon>
                <polygon id="Triangle-3" fill="#FFF3CB" transform="translate(91.982123, 202.376609) rotate(140.000000) translate(-91.982123, -202.376609) " points="56.1185344 168.858891 118.731412 243.589257 127.845712 161.163961"></polygon>
                <polygon id="Triangle-3" fill="#FFDD63" transform="translate(187.648863, 90.616899) rotate(-53.000000) translate(-187.648863, -90.616899) " points="134.026748 35.0492865 241.270978 54.4058156 162.679178 146.184512"></polygon>
                <polygon id="Triangle-3" fill="#FFEDAC" transform="translate(112.700659, 170.148822) rotate(-53.000000) translate(-112.700659, -170.148822) " points="57.7008005 126.823779 167.700517 126.574001 101.898239 213.723643"></polygon>
                <polygon id="Triangle-3" fill="#FFDD63" transform="translate(148.569878, 267.401001) rotate(-53.000000) translate(-148.569878, -267.401001) " points="102.691884 242.40861 193.849867 223.801568 194.447872 311.000435"></polygon>
                <polygon id="Triangle-3" fill="#FFDD63" transform="translate(214.000000, 200.500000) rotate(-53.000000) translate(-214.000000, -200.500000) " points="167.071649 232.106642 260.928351 168.893358 249.86099 227.318639"></polygon>
                <polygon id="Triangle-3" fill="#FFDD63" transform="translate(55.981655, 127.407987) rotate(-53.000000) translate(-55.981655, -127.407987) " points="0.981796369 155.102831 84.4562375 99.713142 110.981513 154.853053"></polygon>
                <polygon id="Triangle-3" fill="#FEE382" transform="translate(254.000000, 138.000000) rotate(-53.000000) translate(-254.000000, -138.000000) " points="226.941031 112.061376 292.12633 105.513342 215.87367 170.486658"></polygon>
                <polygon id="Triangle-3" fill="#FEF1C0" transform="translate(146.320889, 50.144248) rotate(160.000000) translate(-146.320889, -50.144248) " points="96.0784387 57.5512633 196.563339 15.3756208 171.253848 84.9128748"></polygon>
            </g>
        </g>
    </g>
</svg>