<svg width="57" height="50" viewBox="0 0 57 50" fill="none" xmlns="http://www.w3.org/2000/svg">
<path d="M43.0469 15.2238C42.0078 14.6268 40.6719 14.6268 39.4844 15.2238L31.1719 20.1492L25.5312 23.2835L17.3672 28.2089C16.3281 28.8059 14.9922 28.8059 13.8047 28.2089L7.42187 24.3283C6.38281 23.7313 5.64062 22.5373 5.64062 21.194V13.7313C5.64062 12.5373 6.23437 11.3432 7.42187 10.597L13.8047 6.86563C14.8437 6.26862 16.1797 6.26862 17.3672 6.86563L23.75 10.7462C24.7891 11.3432 25.5312 12.5373 25.5312 13.8806V18.8059L31.1719 15.5224V10.4477C31.1719 9.25369 30.5781 8.05966 29.3906 7.3134L17.5156 0.298469C16.4766 -0.298546 15.1406 -0.298546 13.9531 0.298469L1.78125 7.46265C0.59375 8.05966 0 9.25369 0 10.4477V24.4776C0 25.6716 0.59375 26.8656 1.78125 27.6119L13.8047 34.6268C14.8437 35.2238 16.1797 35.2238 17.3672 34.6268L25.5312 29.8507L31.1719 26.5671L39.3359 21.791C40.375 21.194 41.7109 21.194 42.8984 21.791L49.2812 25.5224C50.3203 26.1194 51.0625 27.3134 51.0625 28.6567V36.1194C51.0625 37.3134 50.4687 38.5074 49.2812 39.2537L43.0469 42.985C42.0078 43.5821 40.6719 43.5821 39.4844 42.985L33.1016 39.2537C32.0625 38.6567 31.3203 37.4627 31.3203 36.1194V31.3432L25.6797 34.6268V39.5522C25.6797 40.7462 26.2734 41.9403 27.4609 42.6865L39.4844 49.7015C40.5234 50.2985 41.8594 50.2985 43.0469 49.7015L55.0703 42.6865C56.1094 42.0895 56.8516 40.8955 56.8516 39.5522V25.3731C56.8516 24.1791 56.2578 22.985 55.0703 22.2388L43.0469 15.2238Z" fill="#8247E5"/>
</svg>
