<svg width="57" height="52" viewBox="0 0 57 52" fill="none" xmlns="http://www.w3.org/2000/svg">
<g clip-path="url(#clip0_54_408)">
<path d="M0.0415649 0.293228L0.0831404 51.3935L44.1947 51.3516V45.9484L6.15316 45.9903L6.11159 5.69645L44.1116 5.65457V0.251343L0.0415649 0.293228Z" fill="white"/>
<path d="M43.8206 41.6341C52.8009 41.6341 55.9606 36.4822 55.9606 32.0424C55.9606 27.1837 53.1751 24.1679 47.7287 23.1627L42.0328 22.1155C40.2451 21.8223 38.1663 21.1103 38.1663 18.8903C38.1663 16.2516 40.7856 15.2882 43.2801 15.2882C46.5646 15.2882 48.3107 16.3772 48.8928 18.7647H54.9628C54.2145 13.3196 49.9322 9.96875 43.3633 9.96875C35.5055 9.96875 32.0132 14.5343 32.0132 19.0998C32.0132 23.6653 34.7156 26.4716 39.7462 27.3931L45.5668 28.4402C47.6455 28.8172 49.7659 29.5711 49.7659 32.3356C49.7659 34.7649 47.604 36.2728 44.07 36.3147C40.0788 36.3147 37.709 34.8068 37.2101 31.9167H31.1816C31.8468 37.9901 36.4202 41.6341 43.8206 41.6341Z" fill="white"/>
</g>
<defs>
<clipPath id="clip0_54_408">
<rect width="57" height="51.3934" fill="white"/>
</clipPath>
</defs>
</svg>
