<?xml version="1.0" encoding="UTF-8"?>
<svg width="104px" height="40px" viewBox="0 0 104 40" version="1.1" xmlns="http://www.w3.org/2000/svg" xmlns:xlink="http://www.w3.org/1999/xlink">
    <title>logo</title>
    <g id="General-Dark" stroke="none" stroke-width="1" fill="none" fill-rule="evenodd">
        <g id="01-Web-Large-[Dark]" transform="translate(-153.000000, -15.000000)" fill-rule="nonzero">
            <g id="Web-Sidenav-[Large]" transform="translate(151.000000, 15.000000)">
                <g id="logo" transform="translate(2.000000, 0.000000)">
                    <path d="M3.78785942,17 C5.31630157,20.0537787 6.86133404,23.021491 8.42300319,25.9032258 C9.98467235,28.7849606 11.6183088,31.7419203 13.3239617,34.7741935 C13.545475,34.3655894 13.8666646,33.7795737 14.2875399,33.016129 C14.7084153,32.2526844 15.1957374,31.376349 15.7495208,30.3870968 C16.3033042,29.3978445 16.8958435,28.3279627 17.5271565,27.1774194 C18.1584696,26.026876 18.8008487,24.860221 19.4543131,23.6774194 C20.1077775,22.4946177 20.7556943,21.333339 21.3980831,20.1935484 C22.0404718,19.0537577 22.6385489,17.9892523 23.1923323,17 L23.6242812,17 C23.8679458,19.0645265 24.0949936,21.0591302 24.3054313,22.983871 C24.515869,24.9086118 24.7318413,26.801066 24.9533546,28.6612903 C25.174868,30.5215147 25.396378,32.360206 25.6178914,34.1774194 C25.8394047,35.9946327 26.0830658,37.79569 26.3488818,39.5806452 C26.0830658,39.5376342 25.8227915,39.516129 25.5680511,39.516129 L24.0063898,39.516129 C23.7516494,39.516129 23.4913751,39.5376342 23.2255591,39.5806452 C22.9818944,36.7204158 22.7382334,33.94625 22.4945687,31.2580645 C22.250904,28.569879 21.9518655,25.827971 21.5974441,23.0322581 L21.5309904,23.0322581 C20.0025483,25.741949 18.5018178,28.4354705 17.028754,31.1129032 C15.5556902,33.790336 14.1546392,36.5913832 12.8255591,39.516129 L12.5265176,39.516129 C11.1974374,36.8064381 9.80746199,34.0914115 8.35654952,31.3709677 C6.90563705,28.650524 5.44920859,25.8709819 3.98722045,23.0322581 L3.92076677,23.0322581 C3.76570742,24.3655981 3.59403715,25.8118202 3.4057508,27.3709677 C3.21746445,28.9301153 3.04579417,30.4677344 2.89073482,31.983871 C2.73567548,33.5 2.60276946,34.9301008 2.49201278,36.2741935 C2.3812561,37.6182863 2.32587859,38.7204258 2.32587859,39.5806452 C1.97145723,39.5376342 1.58381467,39.516129 1.1629393,39.516129 C0.742063923,39.516129 0.354421367,39.5376342 0,39.5806452 C0.287967361,37.838701 0.587005904,36 0.897124601,34.0645161 C1.2072433,32.1290226 1.50628184,30.1828055 1.7942492,28.2258065 C2.08221656,26.2688074 2.3480286,24.3387192 2.59169329,22.4354839 C2.83535798,20.5322485 3.04579251,18.7204387 3.22300319,17 L3.78785942,17 Z M31.2,25.7741935 C31.2,24.3548316 31.1723112,22.9623724 31.1169329,21.5967742 C31.0615546,20.231176 31.0006393,18.8387168 30.9341853,17.4193548 C31.2221527,17.4623658 31.4990402,17.4999998 31.7648562,17.5322581 C32.0306723,17.5645163 32.2964843,17.5806452 32.5623003,17.5806452 C32.8281163,17.5806452 33.0939284,17.5645163 33.3597444,17.5322581 C33.6255604,17.4999998 33.902448,17.4623658 34.1904153,17.4193548 C34.1239613,18.8387168 34.0630461,20.231176 34.0076677,21.5967742 C33.9522894,22.9623724 33.9246006,24.3548316 33.9246006,25.7741935 L33.9246006,31.3225806 C33.9246006,32.7419426 33.9522894,34.1397781 34.0076677,35.516129 C34.0630461,36.89248 34.1239613,38.2473052 34.1904153,39.5806452 C33.6809346,39.5376342 33.138235,39.516129 32.5623003,39.516129 C31.9863656,39.516129 31.443666,39.5376342 30.9341853,39.5806452 C31.0006393,38.2473052 31.0615546,36.89248 31.1169329,35.516129 C31.1723112,34.1397781 31.2,32.7419426 31.2,31.3225806 L31.2,25.7741935 Z M59.14377,40 C56.5963664,37.1397706 53.8828685,34.2096924 51.0031949,31.2096774 C48.1235213,28.2096624 45.2438909,25.2258213 42.3642173,22.2580645 C42.3420659,22.8602181 42.3199149,23.6666616 42.2977636,24.6774194 C42.2756122,25.6881771 42.2645367,27.0645074 42.2645367,28.8064516 C42.2645367,29.2580668 42.2700745,29.817201 42.2811502,30.483871 C42.2922258,31.150541 42.3033013,31.8494587 42.314377,32.5806452 C42.3254527,33.3118316 42.3420659,34.0537597 42.3642173,34.8064516 C42.3863686,35.5591435 42.4085196,36.2580613 42.4306709,36.9032258 C42.4528223,37.5483903 42.4749733,38.1129008 42.4971246,38.5967742 C42.5192759,39.0806476 42.5414269,39.4086013 42.5635783,39.5806452 C42.2091569,39.5376342 41.8215144,39.516129 41.400639,39.516129 C40.9576123,39.516129 40.5478187,39.5376342 40.171246,39.5806452 C40.2155487,39.3655903 40.2653884,38.9677448 40.3207668,38.3870968 C40.3761451,37.8064487 40.4259849,37.1129073 40.4702875,36.3064516 C40.5145902,35.5 40.56443,34.6236606 40.6198083,33.6774194 C40.6751866,32.7311781 40.7194887,31.784951 40.7527157,30.8387097 C40.7859427,29.8924684 40.8136314,28.9677465 40.8357827,28.0645161 C40.8579341,27.1612858 40.8690096,26.3548423 40.8690096,25.6451613 C40.8690096,23.5806348 40.8634718,21.806459 40.8523962,20.3225806 C40.8413205,18.8387023 40.8136317,17.7311865 40.7693291,17 L41.3009585,17 C42.6521899,18.4193619 44.0975429,19.9408521 45.6370607,21.5645161 C47.1765785,23.1881802 48.7049977,24.7903147 50.2223642,26.3709677 C51.7397307,27.9516208 53.1795459,29.4462295 54.541853,30.8548387 C55.90416,32.2634479 57.0947767,33.4623606 58.113738,34.4516129 L58.113738,30.0645161 C58.113738,27.8064403 58.0971246,25.6075376 58.0638978,23.4677419 C58.0306709,21.3279463 57.95868,19.3118374 57.8479233,17.4193548 C58.29095,17.5268823 58.667517,17.5806452 58.9776358,17.5806452 C59.2434516,17.5806452 59.5978679,17.5268823 60.0408946,17.4193548 C59.9965921,17.8924755 59.9467524,18.6021458 59.8913738,19.5483871 C59.8359952,20.4946284 59.7806182,21.505371 59.7252396,22.5806452 C59.669861,23.6559194 59.6200213,24.7096723 59.5757188,25.7419355 C59.5314164,26.7741987 59.5092652,27.6021474 59.5092652,28.2258065 L59.5092652,30.1612903 C59.5092652,30.8924768 59.514803,31.65591 59.5258786,32.4516129 C59.5369542,33.2473158 59.5480298,34.0483831 59.5591054,34.8548387 C59.570181,35.6612944 59.5812567,36.413975 59.5923323,37.1129032 C59.6034079,37.8118315 59.6089457,38.4193523 59.6089457,38.9354839 L59.6089457,40 L59.14377,40 Z M66.2875399,25.7741935 C66.2875399,24.3548316 66.2598515,22.9623724 66.2044728,21.5967742 C66.1490942,20.231176 66.0881795,18.8387168 66.0217252,17.4193548 C66.8634762,17.4623658 67.6996761,17.4999998 68.5303514,17.5322581 C69.3610268,17.5645163 70.1972267,17.5806452 71.0389776,17.5806452 C71.8807286,17.5806452 72.7169285,17.5537637 73.5476038,17.5 C74.3782786,17.4462363 75.2144791,17.4193548 76.05623,17.4193548 C78.0055478,17.4193548 79.6724103,17.6666642 81.056869,18.1612903 C82.4413278,18.6559165 83.5765664,19.3602105 84.4626198,20.2741935 C85.3486732,21.1881766 85.9965899,22.306445 86.4063898,23.6290323 C86.8161896,24.9516195 87.0210863,26.4408519 87.0210863,28.0967742 C87.0210863,30.2473226 86.6389815,32.0591324 85.8747604,33.5322581 C85.1105393,35.0053837 84.1358953,36.1935439 82.9507987,37.0967742 C81.7657021,38.0000045 80.4587931,38.6397831 79.0300319,39.016129 C77.6012708,39.392475 76.2334465,39.5806452 74.9265176,39.5806452 C74.1733721,39.5806452 73.4313138,39.5698926 72.7003195,39.5483871 C71.9693252,39.5268816 71.2272669,39.516129 70.4741214,39.516129 L68.2479233,39.516129 C67.516929,39.516129 66.7748708,39.5376342 66.0217252,39.5806452 C66.0881795,38.2473052 66.1490942,36.89248 66.2044728,35.516129 C66.2598515,34.1397781 66.2875399,32.7419426 66.2875399,31.3225806 L66.2875399,25.7741935 Z M69.0121406,31.3225806 C69.0121406,33.6451729 69.0785937,35.92472 69.2115016,38.1612903 C69.6766795,38.2688177 70.3079833,38.3494621 71.1054313,38.4032258 C71.9028793,38.4569895 72.7224663,38.483871 73.5642173,38.483871 C74.7825407,38.483871 76.0008459,38.3440874 77.2191693,38.0645161 C78.4374928,37.7849448 79.5284295,37.2580684 80.4920128,36.483871 C81.455596,35.7096735 82.2419568,34.6505444 82.8511182,33.3064516 C83.4602802,31.9623589 83.7648562,30.2258171 83.7648562,28.0967742 C83.7648562,26.2257971 83.5267328,24.6881781 83.0504792,23.483871 C82.5742257,22.2795639 81.9207712,21.3279605 81.0900958,20.6290323 C80.259421,19.930104 79.2681632,19.4462379 78.1162939,19.1774194 C76.9644247,18.9086008 75.7018171,18.7741935 74.3284345,18.7741935 C73.3316244,18.7741935 72.4012824,18.8064513 71.5373802,18.8709677 C70.673478,18.9354842 69.8981929,19.0107523 69.2115016,19.0967742 C69.1450474,20.1290374 69.0952077,21.2096718 69.0619808,22.3387097 C69.028754,23.4677476 69.0121406,24.6128974 69.0121406,25.7741935 L69.0121406,31.3225806 Z M91.4070288,35.3870968 C91.5842397,35.7741955 91.8223626,36.1666647 92.1214058,36.5645161 C92.4204489,36.9623676 92.7859403,37.322579 93.2178914,37.6451613 C93.6498425,37.9677435 94.1537778,38.2311818 94.7297125,38.4354839 C95.3056471,38.639786 95.9480265,38.7419355 96.656869,38.7419355 C97.3878633,38.7419355 98.0468556,38.6182808 98.6338658,38.3709677 C99.220876,38.1236547 99.7192736,37.7903247 100.129073,37.3709677 C100.538873,36.9516108 100.854525,36.4569921 101.076038,35.8870968 C101.297552,35.3172015 101.408307,34.7096806 101.408307,34.0645161 C101.408307,33.0752639 101.148033,32.2903255 100.627476,31.7096774 C100.106919,31.1290294 99.4590028,30.6451632 98.6837061,30.2580645 C97.9084093,29.8709658 97.0722089,29.5161306 96.1750799,29.1935484 C95.2779508,28.8709661 94.4417504,28.4677444 93.6664537,27.983871 C92.8911569,27.5 92.2432403,26.8817242 91.7226837,26.1290323 C91.2021272,25.3763403 90.941853,24.3655977 90.941853,23.0967742 C90.941853,22.1935439 91.1079856,21.3709715 91.4402556,20.6290323 C91.7725256,19.8870931 92.2543098,19.2473145 92.885623,18.7096774 C93.5169362,18.1720403 94.2756079,17.7526897 95.1616613,17.4516129 C96.0477148,17.1505361 97.0445099,17 98.1520767,17 C99.215341,17 100.134607,17.1236547 100.909904,17.3709677 C101.685201,17.6182808 102.405108,18 103.069649,18.516129 C102.870286,18.8817223 102.704154,19.2688152 102.571246,19.6774194 C102.438338,20.0860235 102.305432,20.6021474 102.172524,21.2258065 L101.773802,21.2258065 C101.663045,20.9247297 101.513526,20.596776 101.32524,20.2419355 C101.136953,19.887095 100.882217,19.5591413 100.561022,19.2580645 C100.239828,18.9569877 99.8577232,18.7043021 99.4146965,18.5 C98.9716698,18.2956979 98.4400459,18.1935484 97.8198083,18.1935484 C97.1995707,18.1935484 96.6291827,18.2903216 96.1086262,18.483871 C95.5880696,18.6774203 95.1339745,18.9516111 94.7463259,19.3064516 C94.3586778,19.6612921 94.059639,20.086019 93.8492013,20.5806452 C93.6387635,21.0752713 93.5335463,21.6129003 93.5335463,22.1935484 C93.5335463,23.2043061 93.7938204,24 94.314377,24.5806452 C94.8349335,25.1612932 95.4828502,25.6505356 96.258147,26.0483871 C97.0334437,26.4462385 97.8696441,26.8010737 98.7667732,27.1129032 C99.6639022,27.4247327 100.500103,27.8064494 101.275399,28.2580645 C102.050696,28.7096797 102.698613,29.290319 103.219169,30 C103.739726,30.709681 104,31.6559081 104,32.8387097 C104,33.8279619 103.817254,34.7634365 103.451757,35.6451613 C103.08626,36.5268861 102.554636,37.2956956 101.856869,37.9516129 C101.159102,38.6075302 100.306288,39.1129015 99.2984026,39.4677419 C98.2905168,39.8225824 97.1442026,40 95.8594249,40 C94.4860423,40 93.3729544,39.8225824 92.5201278,39.4677419 C91.6673012,39.1129015 90.9529314,38.7096797 90.3769968,38.2580645 C90.5763589,37.7634384 90.7148024,37.3172063 90.7923323,36.9193548 C90.8698621,36.5215034 90.9418525,36.0107558 91.0083067,35.3870968 L91.4070288,35.3870968 Z" id="MINDS" fill="#FFFFFF"></path>
                    <g id="bulb" transform="translate(24.000000, 0.000000)">
                        <g id="Group-5" transform="translate(5.625000, 15.999893)">
                            <path d="M1.38075801,2.38060693 L1.26825801,3.98613254 L1.38075801,2.38060693 Z" id="Triangle-3" fill="#656565"></path>
                            <polygon id="Triangle-3" fill="#656565" points="0 3.43250302 1.39232673 2.26988103 2.78465347 4.53976206"></polygon>
                            <polygon id="Triangle-3" fill="#787778" points="0 0 0 3.43250302 1.39232673 2.26988103"></polygon>
                            <polygon id="Triangle-3" fill="#5C5C5C" points="4.1769802 2.26988103 2.78465347 4.53976206 5.56930693 3.43250302"></polygon>
                            <polygon id="Triangle-3" fill="#787778" points="5.56930693 3.43250302 4.1769802 2.26988103 5.56930693 0"></polygon>
                            <polygon id="Triangle-3" fill="#4A4A4A" points="0 0 5.56930693 0 2.78465347 4.53976206"></polygon>
                        </g>
                        <g id="Group">
                            <polygon id="Triangle-3" fill="#FED12F" points="6.18193069 5.53629519 12.085396 7.97226508 7.85272277 11.3494051"></polygon>
                            <polygon id="Triangle-3" fill="#FED12F" points="10.6373762 1.43943675 13.9789604 4.87193977 12.085396 7.97226508"></polygon>
                            <polygon id="Triangle-3" fill="#FED12F" points="5.625 15.9998931 11.7512376 14.2282787 11.1943069 15.9998931"></polygon>
                            <polygon id="Triangle-3" fill="#FED12F" points="5.06806931 14.2282787 7.85272277 11.3494051 5.625 15.9998931"></polygon>
                            <polygon id="Triangle-3" fill="#FED12F" points="2.84034653 4.87193977 6.18193069 1.43943675 6.18193069 5.53629519"></polygon>
                            <polygon id="Triangle-3" fill="#FFF3CB" points="7.85272277 11.3494051 11.7512376 14.2282787 12.085396 7.97226508"></polygon>
                            <polygon id="Triangle-3" fill="#FFF3CB" transform="translate(5.124148, 11.196364) rotate(140.000000) translate(-5.124148, -11.196364) " points="3.13231217 9.32523396 6.62302282 13.4828984 7.11598468 8.90982969"></polygon>
                            <polygon id="Triangle-3" fill="#FFDD63" transform="translate(10.441380, 5.018882) rotate(-53.000000) translate(-10.441380, -5.018882) " points="7.46475457 1.9285215 13.4180053 3.02124756 9.07209665 8.10924185"></polygon>
                            <polygon id="Triangle-3" fill="#FFEDAC" transform="translate(6.273871, 9.426482) rotate(-53.000000) translate(-6.273871, -9.426482) " points="3.22235998 7.00831074 9.32538119 7.01188276 5.68833292 11.8446535"></polygon>
                            <polygon id="Triangle-3" fill="#FFDD63" transform="translate(8.280976, 14.807282) rotate(-53.000000) translate(-8.280976, -14.807282) " points="5.73010844 13.4038562 10.7848303 12.3842612 10.8318445 17.2303029"></polygon>
                            <polygon id="Triangle-3" fill="#FFDD63" transform="translate(11.918317, 11.100272) rotate(-53.000000) translate(-11.918317, -11.100272) " points="9.31962878 12.8493179 14.5170049 9.35122579 13.9122299 12.5963676"></polygon>
                            <polygon id="Triangle-3" fill="#FFDD63" transform="translate(3.120169, 7.049997) rotate(-53.000000) translate(-3.120169, -7.049997) " points="0.0686579082 8.58068857 4.6912414 5.51573374 6.17167913 8.58426059"></polygon>
                            <polygon id="Triangle-3" fill="#FEE382" transform="translate(14.146040, 7.640087) rotate(-53.000000) translate(-14.146040, -7.640087) " points="12.6406244 6.19429377 16.2562298 5.84073915 12.0358494 9.43943558"></polygon>
                            <polygon id="Triangle-3" fill="#FEF1C0" transform="translate(8.149059, 2.771890) rotate(160.000000) translate(-8.149059, -2.771890) " points="5.35508072 3.17293139 10.9430381 0.846995867 9.54183 4.69678352"></polygon>
                        </g>
                    </g>
                </g>
            </g>
        </g>
    </g>
</svg>
