<?xml version="1.0" encoding="UTF-8"?>
<svg width="226px" height="378px" viewBox="0 0 226 378" version="1.1" xmlns="http://www.w3.org/2000/svg" xmlns:xlink="http://www.w3.org/1999/xlink">
    <!-- Generator: Sketch 47 (45396) - http://www.bohemiancoding.com/sketch -->
    <title>Slice 6</title>
    <desc>Created with Sketch.</desc>
    <defs></defs>
    <g id="Page-1" stroke="none" stroke-width="1" fill="none" fill-rule="evenodd">
        <g id="bulb" transform="translate(12.000000, 12.000000)" stroke-width="24">
            <path d="M49.2284342,250.003928 C48.1907281,283.063218 47.671875,283.689885 47.671875,251.883929 C47.671875,204.174995 16.90625,179.223214 2.921875,123.330357 C-11.0625,67.4375 30.890625,0.366071429 100.8125,0.366071429 C170.734375,0.366071429 212.6875,67.4375 198.703125,123.330357 C184.71875,179.223214 153.953125,204.174995 153.953125,251.883929 C153.953125,283.689885 152.872128,283.063218 150.710134,250.003928 L49.2284342,250.003928 Z" id="Path" stroke="#FFDC51"></path>
            <path d="M47.671875,279.855786 L47.671875,290.846556 L47.671875,298.099859 L47.671875,305.598214 L47.671875,312.676625 L47.671875,320.01088 L47.671875,326.274234 L84.1785984,353.107143 L117.084231,353.107143 C141.663494,335.796232 153.953125,327.140777 153.953125,327.140777 C153.953125,327.140777 153.953125,322.319393 153.953125,312.676625 L153.953125,305.598214 L153.953125,298.099859 L153.953125,290.846556 L153.953125,287.109809 L153.953125,279.855786 L153.953125,272.840051 L153.953125,258.089286 L150.33173,258.089286 L47.671875,258.089286 L47.671875,279.855786 Z" id="Path-4" stroke="#666666" fill="#666666"></path>
        </g>
    </g>
</svg>