<svg width="120" height="16" viewBox="0 0 120 16" fill="none" xmlns="http://www.w3.org/2000/svg">
<g clip-path="url(#clip0_220_513)">
<path d="M84.2294 0C85.7453 0.0419531 87.5818 0.10788 88.6903 1.25859C89.3451 2.03421 89.7011 3.01839 89.694 4.03349C89.7132 4.47663 89.6394 4.91889 89.4774 5.33179C89.3154 5.74468 89.0687 6.11906 88.7533 6.43081C88.3054 6.82802 87.7939 7.14712 87.2403 7.37475C87.9199 7.53014 88.5501 7.8525 89.0738 8.3127C89.766 9.09076 90.1356 10.1034 90.1074 11.1445C90.1198 11.6328 90.0335 12.1185 89.8539 12.5726C89.6742 13.0268 89.4048 13.44 89.0618 13.7876C87.8635 15.0072 86.2876 15.0282 84.5679 15.0701H77.6562V11.9956L79.0014 12.0166V3.05359L77.6562 3.07456V0H84.2294ZM82.9171 6.06222C84.1335 6.0832 84.3043 6.0832 84.6039 6.02027C84.9424 5.94805 85.2441 5.75758 85.4549 5.483C85.6658 5.20842 85.7719 4.86771 85.7543 4.52194C85.771 4.2453 85.7107 3.96943 85.5801 3.72502C85.4495 3.4806 85.2536 3.27722 85.0143 3.13749C84.6728 2.96668 84.4601 2.96668 82.9441 2.94571L82.9171 6.06222ZM82.9171 11.9956H84.1155C84.9454 11.9956 86.1198 11.9746 86.1198 10.5452C86.1374 10.238 86.0585 9.93297 85.8941 9.67287C85.7297 9.41278 85.4881 9.21066 85.2031 9.09483C84.8405 8.945 84.6698 8.945 82.9411 8.945L82.9171 11.9956Z" fill="#7D7D82"/>
<path d="M101.389 11.2704C101.239 12.0615 101.044 13.1073 100.065 14.0453C99.0849 14.9832 97.6678 15.3278 96.2866 15.3278C93.3416 15.3278 90.7591 13.8984 90.7591 9.58627C90.745 8.83514 90.8461 8.08628 91.0587 7.36575C91.8077 4.8246 93.8779 3.76978 96.1518 3.76978C97.8595 3.76978 99.2466 4.3691 100.047 5.1782C101.67 6.75743 101.586 9.31957 101.563 10.3025H94.8126C94.8126 11.1565 94.8366 12.6698 96.2207 12.6698C97.3742 12.6698 97.524 11.6899 97.5899 11.2824L101.389 11.2704ZM97.5959 8.19583C97.6119 7.90007 97.5754 7.60381 97.488 7.3208C97.3955 7.07126 97.2254 6.85799 97.0026 6.71235C96.7799 6.56671 96.5163 6.49638 96.2507 6.51171C94.9684 6.51171 94.9265 7.74932 94.9265 8.19583H97.5959Z" fill="#7D7D82"/>
<path d="M112.849 11.9956V15.0702H108.238L108.154 13.7906C107.821 14.2886 107.365 14.692 106.83 14.9614C106.295 15.2307 105.7 15.357 105.101 15.3279C103.115 15.3279 101.878 14.1532 101.878 12.0166C101.854 11.4387 101.98 10.8646 102.242 10.3492C102.504 9.83385 102.895 9.39466 103.376 9.07386C104.784 8.11193 106.971 8.19584 108.049 8.21682C108.078 7.82588 108.063 7.43306 108.008 7.04513C107.976 6.81458 107.861 6.6038 107.683 6.45373C107.505 6.30366 107.278 6.225 107.046 6.23304C106.911 6.23121 106.777 6.25684 106.653 6.30836C106.528 6.35987 106.415 6.4362 106.321 6.5327C106.196 6.67901 106.103 6.84883 106.045 7.03207C105.987 7.21532 105.967 7.40828 105.985 7.59951H102.261C102.261 6.97987 102.392 6.3672 102.645 5.80152C103.436 4.20131 105.443 3.73083 106.98 3.73083C108.43 3.73083 110.096 4.15636 111.012 5.09731C111.845 5.92738 111.929 6.8953 111.929 7.70139V11.9956H112.849ZM108.055 10.1616C107.654 10.1132 107.247 10.1427 106.857 10.2485C106.561 10.3275 106.302 10.5064 106.123 10.7549C105.943 11.0034 105.856 11.3062 105.874 11.612C105.874 12.3582 106.261 12.7657 106.836 12.7657C107.029 12.7683 107.218 12.7203 107.387 12.6268C107.555 12.5332 107.695 12.3972 107.795 12.2323C107.968 11.9265 108.057 11.58 108.052 11.2284L108.055 10.1616Z" fill="#7D7D82"/>
<path d="M118.229 0.554382V4.01251H120V7.07509H118.229V11.0576C118.25 11.4622 118.292 12.2953 119.317 12.2953C119.513 12.2968 119.709 12.2612 119.892 12.1904V15.0072C119.127 15.1697 118.349 15.263 117.567 15.2859C116.33 15.2859 115.389 14.9413 114.919 14.4738C114.32 13.8745 114.302 13.0864 114.302 12.4661V7.07509H113.34V4.01251H114.601V1.38146L118.229 0.554382Z" fill="#7D7D82"/>
<path d="M0 0H6.46827V3.07456L5.14406 3.05359L7.34009 11.6779L9.70989 3.05359L8.38867 3.07456V0H14.3207V3.07456L13.317 3.05359L9.58107 15.0701H4.71563L0.937734 3.05359L0 3.07456V0Z" fill="#4F4F50"/>
<path d="M23.5813 11.2704C23.4315 12.0615 23.2398 13.1073 22.2601 14.0453C21.2804 14.9832 19.8633 15.3278 18.4822 15.3278C15.5372 15.3278 12.9546 13.8984 12.9546 9.58627C12.9393 8.83507 13.0403 8.08601 13.2542 7.36575C14.0002 4.8246 16.0704 3.76978 18.3474 3.76978C20.0551 3.76978 21.4422 4.3691 22.2421 5.1782C23.8659 6.75743 23.779 9.31957 23.7581 10.3025H17.0082C17.0082 11.1565 17.0291 12.6698 18.4163 12.6698C19.5697 12.6698 19.7195 11.6899 19.7824 11.2824L23.5813 11.2704ZM19.7824 8.19583C19.798 7.90029 19.7626 7.60428 19.6776 7.3208C19.5849 7.07074 19.4143 6.85711 19.191 6.71142C18.9676 6.56574 18.7034 6.49572 18.4372 6.51171C17.158 6.51171 17.116 7.74933 17.116 8.19583H19.7824Z" fill="#4F4F50"/>
<path d="M35.5316 11.9956H36.4514V15.0702H31.562V8.57343C31.5751 8.30104 31.5468 8.02824 31.4781 7.76434C31.4033 7.58493 31.2746 7.4332 31.1099 7.33012C30.9451 7.22705 30.7524 7.17773 30.5584 7.18898C30.4075 7.18903 30.2583 7.21927 30.1194 7.27795C29.9804 7.33662 29.8546 7.42253 29.7494 7.5306C29.366 7.91417 29.342 8.40262 29.321 9.02892V12.0256H30.07V15.0702H24.4766V11.9956H25.3753V7.07511H24.4766V4.01253H28.8537L28.9795 5.69965C29.1478 5.36471 29.3717 5.06074 29.6416 4.80065C30.0113 4.44164 30.449 4.16019 30.9291 3.97287C31.4091 3.78554 31.9217 3.69613 32.4368 3.70987C33.5903 3.70987 34.3602 4.13839 34.7647 4.56691C35.4897 5.2921 35.5107 6.1881 35.5316 6.96423V11.9956Z" fill="#4F4F50"/>
<path d="M41.741 0.554382V4.01251H43.5116V7.07509H41.741V11.0576C41.7619 11.4622 41.8039 12.2953 42.8285 12.2953C43.0261 12.297 43.2223 12.2614 43.4067 12.1904V15.0072C42.6407 15.1697 41.8616 15.263 41.0789 15.2859C39.8415 15.2859 38.9038 14.9413 38.4334 14.4738C37.8342 13.8745 37.8133 13.0864 37.8133 12.4661V7.07509H36.8516V4.01251H38.1129V1.38146L41.741 0.554382Z" fill="#4F4F50"/>
<path d="M49.0183 4.01251V10.4823C49.0183 10.9288 49.0602 11.9536 50.0639 11.9536C51.0675 11.9536 51.1095 10.8449 51.1095 10.2695V7.07509L50.3006 7.09606V4.01251H55.0941V12.0166L56.0109 11.9956V15.0701H51.46V13.8325C51.0919 14.3731 50.5701 14.7907 49.962 15.0312C49.425 15.2434 48.8527 15.3522 48.2753 15.3518C47.8467 15.3729 47.4182 15.3082 47.0149 15.1615C46.6116 15.0149 46.2415 14.7892 45.9265 14.4978C45.0936 13.6887 45.0517 12.6189 45.0277 11.597V7.07509L44.1289 7.09606V4.01251H49.0183Z" fill="#4F4F50"/>
<path d="M61.2901 5.93335C61.4609 5.33402 61.8654 3.88664 63.9865 3.88664C64.3401 3.88078 64.6929 3.92312 65.0351 4.0125V7.55754C64.7269 7.48447 64.4111 7.44826 64.0943 7.44966C63.4099 7.42004 62.7394 7.64895 62.2159 8.09094C61.7036 8.60337 61.6826 9.17872 61.6826 10.1886L61.6407 11.9866H62.9409V15.0701H56.8711V11.9956H57.7879V7.07508H56.8711V4.0125H61.1613L61.2901 5.93335Z" fill="#4F4F50"/>
<path d="M76.4836 11.2704C76.3368 12.0615 76.1451 13.1073 75.1624 14.0453C74.1798 14.9832 72.7657 15.3278 71.3845 15.3278C68.4395 15.3278 65.857 13.8984 65.857 9.58627C65.8416 8.83507 65.9427 8.08601 66.1566 7.36575C66.9026 4.8246 68.9728 3.76978 71.2347 3.76978C72.9424 3.76978 74.3296 4.3691 75.1295 5.1782C76.7503 6.75743 76.6664 9.31957 76.6454 10.3025H69.9135C69.9135 11.1565 69.9345 12.6698 71.3186 12.6698C72.4721 12.6698 72.6219 11.6899 72.6878 11.2824L76.4836 11.2704ZM72.6878 8.19583C72.7038 7.90007 72.6673 7.60381 72.5799 7.3208C72.4882 7.07071 72.3182 6.85688 72.0953 6.71112C71.8724 6.56535 71.6084 6.49541 71.3426 6.51171C70.0603 6.51171 70.0184 7.74933 70.0184 8.19583H72.6878Z" fill="#4F4F50"/>
</g>
<defs>
<clipPath id="clip0_220_513">
<rect width="120" height="15.3488" fill="white"/>
</clipPath>
</defs>
</svg>
