<svg width="80" height="19" viewBox="0 0 80 19" fill="none" xmlns="http://www.w3.org/2000/svg">
<g clip-path="url(#clip0_220_511)">
<path d="M10.2793 4.21211V14.2495C10.2793 15.3785 10.7267 16.4612 11.5229 17.2595C12.3191 18.0579 13.3991 18.5064 14.5251 18.5064C15.6512 18.5064 16.7311 18.0579 17.5274 17.2595C18.3236 16.4612 18.771 15.3785 18.771 14.2495V4.21211C18.771 3.08311 18.3236 2.00035 17.5274 1.20202C16.7311 0.403695 15.6512 -0.0447998 14.5251 -0.0447998C13.3991 -0.0447998 12.3191 0.403695 11.5229 1.20202C10.7267 2.00035 10.2793 3.08311 10.2793 4.21211ZM13.3184 14.2495V4.21211C13.3166 4.05087 13.3484 3.89104 13.4119 3.74287C13.4753 3.5947 13.569 3.46148 13.6868 3.35176C13.8047 3.24204 13.9441 3.15825 14.0962 3.10577C14.2483 3.0533 14.4096 3.0333 14.5698 3.04706C14.7238 3.04208 14.8771 3.06881 15.0203 3.12559C15.1636 3.18238 15.2936 3.26801 15.4026 3.37721C15.5115 3.4864 15.5969 3.61683 15.6535 3.76044C15.7102 3.90404 15.7368 4.05777 15.7318 4.21211V14.2495C15.7272 14.557 15.6033 14.8507 15.3864 15.0681C15.1695 15.2856 14.8766 15.4099 14.5698 15.4145C14.4113 15.4205 14.2532 15.3951 14.1045 15.3398C13.9558 15.2845 13.8195 15.2003 13.7032 15.0921C13.587 14.9839 13.4932 14.8538 13.4272 14.7092C13.3611 14.5646 13.3242 14.4084 13.3184 14.2495ZM43.2626 0.179248H34.6816V3.2263H37.4525V18.1927H40.4916V3.2263H43.2626V0.179248ZM52.2011 0.179248V14.2495C52.2011 14.5584 52.0787 14.8548 51.8608 15.0733C51.6429 15.2918 51.3473 15.4145 51.0391 15.4145C50.7309 15.4145 50.4354 15.2918 50.2174 15.0733C49.9995 14.8548 49.8771 14.5584 49.8771 14.2495V0.179248H46.7486V14.2495C46.7486 15.3903 47.2006 16.4845 48.0053 17.2912C48.8099 18.098 49.9012 18.5512 51.0391 18.5512C52.177 18.5512 53.2683 18.098 54.0729 17.2912C54.8776 16.4845 55.3296 15.3903 55.3296 14.2495V0.179248H52.2011ZM80 3.2263V0.179248H72.4916V18.1927H80V15.1456H75.5307V10.4854H78.3911V7.4384H75.5307V3.2263H80ZM31.8212 18.1927H28.6034L26.3687 9.67888C26.9262 9.56827 27.4278 9.26601 27.7868 8.82426C28.1458 8.38251 28.3398 7.82897 28.3352 7.25916V4.48097C28.3389 4.3152 28.309 4.1504 28.2474 3.99652C28.1858 3.84263 28.0938 3.70285 27.9768 3.58561C27.8599 3.46836 27.7205 3.37608 27.567 3.31432C27.4135 3.25257 27.2491 3.22263 27.0838 3.2263H25.9218V18.1927H22.8827V0.179248H27.0838C28.194 0.169266 29.2642 0.59481 30.0658 1.36504C30.8675 2.13527 31.337 3.18916 31.3743 4.30173V7.16954C31.4151 7.91379 31.283 8.65736 30.9882 9.34166C30.6935 10.026 30.2443 10.6323 29.676 11.1128L31.8212 18.1927ZM65.6983 0.179248V10.0374L62.5698 0.179248H59.4413V18.1927H62.5698V9.41002L65.4302 18.1927H68.8268V0.179248H65.6983ZM0 0.448105V18.4616H3.21788V10.7543H6.1676V7.70726H3.21788V3.49516H7.86592V0.448105H0Z" fill="#7D7D82"/>
</g>
<defs>
<clipPath id="clip0_220_511">
<rect width="80" height="18.4615" fill="white"/>
</clipPath>
</defs>
</svg>
