<svg width="70" height="23" viewBox="0 0 70 23" fill="none" xmlns="http://www.w3.org/2000/svg">
<g clip-path="url(#clip0_220_535)">
<path d="M23.3884 22.8261V0H0V22.8261H23.3884Z" fill="#4F4F50"/>
<path d="M46.8853 22.8261V0H23.3867V22.8261H46.8853Z" fill="#A8A8A8"/>
<path d="M69.9997 22.8261V0H46.8867V22.8261H69.9997Z" fill="#7D7D82"/>
<path d="M14.1434 17.5999V10.6874C14.1434 9.6705 13.9505 8.92841 13.5511 8.44743C13.1517 7.96644 12.518 7.74656 11.6227 7.74656C11.1544 7.76031 10.7136 7.88399 10.3004 8.09012C9.87342 8.28252 9.48774 8.58485 9.19849 8.9559V17.6136H6.40234V5.589H8.42714L8.95055 6.71588C9.70813 5.83636 10.8376 5.39661 12.339 5.39661C13.7715 5.39661 14.901 5.82262 15.7274 6.67465C16.5539 7.52668 16.9671 8.72228 16.9671 10.2477V17.6136L14.1434 17.5999Z" fill="white"/>
<path d="M34.9136 17.8335C36.7456 17.8335 38.2057 17.2976 39.2663 16.2394C40.3269 15.1812 40.8641 13.6696 40.8641 11.7044C40.8641 7.48547 38.9494 5.38288 35.1065 5.38288C34.1423 5.3554 33.2057 5.7127 32.5169 6.38608V5.58902H29.707V20.7881H32.5032V17.3113C33.2607 17.6686 34.0872 17.8473 34.9136 17.8335ZM34.2938 7.77407C35.5886 7.77407 36.5114 8.06266 37.0762 8.63984C37.6409 9.21702 37.9164 10.2202 37.9164 11.6357C37.9164 12.9687 37.6271 13.9307 37.0762 14.5491C36.5114 15.1675 35.5886 15.4698 34.2938 15.4698C33.6464 15.4836 33.0128 15.2637 32.5169 14.8514V8.55738C32.9715 8.06266 33.6189 7.78781 34.2938 7.77407Z" fill="white"/>
<path d="M61.7487 8.21378C61.2528 7.89771 60.6881 7.7328 60.1096 7.74654C59.4622 7.74654 58.8837 8.03513 58.3878 8.62605C57.8782 9.23071 57.6027 10.0003 57.6302 10.7836V17.5998H54.8203V5.589H57.6302V6.74335C58.4153 5.8501 59.4484 5.39661 60.7569 5.39661C61.7074 5.39661 62.4374 5.54777 62.947 5.83636L61.7487 8.21378Z" fill="white"/>
</g>
<defs>
<clipPath id="clip0_220_535">
<rect width="70" height="22.8261" fill="white"/>
</clipPath>
</defs>
</svg>
