<svg width="40" height="40" viewBox="0 0 40 40" fill="none" xmlns="http://www.w3.org/2000/svg">
<path d="M0 0H40V32.4437H0V0Z" fill="#4F4F50"/>
<path d="M0 32.8875H40V40H0V32.8875Z" fill="#7D7D82"/>
<path d="M40 23.2227H39.9255C39.4818 22.1344 38.9798 21.0721 38.4194 20.0389H38.9117C39.3004 20.7838 39.6632 21.5385 40 22.3061V23.2227ZM0 4.44372C1.96923 3.783 3.99352 3.3166 6.05344 3.04777L6.63968 0H11.3911L10.3255 2.76599C11.6049 2.76275 12.881 2.83725 14.1506 2.98947L15.6308 0H20.8518L18.3644 3.77652C21.6648 4.63158 24.8065 6.00486 27.6696 7.84777C28.2397 8.21377 28.7935 8.59919 29.3312 8.99757H28.5765C25.4121 6.76923 21.8656 5.13036 18.1117 4.16842L15.0704 8.88745H12.8874V12.1004L7.50121 20.8875H5.77814V23.8251L0.259109 32.4437H0.0842105L13.9498 3.40405C12.6964 3.2583 11.4332 3.19028 10.1733 3.2L0.0388664 32.4437H0V4.44372ZM0 31.9028L5.95628 3.50769C3.93846 3.78947 1.95304 4.26883 0.0259109 4.93279H0V31.9028Z" fill="white"/>
<path d="M16.4453 16.3012H19.3668V13.5709H16.4453V12.2688H20.0016L19.8072 9.53198H13.472V19.553H16.4453V16.3012ZM28.8048 19.5239H32.0016L33.4591 17.0656L34.9522 19.5271H38.2234L35.0688 14.3352L37.9093 9.54818H34.6704L33.4493 11.6275L32.1829 9.5417H28.889L31.8137 14.3579L28.8048 19.5239ZM25.0866 19.634C27.9141 19.6729 30.2396 17.4186 30.2882 14.5911C30.1684 11.715 27.7425 9.48016 24.8631 9.59676C22.1522 9.71012 19.9821 11.8802 19.8688 14.5911C19.9141 17.4219 22.2461 19.6794 25.0769 19.634H25.0866ZM24.1667 12.3919C24.17 11.8964 24.5619 11.4947 25.0542 11.4721C25.5627 11.4818 25.974 11.8866 25.9935 12.3919V16.6445C25.9578 17.1498 25.5206 17.5287 25.0153 17.4931C24.5587 17.4607 24.1991 17.098 24.1667 16.6445V12.3919ZM17.1222 27.0348H20.1473V25.03H17.1222V23.6664H20.808V21.4964H14.787V30.8664H20.8534V28.6122H17.1222V27.0348ZM30.1425 21.4964L28.9829 26.8599L27.8493 21.4964H25.8477L24.7692 26.915L23.6453 21.4964H21.2583L23.4251 30.8664H25.6016L26.6672 25.4964L27.7651 30.8664H29.8963L32.0728 21.4964H30.1425ZM38.0453 25.7296C37.4234 25.1563 36.7109 25.0041 35.9109 24.7773C34.9651 24.5117 34.4437 24.4826 34.4437 23.932C34.4825 23.5239 34.8453 23.2259 35.2534 23.2648C35.2566 23.2648 35.2599 23.2648 35.2599 23.2648C35.8623 23.2162 36.4129 23.6146 36.5522 24.2041L38.5959 23.5239C38.2169 22.0988 36.8955 21.1304 35.4218 21.1951C33.2874 21.1951 31.9821 22.5069 31.9821 24.2721C31.9821 25.7976 32.8696 26.549 34.6477 27.0802C35.7101 27.4008 36.2736 27.3749 36.2736 28.0583C36.2736 28.4178 35.94 28.6996 35.3862 28.6996C34.6542 28.7838 33.987 28.2818 33.8607 27.5563L31.6194 28.0486C32.0016 29.8267 33.3263 30.8826 35.357 30.8826C36.3611 30.9085 37.3295 30.5101 38.0226 29.7846C38.5344 29.2211 38.8161 28.4858 38.8097 27.7215C38.8518 26.9765 38.57 26.251 38.042 25.7263H38.0453V25.7296ZM11.8785 26.1992L9.0866 21.5385H6.37891V30.8729H8.75623V25.4186L11.9433 30.8599H14.1975V21.5255H11.885L11.8785 26.1992Z" fill="white"/>
<path d="M3.84374 36.1036C4.09961 36.0583 4.35224 36.2041 4.44293 36.447H5.77734C5.69313 35.8154 4.97734 35.4397 3.86317 35.4397C2.58706 35.4559 1.77734 36.0032 1.77734 36.8939C1.77734 37.7036 2.5741 38.2283 3.7822 38.2283C4.89637 38.2283 5.62512 37.8429 5.76115 37.1854H4.44617C4.37168 37.4381 4.16115 37.5644 3.82107 37.5644C3.37734 37.5644 3.13767 37.3279 3.13767 36.8583C3.13767 36.3887 3.38706 36.1036 3.84374 36.1036ZM16.8219 37.6324V36.651C16.8737 36.3466 16.7733 36.0356 16.5563 35.8186C16.1093 35.5498 15.5879 35.43 15.0664 35.4818C13.9166 35.4818 13.2883 35.7603 13.1587 36.3692H14.3798C14.4316 36.1781 14.6551 36.0745 15.0373 36.0745C15.4194 36.0745 15.562 36.1555 15.562 36.3045V36.366C15.562 36.5668 15.0599 36.5247 14.1207 36.6672C13.4049 36.7741 13.0454 37.0397 13.0454 37.4704C13.0454 37.9012 13.515 38.2186 14.3118 38.2186C14.7652 38.2316 15.2154 38.1085 15.6008 37.8688C15.6138 37.9595 15.6364 38.0502 15.6688 38.1344H17.0033V38.0372C16.8867 37.9919 16.8251 37.8559 16.8251 37.6227L16.8219 37.6324ZM15.5555 37.2146C15.5555 37.4899 15.2348 37.6583 14.7879 37.6583C14.4899 37.6583 14.2988 37.5287 14.2988 37.3506C14.2988 37.1725 14.4381 37.1142 14.7425 37.0624C15.0178 37.0364 15.2899 36.9879 15.5555 36.9166V37.2146ZM21.5377 35.485C21.0875 35.4462 20.6437 35.5984 20.3101 35.9028V35.5563H19.0211V38.1474H20.3555V36.7547C20.3555 36.3109 20.5466 36.1296 21.0259 36.1296C21.5053 36.1296 21.583 36.3595 21.583 36.8356V38.1377H22.9174V36.4437C22.9012 35.7895 22.5352 35.485 21.5539 35.485H21.5377ZM10.0073 35.5206C9.5571 35.4883 9.11014 35.634 8.76358 35.9255V34.6688H7.42916V38.1798H8.76358V36.7968C8.76358 36.353 8.95467 36.1717 9.43402 36.1717C9.91337 36.1717 9.99111 36.4016 9.99111 36.8777V38.1798H11.3255V36.4016C11.3255 35.8251 10.8688 35.5206 10.0203 35.5206H10.0073ZM27.7854 35.485C27.3352 35.4462 26.8915 35.5984 26.5579 35.9028V35.5563H25.2915V38.1474H26.6259V36.7547C26.6259 36.3109 26.817 36.1296 27.2964 36.1296C27.7757 36.1296 27.8535 36.3595 27.8535 36.8356V38.1377H29.1879V36.4437C29.1717 35.7895 28.8024 35.485 27.8178 35.485H27.7854ZM32.9676 35.4591C31.7336 35.4591 30.9336 35.987 30.9336 36.8551C30.9336 37.7231 31.7498 38.2251 33 38.2251C34.0364 38.2251 34.7781 37.8947 35.0016 37.3377H33.7255C33.6316 37.5255 33.4049 37.6227 33.0454 37.6227C32.5757 37.6227 32.3198 37.4283 32.3198 37.0624H35.0567C35.0599 37.0105 35.0599 36.9619 35.0567 36.9101C35.0664 36.0032 34.2729 35.4623 33 35.4623L32.9676 35.4591ZM32.2518 36.5636C32.3037 36.217 32.5822 36.0292 33.0065 36.0292C33.4308 36.0292 33.7547 36.2235 33.7611 36.5636H32.2518ZM36.8867 34.6656V38.1765H38.2211V34.6656H36.8867Z" fill="white"/>
</svg>
