<svg width="85" height="34" viewBox="0 0 85 34" fill="none" xmlns="http://www.w3.org/2000/svg">
<path d="M52.0861 12.9654C50.7311 12.9654 49.6668 13.2576 48.6019 13.8408C48.6019 10.7274 48.6019 7.90621 48.6992 6.93359L42.2131 8.10062V8.68442L42.8906 8.78162C43.761 8.97603 44.0528 9.46206 44.2445 10.6302C44.4396 12.9654 44.3418 25.4195 44.2445 27.463C45.9869 27.8524 47.8266 28.1446 49.6662 28.1446C54.7967 28.1446 57.8941 24.9335 57.8941 19.8737C57.8941 15.8849 55.3775 12.9654 52.0861 12.9654ZM49.8596 27.0737C49.4723 27.0737 48.9876 27.0737 48.6981 26.977C48.6008 25.615 48.5046 19.8737 48.6008 14.8145C49.1816 14.6196 49.5684 14.5224 50.0531 14.5224C52.184 14.5224 53.3456 17.052 53.3456 20.1648C53.345 24.058 51.8927 27.0737 49.8596 27.0737ZM17.8184 7.32242H0.78125V8.19783L1.74944 8.29503C3.00718 8.48944 3.49183 9.26765 3.68469 11.1162C3.97593 14.619 3.87866 20.9441 3.68469 23.9592C3.49128 25.8083 3.00774 26.6843 1.74944 26.7804L0.78125 26.9759V27.7541H11.7197V26.9759L10.5581 26.7804C9.29983 26.6837 8.81574 25.8083 8.62232 23.9592C8.52506 22.6938 8.42835 20.6502 8.42835 18.1212L10.7515 18.2184C12.2038 18.2184 12.8808 19.386 13.1715 21.0396H14.0429V14.1335H13.1715C12.8802 15.7877 12.2038 16.9547 10.7515 16.9547L8.42891 17.0525C8.42891 13.7442 8.52562 10.6308 8.62288 8.78218H12.0104C14.6249 8.78218 15.9799 10.4358 16.9475 13.3553L17.9157 13.0632L17.8184 7.32242Z" fill="#7D7D82"/>
<path d="M23.3355 12.7709C28.1759 12.7709 30.5958 16.0793 30.5958 20.4575C30.5958 24.6412 27.8852 28.1451 23.0449 28.1451C18.2051 28.1451 15.7852 24.8362 15.7852 20.4575C15.7852 16.2737 18.4952 12.7709 23.3355 12.7709ZM23.0449 13.7441C20.9151 13.7441 20.3343 16.6631 20.3343 20.4575C20.3343 24.1546 21.3025 27.1708 23.2388 27.1708C25.4636 27.1708 26.0456 24.2518 26.0456 20.4575C26.0456 16.7603 25.0785 13.7441 23.0449 13.7441ZM59.1511 20.5552C59.1511 16.5659 61.6677 12.7709 66.6048 12.7709C70.6693 12.7709 72.6062 15.7877 72.6062 19.7765H63.6035C63.5063 23.3764 65.2486 26.0038 68.734 26.0038C70.283 26.0038 71.0572 25.6155 72.0259 24.934L72.4122 25.42C71.444 26.782 69.3148 28.1451 66.6048 28.1451C62.2485 28.1446 59.1511 25.0312 59.1511 20.5552ZM63.6035 18.7066L68.1532 18.6089C68.1532 16.6631 67.8625 13.7441 66.2174 13.7441C64.5723 13.7441 63.6997 16.4681 63.6035 18.7066ZM84.1271 13.5497C82.9655 13.0625 81.4171 12.7709 79.6747 12.7709C76.0938 12.7709 73.8662 14.9111 73.8662 17.4413C73.8662 19.9714 75.5102 21.0413 77.8362 21.82C80.2555 22.6949 80.9336 23.3764 80.9336 24.544C80.9336 25.7116 80.0621 26.7814 78.5131 26.7814C76.6746 26.7814 75.3184 25.7116 74.2541 22.7921L73.576 22.9876L73.6733 27.2686C74.8349 27.7546 76.9641 28.1446 78.8038 28.1446C82.5793 28.1446 84.9997 26.1976 84.9997 23.182C84.9997 21.1385 83.9343 19.9714 81.4177 18.9977C78.7065 17.9279 77.7395 17.2469 77.7395 15.9815C77.7395 14.7167 78.6121 13.8407 79.7737 13.8407C81.5149 13.8407 82.6765 14.9111 83.5491 17.5385L84.2261 17.3441L84.1271 13.5497ZM43.1794 13.1603C41.5343 12.1883 38.6297 12.6737 37.0813 16.177L37.1775 12.7715L30.6925 14.0363V14.6201L31.37 14.7173C32.2421 14.815 32.6283 15.3011 32.7256 16.5664C32.919 18.9016 32.8223 22.9887 32.7256 25.0317C32.6283 26.1982 32.2421 26.782 31.37 26.8798L30.6925 26.9775V27.7557H39.6946V26.9775L38.533 26.8798C37.5654 26.782 37.2747 26.1982 37.1775 25.0317C36.984 23.1826 36.984 19.4854 37.0813 17.1502C37.5648 16.4687 39.6946 15.8854 41.6304 17.1502L43.1794 13.1603Z" fill="#7D7D82"/>
</svg>
