<svg width="90" height="36" viewBox="0 0 90 36" fill="none" xmlns="http://www.w3.org/2000/svg">
<path d="M75.8699 10.71V23.13H81.9899C83.6999 23.13 84.6899 22.86 85.4099 22.23C86.3099 21.42 86.7599 19.98 86.7599 16.92C86.7599 13.86 86.3099 12.42 85.4099 11.61C84.6899 10.98 83.6999 10.71 81.9899 10.71H75.8699ZM84.2399 16.92C84.2399 19.62 84.0599 20.25 83.5199 20.61C83.1599 20.88 82.7099 20.97 81.8099 20.97H78.3899V12.78H81.8099C82.7099 12.78 83.1599 12.78 83.5199 13.14C84.0599 13.59 84.2399 14.22 84.2399 16.92ZM89.9099 25.8753H71.9545V7.91998H89.9099V25.8753ZM57.2852 12.78V10.71H67.9052V14.67H65.6545V12.78H61.3345V15.75H64.7545V17.73H61.3345V21.06H65.7452V18.9H67.9945V23.13H57.2859V21.06H58.9952V12.78H57.2852ZM47.6552 19.89C47.6552 21.24 47.7445 22.23 47.9245 23.04H50.3552C50.2645 22.41 50.1752 21.24 50.1752 19.71C50.0845 17.91 49.5445 17.64 48.2845 17.37C49.7245 17.1 50.3552 16.47 50.3552 14.22C50.3552 12.42 50.0845 11.7 49.5445 11.25C49.1845 10.89 48.5552 10.71 47.5645 10.71H40.0045V23.13H42.5245V18.27H46.0352C46.7552 18.27 47.0245 18.36 47.2952 18.54C47.5659 18.72 47.6552 18.99 47.6552 19.89ZM42.5245 16.29V12.87H46.5752C47.1152 12.87 47.2952 12.96 47.3845 13.05C47.5645 13.23 47.7445 13.5 47.7445 14.58C47.7445 15.66 47.5645 16.02 47.3845 16.2C47.2952 16.29 47.1152 16.38 46.5752 16.38L42.5245 16.29ZM53.9552 25.8753H35.9552V7.91998H53.9099V25.8753H53.9552ZM31.2752 21.06V23.13H22.7245V21.06H25.7845V12.78H22.7245V10.71H31.2745V12.78H28.2145V21.06H31.2752ZM16.8298 10.71H14.4898L12.7798 20.52L10.7998 11.43C10.7098 10.8 10.4398 10.71 9.89985 10.71H8.63985C8.09985 10.71 7.82985 10.89 7.73985 11.43L5.75985 20.52L4.04985 10.71H1.52984L3.95985 22.5C4.04985 23.04 4.22985 23.13 4.85985 23.13H6.56985C7.10985 23.13 7.28985 23.04 7.46985 22.5L9.35985 13.95L11.2498 22.5C11.3398 23.04 11.5198 23.13 12.1498 23.13H13.7698C14.3098 23.13 14.5798 23.04 14.6698 22.5L16.8298 10.71ZM18.0899 25.8753H0.0898438V7.91998H18.0452V25.8753H18.0899Z" fill="#4F4F50"/>
</svg>
