<?xml version="1.0" encoding="UTF-8"?>
<svg width="104px" height="33px" viewBox="0 0 104 33" version="1.1" xmlns="http://www.w3.org/2000/svg" xmlns:xlink="http://www.w3.org/1999/xlink">
    <title>Group 6</title>
    <g id="Page-1" stroke="none" stroke-width="1" fill="none" fill-rule="evenodd">
        <g id="Mobile-Page" transform="translate(-104.000000, -999.000000)">
            <g id="Group-6" transform="translate(104.000000, 999.000000)">
                <rect id="Rectangle" stroke="#979797" fill="#000000" x="0.5" y="0.5" width="103" height="32" rx="4"></rect>
                <path d="M32.5136719,13 C33.0878906,12.9941406 33.5910645,12.8696289 34.0231934,12.6264648 C34.4553223,12.3833008 34.7878418,12.034668 35.020752,11.5805664 C35.2536621,11.1264648 35.3701172,10.5976562 35.3701172,9.99414062 L35.3701172,9.99414062 L35.3701172,9.58544922 C35.3671875,8.99658203 35.2492676,8.47509766 35.0163574,8.02099609 C34.7834473,7.56689453 34.453125,7.21679688 34.0253906,6.97070312 C33.5976562,6.72460938 33.1054688,6.6015625 32.5488281,6.6015625 L32.5488281,6.6015625 L30.7426758,6.6015625 L30.7426758,13 L32.5136719,13 Z M32.4741211,12.3100586 L31.5864258,12.3100586 L31.5864258,7.29589844 L32.5708008,7.29589844 C33.1977539,7.30175781 33.6818848,7.50610352 34.0231934,7.90893555 C34.364502,8.31176758 34.5351562,8.87646484 34.5351562,9.60302734 L34.5351562,9.60302734 L34.5351562,9.9765625 C34.5351562,10.7236328 34.354248,11.2993164 33.9924316,11.7036133 C33.6306152,12.1079102 33.1245117,12.3100586 32.4741211,12.3100586 L32.4741211,12.3100586 Z M38.4682617,13.0878906 C38.8959961,13.0878906 39.2746582,12.9853516 39.604248,12.7802734 C39.9338379,12.5751953 40.1872559,12.2888184 40.364502,11.9211426 C40.541748,11.5534668 40.6303711,11.1381836 40.6303711,10.675293 L40.6303711,10.675293 L40.6303711,10.6181641 C40.6303711,9.87402344 40.4304199,9.27783203 40.0305176,8.82958984 C39.6306152,8.38134766 39.1069336,8.15722656 38.4594727,8.15722656 C38.0405273,8.15722656 37.6677246,8.25830078 37.3410645,8.46044922 C37.0144043,8.66259766 36.7595215,8.94970703 36.576416,9.32177734 C36.3933105,9.69384766 36.3017578,10.112793 36.3017578,10.5786133 L36.3017578,10.5786133 L36.3017578,10.6357422 C36.3017578,11.3740234 36.501709,11.9672852 36.9016113,12.4155273 C37.3015137,12.8637695 37.8237305,13.0878906 38.4682617,13.0878906 Z M38.4682617,12.4243164 C38.0581055,12.4243164 37.7307129,12.2646484 37.486084,11.9453125 C37.2414551,11.6259766 37.1191406,11.2026367 37.1191406,10.675293 C37.1191406,10.0805664 37.2421875,9.62353516 37.4882812,9.30419922 C37.734375,8.98486328 38.0581055,8.82519531 38.4594727,8.82519531 C38.8696289,8.82519531 39.1984863,8.98706055 39.4460449,9.31079102 C39.6936035,9.63452148 39.8173828,10.0571289 39.8173828,10.5786133 C39.8173828,11.1616211 39.6958008,11.6149902 39.4526367,11.9387207 C39.2094727,12.2624512 38.8813477,12.4243164 38.4682617,12.4243164 Z M43.2626953,13 L44.3876953,9.39648438 L45.543457,13 L46.2026367,13 L47.5869141,8.24511719 L46.7739258,8.24511719 L45.8598633,11.8793945 L44.7304688,8.24511719 L44.0756836,8.24511719 L42.9682617,11.8046875 L42.0322266,8.24511719 L41.2236328,8.24511719 L42.6035156,13 L43.2626953,13 Z M49.2260742,13 L49.2260742,9.61181641 C49.3374023,9.38330078 49.4926758,9.19873047 49.6918945,9.05810547 C49.8911133,8.91748047 50.1225586,8.84716797 50.3862305,8.84716797 C50.7114258,8.84716797 50.9509277,8.92919922 51.1047363,9.09326172 C51.2585449,9.25732422 51.3369141,9.51074219 51.3398438,9.85351562 L51.3398438,9.85351562 L51.3398438,13 L52.152832,13 L52.152832,9.85791016 C52.144043,8.72412109 51.637207,8.15722656 50.6323242,8.15722656 C50.0463867,8.15722656 49.5717773,8.38574219 49.2084961,8.84277344 L49.2084961,8.84277344 L49.1821289,8.24511719 L48.4130859,8.24511719 L48.4130859,13 L49.2260742,13 Z M54.262207,13 L54.262207,6.25 L53.4492188,6.25 L53.4492188,13 L54.262207,13 Z M57.5141602,13.0878906 C57.9418945,13.0878906 58.3205566,12.9853516 58.6501465,12.7802734 C58.9797363,12.5751953 59.2331543,12.2888184 59.4104004,11.9211426 C59.5876465,11.5534668 59.6762695,11.1381836 59.6762695,10.675293 L59.6762695,10.675293 L59.6762695,10.6181641 C59.6762695,9.87402344 59.4763184,9.27783203 59.076416,8.82958984 C58.6765137,8.38134766 58.152832,8.15722656 57.5053711,8.15722656 C57.0864258,8.15722656 56.713623,8.25830078 56.3869629,8.46044922 C56.0603027,8.66259766 55.8054199,8.94970703 55.6223145,9.32177734 C55.439209,9.69384766 55.3476562,10.112793 55.3476562,10.5786133 L55.3476562,10.5786133 L55.3476562,10.6357422 C55.3476562,11.3740234 55.5476074,11.9672852 55.9475098,12.4155273 C56.3474121,12.8637695 56.8696289,13.0878906 57.5141602,13.0878906 Z M57.5141602,12.4243164 C57.1040039,12.4243164 56.7766113,12.2646484 56.5319824,11.9453125 C56.2873535,11.6259766 56.1650391,11.2026367 56.1650391,10.675293 C56.1650391,10.0805664 56.2880859,9.62353516 56.5341797,9.30419922 C56.7802734,8.98486328 57.1040039,8.82519531 57.5053711,8.82519531 C57.9155273,8.82519531 58.2443848,8.98706055 58.4919434,9.31079102 C58.739502,9.63452148 58.8632812,10.0571289 58.8632812,10.5786133 C58.8632812,11.1616211 58.7416992,11.6149902 58.4985352,11.9387207 C58.2553711,12.2624512 57.9272461,12.4243164 57.5141602,12.4243164 Z M62.1635742,13.0878906 C62.6879883,13.0878906 63.1391602,12.8916016 63.5170898,12.4990234 C63.5463867,12.7392578 63.5844727,12.90625 63.6313477,13 L63.6313477,13 L64.4838867,13 L64.4838867,12.9296875 C64.3725586,12.671875 64.3168945,12.324707 64.3168945,11.8881836 L64.3168945,11.8881836 L64.3168945,9.69970703 C64.3051758,9.21923828 64.144043,8.84204102 63.8334961,8.56811523 C63.5229492,8.29418945 63.09375,8.15722656 62.5458984,8.15722656 C62.2001953,8.15722656 61.8830566,8.22167969 61.5944824,8.35058594 C61.3059082,8.47949219 61.0773926,8.65454102 60.9089355,8.87573242 C60.7404785,9.09692383 60.65625,9.32617188 60.65625,9.56347656 L60.65625,9.56347656 L61.4736328,9.56347656 C61.4736328,9.35546875 61.5717773,9.17822266 61.7680664,9.03173828 C61.9643555,8.88525391 62.2075195,8.81201172 62.4975586,8.81201172 C62.8286133,8.81201172 63.0791016,8.89624023 63.2490234,9.06469727 C63.4189453,9.2331543 63.5039062,9.45947266 63.5039062,9.74365234 L63.5039062,9.74365234 L63.5039062,10.1171875 L62.7128906,10.1171875 C62.0302734,10.1171875 61.5007324,10.2541504 61.1242676,10.5280762 C60.7478027,10.802002 60.5595703,11.1865234 60.5595703,11.6816406 C60.5595703,12.0888672 60.7097168,12.4250488 61.0100098,12.6901855 C61.3103027,12.9553223 61.6948242,13.0878906 62.1635742,13.0878906 Z M62.2822266,12.3803711 C62.015625,12.3803711 61.7973633,12.3085938 61.6274414,12.1650391 C61.4575195,12.0214844 61.3725586,11.8222656 61.3725586,11.5673828 C61.3725586,10.984375 61.8706055,10.6928711 62.8666992,10.6928711 L62.8666992,10.6928711 L63.5039062,10.6928711 L63.5039062,11.668457 C63.4013672,11.8793945 63.2358398,12.0507812 63.0073242,12.1826172 C62.7788086,12.3144531 62.5371094,12.3803711 62.2822266,12.3803711 Z M67.2612305,13.0878906 C67.8413086,13.0878906 68.2939453,12.8886719 68.6191406,12.4902344 L68.6191406,12.4902344 L68.6586914,13 L69.4057617,13 L69.4057617,6.25 L68.5927734,6.25 L68.5927734,8.72851562 C68.2675781,8.34765625 67.8266602,8.15722656 67.2700195,8.15722656 C66.7104492,8.15722656 66.2578125,8.37915039 65.9121094,8.82299805 C65.5664062,9.2668457 65.3935547,9.85351562 65.3935547,10.5830078 L65.3935547,10.5830078 L65.3935547,10.6445312 C65.3935547,11.3710938 65.5671387,11.9599609 65.9143066,12.4111328 C66.2614746,12.8623047 66.7104492,13.0878906 67.2612305,13.0878906 Z M67.4633789,12.3979492 C67.0708008,12.3979492 66.7631836,12.2456055 66.5405273,11.940918 C66.3178711,11.6362305 66.206543,11.2143555 66.206543,10.675293 C66.206543,10.0717773 66.3178711,9.61621094 66.5405273,9.30859375 C66.7631836,9.00097656 67.0737305,8.84716797 67.472168,8.84716797 C67.9760742,8.84716797 68.3496094,9.07128906 68.5927734,9.51953125 L68.5927734,9.51953125 L68.5927734,11.7036133 C68.3554688,12.1665039 67.9790039,12.3979492 67.4633789,12.3979492 Z M74.1079102,13 L74.1079102,8.87353516 L75.1230469,8.87353516 L75.1230469,8.24511719 L74.1079102,8.24511719 L74.1079102,7.74414062 C74.1079102,7.45703125 74.1796875,7.23657227 74.3232422,7.08276367 C74.4667969,6.92895508 74.6704102,6.85205078 74.934082,6.85205078 C75.0893555,6.85205078 75.2358398,6.86523438 75.3735352,6.89160156 L75.3735352,6.89160156 L75.4174805,6.23242188 C75.2329102,6.18261719 75.046875,6.15771484 74.859375,6.15771484 C74.3613281,6.15771484 73.9760742,6.296875 73.7036133,6.57519531 C73.4311523,6.85351562 73.2949219,7.24755859 73.2949219,7.75732422 L73.2949219,7.75732422 L73.2949219,8.24511719 L72.543457,8.24511719 L72.543457,8.87353516 L73.2949219,8.87353516 L73.2949219,13 L74.1079102,13 Z M76.8325195,13 L76.8325195,9.625 C77.0229492,9.17089844 77.3847656,8.94384766 77.9179688,8.94384766 C78.0615234,8.94384766 78.1948242,8.95410156 78.3178711,8.97460938 L78.3178711,8.97460938 L78.3178711,8.21875 C78.2358398,8.17773438 78.1157227,8.15722656 77.9575195,8.15722656 C77.4682617,8.15722656 77.090332,8.36962891 76.8237305,8.79443359 L76.8237305,8.79443359 L76.8105469,8.24511719 L76.0195312,8.24511719 L76.0195312,13 L76.8325195,13 Z M81.0161133,13.0878906 C81.4438477,13.0878906 81.8225098,12.9853516 82.1520996,12.7802734 C82.4816895,12.5751953 82.7351074,12.2888184 82.9123535,11.9211426 C83.0895996,11.5534668 83.1782227,11.1381836 83.1782227,10.675293 L83.1782227,10.675293 L83.1782227,10.6181641 C83.1782227,9.87402344 82.9782715,9.27783203 82.5783691,8.82958984 C82.1784668,8.38134766 81.6547852,8.15722656 81.0073242,8.15722656 C80.5883789,8.15722656 80.2155762,8.25830078 79.888916,8.46044922 C79.5622559,8.66259766 79.307373,8.94970703 79.1242676,9.32177734 C78.9411621,9.69384766 78.8496094,10.112793 78.8496094,10.5786133 L78.8496094,10.5786133 L78.8496094,10.6357422 C78.8496094,11.3740234 79.0495605,11.9672852 79.4494629,12.4155273 C79.8493652,12.8637695 80.371582,13.0878906 81.0161133,13.0878906 Z M81.0161133,12.4243164 C80.605957,12.4243164 80.2785645,12.2646484 80.0339355,11.9453125 C79.7893066,11.6259766 79.6669922,11.2026367 79.6669922,10.675293 C79.6669922,10.0805664 79.7900391,9.62353516 80.0361328,9.30419922 C80.2822266,8.98486328 80.605957,8.82519531 81.0073242,8.82519531 C81.4174805,8.82519531 81.7463379,8.98706055 81.9938965,9.31079102 C82.2414551,9.63452148 82.3652344,10.0571289 82.3652344,10.5786133 C82.3652344,11.1616211 82.2436523,11.6149902 82.0004883,11.9387207 C81.7573242,12.2624512 81.4291992,12.4243164 81.0161133,12.4243164 Z M85.0063477,13 L85.0063477,9.52832031 C85.2026367,9.07421875 85.5673828,8.84716797 86.1005859,8.84716797 C86.7773438,8.84716797 87.1157227,9.19287109 87.1157227,9.88427734 L87.1157227,9.88427734 L87.1157227,13 L87.9331055,13 L87.9331055,9.84472656 C87.965332,9.54003906 88.0810547,9.29760742 88.2802734,9.11743164 C88.4794922,8.93725586 88.7299805,8.84716797 89.0317383,8.84716797 C89.3979492,8.84716797 89.6586914,8.93139648 89.8139648,9.09985352 C89.9692383,9.26831055 90.046875,9.52246094 90.046875,9.86230469 L90.046875,9.86230469 L90.046875,13 L90.8598633,13 L90.8598633,9.81396484 C90.8422852,8.70947266 90.3120117,8.15722656 89.269043,8.15722656 C88.9233398,8.15722656 88.6237793,8.22753906 88.3703613,8.36816406 C88.1169434,8.50878906 87.9111328,8.69335938 87.7529297,8.921875 C87.5126953,8.41210938 87.0600586,8.15722656 86.3950195,8.15722656 C85.8032227,8.15722656 85.3330078,8.36230469 84.984375,8.77246094 L84.984375,8.77246094 L84.9624023,8.24511719 L84.1933594,8.24511719 L84.1933594,13 L85.0063477,13 Z" id="Downloadfrom" fill="#B8C1CA" fill-rule="nonzero"></path>
                <path d="M32.7294922,26 L32.7294922,23.4736328 L32.5390625,19.1191406 L35.0273438,26 L36.3349609,26 L38.8295898,19.112793 L38.6391602,23.4736328 L38.6391602,26 L40.5498047,26 L40.5498047,16.7578125 L38.0488281,16.7578125 L35.6875,23.4609375 L33.3134766,16.7578125 L30.8251953,16.7578125 L30.8251953,26 L32.7294922,26 Z M43.1079102,18.3066406 C43.4168294,18.3066406 43.665446,18.2177734 43.8537598,18.0400391 C44.0420736,17.8623047 44.1362305,17.6337891 44.1362305,17.3544922 C44.1362305,17.0794271 44.0431315,16.8530273 43.8569336,16.675293 C43.6707357,16.4975586 43.4210612,16.4086914 43.1079102,16.4086914 C42.7905273,16.4086914 42.5397949,16.4975586 42.3557129,16.675293 C42.1716309,16.8530273 42.0795898,17.0794271 42.0795898,17.3544922 C42.0795898,17.6337891 42.1737467,17.8623047 42.3620605,18.0400391 C42.5503743,18.2177734 42.7989909,18.3066406 43.1079102,18.3066406 Z M44.0283203,26 L44.0283203,19.1318359 L42.1875,19.1318359 L42.1875,26 L44.0283203,26 Z M47.3354492,26 L47.3354492,21.1567383 C47.5935872,20.7166341 47.9807943,20.496582 48.4970703,20.496582 C48.890625,20.496582 49.1720378,20.5843913 49.3413086,20.7600098 C49.5105794,20.9356283 49.5952148,21.218099 49.5952148,21.6074219 L49.5952148,21.6074219 L49.5952148,26 L51.4296875,26 L51.4296875,21.5629883 C51.421224,20.7124023 51.2392578,20.0734049 50.8837891,19.6459961 C50.5283203,19.2185872 49.9866536,19.0048828 49.2587891,19.0048828 C48.4335938,19.0048828 47.7755534,19.3116862 47.284668,19.925293 L47.284668,19.925293 L47.2275391,19.1318359 L45.5009766,19.1318359 L45.5009766,26 L47.3354492,26 Z M55.2128906,26.1269531 C55.9322917,26.1269531 56.5205078,25.8413086 56.9775391,25.2700195 L56.9775391,25.2700195 L57.0664062,26 L58.7231445,26 L58.7231445,16.25 L56.8823242,16.25 L56.8823242,19.7539062 C56.4464518,19.2545573 55.8942057,19.0048828 55.2255859,19.0048828 C54.3919271,19.0048828 53.7349447,19.3222656 53.2546387,19.9570312 C52.7743327,20.5917969 52.5341797,21.4444987 52.5341797,22.5151367 C52.5341797,23.6492513 52.7785645,24.5347493 53.267334,25.1716309 C53.7561035,25.8085124 54.4046224,26.1269531 55.2128906,26.1269531 Z M55.6826172,24.6416016 C55.2552083,24.6416016 54.929362,24.4702148 54.7050781,24.1274414 C54.4807943,23.784668 54.3686523,23.2916667 54.3686523,22.6484375 C54.3686523,21.2138672 54.8108724,20.496582 55.6953125,20.496582 C56.258138,20.496582 56.6538086,20.7356771 56.8823242,21.2138672 L56.8823242,21.2138672 L56.8823242,23.9243164 C56.6495768,24.4025065 56.2496745,24.6416016 55.6826172,24.6416016 Z M62.7602539,26.1269531 C63.6108398,26.1269531 64.3048503,25.9333496 64.8422852,25.5461426 C65.3797201,25.1589355 65.6484375,24.652181 65.6484375,24.0258789 C65.6484375,23.1499023 65.1638997,22.5341797 64.1948242,22.1787109 C63.8816732,22.0644531 63.496582,21.9618327 63.0395508,21.8708496 C62.5825195,21.7798665 62.2577311,21.6719564 62.0651855,21.5471191 C61.87264,21.4222819 61.7763672,21.2583008 61.7763672,21.0551758 C61.7763672,20.8393555 61.8610026,20.6616211 62.0302734,20.5219727 C62.1995443,20.3823242 62.4386393,20.3125 62.7475586,20.3125 C63.1072591,20.3125 63.3717448,20.3981934 63.5410156,20.5695801 C63.7102865,20.7409668 63.7949219,20.9578451 63.7949219,21.2202148 L63.7949219,21.2202148 L65.6293945,21.2202148 C65.6293945,20.5642904 65.3680827,20.0310872 64.845459,19.6206055 C64.3228353,19.2101237 63.625651,19.0048828 62.7539062,19.0048828 C61.9371745,19.0048828 61.2759603,19.2090658 60.7702637,19.6174316 C60.2645671,20.0257975 60.0117188,20.534668 60.0117188,21.144043 C60.0117188,22.1892904 60.8284505,22.8833008 62.4619141,23.2260742 C62.9527995,23.3276367 63.3093262,23.4429525 63.5314941,23.5720215 C63.7536621,23.7010905 63.8647461,23.8777669 63.8647461,24.1020508 C63.8647461,24.3178711 63.774821,24.4924316 63.5949707,24.6257324 C63.4151204,24.7590332 63.1495768,24.8256836 62.7983398,24.8256836 C62.4217122,24.8256836 62.1212565,24.7389323 61.8969727,24.5654297 C61.6726888,24.3919271 61.5520833,24.1422526 61.5351562,23.8164062 L61.5351562,23.8164062 L59.7958984,23.8164062 C59.7958984,24.2311198 59.9228516,24.6172689 60.1767578,24.9748535 C60.4306641,25.3324382 60.7808431,25.6138509 61.2272949,25.8190918 C61.6737467,26.0243327 62.1847331,26.1269531 62.7602539,26.1269531 Z" id="Minds" fill="#FFFFFF" fill-rule="nonzero"></path>
                <g id="bulb" transform="translate(5.000000, 4.000000)" fill-rule="nonzero">
                    <g id="Group-5" transform="translate(6.617647, 18.823404)">
                        <path d="M1.62442119,2.80071404 L1.49206825,4.68956769 L1.62442119,2.80071404 Z" id="Triangle-3" fill="#656565"></path>
                        <polygon id="Triangle-3" fill="#656565" points="0 4.03823885 1.63803145 2.67044827 3.2760629 5.34089654"></polygon>
                        <polygon id="Triangle-3" fill="#787778" points="0 0 0 4.03823885 1.63803145 2.67044827"></polygon>
                        <polygon id="Triangle-3" fill="#5C5C5C" points="4.91409435 2.67044827 3.2760629 5.34089654 6.5521258 4.03823885"></polygon>
                        <polygon id="Triangle-3" fill="#787778" points="6.5521258 4.03823885 4.91409435 2.67044827 6.5521258 0"></polygon>
                        <polygon id="Triangle-3" fill="#4A4A4A" points="0 0 6.5521258 0 3.2760629 5.34089654"></polygon>
                    </g>
                    <g id="Group">
                        <polygon id="Triangle-3" fill="#FED12F" points="7.27285964 6.51328846 14.218113 9.37913539 9.23849738 13.3522414"></polygon>
                        <polygon id="Triangle-3" fill="#FED12F" points="12.5145603 1.693455 16.4458358 5.73169385 14.218113 9.37913539"></polygon>
                        <polygon id="Triangle-3" fill="#FED12F" points="6.61764706 18.8234037 13.8249854 16.7391514 13.1697729 18.8234037"></polygon>
                        <polygon id="Triangle-3" fill="#FED12F" points="5.96243448 16.7391514 9.23849738 13.3522414 6.61764706 18.8234037"></polygon>
                        <polygon id="Triangle-3" fill="#FED12F" points="3.34158416 5.73169385 7.27285964 1.693455 7.27285964 6.51328846"></polygon>
                        <polygon id="Triangle-3" fill="#FFF3CB" points="9.23849738 13.3522414 13.8249854 16.7391514 14.218113 9.37913539"></polygon>
                        <polygon id="Triangle-3" fill="#FFF3CB" transform="translate(6.028410, 13.172193) rotate(140.000000) translate(-6.028410, -13.172193) " points="3.68507314 10.9708635 7.79179155 15.8622334 8.37174669 10.4821526"></polygon>
                        <polygon id="Triangle-3" fill="#FFDD63" transform="translate(12.283976, 5.904567) rotate(-53.000000) translate(-12.283976, -5.904567) " points="8.7820642 2.26884882 15.7858886 3.5544089 10.6730549 9.54028453"></polygon>
                        <polygon id="Triangle-3" fill="#FFEDAC" transform="translate(7.381024, 11.089979) rotate(-53.000000) translate(-7.381024, -11.089979) " points="3.79101174 8.24507146 10.9710367 8.24927383 6.69215638 13.9348865"></polygon>
                        <polygon id="Triangle-3" fill="#FFDD63" transform="translate(9.742325, 17.420332) rotate(-53.000000) translate(-9.742325, -17.420332) " points="6.74130405 15.7692426 12.6880356 14.5697191 12.7433464 20.2709446"></polygon>
                        <polygon id="Triangle-3" fill="#FFDD63" transform="translate(14.021549, 13.059143) rotate(-53.000000) translate(-14.021549, -13.059143) " points="10.9642692 15.1168446 17.0788293 11.0014421 16.3673293 14.8192559"></polygon>
                        <polygon id="Triangle-3" fill="#FFDD63" transform="translate(3.670786, 8.294114) rotate(-53.000000) translate(-3.670786, -8.294114) " points="0.0807740096 10.0949277 5.51910753 6.48909852 7.26079897 10.0991301"></polygon>
                        <polygon id="Triangle-3" fill="#FEE382" transform="translate(16.642400, 8.988338) rotate(-53.000000) translate(-16.642400, -8.988338) " points="14.8713229 7.28740443 19.1249762 6.87145783 14.1598229 11.1052183"></polygon>
                        <polygon id="Triangle-3" fill="#FEF1C0" transform="translate(9.587129, 3.261047) rotate(160.000000) translate(-9.587129, -3.261047) " points="6.30009496 3.73286046 12.8741625 0.996465726 11.2256823 5.52562767"></polygon>
                    </g>
                </g>
            </g>
        </g>
    </g>
</svg>