<?xml version="1.0" encoding="utf-8"?>
<!-- Generator: Adobe Illustrator 25.2.3, SVG Export Plug-In . SVG Version: 6.00 Build 0)  -->
<svg version="1.1" id="artwork" xmlns="http://www.w3.org/2000/svg" xmlns:xlink="http://www.w3.org/1999/xlink" x="0px" y="0px"
	 viewBox="0 0 135.3 40.3" style="enable-background:new 0 0 135.3 40.3;" xml:space="preserve">
<style type="text/css">
	.st0{fill:#FFFFFF;fill-opacity:0;}
	.st1{fill:#A6A6A6;}
	.st2{fill:#FFFFFF;stroke:#FFFFFF;stroke-width:0.2;stroke-miterlimit:10;}
	.st3{fill:#FFFFFF;}
	.st4{fill:url(#SVGID_1_);}
	.st5{fill:url(#SVGID_2_);}
	.st6{fill:url(#SVGID_3_);}
	.st7{fill:url(#SVGID_4_);}
	.st8{opacity:0.2;enable-background:new    ;}
	.st9{opacity:0.12;enable-background:new    ;}
	.st10{opacity:0.25;fill:#FFFFFF;enable-background:new    ;}
	.st11{clip-path:url(#SVGID_6_);}
	.st12{clip-path:url(#SVGID_8_);fill:#656565;}
	.st13{clip-path:url(#SVGID_10_);}
	.st14{clip-path:url(#SVGID_12_);fill:#656565;}
	.st15{clip-path:url(#SVGID_14_);}
	.st16{clip-path:url(#SVGID_16_);fill:#787778;}
	.st17{clip-path:url(#SVGID_18_);}
	.st18{clip-path:url(#SVGID_20_);fill:#5C5C5C;}
	.st19{clip-path:url(#SVGID_22_);}
	.st20{clip-path:url(#SVGID_24_);fill:#787778;}
	.st21{clip-path:url(#SVGID_26_);}
	.st22{clip-path:url(#SVGID_28_);fill:#4A4A4A;}
	.st23{clip-path:url(#SVGID_30_);}
	.st24{clip-path:url(#SVGID_32_);fill:#FED12F;}
	.st25{clip-path:url(#SVGID_34_);}
	.st26{clip-path:url(#SVGID_36_);fill:#FED12F;}
	.st27{clip-path:url(#SVGID_38_);}
	.st28{clip-path:url(#SVGID_40_);fill:#FED12F;}
	.st29{clip-path:url(#SVGID_42_);}
	.st30{clip-path:url(#SVGID_44_);fill:#FED12F;}
	.st31{clip-path:url(#SVGID_46_);}
	.st32{clip-path:url(#SVGID_48_);fill:#FED12F;}
	.st33{clip-path:url(#SVGID_50_);}
	.st34{clip-path:url(#SVGID_52_);fill:#FFF3CB;}
	.st35{clip-path:url(#SVGID_54_);}
	.st36{clip-path:url(#SVGID_56_);fill:#FFF3CB;}
	.st37{clip-path:url(#SVGID_58_);}
	.st38{clip-path:url(#SVGID_60_);fill:#FFDD63;}
	.st39{clip-path:url(#SVGID_62_);}
	.st40{clip-path:url(#SVGID_64_);fill:#FFEDAC;}
	.st41{clip-path:url(#SVGID_66_);}
	.st42{clip-path:url(#SVGID_68_);fill:#FFDD63;}
	.st43{clip-path:url(#SVGID_70_);}
	.st44{clip-path:url(#SVGID_72_);fill:#FFDD63;}
	.st45{clip-path:url(#SVGID_74_);}
	.st46{clip-path:url(#SVGID_76_);fill:#FFDD63;}
	.st47{clip-path:url(#SVGID_78_);}
	.st48{clip-path:url(#SVGID_80_);fill:#FEE382;}
	.st49{clip-path:url(#SVGID_82_);}
	.st50{clip-path:url(#SVGID_84_);fill:#FEF1C0;}
	.st51{clip-path:url(#SVGID_86_);}
	.st52{clip-path:url(#SVGID_88_);fill:#656565;}
	.st53{clip-path:url(#SVGID_90_);}
	.st54{clip-path:url(#SVGID_92_);fill:#656565;}
	.st55{clip-path:url(#SVGID_94_);}
	.st56{clip-path:url(#SVGID_96_);fill:#787778;}
	.st57{clip-path:url(#SVGID_98_);}
	.st58{clip-path:url(#SVGID_100_);fill:#5C5C5C;}
	.st59{clip-path:url(#SVGID_102_);}
	.st60{clip-path:url(#SVGID_104_);fill:#787778;}
	.st61{clip-path:url(#SVGID_106_);}
	.st62{clip-path:url(#SVGID_108_);fill:#4A4A4A;}
	.st63{clip-path:url(#SVGID_110_);}
	.st64{clip-path:url(#SVGID_112_);fill:#FED12F;}
	.st65{clip-path:url(#SVGID_114_);}
	.st66{clip-path:url(#SVGID_116_);fill:#FED12F;}
	.st67{clip-path:url(#SVGID_118_);}
	.st68{clip-path:url(#SVGID_120_);fill:#FED12F;}
	.st69{clip-path:url(#SVGID_122_);}
	.st70{clip-path:url(#SVGID_124_);fill:#FED12F;}
	.st71{clip-path:url(#SVGID_126_);}
	.st72{clip-path:url(#SVGID_128_);fill:#FED12F;}
	.st73{clip-path:url(#SVGID_130_);}
	.st74{clip-path:url(#SVGID_132_);fill:#FFF3CB;}
	.st75{clip-path:url(#SVGID_134_);}
	.st76{clip-path:url(#SVGID_136_);fill:#FFF3CB;}
	.st77{clip-path:url(#SVGID_138_);}
	.st78{clip-path:url(#SVGID_140_);fill:#FFDD63;}
	.st79{clip-path:url(#SVGID_142_);}
	.st80{clip-path:url(#SVGID_144_);fill:#FFEDAC;}
	.st81{clip-path:url(#SVGID_146_);}
	.st82{clip-path:url(#SVGID_148_);fill:#FFDD63;}
	.st83{clip-path:url(#SVGID_150_);}
	.st84{clip-path:url(#SVGID_152_);fill:#FFDD63;}
	.st85{clip-path:url(#SVGID_154_);}
	.st86{clip-path:url(#SVGID_156_);fill:#FFDD63;}
	.st87{clip-path:url(#SVGID_158_);}
	.st88{clip-path:url(#SVGID_160_);fill:#FEE382;}
	.st89{clip-path:url(#SVGID_162_);}
	.st90{clip-path:url(#SVGID_164_);fill:#FEF1C0;}
	.st91{clip-path:url(#SVGID_166_);}
	.st92{clip-path:url(#SVGID_168_);fill:#656565;}
	.st93{clip-path:url(#SVGID_170_);}
	.st94{clip-path:url(#SVGID_172_);fill:#656565;}
	.st95{clip-path:url(#SVGID_174_);}
	.st96{clip-path:url(#SVGID_176_);fill:#787778;}
	.st97{clip-path:url(#SVGID_178_);}
	.st98{clip-path:url(#SVGID_180_);fill:#5C5C5C;}
	.st99{clip-path:url(#SVGID_182_);}
	.st100{clip-path:url(#SVGID_184_);fill:#787778;}
	.st101{clip-path:url(#SVGID_186_);}
	.st102{clip-path:url(#SVGID_188_);fill:#4A4A4A;}
	.st103{clip-path:url(#SVGID_190_);}
	.st104{clip-path:url(#SVGID_192_);fill:#FED12F;}
	.st105{clip-path:url(#SVGID_194_);}
	.st106{clip-path:url(#SVGID_196_);fill:#FED12F;}
	.st107{clip-path:url(#SVGID_198_);}
	.st108{clip-path:url(#SVGID_200_);fill:#FED12F;}
	.st109{clip-path:url(#SVGID_202_);}
	.st110{clip-path:url(#SVGID_204_);fill:#FED12F;}
	.st111{clip-path:url(#SVGID_206_);}
	.st112{clip-path:url(#SVGID_208_);fill:#FED12F;}
	.st113{clip-path:url(#SVGID_210_);}
	.st114{clip-path:url(#SVGID_212_);fill:#FFF3CB;}
	.st115{clip-path:url(#SVGID_214_);}
	.st116{clip-path:url(#SVGID_216_);fill:#FFF3CB;}
	.st117{clip-path:url(#SVGID_218_);}
	.st118{clip-path:url(#SVGID_220_);fill:#FFDD63;}
	.st119{clip-path:url(#SVGID_222_);}
	.st120{clip-path:url(#SVGID_224_);fill:#FFEDAC;}
	.st121{clip-path:url(#SVGID_226_);}
	.st122{clip-path:url(#SVGID_228_);fill:#FFDD63;}
	.st123{clip-path:url(#SVGID_230_);}
	.st124{clip-path:url(#SVGID_232_);fill:#FFDD63;}
	.st125{clip-path:url(#SVGID_234_);}
	.st126{clip-path:url(#SVGID_236_);fill:#FFDD63;}
	.st127{clip-path:url(#SVGID_238_);}
	.st128{clip-path:url(#SVGID_240_);fill:#FEE382;}
	.st129{clip-path:url(#SVGID_242_);}
	.st130{clip-path:url(#SVGID_244_);fill:#FEF1C0;}
</style>
<g>
	<rect x="-9.8" y="-10" class="st0" width="155" height="60"/>
	<g>
		<path d="M130.3,40H5.3c-2.8,0-5-2.2-5-5V5c0-2.7,2.2-5,5-5h125c2.8,0,5,2.2,5,5v30C135.3,37.7,133,40,130.3,40z"/>
	</g>
	<g>
		<g>
			<path class="st1" d="M130.3,0.8c2.3,0,4.2,1.9,4.2,4.2v30c0,2.3-1.9,4.2-4.2,4.2H5.3c-2.3,0-4.2-1.9-4.2-4.2V5
				c0-2.3,1.9-4.2,4.2-4.2H130.3 M130.3,0H5.3c-2.8,0-5,2.2-5,5v30c0,2.8,2.2,5,5,5h125c2.8,0,5-2.2,5-5V5C135.3,2.3,133,0,130.3,0
				L130.3,0z"/>
		</g>
	</g>
	<g>
		<path class="st2" d="M47.7,10.2c0,0.8-0.2,1.5-0.7,2c-0.6,0.6-1.3,0.9-2.2,0.9c-0.9,0-1.6-0.3-2.2-0.9c-0.6-0.6-0.9-1.3-0.9-2.2
			c0-0.9,0.3-1.6,0.9-2.2c0.6-0.6,1.3-0.9,2.2-0.9c0.4,0,0.8,0.1,1.2,0.3c0.4,0.2,0.7,0.4,0.9,0.7l-0.5,0.5
			c-0.4-0.5-0.9-0.7-1.6-0.7c-0.6,0-1.2,0.2-1.6,0.7c-0.5,0.4-0.7,1-0.7,1.7s0.2,1.3,0.7,1.7c0.5,0.4,1,0.7,1.6,0.7
			c0.7,0,1.2-0.2,1.7-0.7c0.3-0.3,0.5-0.7,0.5-1.2h-2.2V9.8h2.9C47.7,9.9,47.7,10.1,47.7,10.2z"/>
		<path class="st2" d="M52.3,7.7h-2.7v1.9H52v0.7h-2.5v1.9h2.7V13h-3.5V7h3.5V7.7z"/>
		<path class="st2" d="M55.5,13h-0.8V7.7h-1.7V7h4.1v0.7h-1.7V13z"/>
		<path class="st2" d="M60.2,13V7H61v6H60.2z"/>
		<path class="st2" d="M64.4,13h-0.8V7.7h-1.7V7h4.1v0.7h-1.7V13z"/>
		<path class="st2" d="M73.9,12.2c-0.6,0.6-1.3,0.9-2.2,0.9c-0.9,0-1.6-0.3-2.2-0.9c-0.6-0.6-0.9-1.3-0.9-2.2s0.3-1.6,0.9-2.2
			c0.6-0.6,1.3-0.9,2.2-0.9c0.9,0,1.6,0.3,2.2,0.9c0.6,0.6,0.9,1.3,0.9,2.2C74.7,10.9,74.4,11.6,73.9,12.2z M70,11.7
			c0.4,0.4,1,0.7,1.6,0.7s1.2-0.2,1.6-0.7c0.4-0.4,0.7-1,0.7-1.7s-0.2-1.3-0.7-1.7c-0.4-0.4-1-0.7-1.6-0.7S70.5,7.8,70,8.3
			c-0.4,0.4-0.7,1-0.7,1.7S69.6,11.3,70,11.7z"/>
		<path class="st2" d="M75.8,13V7h0.9l2.9,4.7h0l0-1.2V7h0.8v6h-0.8l-3.1-4.9h0l0,1.2V13H75.8z"/>
	</g>
	<path class="st3" d="M68.4,21.8c-2.4,0-4.3,1.8-4.3,4.3c0,2.4,1.9,4.3,4.3,4.3c2.4,0,4.3-1.8,4.3-4.3
		C72.7,23.5,70.7,21.8,68.4,21.8z M68.4,28.6c-1.3,0-2.4-1.1-2.4-2.6c0-1.5,1.1-2.6,2.4-2.6c1.3,0,2.4,1,2.4,2.6
		C70.8,27.5,69.7,28.6,68.4,28.6z M59.1,21.8c-2.4,0-4.3,1.8-4.3,4.3c0,2.4,1.9,4.3,4.3,4.3c2.4,0,4.3-1.8,4.3-4.3
		C63.3,23.5,61.4,21.8,59.1,21.8z M59.1,28.6c-1.3,0-2.4-1.1-2.4-2.6c0-1.5,1.1-2.6,2.4-2.6c1.3,0,2.4,1,2.4,2.6
		C61.5,27.5,60.4,28.6,59.1,28.6z M48,23.1v1.8h4.3c-0.1,1-0.5,1.8-1,2.3c-0.6,0.6-1.6,1.3-3.3,1.3c-2.7,0-4.7-2.1-4.7-4.8
		s2.1-4.8,4.7-4.8c1.4,0,2.5,0.6,3.3,1.3l1.3-1.3C51.4,17.8,50,17,48,17c-3.6,0-6.7,3-6.7,6.6c0,3.6,3.1,6.6,6.7,6.6
		c2,0,3.4-0.6,4.6-1.9c1.2-1.2,1.6-2.9,1.6-4.2c0-0.4,0-0.8-0.1-1.1H48z M93.3,24.5c-0.4-1-1.4-2.7-3.6-2.7c-2.2,0-4,1.7-4,4.3
		c0,2.4,1.8,4.3,4.2,4.3c1.9,0,3.1-1.2,3.5-1.9l-1.4-1c-0.5,0.7-1.1,1.2-2.1,1.2c-1,0-1.6-0.4-2.1-1.3l5.7-2.4L93.3,24.5z
		 M87.5,25.9c0-1.6,1.3-2.5,2.2-2.5c0.7,0,1.4,0.4,1.6,0.9L87.5,25.9z M82.9,30h1.9V17.5h-1.9V30z M79.8,22.7L79.8,22.7
		c-0.5-0.5-1.3-1-2.3-1c-2.1,0-4.1,1.9-4.1,4.3c0,2.4,1.9,4.2,4.1,4.2c1,0,1.8-0.5,2.2-1h0.1v0.6c0,1.6-0.9,2.5-2.3,2.5
		c-1.1,0-1.9-0.8-2.1-1.5l-1.6,0.7c0.5,1.1,1.7,2.5,3.8,2.5c2.2,0,4-1.3,4-4.4V22h-1.8V22.7z M77.7,28.6c-1.3,0-2.4-1.1-2.4-2.6
		c0-1.5,1.1-2.6,2.4-2.6c1.3,0,2.3,1.1,2.3,2.6C79.9,27.5,78.9,28.6,77.7,28.6z M102.1,17.5h-4.5V30h1.9v-4.7h2.6
		c2.1,0,4.1-1.5,4.1-3.9S104.1,17.5,102.1,17.5z M102.1,23.5h-2.7v-4.3h2.7c1.4,0,2.2,1.2,2.2,2.1C104.3,22.4,103.5,23.5,102.1,23.5
		z M113.6,21.7c-1.4,0-2.8,0.6-3.3,1.9l1.7,0.7c0.4-0.7,1-0.9,1.7-0.9c1,0,1.9,0.6,2,1.6v0.1c-0.3-0.2-1.1-0.5-1.9-0.5
		c-1.8,0-3.6,1-3.6,2.8c0,1.7,1.5,2.8,3.1,2.8c1.3,0,1.9-0.6,2.4-1.2h0.1v1h1.8v-4.8C117.4,23,115.8,21.7,113.6,21.7z M113.4,28.6
		c-0.6,0-1.5-0.3-1.5-1.1c0-1,1.1-1.3,2-1.3c0.8,0,1.2,0.2,1.7,0.4C115.5,27.8,114.5,28.6,113.4,28.6z M124,22l-2.1,5.4h-0.1
		l-2.2-5.4h-2l3.3,7.6l-1.9,4.2h1.9l5.1-11.8H124z M107.2,30h1.9V17.5h-1.9V30z"/>
	<g>
		
			<linearGradient id="SVGID_1_" gradientUnits="userSpaceOnUse" x1="22.0497" y1="193.2903" x2="5.2673" y2="176.5079" gradientTransform="matrix(1 0 0 -1 0 202)">
			<stop  offset="0" style="stop-color:#00A0FF"/>
			<stop  offset="6.574450e-03" style="stop-color:#00A1FF"/>
			<stop  offset="0.2601" style="stop-color:#00BEFF"/>
			<stop  offset="0.5122" style="stop-color:#00D2FF"/>
			<stop  offset="0.7604" style="stop-color:#00DFFF"/>
			<stop  offset="1" style="stop-color:#00E3FF"/>
		</linearGradient>
		<path class="st4" d="M10.7,7.5c-0.3,0.3-0.5,0.8-0.5,1.4v22.1c0,0.6,0.2,1.1,0.5,1.4l0.1,0.1l12.4-12.4V20v-0.1L10.7,7.5L10.7,7.5
			z"/>
		
			<linearGradient id="SVGID_2_" gradientUnits="userSpaceOnUse" x1="34.0844" y1="181.9986" x2="9.8875" y2="181.9986" gradientTransform="matrix(1 0 0 -1 0 202)">
			<stop  offset="0" style="stop-color:#FFE000"/>
			<stop  offset="0.4087" style="stop-color:#FFBD00"/>
			<stop  offset="0.7754" style="stop-color:#FFA500"/>
			<stop  offset="1" style="stop-color:#FF9C00"/>
		</linearGradient>
		<path class="st5" d="M27.3,24.3l-4.1-4.1V20v-0.1l4.1-4.1l0.1,0.1l4.9,2.8c1.4,0.8,1.4,2.1,0,2.9L27.3,24.3L27.3,24.3z"/>
		
			<linearGradient id="SVGID_3_" gradientUnits="userSpaceOnUse" x1="25.077" y1="179.7039" x2="2.3187" y2="156.9456" gradientTransform="matrix(1 0 0 -1 0 202)">
			<stop  offset="0" style="stop-color:#FF3A44"/>
			<stop  offset="1" style="stop-color:#C31162"/>
		</linearGradient>
		<path class="st6" d="M27.4,24.2L23.1,20L10.7,32.5c0.5,0.5,1.2,0.5,2.1,0.1L27.4,24.2"/>
		
			<linearGradient id="SVGID_4_" gradientUnits="userSpaceOnUse" x1="7.5473" y1="201.8238" x2="17.7099" y2="191.6613" gradientTransform="matrix(1 0 0 -1 0 202)">
			<stop  offset="0" style="stop-color:#32A071"/>
			<stop  offset="6.850000e-02" style="stop-color:#2DA771"/>
			<stop  offset="0.4762" style="stop-color:#15CF74"/>
			<stop  offset="0.8009" style="stop-color:#06E775"/>
			<stop  offset="1" style="stop-color:#00F076"/>
		</linearGradient>
		<path class="st7" d="M27.4,15.8L12.8,7.5c-0.9-0.5-1.6-0.4-2.1,0.1L23.1,20L27.4,15.8z"/>
		<g>
			<path class="st8" d="M27.3,24.1l-14.5,8.2c-0.8,0.5-1.5,0.4-2,0l0,0l-0.1,0.1l0,0l0.1,0.1l0,0c0.5,0.4,1.2,0.5,2,0L27.3,24.1
				L27.3,24.1z"/>
			<path class="st9" d="M10.7,32.3c-0.3-0.3-0.5-0.8-0.5-1.4v0.1c0,0.6,0.2,1.1,0.5,1.4V32.3L10.7,32.3z"/>
		</g>
		<path class="st9" d="M32.3,21.3l-5,2.8l0.1,0.1l4.9-2.8c0.7-0.4,1-0.9,1-1.4l0,0C33.3,20.5,32.9,20.9,32.3,21.3z"/>
		<path class="st10" d="M12.8,7.6l19.5,11.1c0.6,0.4,1,0.8,1,1.3l0,0c0-0.5-0.3-1-1-1.4L12.8,7.5c-1.4-0.8-2.5-0.1-2.5,1.5v0.1
			C10.2,7.5,11.4,6.8,12.8,7.6z"/>
	</g>
</g>
<g>
	<defs>
		<path id="SVGID_5_" d="M-428.6-951.6l-0.1,1.6L-428.6-951.6z"/>
	</defs>
	<clipPath id="SVGID_6_">
		<use xlink:href="#SVGID_5_"  style="overflow:visible;"/>
	</clipPath>
	<g class="st11">
		<defs>
			<rect id="SVGID_7_" x="-612.6" y="-984.9" width="1440" height="2104"/>
		</defs>
		<clipPath id="SVGID_8_">
			<use xlink:href="#SVGID_7_"  style="overflow:visible;"/>
		</clipPath>
		<rect x="-433.7" y="-956.6" class="st12" width="10.1" height="11.6"/>
	</g>
</g>
<g>
	<defs>
		<polygon id="SVGID_9_" points="-430,-950.5 -428.6,-951.7 -427.2,-949.4 		"/>
	</defs>
	<clipPath id="SVGID_10_">
		<use xlink:href="#SVGID_9_"  style="overflow:visible;"/>
	</clipPath>
	<g class="st13">
		<defs>
			<rect id="SVGID_11_" x="-612.6" y="-984.9" width="1440" height="2104"/>
		</defs>
		<clipPath id="SVGID_12_">
			<use xlink:href="#SVGID_11_"  style="overflow:visible;"/>
		</clipPath>
		<rect x="-435" y="-956.7" class="st14" width="12.8" height="12.3"/>
	</g>
</g>
<g>
	<defs>
		<polygon id="SVGID_13_" points="-430,-953.9 -430,-950.5 -428.6,-951.7 		"/>
	</defs>
	<clipPath id="SVGID_14_">
		<use xlink:href="#SVGID_13_"  style="overflow:visible;"/>
	</clipPath>
	<g class="st15">
		<defs>
			<rect id="SVGID_15_" x="-612.6" y="-984.9" width="1440" height="2104"/>
		</defs>
		<clipPath id="SVGID_16_">
			<use xlink:href="#SVGID_15_"  style="overflow:visible;"/>
		</clipPath>
		<rect x="-435" y="-958.9" class="st16" width="11.4" height="13.4"/>
	</g>
</g>
<g>
	<defs>
		<polygon id="SVGID_17_" points="-425.8,-951.7 -427.2,-949.4 -424.4,-950.5 		"/>
	</defs>
	<clipPath id="SVGID_18_">
		<use xlink:href="#SVGID_17_"  style="overflow:visible;"/>
	</clipPath>
	<g class="st17">
		<defs>
			<rect id="SVGID_19_" x="-612.6" y="-984.9" width="1440" height="2104"/>
		</defs>
		<clipPath id="SVGID_20_">
			<use xlink:href="#SVGID_19_"  style="overflow:visible;"/>
		</clipPath>
		<rect x="-432.2" y="-956.7" class="st18" width="12.8" height="12.3"/>
	</g>
</g>
<g>
	<defs>
		<polygon id="SVGID_21_" points="-424.4,-950.5 -425.8,-951.7 -424.4,-953.9 		"/>
	</defs>
	<clipPath id="SVGID_22_">
		<use xlink:href="#SVGID_21_"  style="overflow:visible;"/>
	</clipPath>
	<g class="st19">
		<defs>
			<rect id="SVGID_23_" x="-612.6" y="-984.9" width="1440" height="2104"/>
		</defs>
		<clipPath id="SVGID_24_">
			<use xlink:href="#SVGID_23_"  style="overflow:visible;"/>
		</clipPath>
		<rect x="-430.8" y="-958.9" class="st20" width="11.4" height="13.4"/>
	</g>
</g>
<g>
	<defs>
		<polygon id="SVGID_25_" points="-430,-953.9 -424.4,-953.9 -427.2,-949.4 		"/>
	</defs>
	<clipPath id="SVGID_26_">
		<use xlink:href="#SVGID_25_"  style="overflow:visible;"/>
	</clipPath>
	<g class="st21">
		<defs>
			<rect id="SVGID_27_" x="-612.6" y="-984.9" width="1440" height="2104"/>
		</defs>
		<clipPath id="SVGID_28_">
			<use xlink:href="#SVGID_27_"  style="overflow:visible;"/>
		</clipPath>
		<rect x="-435" y="-958.9" class="st22" width="15.6" height="14.5"/>
	</g>
</g>
<g>
	<defs>
		<polygon id="SVGID_29_" points="-429.4,-964.4 -423.5,-962 -427.8,-958.6 		"/>
	</defs>
	<clipPath id="SVGID_30_">
		<use xlink:href="#SVGID_29_"  style="overflow:visible;"/>
	</clipPath>
	<g class="st23">
		<defs>
			<rect id="SVGID_31_" x="-612.6" y="-984.9" width="1440" height="2104"/>
		</defs>
		<clipPath id="SVGID_32_">
			<use xlink:href="#SVGID_31_"  style="overflow:visible;"/>
		</clipPath>
		<rect x="-434.4" y="-969.4" class="st24" width="15.9" height="15.8"/>
	</g>
</g>
<g>
	<defs>
		<polygon id="SVGID_33_" points="-425,-968.5 -421.6,-965.1 -423.5,-962 		"/>
	</defs>
	<clipPath id="SVGID_34_">
		<use xlink:href="#SVGID_33_"  style="overflow:visible;"/>
	</clipPath>
	<g class="st25">
		<defs>
			<rect id="SVGID_35_" x="-612.6" y="-984.9" width="1440" height="2104"/>
		</defs>
		<clipPath id="SVGID_36_">
			<use xlink:href="#SVGID_35_"  style="overflow:visible;"/>
		</clipPath>
		<rect x="-430" y="-973.5" class="st26" width="13.3" height="16.5"/>
	</g>
</g>
<g>
	<defs>
		<polygon id="SVGID_37_" points="-430,-953.9 -423.9,-955.7 -424.4,-953.9 		"/>
	</defs>
	<clipPath id="SVGID_38_">
		<use xlink:href="#SVGID_37_"  style="overflow:visible;"/>
	</clipPath>
	<g class="st27">
		<defs>
			<rect id="SVGID_39_" x="-612.6" y="-984.9" width="1440" height="2104"/>
		</defs>
		<clipPath id="SVGID_40_">
			<use xlink:href="#SVGID_39_"  style="overflow:visible;"/>
		</clipPath>
		<rect x="-435" y="-960.7" class="st28" width="16.1" height="11.8"/>
	</g>
</g>
<g>
	<defs>
		<polygon id="SVGID_41_" points="-430.6,-955.7 -427.8,-958.6 -430,-953.9 		"/>
	</defs>
	<clipPath id="SVGID_42_">
		<use xlink:href="#SVGID_41_"  style="overflow:visible;"/>
	</clipPath>
	<g class="st29">
		<defs>
			<rect id="SVGID_43_" x="-612.6" y="-984.9" width="1440" height="2104"/>
		</defs>
		<clipPath id="SVGID_44_">
			<use xlink:href="#SVGID_43_"  style="overflow:visible;"/>
		</clipPath>
		<rect x="-435.6" y="-963.6" class="st30" width="12.8" height="14.7"/>
	</g>
</g>
<g>
	<defs>
		<polygon id="SVGID_45_" points="-432.8,-965.1 -429.4,-968.5 -429.4,-964.4 		"/>
	</defs>
	<clipPath id="SVGID_46_">
		<use xlink:href="#SVGID_45_"  style="overflow:visible;"/>
	</clipPath>
	<g class="st31">
		<defs>
			<rect id="SVGID_47_" x="-612.6" y="-984.9" width="1440" height="2104"/>
		</defs>
		<clipPath id="SVGID_48_">
			<use xlink:href="#SVGID_47_"  style="overflow:visible;"/>
		</clipPath>
		<rect x="-437.8" y="-973.5" class="st32" width="13.3" height="14.1"/>
	</g>
</g>
<g>
	<defs>
		<polygon id="SVGID_49_" points="-427.8,-958.6 -423.9,-955.7 -423.5,-962 		"/>
	</defs>
	<clipPath id="SVGID_50_">
		<use xlink:href="#SVGID_49_"  style="overflow:visible;"/>
	</clipPath>
	<g class="st33">
		<defs>
			<rect id="SVGID_51_" x="-612.6" y="-984.9" width="1440" height="2104"/>
		</defs>
		<clipPath id="SVGID_52_">
			<use xlink:href="#SVGID_51_"  style="overflow:visible;"/>
		</clipPath>
		<rect x="-432.8" y="-967" class="st34" width="14.2" height="16.3"/>
	</g>
</g>
<g>
	<defs>
		<polygon id="SVGID_53_" points="-427.8,-958.6 -433.1,-959.5 -430.6,-955.7 		"/>
	</defs>
	<clipPath id="SVGID_54_">
		<use xlink:href="#SVGID_53_"  style="overflow:visible;"/>
	</clipPath>
	<g class="st35">
		<defs>
			<rect id="SVGID_55_" x="-612.6" y="-984.9" width="1440" height="2104"/>
		</defs>
		<clipPath id="SVGID_56_">
			<use xlink:href="#SVGID_55_"  style="overflow:visible;"/>
		</clipPath>
		
			<rect x="-437.5" y="-966" transform="matrix(0.766 -0.6428 0.6428 0.766 515.5488 -501.0234)" class="st36" width="14" height="14.6"/>
	</g>
</g>
<g>
	<defs>
		<polygon id="SVGID_57_" points="-429.4,-964.4 -425,-968.5 -423.5,-962 		"/>
	</defs>
	<clipPath id="SVGID_58_">
		<use xlink:href="#SVGID_57_"  style="overflow:visible;"/>
	</clipPath>
	<g class="st37">
		<defs>
			<rect id="SVGID_59_" x="-612.6" y="-984.9" width="1440" height="2104"/>
		</defs>
		<clipPath id="SVGID_60_">
			<use xlink:href="#SVGID_59_"  style="overflow:visible;"/>
		</clipPath>
		
			<rect x="-433.2" y="-973" transform="matrix(0.6018 -0.7986 0.7986 0.6018 601.3165 -723.7827)" class="st38" width="16" height="16.2"/>
	</g>
</g>
<g>
	<defs>
		<polygon id="SVGID_61_" points="-433.1,-959.5 -429.4,-964.4 -427.8,-958.6 		"/>
	</defs>
	<clipPath id="SVGID_62_">
		<use xlink:href="#SVGID_61_"  style="overflow:visible;"/>
	</clipPath>
	<g class="st39">
		<defs>
			<rect id="SVGID_63_" x="-612.6" y="-984.9" width="1440" height="2104"/>
		</defs>
		<clipPath id="SVGID_64_">
			<use xlink:href="#SVGID_63_"  style="overflow:visible;"/>
		</clipPath>
		
			<rect x="-437.4" y="-967.9" transform="matrix(0.6018 -0.7986 0.7986 0.6018 596.1371 -725.3563)" class="st40" width="16.1" height="14.8"/>
	</g>
</g>
<g>
	<defs>
		<polygon id="SVGID_65_" points="-430,-953.9 -427.8,-958.6 -423.9,-955.7 		"/>
	</defs>
	<clipPath id="SVGID_66_">
		<use xlink:href="#SVGID_65_"  style="overflow:visible;"/>
	</clipPath>
	<g class="st41">
		<defs>
			<rect id="SVGID_67_" x="-612.6" y="-984.9" width="1440" height="2104"/>
		</defs>
		<clipPath id="SVGID_68_">
			<use xlink:href="#SVGID_67_"  style="overflow:visible;"/>
		</clipPath>
		
			<rect x="-434.9" y="-962.6" transform="matrix(0.6018 -0.7986 0.7986 0.6018 592.6389 -721.6105)" class="st42" width="15.1" height="14.8"/>
	</g>
</g>
<g>
	<defs>
		<polygon id="SVGID_69_" points="-423.9,-955.7 -423.5,-962 -421.3,-959.5 		"/>
	</defs>
	<clipPath id="SVGID_70_">
		<use xlink:href="#SVGID_69_"  style="overflow:visible;"/>
	</clipPath>
	<g class="st43">
		<defs>
			<rect id="SVGID_71_" x="-612.6" y="-984.9" width="1440" height="2104"/>
		</defs>
		<clipPath id="SVGID_72_">
			<use xlink:href="#SVGID_71_"  style="overflow:visible;"/>
		</clipPath>
		
			<rect x="-431.3" y="-965.6" transform="matrix(0.6018 -0.7986 0.7986 0.6018 597.0479 -720.1821)" class="st44" width="15.2" height="13.5"/>
	</g>
</g>
<g>
	<defs>
		<polygon id="SVGID_73_" points="-433.1,-959.5 -432.8,-965.1 -429.4,-964.4 		"/>
	</defs>
	<clipPath id="SVGID_74_">
		<use xlink:href="#SVGID_73_"  style="overflow:visible;"/>
	</clipPath>
	<g class="st45">
		<defs>
			<rect id="SVGID_75_" x="-612.6" y="-984.9" width="1440" height="2104"/>
		</defs>
		<clipPath id="SVGID_76_">
			<use xlink:href="#SVGID_75_"  style="overflow:visible;"/>
		</clipPath>
		
			<rect x="-440.6" y="-969.4" transform="matrix(0.6018 -0.7986 0.7986 0.6018 596.7792 -728.8209)" class="st46" width="16.1" height="13.1"/>
	</g>
</g>
<g>
	<defs>
		<polygon id="SVGID_77_" points="-423.5,-962 -421.6,-965.1 -421.3,-959.5 		"/>
	</defs>
	<clipPath id="SVGID_78_">
		<use xlink:href="#SVGID_77_"  style="overflow:visible;"/>
	</clipPath>
	<g class="st47">
		<defs>
			<rect id="SVGID_79_" x="-612.6" y="-984.9" width="1440" height="2104"/>
		</defs>
		<clipPath id="SVGID_80_">
			<use xlink:href="#SVGID_79_"  style="overflow:visible;"/>
		</clipPath>
		
			<rect x="-428.6" y="-969.1" transform="matrix(0.6018 -0.7986 0.7986 0.6018 600.6982 -719.7803)" class="st48" width="14.2" height="13.6"/>
	</g>
</g>
<g>
	<defs>
		<polygon id="SVGID_81_" points="-425,-968.5 -429.4,-964.4 -429.4,-968.5 		"/>
	</defs>
	<clipPath id="SVGID_82_">
		<use xlink:href="#SVGID_81_"  style="overflow:visible;"/>
	</clipPath>
	<g class="st49">
		<defs>
			<rect id="SVGID_83_" x="-612.6" y="-984.9" width="1440" height="2104"/>
		</defs>
		<clipPath id="SVGID_84_">
			<use xlink:href="#SVGID_83_"  style="overflow:visible;"/>
		</clipPath>
		
			<rect x="-435.3" y="-974.1" transform="matrix(0.9397 -0.342 0.342 0.9397 305.0104 -204.5328)" class="st50" width="15.6" height="13.8"/>
	</g>
</g>
<g>
	<defs>
		<path id="SVGID_85_" d="M-428.6-951.6l-0.1,1.6L-428.6-951.6z"/>
	</defs>
	<clipPath id="SVGID_86_">
		<use xlink:href="#SVGID_85_"  style="overflow:visible;"/>
	</clipPath>
	<g class="st51">
		<defs>
			<rect id="SVGID_87_" x="-612.6" y="-984.9" width="1440" height="2104"/>
		</defs>
		<clipPath id="SVGID_88_">
			<use xlink:href="#SVGID_87_"  style="overflow:visible;"/>
		</clipPath>
		<rect x="-433.7" y="-956.6" class="st52" width="10.1" height="11.6"/>
	</g>
</g>
<g>
	<defs>
		<polygon id="SVGID_89_" points="-430,-950.5 -428.6,-951.7 -427.2,-949.4 		"/>
	</defs>
	<clipPath id="SVGID_90_">
		<use xlink:href="#SVGID_89_"  style="overflow:visible;"/>
	</clipPath>
	<g class="st53">
		<defs>
			<rect id="SVGID_91_" x="-612.6" y="-984.9" width="1440" height="2104"/>
		</defs>
		<clipPath id="SVGID_92_">
			<use xlink:href="#SVGID_91_"  style="overflow:visible;"/>
		</clipPath>
		<rect x="-435" y="-956.7" class="st54" width="12.8" height="12.3"/>
	</g>
</g>
<g>
	<defs>
		<polygon id="SVGID_93_" points="-430,-953.9 -430,-950.5 -428.6,-951.7 		"/>
	</defs>
	<clipPath id="SVGID_94_">
		<use xlink:href="#SVGID_93_"  style="overflow:visible;"/>
	</clipPath>
	<g class="st55">
		<defs>
			<rect id="SVGID_95_" x="-612.6" y="-984.9" width="1440" height="2104"/>
		</defs>
		<clipPath id="SVGID_96_">
			<use xlink:href="#SVGID_95_"  style="overflow:visible;"/>
		</clipPath>
		<rect x="-435" y="-958.9" class="st56" width="11.4" height="13.4"/>
	</g>
</g>
<g>
	<defs>
		<polygon id="SVGID_97_" points="-425.8,-951.7 -427.2,-949.4 -424.4,-950.5 		"/>
	</defs>
	<clipPath id="SVGID_98_">
		<use xlink:href="#SVGID_97_"  style="overflow:visible;"/>
	</clipPath>
	<g class="st57">
		<defs>
			<rect id="SVGID_99_" x="-612.6" y="-984.9" width="1440" height="2104"/>
		</defs>
		<clipPath id="SVGID_100_">
			<use xlink:href="#SVGID_99_"  style="overflow:visible;"/>
		</clipPath>
		<rect x="-432.2" y="-956.7" class="st58" width="12.8" height="12.3"/>
	</g>
</g>
<g>
	<defs>
		<polygon id="SVGID_101_" points="-424.4,-950.5 -425.8,-951.7 -424.4,-953.9 		"/>
	</defs>
	<clipPath id="SVGID_102_">
		<use xlink:href="#SVGID_101_"  style="overflow:visible;"/>
	</clipPath>
	<g class="st59">
		<defs>
			<rect id="SVGID_103_" x="-612.6" y="-984.9" width="1440" height="2104"/>
		</defs>
		<clipPath id="SVGID_104_">
			<use xlink:href="#SVGID_103_"  style="overflow:visible;"/>
		</clipPath>
		<rect x="-430.8" y="-958.9" class="st60" width="11.4" height="13.4"/>
	</g>
</g>
<g>
	<defs>
		<polygon id="SVGID_105_" points="-430,-953.9 -424.4,-953.9 -427.2,-949.4 		"/>
	</defs>
	<clipPath id="SVGID_106_">
		<use xlink:href="#SVGID_105_"  style="overflow:visible;"/>
	</clipPath>
	<g class="st61">
		<defs>
			<rect id="SVGID_107_" x="-612.6" y="-984.9" width="1440" height="2104"/>
		</defs>
		<clipPath id="SVGID_108_">
			<use xlink:href="#SVGID_107_"  style="overflow:visible;"/>
		</clipPath>
		<rect x="-435" y="-958.9" class="st62" width="15.6" height="14.5"/>
	</g>
</g>
<g>
	<defs>
		<polygon id="SVGID_109_" points="-429.4,-964.4 -423.5,-962 -427.8,-958.6 		"/>
	</defs>
	<clipPath id="SVGID_110_">
		<use xlink:href="#SVGID_109_"  style="overflow:visible;"/>
	</clipPath>
	<g class="st63">
		<defs>
			<rect id="SVGID_111_" x="-612.6" y="-984.9" width="1440" height="2104"/>
		</defs>
		<clipPath id="SVGID_112_">
			<use xlink:href="#SVGID_111_"  style="overflow:visible;"/>
		</clipPath>
		<rect x="-434.4" y="-969.4" class="st64" width="15.9" height="15.8"/>
	</g>
</g>
<g>
	<defs>
		<polygon id="SVGID_113_" points="-425,-968.5 -421.6,-965.1 -423.5,-962 		"/>
	</defs>
	<clipPath id="SVGID_114_">
		<use xlink:href="#SVGID_113_"  style="overflow:visible;"/>
	</clipPath>
	<g class="st65">
		<defs>
			<rect id="SVGID_115_" x="-612.6" y="-984.9" width="1440" height="2104"/>
		</defs>
		<clipPath id="SVGID_116_">
			<use xlink:href="#SVGID_115_"  style="overflow:visible;"/>
		</clipPath>
		<rect x="-430" y="-973.5" class="st66" width="13.3" height="16.5"/>
	</g>
</g>
<g>
	<defs>
		<polygon id="SVGID_117_" points="-430,-953.9 -423.9,-955.7 -424.4,-953.9 		"/>
	</defs>
	<clipPath id="SVGID_118_">
		<use xlink:href="#SVGID_117_"  style="overflow:visible;"/>
	</clipPath>
	<g class="st67">
		<defs>
			<rect id="SVGID_119_" x="-612.6" y="-984.9" width="1440" height="2104"/>
		</defs>
		<clipPath id="SVGID_120_">
			<use xlink:href="#SVGID_119_"  style="overflow:visible;"/>
		</clipPath>
		<rect x="-435" y="-960.7" class="st68" width="16.1" height="11.8"/>
	</g>
</g>
<g>
	<defs>
		<polygon id="SVGID_121_" points="-430.6,-955.7 -427.8,-958.6 -430,-953.9 		"/>
	</defs>
	<clipPath id="SVGID_122_">
		<use xlink:href="#SVGID_121_"  style="overflow:visible;"/>
	</clipPath>
	<g class="st69">
		<defs>
			<rect id="SVGID_123_" x="-612.6" y="-984.9" width="1440" height="2104"/>
		</defs>
		<clipPath id="SVGID_124_">
			<use xlink:href="#SVGID_123_"  style="overflow:visible;"/>
		</clipPath>
		<rect x="-435.6" y="-963.6" class="st70" width="12.8" height="14.7"/>
	</g>
</g>
<g>
	<defs>
		<polygon id="SVGID_125_" points="-432.8,-965.1 -429.4,-968.5 -429.4,-964.4 		"/>
	</defs>
	<clipPath id="SVGID_126_">
		<use xlink:href="#SVGID_125_"  style="overflow:visible;"/>
	</clipPath>
	<g class="st71">
		<defs>
			<rect id="SVGID_127_" x="-612.6" y="-984.9" width="1440" height="2104"/>
		</defs>
		<clipPath id="SVGID_128_">
			<use xlink:href="#SVGID_127_"  style="overflow:visible;"/>
		</clipPath>
		<rect x="-437.8" y="-973.5" class="st72" width="13.3" height="14.1"/>
	</g>
</g>
<g>
	<defs>
		<polygon id="SVGID_129_" points="-427.8,-958.6 -423.9,-955.7 -423.5,-962 		"/>
	</defs>
	<clipPath id="SVGID_130_">
		<use xlink:href="#SVGID_129_"  style="overflow:visible;"/>
	</clipPath>
	<g class="st73">
		<defs>
			<rect id="SVGID_131_" x="-612.6" y="-984.9" width="1440" height="2104"/>
		</defs>
		<clipPath id="SVGID_132_">
			<use xlink:href="#SVGID_131_"  style="overflow:visible;"/>
		</clipPath>
		<rect x="-432.8" y="-967" class="st74" width="14.2" height="16.3"/>
	</g>
</g>
<g>
	<defs>
		<polygon id="SVGID_133_" points="-427.8,-958.6 -433.1,-959.5 -430.6,-955.7 		"/>
	</defs>
	<clipPath id="SVGID_134_">
		<use xlink:href="#SVGID_133_"  style="overflow:visible;"/>
	</clipPath>
	<g class="st75">
		<defs>
			<rect id="SVGID_135_" x="-612.6" y="-984.9" width="1440" height="2104"/>
		</defs>
		<clipPath id="SVGID_136_">
			<use xlink:href="#SVGID_135_"  style="overflow:visible;"/>
		</clipPath>
		
			<rect x="-437.5" y="-966" transform="matrix(0.766 -0.6428 0.6428 0.766 515.5488 -501.0234)" class="st76" width="14" height="14.6"/>
	</g>
</g>
<g>
	<defs>
		<polygon id="SVGID_137_" points="-429.4,-964.4 -425,-968.5 -423.5,-962 		"/>
	</defs>
	<clipPath id="SVGID_138_">
		<use xlink:href="#SVGID_137_"  style="overflow:visible;"/>
	</clipPath>
	<g class="st77">
		<defs>
			<rect id="SVGID_139_" x="-612.6" y="-984.9" width="1440" height="2104"/>
		</defs>
		<clipPath id="SVGID_140_">
			<use xlink:href="#SVGID_139_"  style="overflow:visible;"/>
		</clipPath>
		
			<rect x="-433.2" y="-973" transform="matrix(0.6018 -0.7986 0.7986 0.6018 601.3165 -723.7827)" class="st78" width="16" height="16.2"/>
	</g>
</g>
<g>
	<defs>
		<polygon id="SVGID_141_" points="-433.1,-959.5 -429.4,-964.4 -427.8,-958.6 		"/>
	</defs>
	<clipPath id="SVGID_142_">
		<use xlink:href="#SVGID_141_"  style="overflow:visible;"/>
	</clipPath>
	<g class="st79">
		<defs>
			<rect id="SVGID_143_" x="-612.6" y="-984.9" width="1440" height="2104"/>
		</defs>
		<clipPath id="SVGID_144_">
			<use xlink:href="#SVGID_143_"  style="overflow:visible;"/>
		</clipPath>
		
			<rect x="-437.4" y="-967.9" transform="matrix(0.6018 -0.7986 0.7986 0.6018 596.1371 -725.3563)" class="st80" width="16.1" height="14.8"/>
	</g>
</g>
<g>
	<defs>
		<polygon id="SVGID_145_" points="-430,-953.9 -427.8,-958.6 -423.9,-955.7 		"/>
	</defs>
	<clipPath id="SVGID_146_">
		<use xlink:href="#SVGID_145_"  style="overflow:visible;"/>
	</clipPath>
	<g class="st81">
		<defs>
			<rect id="SVGID_147_" x="-612.6" y="-984.9" width="1440" height="2104"/>
		</defs>
		<clipPath id="SVGID_148_">
			<use xlink:href="#SVGID_147_"  style="overflow:visible;"/>
		</clipPath>
		
			<rect x="-434.9" y="-962.6" transform="matrix(0.6018 -0.7986 0.7986 0.6018 592.6389 -721.6105)" class="st82" width="15.1" height="14.8"/>
	</g>
</g>
<g>
	<defs>
		<polygon id="SVGID_149_" points="-423.9,-955.7 -423.5,-962 -421.3,-959.5 		"/>
	</defs>
	<clipPath id="SVGID_150_">
		<use xlink:href="#SVGID_149_"  style="overflow:visible;"/>
	</clipPath>
	<g class="st83">
		<defs>
			<rect id="SVGID_151_" x="-612.6" y="-984.9" width="1440" height="2104"/>
		</defs>
		<clipPath id="SVGID_152_">
			<use xlink:href="#SVGID_151_"  style="overflow:visible;"/>
		</clipPath>
		
			<rect x="-431.3" y="-965.6" transform="matrix(0.6018 -0.7986 0.7986 0.6018 597.0479 -720.1821)" class="st84" width="15.2" height="13.5"/>
	</g>
</g>
<g>
	<defs>
		<polygon id="SVGID_153_" points="-433.1,-959.5 -432.8,-965.1 -429.4,-964.4 		"/>
	</defs>
	<clipPath id="SVGID_154_">
		<use xlink:href="#SVGID_153_"  style="overflow:visible;"/>
	</clipPath>
	<g class="st85">
		<defs>
			<rect id="SVGID_155_" x="-612.6" y="-984.9" width="1440" height="2104"/>
		</defs>
		<clipPath id="SVGID_156_">
			<use xlink:href="#SVGID_155_"  style="overflow:visible;"/>
		</clipPath>
		
			<rect x="-440.6" y="-969.4" transform="matrix(0.6018 -0.7986 0.7986 0.6018 596.7792 -728.8209)" class="st86" width="16.1" height="13.1"/>
	</g>
</g>
<g>
	<defs>
		<polygon id="SVGID_157_" points="-423.5,-962 -421.6,-965.1 -421.3,-959.5 		"/>
	</defs>
	<clipPath id="SVGID_158_">
		<use xlink:href="#SVGID_157_"  style="overflow:visible;"/>
	</clipPath>
	<g class="st87">
		<defs>
			<rect id="SVGID_159_" x="-612.6" y="-984.9" width="1440" height="2104"/>
		</defs>
		<clipPath id="SVGID_160_">
			<use xlink:href="#SVGID_159_"  style="overflow:visible;"/>
		</clipPath>
		
			<rect x="-428.6" y="-969.1" transform="matrix(0.6018 -0.7986 0.7986 0.6018 600.6982 -719.7803)" class="st88" width="14.2" height="13.6"/>
	</g>
</g>
<g>
	<defs>
		<polygon id="SVGID_161_" points="-425,-968.5 -429.4,-964.4 -429.4,-968.5 		"/>
	</defs>
	<clipPath id="SVGID_162_">
		<use xlink:href="#SVGID_161_"  style="overflow:visible;"/>
	</clipPath>
	<g class="st89">
		<defs>
			<rect id="SVGID_163_" x="-612.6" y="-984.9" width="1440" height="2104"/>
		</defs>
		<clipPath id="SVGID_164_">
			<use xlink:href="#SVGID_163_"  style="overflow:visible;"/>
		</clipPath>
		
			<rect x="-435.3" y="-974.1" transform="matrix(0.9397 -0.342 0.342 0.9397 305.0104 -204.5328)" class="st90" width="15.6" height="13.8"/>
	</g>
</g>
<g>
	<defs>
		<path id="SVGID_165_" d="M-428.6-951.7l-0.1,1.6L-428.6-951.7z"/>
	</defs>
	<clipPath id="SVGID_166_">
		<use xlink:href="#SVGID_165_"  style="overflow:visible;"/>
	</clipPath>
	<g class="st91">
		<defs>
			<rect id="SVGID_167_" x="-612.6" y="-985.1" width="1440" height="2104"/>
		</defs>
		<clipPath id="SVGID_168_">
			<use xlink:href="#SVGID_167_"  style="overflow:visible;"/>
		</clipPath>
		<rect x="-433.7" y="-956.7" class="st92" width="10.1" height="11.6"/>
	</g>
</g>
<g>
	<defs>
		<polygon id="SVGID_169_" points="-430,-950.6 -428.6,-951.8 -427.2,-949.5 		"/>
	</defs>
	<clipPath id="SVGID_170_">
		<use xlink:href="#SVGID_169_"  style="overflow:visible;"/>
	</clipPath>
	<g class="st93">
		<defs>
			<rect id="SVGID_171_" x="-612.6" y="-985.1" width="1440" height="2104"/>
		</defs>
		<clipPath id="SVGID_172_">
			<use xlink:href="#SVGID_171_"  style="overflow:visible;"/>
		</clipPath>
		<rect x="-435" y="-956.8" class="st94" width="12.8" height="12.3"/>
	</g>
</g>
<g>
	<defs>
		<polygon id="SVGID_173_" points="-430,-954.1 -430,-950.6 -428.6,-951.8 		"/>
	</defs>
	<clipPath id="SVGID_174_">
		<use xlink:href="#SVGID_173_"  style="overflow:visible;"/>
	</clipPath>
	<g class="st95">
		<defs>
			<rect id="SVGID_175_" x="-612.6" y="-985.1" width="1440" height="2104"/>
		</defs>
		<clipPath id="SVGID_176_">
			<use xlink:href="#SVGID_175_"  style="overflow:visible;"/>
		</clipPath>
		<rect x="-435" y="-959.1" class="st96" width="11.4" height="13.4"/>
	</g>
</g>
<g>
	<defs>
		<polygon id="SVGID_177_" points="-425.8,-951.8 -427.2,-949.5 -424.4,-950.6 		"/>
	</defs>
	<clipPath id="SVGID_178_">
		<use xlink:href="#SVGID_177_"  style="overflow:visible;"/>
	</clipPath>
	<g class="st97">
		<defs>
			<rect id="SVGID_179_" x="-612.6" y="-985.1" width="1440" height="2104"/>
		</defs>
		<clipPath id="SVGID_180_">
			<use xlink:href="#SVGID_179_"  style="overflow:visible;"/>
		</clipPath>
		<rect x="-432.2" y="-956.8" class="st98" width="12.8" height="12.3"/>
	</g>
</g>
<g>
	<defs>
		<polygon id="SVGID_181_" points="-424.4,-950.6 -425.8,-951.8 -424.4,-954.1 		"/>
	</defs>
	<clipPath id="SVGID_182_">
		<use xlink:href="#SVGID_181_"  style="overflow:visible;"/>
	</clipPath>
	<g class="st99">
		<defs>
			<rect id="SVGID_183_" x="-612.6" y="-985.1" width="1440" height="2104"/>
		</defs>
		<clipPath id="SVGID_184_">
			<use xlink:href="#SVGID_183_"  style="overflow:visible;"/>
		</clipPath>
		<rect x="-430.8" y="-959.1" class="st100" width="11.4" height="13.4"/>
	</g>
</g>
<g>
	<defs>
		<polygon id="SVGID_185_" points="-430,-954.1 -424.4,-954.1 -427.2,-949.5 		"/>
	</defs>
	<clipPath id="SVGID_186_">
		<use xlink:href="#SVGID_185_"  style="overflow:visible;"/>
	</clipPath>
	<g class="st101">
		<defs>
			<rect id="SVGID_187_" x="-612.6" y="-985.1" width="1440" height="2104"/>
		</defs>
		<clipPath id="SVGID_188_">
			<use xlink:href="#SVGID_187_"  style="overflow:visible;"/>
		</clipPath>
		<rect x="-435" y="-959.1" class="st102" width="15.6" height="14.5"/>
	</g>
</g>
<g>
	<defs>
		<polygon id="SVGID_189_" points="-429.4,-964.5 -423.5,-962.1 -427.8,-958.7 		"/>
	</defs>
	<clipPath id="SVGID_190_">
		<use xlink:href="#SVGID_189_"  style="overflow:visible;"/>
	</clipPath>
	<g class="st103">
		<defs>
			<rect id="SVGID_191_" x="-612.6" y="-985.1" width="1440" height="2104"/>
		</defs>
		<clipPath id="SVGID_192_">
			<use xlink:href="#SVGID_191_"  style="overflow:visible;"/>
		</clipPath>
		<rect x="-434.4" y="-969.5" class="st104" width="15.9" height="15.8"/>
	</g>
</g>
<g>
	<defs>
		<polygon id="SVGID_193_" points="-425,-968.6 -421.6,-965.2 -423.5,-962.1 		"/>
	</defs>
	<clipPath id="SVGID_194_">
		<use xlink:href="#SVGID_193_"  style="overflow:visible;"/>
	</clipPath>
	<g class="st105">
		<defs>
			<rect id="SVGID_195_" x="-612.6" y="-985.1" width="1440" height="2104"/>
		</defs>
		<clipPath id="SVGID_196_">
			<use xlink:href="#SVGID_195_"  style="overflow:visible;"/>
		</clipPath>
		<rect x="-430" y="-973.6" class="st106" width="13.3" height="16.5"/>
	</g>
</g>
<g>
	<defs>
		<polygon id="SVGID_197_" points="-430,-954.1 -423.9,-955.8 -424.4,-954.1 		"/>
	</defs>
	<clipPath id="SVGID_198_">
		<use xlink:href="#SVGID_197_"  style="overflow:visible;"/>
	</clipPath>
	<g class="st107">
		<defs>
			<rect id="SVGID_199_" x="-612.6" y="-985.1" width="1440" height="2104"/>
		</defs>
		<clipPath id="SVGID_200_">
			<use xlink:href="#SVGID_199_"  style="overflow:visible;"/>
		</clipPath>
		<rect x="-435" y="-960.8" class="st108" width="16.1" height="11.8"/>
	</g>
</g>
<g>
	<defs>
		<polygon id="SVGID_201_" points="-430.6,-955.8 -427.8,-958.7 -430,-954.1 		"/>
	</defs>
	<clipPath id="SVGID_202_">
		<use xlink:href="#SVGID_201_"  style="overflow:visible;"/>
	</clipPath>
	<g class="st109">
		<defs>
			<rect id="SVGID_203_" x="-612.6" y="-985.1" width="1440" height="2104"/>
		</defs>
		<clipPath id="SVGID_204_">
			<use xlink:href="#SVGID_203_"  style="overflow:visible;"/>
		</clipPath>
		<rect x="-435.6" y="-963.7" class="st110" width="12.8" height="14.7"/>
	</g>
</g>
<g>
	<defs>
		<polygon id="SVGID_205_" points="-432.8,-965.2 -429.4,-968.6 -429.4,-964.5 		"/>
	</defs>
	<clipPath id="SVGID_206_">
		<use xlink:href="#SVGID_205_"  style="overflow:visible;"/>
	</clipPath>
	<g class="st111">
		<defs>
			<rect id="SVGID_207_" x="-612.6" y="-985.1" width="1440" height="2104"/>
		</defs>
		<clipPath id="SVGID_208_">
			<use xlink:href="#SVGID_207_"  style="overflow:visible;"/>
		</clipPath>
		<rect x="-437.8" y="-973.6" class="st112" width="13.3" height="14.1"/>
	</g>
</g>
<g>
	<defs>
		<polygon id="SVGID_209_" points="-427.8,-958.7 -423.9,-955.8 -423.5,-962.1 		"/>
	</defs>
	<clipPath id="SVGID_210_">
		<use xlink:href="#SVGID_209_"  style="overflow:visible;"/>
	</clipPath>
	<g class="st113">
		<defs>
			<rect id="SVGID_211_" x="-612.6" y="-985.1" width="1440" height="2104"/>
		</defs>
		<clipPath id="SVGID_212_">
			<use xlink:href="#SVGID_211_"  style="overflow:visible;"/>
		</clipPath>
		<rect x="-432.8" y="-967.1" class="st114" width="14.2" height="16.3"/>
	</g>
</g>
<g>
	<defs>
		<polygon id="SVGID_213_" points="-427.8,-958.7 -433.1,-959.7 -430.6,-955.8 		"/>
	</defs>
	<clipPath id="SVGID_214_">
		<use xlink:href="#SVGID_213_"  style="overflow:visible;"/>
	</clipPath>
	<g class="st115">
		<defs>
			<rect id="SVGID_215_" x="-612.6" y="-985.1" width="1440" height="2104"/>
		</defs>
		<clipPath id="SVGID_216_">
			<use xlink:href="#SVGID_215_"  style="overflow:visible;"/>
		</clipPath>
		
			<rect x="-437.5" y="-966.2" transform="matrix(0.766 -0.6428 0.6428 0.766 515.6292 -501.0527)" class="st116" width="14" height="14.6"/>
	</g>
</g>
<g>
	<defs>
		<polygon id="SVGID_217_" points="-429.4,-964.5 -425,-968.6 -423.5,-962.1 		"/>
	</defs>
	<clipPath id="SVGID_218_">
		<use xlink:href="#SVGID_217_"  style="overflow:visible;"/>
	</clipPath>
	<g class="st117">
		<defs>
			<rect id="SVGID_219_" x="-612.6" y="-985.1" width="1440" height="2104"/>
		</defs>
		<clipPath id="SVGID_220_">
			<use xlink:href="#SVGID_219_"  style="overflow:visible;"/>
		</clipPath>
		
			<rect x="-433.2" y="-973.1" transform="matrix(0.6018 -0.7986 0.7986 0.6018 601.4163 -723.8325)" class="st118" width="16" height="16.2"/>
	</g>
</g>
<g>
	<defs>
		<polygon id="SVGID_221_" points="-433.1,-959.7 -429.4,-964.5 -427.8,-958.7 		"/>
	</defs>
	<clipPath id="SVGID_222_">
		<use xlink:href="#SVGID_221_"  style="overflow:visible;"/>
	</clipPath>
	<g class="st119">
		<defs>
			<rect id="SVGID_223_" x="-612.6" y="-985.1" width="1440" height="2104"/>
		</defs>
		<clipPath id="SVGID_224_">
			<use xlink:href="#SVGID_223_"  style="overflow:visible;"/>
		</clipPath>
		
			<rect x="-437.4" y="-968.1" transform="matrix(0.6018 -0.7986 0.7986 0.6018 596.2369 -725.406)" class="st120" width="16.1" height="14.8"/>
	</g>
</g>
<g>
	<defs>
		<polygon id="SVGID_225_" points="-430,-954.1 -427.8,-958.7 -423.9,-955.8 		"/>
	</defs>
	<clipPath id="SVGID_226_">
		<use xlink:href="#SVGID_225_"  style="overflow:visible;"/>
	</clipPath>
	<g class="st121">
		<defs>
			<rect id="SVGID_227_" x="-612.6" y="-985.1" width="1440" height="2104"/>
		</defs>
		<clipPath id="SVGID_228_">
			<use xlink:href="#SVGID_227_"  style="overflow:visible;"/>
		</clipPath>
		
			<rect x="-434.9" y="-962.7" transform="matrix(0.6018 -0.7986 0.7986 0.6018 592.7387 -721.6602)" class="st122" width="15.1" height="14.8"/>
	</g>
</g>
<g>
	<defs>
		<polygon id="SVGID_229_" points="-423.9,-955.8 -423.5,-962.1 -421.3,-959.7 		"/>
	</defs>
	<clipPath id="SVGID_230_">
		<use xlink:href="#SVGID_229_"  style="overflow:visible;"/>
	</clipPath>
	<g class="st123">
		<defs>
			<rect id="SVGID_231_" x="-612.6" y="-985.1" width="1440" height="2104"/>
		</defs>
		<clipPath id="SVGID_232_">
			<use xlink:href="#SVGID_231_"  style="overflow:visible;"/>
		</clipPath>
		
			<rect x="-431.3" y="-965.7" transform="matrix(0.6018 -0.7986 0.7986 0.6018 597.1477 -720.2318)" class="st124" width="15.2" height="13.5"/>
	</g>
</g>
<g>
	<defs>
		<polygon id="SVGID_233_" points="-433.1,-959.7 -432.8,-965.2 -429.4,-964.5 		"/>
	</defs>
	<clipPath id="SVGID_234_">
		<use xlink:href="#SVGID_233_"  style="overflow:visible;"/>
	</clipPath>
	<g class="st125">
		<defs>
			<rect id="SVGID_235_" x="-612.6" y="-985.1" width="1440" height="2104"/>
		</defs>
		<clipPath id="SVGID_236_">
			<use xlink:href="#SVGID_235_"  style="overflow:visible;"/>
		</clipPath>
		
			<rect x="-440.6" y="-969.5" transform="matrix(0.6018 -0.7986 0.7986 0.6018 596.879 -728.8706)" class="st126" width="16.1" height="13.1"/>
	</g>
</g>
<g>
	<defs>
		<polygon id="SVGID_237_" points="-423.5,-962.1 -421.6,-965.2 -421.3,-959.7 		"/>
	</defs>
	<clipPath id="SVGID_238_">
		<use xlink:href="#SVGID_237_"  style="overflow:visible;"/>
	</clipPath>
	<g class="st127">
		<defs>
			<rect id="SVGID_239_" x="-612.6" y="-985.1" width="1440" height="2104"/>
		</defs>
		<clipPath id="SVGID_240_">
			<use xlink:href="#SVGID_239_"  style="overflow:visible;"/>
		</clipPath>
		
			<rect x="-428.6" y="-969.2" transform="matrix(0.6018 -0.7986 0.7986 0.6018 600.7981 -719.8301)" class="st128" width="14.2" height="13.6"/>
	</g>
</g>
<g>
	<defs>
		<polygon id="SVGID_241_" points="-425,-968.6 -429.4,-964.5 -429.4,-968.6 		"/>
	</defs>
	<clipPath id="SVGID_242_">
		<use xlink:href="#SVGID_241_"  style="overflow:visible;"/>
	</clipPath>
	<g class="st129">
		<defs>
			<rect id="SVGID_243_" x="-612.6" y="-985.1" width="1440" height="2104"/>
		</defs>
		<clipPath id="SVGID_244_">
			<use xlink:href="#SVGID_243_"  style="overflow:visible;"/>
		</clipPath>
		
			<rect x="-435.3" y="-974.2" transform="matrix(0.9397 -0.342 0.342 0.9397 305.0531 -204.5403)" class="st130" width="15.6" height="13.8"/>
	</g>
</g>
</svg>
