<?xml version="1.0" encoding="UTF-8"?>
<svg width="192px" height="74px" viewBox="0 0 192 74" version="1.1" xmlns="http://www.w3.org/2000/svg" xmlns:xlink="http://www.w3.org/1999/xlink">
    <title>logo copy</title>
    <g id="Existing" stroke="none" stroke-width="1" fill="none" fill-rule="evenodd">
        <g id="01-Web-Large-[Dark]" transform="translate(-547.000000, -465.000000)" fill-rule="nonzero">
            <g id="logo-copy" transform="translate(547.000000, 465.000000)">
                <path d="M6.99297125,31 C9.81471059,36.7092385 12.6670782,42.2575701 15.5501597,47.6451613 C18.4332413,53.0327525 21.4491855,58.5609815 24.5980831,64.230014 C25.0070308,63.4661018 25.5999961,62.3705074 26.3769968,60.9431978 C27.1539975,59.5158881 28.053669,57.8775221 29.0760383,56.0280505 C30.0984077,54.1785789 31.1923264,52.1783651 32.3578275,50.0273492 C33.5233285,47.8763333 34.7092591,45.6951957 35.915655,43.483871 C37.1220508,41.2725462 38.3182049,39.1014599 39.5041534,36.970547 C40.6901018,34.839634 41.7942441,32.8494716 42.8166134,31 L43.6140575,31 C44.0639,34.8597668 44.4830652,38.5888086 44.8715655,42.187237 C45.2600658,45.7856655 45.6587839,49.323732 46.0677316,52.8015428 C46.4766794,56.2793535 46.885621,59.7169068 47.2945687,63.1143058 C47.7035164,66.5117047 48.1533522,69.8788987 48.6440895,73.2159888 C48.1533522,73.135577 47.6728458,73.0953717 47.2025559,73.0953717 L44.3194888,73.0953717 C43.8491989,73.0953717 43.3686925,73.135577 42.8779553,73.2159888 C42.4281128,67.8686035 41.978277,62.6821196 41.5284345,57.6563815 C41.078592,52.6306434 40.5265208,47.5044675 39.8722045,42.2776999 L39.7495208,42.2776999 C36.9277814,47.3436438 34.1572021,52.3793579 31.4376997,57.384993 C28.7181973,62.3906281 26.1316417,67.6273686 23.6779553,73.0953717 L23.1258786,73.0953717 C20.6721922,68.0294277 18.1060837,62.9535084 15.427476,57.8674614 C12.7488684,52.7814145 10.0600774,47.5848793 7.36102236,42.2776999 L7.23833866,42.2776999 C6.95207525,44.7704659 6.63514551,47.4742725 6.28753994,50.3892006 C5.93993436,53.3041286 5.62300463,56.1788077 5.33674121,59.013324 C5.0504778,61.8478403 4.80511284,64.5214928 4.60063898,67.0343619 C4.39616511,69.5472309 4.29392971,71.6077526 4.29392971,73.2159888 C3.63961334,73.135577 2.92396555,73.0953717 2.14696486,73.0953717 C1.36996417,73.0953717 0.654316371,73.135577 0,73.2159888 C0.531632051,69.9593105 1.08370321,66.5217572 1.65623003,62.9032258 C2.22875686,59.2846944 2.78082801,55.6461146 3.31246006,51.9873773 C3.84409212,48.32864 4.33482203,44.7202141 4.78466454,41.1619916 C5.23450704,37.603769 5.62300156,34.2164724 5.95015974,31 L6.99297125,31 Z M57.6,47.4039271 C57.6,44.7503374 57.5488823,42.1470441 57.4466454,39.5939691 C57.3444084,37.0408942 57.2319495,34.4376009 57.1092652,31.7840112 C57.6408972,31.864423 58.1520742,31.9347823 58.6428115,31.9950912 C59.1335488,32.0554 59.6242787,32.085554 60.115016,32.085554 C60.6057533,32.085554 61.0964832,32.0554 61.5872204,31.9950912 C62.0779577,31.9347823 62.5891347,31.864423 63.1207668,31.7840112 C62.9980825,34.4376009 62.8856235,37.0408942 62.7833866,39.5939691 C62.6811496,42.1470441 62.6300319,44.7503374 62.6300319,47.4039271 L62.6300319,57.7769986 C62.6300319,60.4305883 62.6811496,63.0439329 62.7833866,65.6171108 C62.8856235,68.1902887 62.9980825,70.7232227 63.1207668,73.2159888 C62.180187,73.135577 61.1782801,73.0953717 60.115016,73.0953717 C59.0517519,73.0953717 58.049845,73.135577 57.1092652,73.2159888 C57.2319495,70.7232227 57.3444084,68.1902887 57.4466454,65.6171108 C57.5488823,63.0439329 57.6,60.4305883 57.6,57.7769986 L57.6,47.4039271 Z M109.188498,74 C104.485599,68.6526147 99.4760649,63.1746423 94.1597444,57.5659187 C88.8434239,51.957195 83.5271831,46.3787094 78.2108626,40.8302945 C78.1699678,41.9560599 78.1290737,43.4637587 78.0881789,45.3534362 C78.0472841,47.2431137 78.0268371,49.816253 78.0268371,53.0729313 C78.0268371,53.9172553 78.0370606,54.9625931 78.057508,56.2089762 C78.0779554,57.4553592 78.0984025,58.7620315 78.1188498,60.1290323 C78.1392972,61.496033 78.1699678,62.8831159 78.2108626,64.2903226 C78.2517574,65.6975292 78.2926516,67.0042015 78.3335463,68.2103787 C78.3744411,69.4165558 78.4153353,70.471945 78.45623,71.3765778 C78.4971248,72.2812107 78.538019,72.8943415 78.5789137,73.2159888 C77.9245974,73.135577 77.2089496,73.0953717 76.4319489,73.0953717 C75.6140534,73.0953717 74.8575115,73.135577 74.1623003,73.2159888 C74.2440899,72.8139297 74.3361017,72.0701317 74.4383387,70.9845722 C74.5405756,69.8990128 74.6325875,68.6023918 74.714377,67.0946704 C74.7961665,65.586949 74.8881784,63.9485829 74.9904153,62.1795231 C75.0926523,60.4104633 75.1744406,58.6414301 75.2357827,56.8723703 C75.2971249,55.1033105 75.3482426,53.3744825 75.3891374,51.6858345 C75.4300322,49.9971865 75.4504792,48.4894877 75.4504792,47.1626928 C75.4504792,43.302926 75.4402557,39.9859886 75.4198083,37.2117812 C75.3993609,34.4375738 75.3482432,32.3670008 75.2664537,31 L76.2479233,31 C78.7425045,33.6535897 81.4108484,36.4981148 84.2530351,39.5336606 C87.0952219,42.5692064 89.9169189,45.5645014 92.7182109,48.5196353 C95.5195028,51.4747693 98.1776232,54.2690378 100.692652,56.9025245 C103.20768,59.5360113 105.405742,61.7774569 107.286901,63.6269285 L107.286901,55.4249649 C107.286901,51.203345 107.25623,47.0923529 107.194888,43.0918654 C107.133546,39.0913778 107.00064,35.3221308 106.796166,31.7840112 C107.614062,31.9850407 108.309262,32.085554 108.881789,32.085554 C109.372526,32.085554 110.026833,31.9850407 110.844728,31.7840112 C110.762939,32.6685411 110.670928,33.9953161 110.56869,35.7643759 C110.466453,37.5334357 110.364218,39.4230849 110.261981,41.4333801 C110.159743,43.4436753 110.067732,45.4137351 109.985942,47.3436185 C109.904153,49.2735019 109.863259,50.821406 109.863259,51.9873773 L109.863259,55.6058906 C109.863259,56.9728914 109.873482,58.4001796 109.89393,59.887798 C109.914377,61.3754165 109.934824,62.873064 109.955272,64.3807854 C109.975719,65.8885068 109.996166,67.2956924 110.016613,68.6023843 C110.037061,69.9090762 110.047284,71.044876 110.047284,72.0098177 L110.047284,74 L109.188498,74 Z M122.376997,47.4039271 C122.376997,44.7503374 122.32588,42.1470441 122.223642,39.5939691 C122.121405,37.0408942 122.008947,34.4376009 121.886262,31.7840112 C123.440264,31.864423 124.984017,31.9347823 126.517572,31.9950912 C128.051126,32.0554 129.59488,32.085554 131.148882,32.085554 C132.702884,32.085554 134.246637,32.0352974 135.780192,31.9347826 C137.313745,31.8342678 138.8575,31.7840112 140.411502,31.7840112 C144.010242,31.7840112 147.087527,32.2463722 149.64345,33.171108 C152.199374,34.0958438 154.295199,35.4125674 155.93099,37.1213184 C157.566781,38.8300693 158.762935,40.920745 159.519489,43.3934081 C160.276042,45.8660713 160.654313,48.6502884 160.654313,51.7461431 C160.654313,55.7667335 159.948889,59.1540302 158.538019,61.9081346 C157.127149,64.6622391 155.327807,66.883582 153.139936,68.57223 C150.952065,70.260878 148.53931,71.4569857 145.901597,72.1605891 C143.263884,72.8641924 140.73867,73.2159888 138.325879,73.2159888 C136.935456,73.2159888 135.565502,73.1958861 134.215974,73.1556802 C132.866447,73.1154743 131.496493,73.0953717 130.10607,73.0953717 L125.996166,73.0953717 C124.646638,73.0953717 123.276684,73.135577 121.886262,73.2159888 C122.008947,70.7232227 122.121405,68.1902887 122.223642,65.6171108 C122.32588,63.0439329 122.376997,60.4305883 122.376997,57.7769986 L122.376997,47.4039271 Z M127.407029,57.7769986 C127.407029,62.1192363 127.529711,66.3809983 127.77508,70.5624123 C128.63387,70.7634419 129.799354,70.9142117 131.271565,71.0147265 C132.743777,71.1152413 134.256861,71.1654979 135.810863,71.1654979 C138.060075,71.1654979 140.309254,70.9041634 142.558466,70.3814867 C144.807679,69.8588099 146.821716,68.87378 148.600639,67.4263675 C150.379562,65.9789549 151.831305,63.9988438 152.955911,61.4859748 C154.080517,58.9731057 154.642812,55.7265276 154.642812,51.7461431 C154.642812,48.2482294 154.203199,45.3735503 153.323962,43.1220196 C152.444724,40.870489 151.238347,39.0914044 149.704792,37.7847125 C148.171239,36.4780206 146.341224,35.5734013 144.214696,35.0708275 C142.088169,34.5682537 139.757201,34.3169705 137.221725,34.3169705 C135.38146,34.3169705 133.663906,34.3772785 132.06901,34.4978962 C130.474113,34.6185139 129.042818,34.7592325 127.77508,34.9200561 C127.652395,36.8499395 127.560383,38.8702559 127.499042,40.9810659 C127.4377,43.0918759 127.407029,45.2328082 127.407029,47.4039271 L127.407029,57.7769986 Z M168.751438,65.3758766 C169.078596,66.0995829 169.518208,66.8333296 170.070288,67.5771388 C170.622367,68.3209481 171.297121,68.9943869 172.094569,69.5974755 C172.892017,70.200564 173.822359,70.693079 174.885623,71.0750351 C175.948887,71.4569912 177.134818,71.6479663 178.44345,71.6479663 C179.792978,71.6479663 181.00958,71.4167859 182.093291,70.954418 C183.177002,70.49205 184.097121,69.8688679 184.853674,69.0848527 C185.610228,68.3008376 186.192969,67.3761157 186.601917,66.3106592 C187.010865,65.2452027 187.215335,64.1094029 187.215335,62.9032258 C187.215335,61.0537542 186.734829,59.5862607 185.773802,58.5007013 C184.812774,57.4151418 183.616621,56.5105226 182.185304,55.7868163 C180.753986,55.06311 179.210232,54.3997225 177.553994,53.7966339 C175.897755,53.1935454 174.354001,52.439696 172.922684,51.5350631 C171.491367,50.6304303 170.295213,49.4745278 169.334185,48.0673212 C168.373158,46.6601145 167.892652,44.7704653 167.892652,42.398317 C167.892652,40.709669 168.199358,39.1718162 168.81278,37.7847125 C169.426201,36.3976088 170.315649,35.2015011 171.48115,34.1963534 C172.646652,33.1912058 174.047276,32.4072024 175.683067,31.8443198 C177.318858,31.2814371 179.159095,31 181.203834,31 C183.166783,31 184.863891,31.2311805 186.295208,31.6935484 C187.726525,32.1559163 189.055585,32.8695604 190.282428,33.8345021 C189.914375,34.5180025 189.607669,35.2416979 189.3623,36.0056101 C189.116932,36.7695223 188.871567,37.7344495 188.626198,38.9004208 L187.890096,38.9004208 C187.685622,38.3375381 187.409587,37.7244072 187.061981,37.0610098 C186.714375,36.3976124 186.244093,35.7844815 185.651118,35.2215989 C185.058144,34.6587162 184.35272,34.1863039 183.534824,33.8043478 C182.716929,33.4223917 181.735469,33.2314165 180.590415,33.2314165 C179.445361,33.2314165 178.392337,33.4123404 177.43131,33.7741935 C176.470282,34.1360467 175.631953,34.6486643 174.916294,35.3120617 C174.200636,35.9754591 173.648564,36.7695138 173.260064,37.6942496 C172.871563,38.6189855 172.677316,39.624118 172.677316,40.7096774 C172.677316,42.5993549 173.157822,44.0869511 174.11885,45.1725105 C175.079877,46.2580699 176.276031,47.1727406 177.707348,47.9165498 C179.138665,48.660359 180.68242,49.3237465 182.338658,49.9067321 C183.994896,50.4897177 185.538651,51.2033618 186.969968,52.0476858 C188.401285,52.8920098 189.597439,53.977553 190.558466,55.3043478 C191.519494,56.6311427 192,58.4001759 192,60.6115007 C192,62.4609723 191.662623,64.2099029 190.987859,65.858345 C190.313096,67.5067871 189.331636,68.9441266 188.04345,70.1704067 C186.755265,71.3966868 185.18084,72.3415114 183.320128,73.0049088 C181.459416,73.6683063 179.343143,74 176.971246,74 C174.43577,74 172.380839,73.6683063 170.80639,73.0049088 C169.231941,72.3415114 167.913104,71.587662 166.84984,70.743338 C167.217893,69.8186022 167.473481,68.9843422 167.616613,68.240533 C167.759745,67.4967237 167.892651,66.5418478 168.015335,65.3758766 L168.751438,65.3758766 Z" id="MINDS" fill="#43434D"></path>
                <g id="bulb" transform="translate(45.000000, 0.000000)">
                    <g id="Group-5" transform="translate(10.257353, 29.714087)">
                        <path d="M2.51785285,4.42112716 L2.31270579,7.40281757 L2.51785285,4.42112716 Z" id="Triangle-3" fill="#656565"></path>
                        <polygon id="Triangle-3" fill="#656565" points="0 6.37464847 2.53894875 4.21549334 5.0778975 8.43098668"></polygon>
                        <polygon id="Triangle-3" fill="#787778" points="0 0 0 6.37464847 2.53894875 4.21549334"></polygon>
                        <polygon id="Triangle-3" fill="#5C5C5C" points="7.61684624 4.21549334 5.0778975 8.43098668 10.155795 6.37464847"></polygon>
                        <polygon id="Triangle-3" fill="#787778" points="10.155795 6.37464847 7.61684624 4.21549334 10.155795 0"></polygon>
                        <polygon id="Triangle-3" fill="#4A4A4A" points="0 0 10.155795 0 5.0778975 8.43098668"></polygon>
                    </g>
                    <g id="Group">
                        <polygon id="Triangle-3" fill="#FED12F" points="11.2729324 10.2816911 22.0380751 14.8056351 14.3196709 21.0774667"></polygon>
                        <polygon id="Triangle-3" fill="#FED12F" points="19.3975684 2.67323968 25.4910454 9.04788815 22.0380751 14.8056351"></polygon>
                        <polygon id="Triangle-3" fill="#FED12F" points="10.2573529 29.7140872 21.4287274 26.4239461 20.4131479 29.7140872"></polygon>
                        <polygon id="Triangle-3" fill="#FED12F" points="9.24177344 26.4239461 14.3196709 21.0774667 10.2573529 29.7140872"></polygon>
                        <polygon id="Triangle-3" fill="#FED12F" points="5.17945545 9.04788815 11.2729324 2.67323968 11.2729324 10.2816911"></polygon>
                        <polygon id="Triangle-3" fill="#FFF3CB" points="14.3196709 21.0774667 21.4287274 26.4239461 22.0380751 14.8056351"></polygon>
                        <polygon id="Triangle-3" fill="#FFF3CB" transform="translate(9.336247, 20.837494) rotate(140.000000) translate(-9.336247, -20.837494) " points="5.67297362 17.4503804 12.018052 25.0562383 12.9995194 16.6187493"></polygon>
                        <polygon id="Triangle-3" fill="#FFDD63" transform="translate(19.092934, 9.309083) rotate(-53.000000) translate(-19.092934, -9.309083) " points="13.6099807 3.64908201 24.5758882 5.55882446 16.4756229 14.9690848"></polygon>
                        <polygon id="Triangle-3" fill="#FFEDAC" transform="translate(11.450791, 17.465132) rotate(-53.000000) translate(-11.450791, -17.465132) " points="5.82087849 13.0920261 17.0807039 12.999985 10.2923871 21.9302784"></polygon>
                        <polygon id="Triangle-3" fill="#FFDD63" transform="translate(15.063038, 27.481243) rotate(-53.000000) translate(-15.063038, -27.481243) " points="10.387676 24.9870113 19.7299518 23.0336747 19.7384005 31.9288113"></polygon>
                        <polygon id="Triangle-3" fill="#FFDD63" transform="translate(21.733401, 20.614791) rotate(-53.000000) translate(-21.733401, -20.614791) " points="16.9106462 23.8675042 26.5561564 17.362077 25.387938 23.3289658"></polygon>
                        <polygon id="Triangle-3" fill="#FFDD63" transform="translate(5.681751, 13.117848) rotate(-53.000000) translate(-5.681751, -13.117848) " points="0.0518387894 15.9683632 8.62987698 10.2673338 11.3116642 15.876322"></polygon>
                        <polygon id="Triangle-3" fill="#FEE382" transform="translate(25.795719, 14.188734) rotate(-53.000000) translate(-25.795719, -14.188734) " points="23.0416332 11.5590062 29.7180237 10.8515722 21.8734148 17.5258951"></polygon>
                        <polygon id="Triangle-3" fill="#FEF1C0" transform="translate(14.860050, 5.171862) rotate(160.000000) translate(-14.860050, -5.171862) " points="9.74159747 5.96787522 19.9785016 1.59705875 17.3762579 8.74666439"></polygon>
                    </g>
                </g>
            </g>
        </g>
    </g>
</svg>