<?xml version="1.0" encoding="utf-8"?>
<svg width="191px" height="191px" viewBox="0 0 191 191" version="1.1" xmlns:xlink="http://www.w3.org/1999/xlink" xmlns="http://www.w3.org/2000/svg">
  <desc>Created with Lunacy</desc>
  <g id="Group-2-Copy-2">
    <g id="iconfinder_basics-15_296819">
      <path d="M10.6984 5.14516L5.58871 5.14516L5.58871 0L5.14516 0L5.14516 5.14516L0 5.14516L0 5.58871L5.14516 5.58871L5.14516 10.7339L5.58871 10.7339L5.58871 5.58871L10.7339 5.58871L10.7339 5.14516L10.6984 5.14516Z" transform="translate(0.1596774 0.1064516)" id="Path" fill="#4A90E2" stroke="none" />
    </g>
    <g id="iconfinder_basics-15_296819-copy" transform="translate(20 0)">
      <path d="M10.6984 5.14516L5.58871 5.14516L5.58871 0L5.14516 0L5.14516 5.14516L0 5.14516L0 5.58871L5.14516 5.58871L5.14516 10.7339L5.58871 10.7339L5.58871 5.58871L10.7339 5.58871L10.7339 5.14516L10.6984 5.14516Z" transform="translate(0.1596774 0.1064516)" id="Path" fill="#4A90E2" stroke="none" />
    </g>
    <g id="iconfinder_basics-15_296819-copy-2" transform="translate(40 0)">
      <path d="M10.6984 5.14516L5.58871 5.14516L5.58871 0L5.14516 0L5.14516 5.14516L0 5.14516L0 5.58871L5.14516 5.58871L5.14516 10.7339L5.58871 10.7339L5.58871 5.58871L10.7339 5.58871L10.7339 5.14516L10.6984 5.14516Z" transform="translate(0.1596774 0.1064516)" id="Path" fill="#4A90E2" stroke="none" />
    </g>
    <g id="iconfinder_basics-15_296819-copy-3" transform="translate(60 0)">
      <path d="M10.6984 5.14516L5.58871 5.14516L5.58871 0L5.14516 0L5.14516 5.14516L0 5.14516L0 5.58871L5.14516 5.58871L5.14516 10.7339L5.58871 10.7339L5.58871 5.58871L10.7339 5.58871L10.7339 5.14516L10.6984 5.14516Z" transform="translate(0.1596774 0.1064516)" id="Path" fill="#4A90E2" stroke="none" />
    </g>
    <g id="iconfinder_basics-15_296819-copy-4" transform="translate(80 0)">
      <path d="M10.6984 5.14516L5.58871 5.14516L5.58871 0L5.14516 0L5.14516 5.14516L0 5.14516L0 5.58871L5.14516 5.58871L5.14516 10.7339L5.58871 10.7339L5.58871 5.58871L10.7339 5.58871L10.7339 5.14516L10.6984 5.14516Z" transform="translate(0.1596774 0.1064516)" id="Path" fill="#4A90E2" stroke="none" />
    </g>
    <g id="iconfinder_basics-15_296819-copy-5" transform="translate(100 0)">
      <path d="M10.6984 5.14516L5.58871 5.14516L5.58871 0L5.14516 0L5.14516 5.14516L0 5.14516L0 5.58871L5.14516 5.58871L5.14516 10.7339L5.58871 10.7339L5.58871 5.58871L10.7339 5.58871L10.7339 5.14516L10.6984 5.14516Z" transform="translate(0.1596774 0.1064516)" id="Path" fill="#4A90E2" stroke="none" />
    </g>
    <g id="iconfinder_basics-15_296819-copy-6" transform="translate(120 0)">
      <path d="M10.6984 5.14516L5.58871 5.14516L5.58871 0L5.14516 0L5.14516 5.14516L0 5.14516L0 5.58871L5.14516 5.58871L5.14516 10.7339L5.58871 10.7339L5.58871 5.58871L10.7339 5.58871L10.7339 5.14516L10.6984 5.14516Z" transform="translate(0.1596774 0.1064516)" id="Path" fill="#4A90E2" stroke="none" />
    </g>
    <g id="iconfinder_basics-15_296819-copy-7" transform="translate(140 0)">
      <path d="M10.6984 5.14516L5.58871 5.14516L5.58871 0L5.14516 0L5.14516 5.14516L0 5.14516L0 5.58871L5.14516 5.58871L5.14516 10.7339L5.58871 10.7339L5.58871 5.58871L10.7339 5.58871L10.7339 5.14516L10.6984 5.14516Z" transform="translate(0.1596774 0.1064516)" id="Path" fill="#4A90E2" stroke="none" />
    </g>
    <g id="iconfinder_basics-15_296819-copy-8" transform="translate(160 0)">
      <path d="M10.6984 5.14516L5.58871 5.14516L5.58871 0L5.14516 0L5.14516 5.14516L0 5.14516L0 5.58871L5.14516 5.58871L5.14516 10.7339L5.58871 10.7339L5.58871 5.58871L10.7339 5.58871L10.7339 5.14516L10.6984 5.14516Z" transform="translate(0.1596774 0.1064516)" id="Path" fill="#4A90E2" stroke="none" />
    </g>
    <g id="iconfinder_basics-15_296819-copy-9" transform="translate(180 0)">
      <path d="M10.6984 5.14516L5.58871 5.14516L5.58871 0L5.14516 0L5.14516 5.14516L0 5.14516L0 5.58871L5.14516 5.58871L5.14516 10.7339L5.58871 10.7339L5.58871 5.58871L10.7339 5.58871L10.7339 5.14516L10.6984 5.14516Z" transform="translate(0.1596774 0.1064516)" id="Path" fill="#4A90E2" stroke="none" />
    </g>
    <g id="iconfinder_basics-15_296819-copy-19" transform="translate(0 20)">
      <path d="M10.6984 5.14516L5.58871 5.14516L5.58871 0L5.14516 0L5.14516 5.14516L0 5.14516L0 5.58871L5.14516 5.58871L5.14516 10.7339L5.58871 10.7339L5.58871 5.58871L10.7339 5.58871L10.7339 5.14516L10.6984 5.14516Z" transform="translate(0.1596774 0.1064516)" id="Path" fill="#4A90E2" stroke="none" />
    </g>
    <g id="iconfinder_basics-15_296819-copy-18" transform="translate(20 20)">
      <path d="M10.6984 5.14516L5.58871 5.14516L5.58871 0L5.14516 0L5.14516 5.14516L0 5.14516L0 5.58871L5.14516 5.58871L5.14516 10.7339L5.58871 10.7339L5.58871 5.58871L10.7339 5.58871L10.7339 5.14516L10.6984 5.14516Z" transform="translate(0.1596774 0.1064516)" id="Path" fill="#4A90E2" stroke="none" />
    </g>
    <g id="iconfinder_basics-15_296819-copy-17" transform="translate(40 20)">
      <path d="M10.6984 5.14516L5.58871 5.14516L5.58871 0L5.14516 0L5.14516 5.14516L0 5.14516L0 5.58871L5.14516 5.58871L5.14516 10.7339L5.58871 10.7339L5.58871 5.58871L10.7339 5.58871L10.7339 5.14516L10.6984 5.14516Z" transform="translate(0.1596774 0.1064516)" id="Path" fill="#4A90E2" stroke="none" />
    </g>
    <g id="iconfinder_basics-15_296819-copy-16" transform="translate(60 20)">
      <path d="M10.6984 5.14516L5.58871 5.14516L5.58871 0L5.14516 0L5.14516 5.14516L0 5.14516L0 5.58871L5.14516 5.58871L5.14516 10.7339L5.58871 10.7339L5.58871 5.58871L10.7339 5.58871L10.7339 5.14516L10.6984 5.14516Z" transform="translate(0.1596774 0.1064516)" id="Path" fill="#4A90E2" stroke="none" />
    </g>
    <g id="iconfinder_basics-15_296819-copy-15" transform="translate(80 20)">
      <path d="M10.6984 5.14516L5.58871 5.14516L5.58871 0L5.14516 0L5.14516 5.14516L0 5.14516L0 5.58871L5.14516 5.58871L5.14516 10.7339L5.58871 10.7339L5.58871 5.58871L10.7339 5.58871L10.7339 5.14516L10.6984 5.14516Z" transform="translate(0.1596774 0.1064516)" id="Path" fill="#4A90E2" stroke="none" />
    </g>
    <g id="iconfinder_basics-15_296819-copy-14" transform="translate(100 20)">
      <path d="M10.6984 5.14516L5.58871 5.14516L5.58871 0L5.14516 0L5.14516 5.14516L0 5.14516L0 5.58871L5.14516 5.58871L5.14516 10.7339L5.58871 10.7339L5.58871 5.58871L10.7339 5.58871L10.7339 5.14516L10.6984 5.14516Z" transform="translate(0.1596774 0.1064516)" id="Path" fill="#4A90E2" stroke="none" />
    </g>
    <g id="iconfinder_basics-15_296819-copy-13" transform="translate(120 20)">
      <path d="M10.6984 5.14516L5.58871 5.14516L5.58871 0L5.14516 0L5.14516 5.14516L0 5.14516L0 5.58871L5.14516 5.58871L5.14516 10.7339L5.58871 10.7339L5.58871 5.58871L10.7339 5.58871L10.7339 5.14516L10.6984 5.14516Z" transform="translate(0.1596774 0.1064516)" id="Path" fill="#4A90E2" stroke="none" />
    </g>
    <g id="iconfinder_basics-15_296819-copy-12" transform="translate(140 20)">
      <path d="M10.6984 5.14516L5.58871 5.14516L5.58871 0L5.14516 0L5.14516 5.14516L0 5.14516L0 5.58871L5.14516 5.58871L5.14516 10.7339L5.58871 10.7339L5.58871 5.58871L10.7339 5.58871L10.7339 5.14516L10.6984 5.14516Z" transform="translate(0.1596774 0.1064516)" id="Path" fill="#4A90E2" stroke="none" />
    </g>
    <g id="iconfinder_basics-15_296819-copy-11" transform="translate(160 20)">
      <path d="M10.6984 5.14516L5.58871 5.14516L5.58871 0L5.14516 0L5.14516 5.14516L0 5.14516L0 5.58871L5.14516 5.58871L5.14516 10.7339L5.58871 10.7339L5.58871 5.58871L10.7339 5.58871L10.7339 5.14516L10.6984 5.14516Z" transform="translate(0.1596774 0.1064516)" id="Path" fill="#4A90E2" stroke="none" />
    </g>
    <g id="iconfinder_basics-15_296819-copy-10" transform="translate(180 20)">
      <path d="M10.6984 5.14516L5.58871 5.14516L5.58871 0L5.14516 0L5.14516 5.14516L0 5.14516L0 5.58871L5.14516 5.58871L5.14516 10.7339L5.58871 10.7339L5.58871 5.58871L10.7339 5.58871L10.7339 5.14516L10.6984 5.14516Z" transform="translate(0.1596774 0.1064516)" id="Path" fill="#4A90E2" stroke="none" />
    </g>
    <g id="iconfinder_basics-15_296819-copy-29" transform="translate(0 40)">
      <path d="M10.6984 5.14516L5.58871 5.14516L5.58871 0L5.14516 0L5.14516 5.14516L0 5.14516L0 5.58871L5.14516 5.58871L5.14516 10.7339L5.58871 10.7339L5.58871 5.58871L10.7339 5.58871L10.7339 5.14516L10.6984 5.14516Z" transform="translate(0.1596774 0.1064516)" id="Path" fill="#4A90E2" stroke="none" />
    </g>
    <g id="iconfinder_basics-15_296819-copy-28" transform="translate(20 40)">
      <path d="M10.6984 5.14516L5.58871 5.14516L5.58871 0L5.14516 0L5.14516 5.14516L0 5.14516L0 5.58871L5.14516 5.58871L5.14516 10.7339L5.58871 10.7339L5.58871 5.58871L10.7339 5.58871L10.7339 5.14516L10.6984 5.14516Z" transform="translate(0.1596774 0.1064516)" id="Path" fill="#4A90E2" stroke="none" />
    </g>
    <g id="iconfinder_basics-15_296819-copy-27" transform="translate(40 40)">
      <path d="M10.6984 5.14516L5.58871 5.14516L5.58871 0L5.14516 0L5.14516 5.14516L0 5.14516L0 5.58871L5.14516 5.58871L5.14516 10.7339L5.58871 10.7339L5.58871 5.58871L10.7339 5.58871L10.7339 5.14516L10.6984 5.14516Z" transform="translate(0.1596774 0.1064516)" id="Path" fill="#4A90E2" stroke="none" />
    </g>
    <g id="iconfinder_basics-15_296819-copy-26" transform="translate(60 40)">
      <path d="M10.6984 5.14516L5.58871 5.14516L5.58871 0L5.14516 0L5.14516 5.14516L0 5.14516L0 5.58871L5.14516 5.58871L5.14516 10.7339L5.58871 10.7339L5.58871 5.58871L10.7339 5.58871L10.7339 5.14516L10.6984 5.14516Z" transform="translate(0.1596774 0.1064516)" id="Path" fill="#4A90E2" stroke="none" />
    </g>
    <g id="iconfinder_basics-15_296819-copy-25" transform="translate(80 40)">
      <path d="M10.6984 5.14516L5.58871 5.14516L5.58871 0L5.14516 0L5.14516 5.14516L0 5.14516L0 5.58871L5.14516 5.58871L5.14516 10.7339L5.58871 10.7339L5.58871 5.58871L10.7339 5.58871L10.7339 5.14516L10.6984 5.14516Z" transform="translate(0.1596774 0.1064516)" id="Path" fill="#4A90E2" stroke="none" />
    </g>
    <g id="iconfinder_basics-15_296819-copy-24" transform="translate(100 40)">
      <path d="M10.6984 5.14516L5.58871 5.14516L5.58871 0L5.14516 0L5.14516 5.14516L0 5.14516L0 5.58871L5.14516 5.58871L5.14516 10.7339L5.58871 10.7339L5.58871 5.58871L10.7339 5.58871L10.7339 5.14516L10.6984 5.14516Z" transform="translate(0.1596774 0.1064516)" id="Path" fill="#4A90E2" stroke="none" />
    </g>
    <g id="iconfinder_basics-15_296819-copy-23" transform="translate(120 40)">
      <path d="M10.6984 5.14516L5.58871 5.14516L5.58871 0L5.14516 0L5.14516 5.14516L0 5.14516L0 5.58871L5.14516 5.58871L5.14516 10.7339L5.58871 10.7339L5.58871 5.58871L10.7339 5.58871L10.7339 5.14516L10.6984 5.14516Z" transform="translate(0.1596774 0.1064516)" id="Path" fill="#4A90E2" stroke="none" />
    </g>
    <g id="iconfinder_basics-15_296819-copy-22" transform="translate(140 40)">
      <path d="M10.6984 5.14516L5.58871 5.14516L5.58871 0L5.14516 0L5.14516 5.14516L0 5.14516L0 5.58871L5.14516 5.58871L5.14516 10.7339L5.58871 10.7339L5.58871 5.58871L10.7339 5.58871L10.7339 5.14516L10.6984 5.14516Z" transform="translate(0.1596774 0.1064516)" id="Path" fill="#4A90E2" stroke="none" />
    </g>
    <g id="iconfinder_basics-15_296819-copy-21" transform="translate(160 40)">
      <path d="M10.6984 5.14516L5.58871 5.14516L5.58871 0L5.14516 0L5.14516 5.14516L0 5.14516L0 5.58871L5.14516 5.58871L5.14516 10.7339L5.58871 10.7339L5.58871 5.58871L10.7339 5.58871L10.7339 5.14516L10.6984 5.14516Z" transform="translate(0.1596774 0.1064516)" id="Path" fill="#4A90E2" stroke="none" />
    </g>
    <g id="iconfinder_basics-15_296819-copy-20" transform="translate(180 40)">
      <path d="M10.6984 5.14516L5.58871 5.14516L5.58871 0L5.14516 0L5.14516 5.14516L0 5.14516L0 5.58871L5.14516 5.58871L5.14516 10.7339L5.58871 10.7339L5.58871 5.58871L10.7339 5.58871L10.7339 5.14516L10.6984 5.14516Z" transform="translate(0.1596774 0.1064516)" id="Path" fill="#4A90E2" stroke="none" />
    </g>
    <g id="iconfinder_basics-15_296819-copy-39" transform="translate(0 60)">
      <path d="M10.6984 5.14516L5.58871 5.14516L5.58871 0L5.14516 0L5.14516 5.14516L0 5.14516L0 5.58871L5.14516 5.58871L5.14516 10.7339L5.58871 10.7339L5.58871 5.58871L10.7339 5.58871L10.7339 5.14516L10.6984 5.14516Z" transform="translate(0.1596774 0.1064516)" id="Path" fill="#4A90E2" stroke="none" />
    </g>
    <g id="iconfinder_basics-15_296819-copy-38" transform="translate(20 60)">
      <path d="M10.6984 5.14516L5.58871 5.14516L5.58871 0L5.14516 0L5.14516 5.14516L0 5.14516L0 5.58871L5.14516 5.58871L5.14516 10.7339L5.58871 10.7339L5.58871 5.58871L10.7339 5.58871L10.7339 5.14516L10.6984 5.14516Z" transform="translate(0.1596774 0.1064516)" id="Path" fill="#4A90E2" stroke="none" />
    </g>
    <g id="iconfinder_basics-15_296819-copy-37" transform="translate(40 60)">
      <path d="M10.6984 5.14516L5.58871 5.14516L5.58871 0L5.14516 0L5.14516 5.14516L0 5.14516L0 5.58871L5.14516 5.58871L5.14516 10.7339L5.58871 10.7339L5.58871 5.58871L10.7339 5.58871L10.7339 5.14516L10.6984 5.14516Z" transform="translate(0.1596774 0.1064516)" id="Path" fill="#4A90E2" stroke="none" />
    </g>
    <g id="iconfinder_basics-15_296819-copy-36" transform="translate(60 60)">
      <path d="M10.6984 5.14516L5.58871 5.14516L5.58871 0L5.14516 0L5.14516 5.14516L0 5.14516L0 5.58871L5.14516 5.58871L5.14516 10.7339L5.58871 10.7339L5.58871 5.58871L10.7339 5.58871L10.7339 5.14516L10.6984 5.14516Z" transform="translate(0.1596774 0.1064516)" id="Path" fill="#4A90E2" stroke="none" />
    </g>
    <g id="iconfinder_basics-15_296819-copy-35" transform="translate(80 60)">
      <path d="M10.6984 5.14516L5.58871 5.14516L5.58871 0L5.14516 0L5.14516 5.14516L0 5.14516L0 5.58871L5.14516 5.58871L5.14516 10.7339L5.58871 10.7339L5.58871 5.58871L10.7339 5.58871L10.7339 5.14516L10.6984 5.14516Z" transform="translate(0.1596774 0.1064516)" id="Path" fill="#4A90E2" stroke="none" />
    </g>
    <g id="iconfinder_basics-15_296819-copy-34" transform="translate(100 60)">
      <path d="M10.6984 5.14516L5.58871 5.14516L5.58871 0L5.14516 0L5.14516 5.14516L0 5.14516L0 5.58871L5.14516 5.58871L5.14516 10.7339L5.58871 10.7339L5.58871 5.58871L10.7339 5.58871L10.7339 5.14516L10.6984 5.14516Z" transform="translate(0.1596774 0.1064516)" id="Path" fill="#4A90E2" stroke="none" />
    </g>
    <g id="iconfinder_basics-15_296819-copy-33" transform="translate(120 60)">
      <path d="M10.6984 5.14516L5.58871 5.14516L5.58871 0L5.14516 0L5.14516 5.14516L0 5.14516L0 5.58871L5.14516 5.58871L5.14516 10.7339L5.58871 10.7339L5.58871 5.58871L10.7339 5.58871L10.7339 5.14516L10.6984 5.14516Z" transform="translate(0.1596774 0.1064516)" id="Path" fill="#4A90E2" stroke="none" />
    </g>
    <g id="iconfinder_basics-15_296819-copy-32" transform="translate(140 60)">
      <path d="M10.6984 5.14516L5.58871 5.14516L5.58871 0L5.14516 0L5.14516 5.14516L0 5.14516L0 5.58871L5.14516 5.58871L5.14516 10.7339L5.58871 10.7339L5.58871 5.58871L10.7339 5.58871L10.7339 5.14516L10.6984 5.14516Z" transform="translate(0.1596774 0.1064516)" id="Path" fill="#4A90E2" stroke="none" />
    </g>
    <g id="iconfinder_basics-15_296819-copy-31" transform="translate(160 60)">
      <path d="M10.6984 5.14516L5.58871 5.14516L5.58871 0L5.14516 0L5.14516 5.14516L0 5.14516L0 5.58871L5.14516 5.58871L5.14516 10.7339L5.58871 10.7339L5.58871 5.58871L10.7339 5.58871L10.7339 5.14516L10.6984 5.14516Z" transform="translate(0.1596774 0.1064516)" id="Path" fill="#4A90E2" stroke="none" />
    </g>
    <g id="iconfinder_basics-15_296819-copy-30" transform="translate(180 60)">
      <path d="M10.6984 5.14516L5.58871 5.14516L5.58871 0L5.14516 0L5.14516 5.14516L0 5.14516L0 5.58871L5.14516 5.58871L5.14516 10.7339L5.58871 10.7339L5.58871 5.58871L10.7339 5.58871L10.7339 5.14516L10.6984 5.14516Z" transform="translate(0.1596774 0.1064516)" id="Path" fill="#4A90E2" stroke="none" />
    </g>
    <g id="iconfinder_basics-15_296819-copy-49" transform="translate(0 80)">
      <path d="M10.6984 5.14516L5.58871 5.14516L5.58871 0L5.14516 0L5.14516 5.14516L0 5.14516L0 5.58871L5.14516 5.58871L5.14516 10.7339L5.58871 10.7339L5.58871 5.58871L10.7339 5.58871L10.7339 5.14516L10.6984 5.14516Z" transform="translate(0.1596774 0.1064516)" id="Path" fill="#4A90E2" stroke="none" />
    </g>
    <g id="iconfinder_basics-15_296819-copy-48" transform="translate(20 80)">
      <path d="M10.6984 5.14516L5.58871 5.14516L5.58871 0L5.14516 0L5.14516 5.14516L0 5.14516L0 5.58871L5.14516 5.58871L5.14516 10.7339L5.58871 10.7339L5.58871 5.58871L10.7339 5.58871L10.7339 5.14516L10.6984 5.14516Z" transform="translate(0.1596774 0.1064516)" id="Path" fill="#4A90E2" stroke="none" />
    </g>
    <g id="iconfinder_basics-15_296819-copy-47" transform="translate(40 80)">
      <path d="M10.6984 5.14516L5.58871 5.14516L5.58871 0L5.14516 0L5.14516 5.14516L0 5.14516L0 5.58871L5.14516 5.58871L5.14516 10.7339L5.58871 10.7339L5.58871 5.58871L10.7339 5.58871L10.7339 5.14516L10.6984 5.14516Z" transform="translate(0.1596774 0.1064516)" id="Path" fill="#4A90E2" stroke="none" />
    </g>
    <g id="iconfinder_basics-15_296819-copy-46" transform="translate(60 80)">
      <path d="M10.6984 5.14516L5.58871 5.14516L5.58871 0L5.14516 0L5.14516 5.14516L0 5.14516L0 5.58871L5.14516 5.58871L5.14516 10.7339L5.58871 10.7339L5.58871 5.58871L10.7339 5.58871L10.7339 5.14516L10.6984 5.14516Z" transform="translate(0.1596774 0.1064516)" id="Path" fill="#4A90E2" stroke="none" />
    </g>
    <g id="iconfinder_basics-15_296819-copy-45" transform="translate(80 80)">
      <path d="M10.6984 5.14516L5.58871 5.14516L5.58871 0L5.14516 0L5.14516 5.14516L0 5.14516L0 5.58871L5.14516 5.58871L5.14516 10.7339L5.58871 10.7339L5.58871 5.58871L10.7339 5.58871L10.7339 5.14516L10.6984 5.14516Z" transform="translate(0.1596774 0.1064516)" id="Path" fill="#4A90E2" stroke="none" />
    </g>
    <g id="iconfinder_basics-15_296819-copy-44" transform="translate(100 80)">
      <path d="M10.6984 5.14516L5.58871 5.14516L5.58871 0L5.14516 0L5.14516 5.14516L0 5.14516L0 5.58871L5.14516 5.58871L5.14516 10.7339L5.58871 10.7339L5.58871 5.58871L10.7339 5.58871L10.7339 5.14516L10.6984 5.14516Z" transform="translate(0.1596774 0.1064516)" id="Path" fill="#4A90E2" stroke="none" />
    </g>
    <g id="iconfinder_basics-15_296819-copy-43" transform="translate(120 80)">
      <path d="M10.6984 5.14516L5.58871 5.14516L5.58871 0L5.14516 0L5.14516 5.14516L0 5.14516L0 5.58871L5.14516 5.58871L5.14516 10.7339L5.58871 10.7339L5.58871 5.58871L10.7339 5.58871L10.7339 5.14516L10.6984 5.14516Z" transform="translate(0.1596774 0.1064516)" id="Path" fill="#4A90E2" stroke="none" />
    </g>
    <g id="iconfinder_basics-15_296819-copy-42" transform="translate(140 80)">
      <path d="M10.6984 5.14516L5.58871 5.14516L5.58871 0L5.14516 0L5.14516 5.14516L0 5.14516L0 5.58871L5.14516 5.58871L5.14516 10.7339L5.58871 10.7339L5.58871 5.58871L10.7339 5.58871L10.7339 5.14516L10.6984 5.14516Z" transform="translate(0.1596774 0.1064516)" id="Path" fill="#4A90E2" stroke="none" />
    </g>
    <g id="iconfinder_basics-15_296819-copy-41" transform="translate(160 80)">
      <path d="M10.6984 5.14516L5.58871 5.14516L5.58871 0L5.14516 0L5.14516 5.14516L0 5.14516L0 5.58871L5.14516 5.58871L5.14516 10.7339L5.58871 10.7339L5.58871 5.58871L10.7339 5.58871L10.7339 5.14516L10.6984 5.14516Z" transform="translate(0.1596774 0.1064516)" id="Path" fill="#4A90E2" stroke="none" />
    </g>
    <g id="iconfinder_basics-15_296819-copy-40" transform="translate(180 80)">
      <path d="M10.6984 5.14516L5.58871 5.14516L5.58871 0L5.14516 0L5.14516 5.14516L0 5.14516L0 5.58871L5.14516 5.58871L5.14516 10.7339L5.58871 10.7339L5.58871 5.58871L10.7339 5.58871L10.7339 5.14516L10.6984 5.14516Z" transform="translate(0.1596774 0.1064516)" id="Path" fill="#4A90E2" stroke="none" />
    </g>
    <g id="iconfinder_basics-15_296819-copy-59" transform="translate(0 100)">
      <path d="M10.6984 5.14516L5.58871 5.14516L5.58871 0L5.14516 0L5.14516 5.14516L0 5.14516L0 5.58871L5.14516 5.58871L5.14516 10.7339L5.58871 10.7339L5.58871 5.58871L10.7339 5.58871L10.7339 5.14516L10.6984 5.14516Z" transform="translate(0.1596774 0.1064516)" id="Path" fill="#4A90E2" stroke="none" />
    </g>
    <g id="iconfinder_basics-15_296819-copy-58" transform="translate(20 100)">
      <path d="M10.6984 5.14516L5.58871 5.14516L5.58871 0L5.14516 0L5.14516 5.14516L0 5.14516L0 5.58871L5.14516 5.58871L5.14516 10.7339L5.58871 10.7339L5.58871 5.58871L10.7339 5.58871L10.7339 5.14516L10.6984 5.14516Z" transform="translate(0.1596774 0.1064516)" id="Path" fill="#4A90E2" stroke="none" />
    </g>
    <g id="iconfinder_basics-15_296819-copy-57" transform="translate(40 100)">
      <path d="M10.6984 5.14516L5.58871 5.14516L5.58871 0L5.14516 0L5.14516 5.14516L0 5.14516L0 5.58871L5.14516 5.58871L5.14516 10.7339L5.58871 10.7339L5.58871 5.58871L10.7339 5.58871L10.7339 5.14516L10.6984 5.14516Z" transform="translate(0.1596774 0.1064516)" id="Path" fill="#4A90E2" stroke="none" />
    </g>
    <g id="iconfinder_basics-15_296819-copy-56" transform="translate(60 100)">
      <path d="M10.6984 5.14516L5.58871 5.14516L5.58871 0L5.14516 0L5.14516 5.14516L0 5.14516L0 5.58871L5.14516 5.58871L5.14516 10.7339L5.58871 10.7339L5.58871 5.58871L10.7339 5.58871L10.7339 5.14516L10.6984 5.14516Z" transform="translate(0.1596774 0.1064516)" id="Path" fill="#4A90E2" stroke="none" />
    </g>
    <g id="iconfinder_basics-15_296819-copy-55" transform="translate(80 100)">
      <path d="M10.6984 5.14516L5.58871 5.14516L5.58871 0L5.14516 0L5.14516 5.14516L0 5.14516L0 5.58871L5.14516 5.58871L5.14516 10.7339L5.58871 10.7339L5.58871 5.58871L10.7339 5.58871L10.7339 5.14516L10.6984 5.14516Z" transform="translate(0.1596774 0.1064516)" id="Path" fill="#4A90E2" stroke="none" />
    </g>
    <g id="iconfinder_basics-15_296819-copy-54" transform="translate(100 100)">
      <path d="M10.6984 5.14516L5.58871 5.14516L5.58871 0L5.14516 0L5.14516 5.14516L0 5.14516L0 5.58871L5.14516 5.58871L5.14516 10.7339L5.58871 10.7339L5.58871 5.58871L10.7339 5.58871L10.7339 5.14516L10.6984 5.14516Z" transform="translate(0.1596774 0.1064516)" id="Path" fill="#4A90E2" stroke="none" />
    </g>
    <g id="iconfinder_basics-15_296819-copy-53" transform="translate(120 100)">
      <path d="M10.6984 5.14516L5.58871 5.14516L5.58871 0L5.14516 0L5.14516 5.14516L0 5.14516L0 5.58871L5.14516 5.58871L5.14516 10.7339L5.58871 10.7339L5.58871 5.58871L10.7339 5.58871L10.7339 5.14516L10.6984 5.14516Z" transform="translate(0.1596774 0.1064516)" id="Path" fill="#4A90E2" stroke="none" />
    </g>
    <g id="iconfinder_basics-15_296819-copy-52" transform="translate(140 100)">
      <path d="M10.6984 5.14516L5.58871 5.14516L5.58871 0L5.14516 0L5.14516 5.14516L0 5.14516L0 5.58871L5.14516 5.58871L5.14516 10.7339L5.58871 10.7339L5.58871 5.58871L10.7339 5.58871L10.7339 5.14516L10.6984 5.14516Z" transform="translate(0.1596774 0.1064516)" id="Path" fill="#4A90E2" stroke="none" />
    </g>
    <g id="iconfinder_basics-15_296819-copy-51" transform="translate(160 100)">
      <path d="M10.6984 5.14516L5.58871 5.14516L5.58871 0L5.14516 0L5.14516 5.14516L0 5.14516L0 5.58871L5.14516 5.58871L5.14516 10.7339L5.58871 10.7339L5.58871 5.58871L10.7339 5.58871L10.7339 5.14516L10.6984 5.14516Z" transform="translate(0.1596774 0.1064516)" id="Path" fill="#4A90E2" stroke="none" />
    </g>
    <g id="iconfinder_basics-15_296819-copy-50" transform="translate(180 100)">
      <path d="M10.6984 5.14516L5.58871 5.14516L5.58871 0L5.14516 0L5.14516 5.14516L0 5.14516L0 5.58871L5.14516 5.58871L5.14516 10.7339L5.58871 10.7339L5.58871 5.58871L10.7339 5.58871L10.7339 5.14516L10.6984 5.14516Z" transform="translate(0.1596774 0.1064516)" id="Path" fill="#4A90E2" stroke="none" />
    </g>
    <g id="iconfinder_basics-15_296819-copy-69" transform="translate(0 120)">
      <path d="M10.6984 5.14516L5.58871 5.14516L5.58871 0L5.14516 0L5.14516 5.14516L0 5.14516L0 5.58871L5.14516 5.58871L5.14516 10.7339L5.58871 10.7339L5.58871 5.58871L10.7339 5.58871L10.7339 5.14516L10.6984 5.14516Z" transform="translate(0.1596774 0.1064516)" id="Path" fill="#4A90E2" stroke="none" />
    </g>
    <g id="iconfinder_basics-15_296819-copy-68" transform="translate(20 120)">
      <path d="M10.6984 5.14516L5.58871 5.14516L5.58871 0L5.14516 0L5.14516 5.14516L0 5.14516L0 5.58871L5.14516 5.58871L5.14516 10.7339L5.58871 10.7339L5.58871 5.58871L10.7339 5.58871L10.7339 5.14516L10.6984 5.14516Z" transform="translate(0.1596774 0.1064516)" id="Path" fill="#4A90E2" stroke="none" />
    </g>
    <g id="iconfinder_basics-15_296819-copy-67" transform="translate(40 120)">
      <path d="M10.6984 5.14516L5.58871 5.14516L5.58871 0L5.14516 0L5.14516 5.14516L0 5.14516L0 5.58871L5.14516 5.58871L5.14516 10.7339L5.58871 10.7339L5.58871 5.58871L10.7339 5.58871L10.7339 5.14516L10.6984 5.14516Z" transform="translate(0.1596774 0.1064516)" id="Path" fill="#4A90E2" stroke="none" />
    </g>
    <g id="iconfinder_basics-15_296819-copy-66" transform="translate(60 120)">
      <path d="M10.6984 5.14516L5.58871 5.14516L5.58871 0L5.14516 0L5.14516 5.14516L0 5.14516L0 5.58871L5.14516 5.58871L5.14516 10.7339L5.58871 10.7339L5.58871 5.58871L10.7339 5.58871L10.7339 5.14516L10.6984 5.14516Z" transform="translate(0.1596774 0.1064516)" id="Path" fill="#4A90E2" stroke="none" />
    </g>
    <g id="iconfinder_basics-15_296819-copy-65" transform="translate(80 120)">
      <path d="M10.6984 5.14516L5.58871 5.14516L5.58871 0L5.14516 0L5.14516 5.14516L0 5.14516L0 5.58871L5.14516 5.58871L5.14516 10.7339L5.58871 10.7339L5.58871 5.58871L10.7339 5.58871L10.7339 5.14516L10.6984 5.14516Z" transform="translate(0.1596774 0.1064516)" id="Path" fill="#4A90E2" stroke="none" />
    </g>
    <g id="iconfinder_basics-15_296819-copy-64" transform="translate(100 120)">
      <path d="M10.6984 5.14516L5.58871 5.14516L5.58871 0L5.14516 0L5.14516 5.14516L0 5.14516L0 5.58871L5.14516 5.58871L5.14516 10.7339L5.58871 10.7339L5.58871 5.58871L10.7339 5.58871L10.7339 5.14516L10.6984 5.14516Z" transform="translate(0.1596774 0.1064516)" id="Path" fill="#4A90E2" stroke="none" />
    </g>
    <g id="iconfinder_basics-15_296819-copy-63" transform="translate(120 120)">
      <path d="M10.6984 5.14516L5.58871 5.14516L5.58871 0L5.14516 0L5.14516 5.14516L0 5.14516L0 5.58871L5.14516 5.58871L5.14516 10.7339L5.58871 10.7339L5.58871 5.58871L10.7339 5.58871L10.7339 5.14516L10.6984 5.14516Z" transform="translate(0.1596774 0.1064516)" id="Path" fill="#4A90E2" stroke="none" />
    </g>
    <g id="iconfinder_basics-15_296819-copy-62" transform="translate(140 120)">
      <path d="M10.6984 5.14516L5.58871 5.14516L5.58871 0L5.14516 0L5.14516 5.14516L0 5.14516L0 5.58871L5.14516 5.58871L5.14516 10.7339L5.58871 10.7339L5.58871 5.58871L10.7339 5.58871L10.7339 5.14516L10.6984 5.14516Z" transform="translate(0.1596774 0.1064516)" id="Path" fill="#4A90E2" stroke="none" />
    </g>
    <g id="iconfinder_basics-15_296819-copy-61" transform="translate(160 120)">
      <path d="M10.6984 5.14516L5.58871 5.14516L5.58871 0L5.14516 0L5.14516 5.14516L0 5.14516L0 5.58871L5.14516 5.58871L5.14516 10.7339L5.58871 10.7339L5.58871 5.58871L10.7339 5.58871L10.7339 5.14516L10.6984 5.14516Z" transform="translate(0.1596774 0.1064516)" id="Path" fill="#4A90E2" stroke="none" />
    </g>
    <g id="iconfinder_basics-15_296819-copy-60" transform="translate(180 120)">
      <path d="M10.6984 5.14516L5.58871 5.14516L5.58871 0L5.14516 0L5.14516 5.14516L0 5.14516L0 5.58871L5.14516 5.58871L5.14516 10.7339L5.58871 10.7339L5.58871 5.58871L10.7339 5.58871L10.7339 5.14516L10.6984 5.14516Z" transform="translate(0.1596774 0.1064516)" id="Path" fill="#4A90E2" stroke="none" />
    </g>
    <g id="iconfinder_basics-15_296819-copy-79" transform="translate(0 140)">
      <path d="M10.6984 5.14516L5.58871 5.14516L5.58871 0L5.14516 0L5.14516 5.14516L0 5.14516L0 5.58871L5.14516 5.58871L5.14516 10.7339L5.58871 10.7339L5.58871 5.58871L10.7339 5.58871L10.7339 5.14516L10.6984 5.14516Z" transform="translate(0.1596774 0.1064516)" id="Path" fill="#4A90E2" stroke="none" />
    </g>
    <g id="iconfinder_basics-15_296819-copy-78" transform="translate(20 140)">
      <path d="M10.6984 5.14516L5.58871 5.14516L5.58871 0L5.14516 0L5.14516 5.14516L0 5.14516L0 5.58871L5.14516 5.58871L5.14516 10.7339L5.58871 10.7339L5.58871 5.58871L10.7339 5.58871L10.7339 5.14516L10.6984 5.14516Z" transform="translate(0.1596774 0.1064516)" id="Path" fill="#4A90E2" stroke="none" />
    </g>
    <g id="iconfinder_basics-15_296819-copy-77" transform="translate(40 140)">
      <path d="M10.6984 5.14516L5.58871 5.14516L5.58871 0L5.14516 0L5.14516 5.14516L0 5.14516L0 5.58871L5.14516 5.58871L5.14516 10.7339L5.58871 10.7339L5.58871 5.58871L10.7339 5.58871L10.7339 5.14516L10.6984 5.14516Z" transform="translate(0.1596774 0.1064516)" id="Path" fill="#4A90E2" stroke="none" />
    </g>
    <g id="iconfinder_basics-15_296819-copy-76" transform="translate(60 140)">
      <path d="M10.6984 5.14516L5.58871 5.14516L5.58871 0L5.14516 0L5.14516 5.14516L0 5.14516L0 5.58871L5.14516 5.58871L5.14516 10.7339L5.58871 10.7339L5.58871 5.58871L10.7339 5.58871L10.7339 5.14516L10.6984 5.14516Z" transform="translate(0.1596774 0.1064516)" id="Path" fill="#4A90E2" stroke="none" />
    </g>
    <g id="iconfinder_basics-15_296819-copy-75" transform="translate(80 140)">
      <path d="M10.6984 5.14516L5.58871 5.14516L5.58871 0L5.14516 0L5.14516 5.14516L0 5.14516L0 5.58871L5.14516 5.58871L5.14516 10.7339L5.58871 10.7339L5.58871 5.58871L10.7339 5.58871L10.7339 5.14516L10.6984 5.14516Z" transform="translate(0.1596774 0.1064516)" id="Path" fill="#4A90E2" stroke="none" />
    </g>
    <g id="iconfinder_basics-15_296819-copy-74" transform="translate(100 140)">
      <path d="M10.6984 5.14516L5.58871 5.14516L5.58871 0L5.14516 0L5.14516 5.14516L0 5.14516L0 5.58871L5.14516 5.58871L5.14516 10.7339L5.58871 10.7339L5.58871 5.58871L10.7339 5.58871L10.7339 5.14516L10.6984 5.14516Z" transform="translate(0.1596774 0.1064516)" id="Path" fill="#4A90E2" stroke="none" />
    </g>
    <g id="iconfinder_basics-15_296819-copy-73" transform="translate(120 140)">
      <path d="M10.6984 5.14516L5.58871 5.14516L5.58871 0L5.14516 0L5.14516 5.14516L0 5.14516L0 5.58871L5.14516 5.58871L5.14516 10.7339L5.58871 10.7339L5.58871 5.58871L10.7339 5.58871L10.7339 5.14516L10.6984 5.14516Z" transform="translate(0.1596774 0.1064516)" id="Path" fill="#4A90E2" stroke="none" />
    </g>
    <g id="iconfinder_basics-15_296819-copy-72" transform="translate(140 140)">
      <path d="M10.6984 5.14516L5.58871 5.14516L5.58871 0L5.14516 0L5.14516 5.14516L0 5.14516L0 5.58871L5.14516 5.58871L5.14516 10.7339L5.58871 10.7339L5.58871 5.58871L10.7339 5.58871L10.7339 5.14516L10.6984 5.14516Z" transform="translate(0.1596774 0.1064516)" id="Path" fill="#4A90E2" stroke="none" />
    </g>
    <g id="iconfinder_basics-15_296819-copy-71" transform="translate(160 140)">
      <path d="M10.6984 5.14516L5.58871 5.14516L5.58871 0L5.14516 0L5.14516 5.14516L0 5.14516L0 5.58871L5.14516 5.58871L5.14516 10.7339L5.58871 10.7339L5.58871 5.58871L10.7339 5.58871L10.7339 5.14516L10.6984 5.14516Z" transform="translate(0.1596774 0.1064516)" id="Path" fill="#4A90E2" stroke="none" />
    </g>
    <g id="iconfinder_basics-15_296819-copy-70" transform="translate(180 140)">
      <path d="M10.6984 5.14516L5.58871 5.14516L5.58871 0L5.14516 0L5.14516 5.14516L0 5.14516L0 5.58871L5.14516 5.58871L5.14516 10.7339L5.58871 10.7339L5.58871 5.58871L10.7339 5.58871L10.7339 5.14516L10.6984 5.14516Z" transform="translate(0.1596774 0.1064516)" id="Path" fill="#4A90E2" stroke="none" />
    </g>
    <g id="iconfinder_basics-15_296819-copy-89" transform="translate(0 160)">
      <path d="M10.6984 5.14516L5.58871 5.14516L5.58871 0L5.14516 0L5.14516 5.14516L0 5.14516L0 5.58871L5.14516 5.58871L5.14516 10.7339L5.58871 10.7339L5.58871 5.58871L10.7339 5.58871L10.7339 5.14516L10.6984 5.14516Z" transform="translate(0.1596774 0.1064516)" id="Path" fill="#4A90E2" stroke="none" />
    </g>
    <g id="iconfinder_basics-15_296819-copy-88" transform="translate(20 160)">
      <path d="M10.6984 5.14516L5.58871 5.14516L5.58871 0L5.14516 0L5.14516 5.14516L0 5.14516L0 5.58871L5.14516 5.58871L5.14516 10.7339L5.58871 10.7339L5.58871 5.58871L10.7339 5.58871L10.7339 5.14516L10.6984 5.14516Z" transform="translate(0.1596774 0.1064516)" id="Path" fill="#4A90E2" stroke="none" />
    </g>
    <g id="iconfinder_basics-15_296819-copy-87" transform="translate(40 160)">
      <path d="M10.6984 5.14516L5.58871 5.14516L5.58871 0L5.14516 0L5.14516 5.14516L0 5.14516L0 5.58871L5.14516 5.58871L5.14516 10.7339L5.58871 10.7339L5.58871 5.58871L10.7339 5.58871L10.7339 5.14516L10.6984 5.14516Z" transform="translate(0.1596774 0.1064516)" id="Path" fill="#4A90E2" stroke="none" />
    </g>
    <g id="iconfinder_basics-15_296819-copy-86" transform="translate(60 160)">
      <path d="M10.6984 5.14516L5.58871 5.14516L5.58871 0L5.14516 0L5.14516 5.14516L0 5.14516L0 5.58871L5.14516 5.58871L5.14516 10.7339L5.58871 10.7339L5.58871 5.58871L10.7339 5.58871L10.7339 5.14516L10.6984 5.14516Z" transform="translate(0.1596774 0.1064516)" id="Path" fill="#4A90E2" stroke="none" />
    </g>
    <g id="iconfinder_basics-15_296819-copy-85" transform="translate(80 160)">
      <path d="M10.6984 5.14516L5.58871 5.14516L5.58871 0L5.14516 0L5.14516 5.14516L0 5.14516L0 5.58871L5.14516 5.58871L5.14516 10.7339L5.58871 10.7339L5.58871 5.58871L10.7339 5.58871L10.7339 5.14516L10.6984 5.14516Z" transform="translate(0.1596774 0.1064516)" id="Path" fill="#4A90E2" stroke="none" />
    </g>
    <g id="iconfinder_basics-15_296819-copy-84" transform="translate(100 160)">
      <path d="M10.6984 5.14516L5.58871 5.14516L5.58871 0L5.14516 0L5.14516 5.14516L0 5.14516L0 5.58871L5.14516 5.58871L5.14516 10.7339L5.58871 10.7339L5.58871 5.58871L10.7339 5.58871L10.7339 5.14516L10.6984 5.14516Z" transform="translate(0.1596774 0.1064516)" id="Path" fill="#4A90E2" stroke="none" />
    </g>
    <g id="iconfinder_basics-15_296819-copy-83" transform="translate(120 160)">
      <path d="M10.6984 5.14516L5.58871 5.14516L5.58871 0L5.14516 0L5.14516 5.14516L0 5.14516L0 5.58871L5.14516 5.58871L5.14516 10.7339L5.58871 10.7339L5.58871 5.58871L10.7339 5.58871L10.7339 5.14516L10.6984 5.14516Z" transform="translate(0.1596774 0.1064516)" id="Path" fill="#4A90E2" stroke="none" />
    </g>
    <g id="iconfinder_basics-15_296819-copy-82" transform="translate(140 160)">
      <path d="M10.6984 5.14516L5.58871 5.14516L5.58871 0L5.14516 0L5.14516 5.14516L0 5.14516L0 5.58871L5.14516 5.58871L5.14516 10.7339L5.58871 10.7339L5.58871 5.58871L10.7339 5.58871L10.7339 5.14516L10.6984 5.14516Z" transform="translate(0.1596774 0.1064516)" id="Path" fill="#4A90E2" stroke="none" />
    </g>
    <g id="iconfinder_basics-15_296819-copy-81" transform="translate(160 160)">
      <path d="M10.6984 5.14516L5.58871 5.14516L5.58871 0L5.14516 0L5.14516 5.14516L0 5.14516L0 5.58871L5.14516 5.58871L5.14516 10.7339L5.58871 10.7339L5.58871 5.58871L10.7339 5.58871L10.7339 5.14516L10.6984 5.14516Z" transform="translate(0.1596774 0.1064516)" id="Path" fill="#4A90E2" stroke="none" />
    </g>
    <g id="iconfinder_basics-15_296819-copy-80" transform="translate(180 160)">
      <path d="M10.6984 5.14516L5.58871 5.14516L5.58871 0L5.14516 0L5.14516 5.14516L0 5.14516L0 5.58871L5.14516 5.58871L5.14516 10.7339L5.58871 10.7339L5.58871 5.58871L10.7339 5.58871L10.7339 5.14516L10.6984 5.14516Z" transform="translate(0.1596774 0.1064516)" id="Path" fill="#4A90E2" stroke="none" />
    </g>
    <g id="iconfinder_basics-15_296819-copy-99" transform="translate(0 180)">
      <path d="M10.6984 5.14516L5.58871 5.14516L5.58871 0L5.14516 0L5.14516 5.14516L0 5.14516L0 5.58871L5.14516 5.58871L5.14516 10.7339L5.58871 10.7339L5.58871 5.58871L10.7339 5.58871L10.7339 5.14516L10.6984 5.14516Z" transform="translate(0.1596774 0.1064516)" id="Path" fill="#4A90E2" stroke="none" />
    </g>
    <g id="iconfinder_basics-15_296819-copy-98" transform="translate(20 180)">
      <path d="M10.6984 5.14516L5.58871 5.14516L5.58871 0L5.14516 0L5.14516 5.14516L0 5.14516L0 5.58871L5.14516 5.58871L5.14516 10.7339L5.58871 10.7339L5.58871 5.58871L10.7339 5.58871L10.7339 5.14516L10.6984 5.14516Z" transform="translate(0.1596774 0.1064516)" id="Path" fill="#4A90E2" stroke="none" />
    </g>
    <g id="iconfinder_basics-15_296819-copy-97" transform="translate(40 180)">
      <path d="M10.6984 5.14516L5.58871 5.14516L5.58871 0L5.14516 0L5.14516 5.14516L0 5.14516L0 5.58871L5.14516 5.58871L5.14516 10.7339L5.58871 10.7339L5.58871 5.58871L10.7339 5.58871L10.7339 5.14516L10.6984 5.14516Z" transform="translate(0.1596774 0.1064516)" id="Path" fill="#4A90E2" stroke="none" />
    </g>
    <g id="iconfinder_basics-15_296819-copy-96" transform="translate(60 180)">
      <path d="M10.6984 5.14516L5.58871 5.14516L5.58871 0L5.14516 0L5.14516 5.14516L0 5.14516L0 5.58871L5.14516 5.58871L5.14516 10.7339L5.58871 10.7339L5.58871 5.58871L10.7339 5.58871L10.7339 5.14516L10.6984 5.14516Z" transform="translate(0.1596774 0.1064516)" id="Path" fill="#4A90E2" stroke="none" />
    </g>
    <g id="iconfinder_basics-15_296819-copy-95" transform="translate(80 180)">
      <path d="M10.6984 5.14516L5.58871 5.14516L5.58871 0L5.14516 0L5.14516 5.14516L0 5.14516L0 5.58871L5.14516 5.58871L5.14516 10.7339L5.58871 10.7339L5.58871 5.58871L10.7339 5.58871L10.7339 5.14516L10.6984 5.14516Z" transform="translate(0.1596774 0.1064516)" id="Path" fill="#4A90E2" stroke="none" />
    </g>
    <g id="iconfinder_basics-15_296819-copy-94" transform="translate(100 180)">
      <path d="M10.6984 5.14516L5.58871 5.14516L5.58871 0L5.14516 0L5.14516 5.14516L0 5.14516L0 5.58871L5.14516 5.58871L5.14516 10.7339L5.58871 10.7339L5.58871 5.58871L10.7339 5.58871L10.7339 5.14516L10.6984 5.14516Z" transform="translate(0.1596774 0.1064516)" id="Path" fill="#4A90E2" stroke="none" />
    </g>
    <g id="iconfinder_basics-15_296819-copy-93" transform="translate(120 180)">
      <path d="M10.6984 5.14516L5.58871 5.14516L5.58871 0L5.14516 0L5.14516 5.14516L0 5.14516L0 5.58871L5.14516 5.58871L5.14516 10.7339L5.58871 10.7339L5.58871 5.58871L10.7339 5.58871L10.7339 5.14516L10.6984 5.14516Z" transform="translate(0.1596774 0.1064516)" id="Path" fill="#4A90E2" stroke="none" />
    </g>
    <g id="iconfinder_basics-15_296819-copy-92" transform="translate(140 180)">
      <path d="M10.6984 5.14516L5.58871 5.14516L5.58871 0L5.14516 0L5.14516 5.14516L0 5.14516L0 5.58871L5.14516 5.58871L5.14516 10.7339L5.58871 10.7339L5.58871 5.58871L10.7339 5.58871L10.7339 5.14516L10.6984 5.14516Z" transform="translate(0.1596774 0.1064516)" id="Path" fill="#4A90E2" stroke="none" />
    </g>
    <g id="iconfinder_basics-15_296819-copy-91" transform="translate(160 180)">
      <path d="M10.6984 5.14516L5.58871 5.14516L5.58871 0L5.14516 0L5.14516 5.14516L0 5.14516L0 5.58871L5.14516 5.58871L5.14516 10.7339L5.58871 10.7339L5.58871 5.58871L10.7339 5.58871L10.7339 5.14516L10.6984 5.14516Z" transform="translate(0.1596774 0.1064516)" id="Path" fill="#4A90E2" stroke="none" />
    </g>
    <g id="iconfinder_basics-15_296819-copy-90" transform="translate(180 180)">
      <path d="M10.6984 5.14516L5.58871 5.14516L5.58871 0L5.14516 0L5.14516 5.14516L0 5.14516L0 5.58871L5.14516 5.58871L5.14516 10.7339L5.58871 10.7339L5.58871 5.58871L10.7339 5.58871L10.7339 5.14516L10.6984 5.14516Z" transform="translate(0.1596774 0.1064516)" id="Path" fill="#4A90E2" stroke="none" />
    </g>
  </g>
</svg>