<?xml version="1.0" encoding="utf-8"?>
<svg width="394px" height="194px" viewBox="0 0 394 194" version="1.1" xmlns:xlink="http://www.w3.org/1999/xlink" xmlns="http://www.w3.org/2000/svg">
  <desc>Created with Lunacy</desc>
  <defs>
    <path d="M0 0L393 0L393 193L0 193L0 0Z" id="path_1" />
    <clipPath id="mask_1">
      <use xlink:href="#path_1" />
    </clipPath>
  </defs>
  <g id="Line-2-Copy-45" transform="translate(0.5 0.5)" opacity="0.3">
    <path d="M0 0L393 0L393 193L0 193L0 0Z" id="Mask" fill="#D8D8D8" fill-opacity="0" stroke="none" />
    <g clip-path="url(#mask_1)">
      <path d="M272.672 0.328125L0.328125 272.672" transform="translate(-218 -39)" id="Line-2" fill="none" stroke="#BF8E6C" stroke-width="1" />
      <path d="M272.672 0.328125L0.328125 272.672" transform="translate(-205 -39)" id="Line-2-Copy" fill="none" stroke="#BF8E6C" stroke-width="1" />
      <path d="M272.672 0.328125L0.328125 272.672" transform="translate(-192 -39)" id="Line-2-Copy-2" fill="none" stroke="#BF8E6C" stroke-width="1" />
      <path d="M272.672 0.328125L0.328125 272.672" transform="translate(-179 -39)" id="Line-2-Copy-3" fill="none" stroke="#BF8E6C" stroke-width="1" />
      <path d="M272.672 0.328125L0.328125 272.672" transform="translate(-165 -39)" id="Line-2-Copy-4" fill="none" stroke="#BF8E6C" stroke-width="1" />
      <path d="M272.672 0.328125L0.328125 272.672" transform="translate(-152 -39)" id="Line-2-Copy-5" fill="none" stroke="#BF8E6C" stroke-width="1" />
      <path d="M272.672 0.328125L0.328125 272.672" transform="translate(-139 -39)" id="Line-2-Copy-6" fill="none" stroke="#BF8E6C" stroke-width="1" />
      <path d="M272.672 0.328125L0.328125 272.672" transform="translate(-126 -39)" id="Line-2-Copy-7" fill="none" stroke="#BF8E6C" stroke-width="1" />
      <path d="M272.672 0.328125L0.328125 272.672" transform="translate(-113 -39)" id="Line-2-Copy-8" fill="none" stroke="#BF8E6C" stroke-width="1" />
      <path d="M272.672 0.328125L0.328125 272.672" transform="translate(-100 -39)" id="Line-2-Copy-9" fill="none" stroke="#BF8E6C" stroke-width="1" />
      <path d="M272.672 0.328125L0.328125 272.672" transform="translate(-87 -39)" id="Line-2-Copy-10" fill="none" stroke="#BF8E6C" stroke-width="1" />
      <path d="M272.672 0.328125L0.328125 272.672" transform="translate(-73 -39)" id="Line-2-Copy-11" fill="none" stroke="#BF8E6C" stroke-width="1" />
      <path d="M272.672 0.328125L0.328125 272.672" transform="translate(-60 -39)" id="Line-2-Copy-12" fill="none" stroke="#BF8E6C" stroke-width="1" />
      <path d="M272.672 0.328125L0.328125 272.672" transform="translate(-47 -39)" id="Line-2-Copy-13" fill="none" stroke="#BF8E6C" stroke-width="1" />
      <path d="M272.672 0.328125L0.328125 272.672" transform="translate(-34 -39)" id="Line-2-Copy-14" fill="none" stroke="#BF8E6C" stroke-width="1" />
      <path d="M272.672 0.328125L0.328125 272.672" transform="translate(-21 -39)" id="Line-2-Copy-15" fill="none" stroke="#BF8E6C" stroke-width="1" />
      <path d="M272.672 0.328125L0.328125 272.672" transform="translate(-8 -39)" id="Line-2-Copy-16" fill="none" stroke="#BF8E6C" stroke-width="1" />
      <path d="M272.672 0.328125L0.328125 272.672" transform="translate(5 -39)" id="Line-2-Copy-17" fill="none" stroke="#BF8E6C" stroke-width="1" />
      <path d="M272.672 0.328125L0.328125 272.672" transform="translate(19 -39)" id="Line-2-Copy-18" fill="none" stroke="#BF8E6C" stroke-width="1" />
      <path d="M272.672 0.328125L0.328125 272.672" transform="translate(32 -39)" id="Line-2-Copy-19" fill="none" stroke="#BF8E6C" stroke-width="1" />
      <path d="M272.672 0.328125L0.328125 272.672" transform="translate(45 -39)" id="Line-2-Copy-20" fill="none" stroke="#BF8E6C" stroke-width="1" />
      <path d="M272.672 0.328125L0.328125 272.672" transform="translate(58 -39)" id="Line-2-Copy-21" fill="none" stroke="#BF8E6C" stroke-width="1" />
      <path d="M272.672 0.328125L0.328125 272.672" transform="translate(71 -39)" id="Line-2-Copy-22" fill="none" stroke="#BF8E6C" stroke-width="1" />
      <path d="M272.672 0.328125L0.328125 272.672" transform="translate(84 -39)" id="Line-2-Copy-23" fill="none" stroke="#BF8E6C" stroke-width="1" />
      <path d="M272.672 0.328125L0.328125 272.672" transform="translate(97 -39)" id="Line-2-Copy-24" fill="none" stroke="#BF8E6C" stroke-width="1" />
      <path d="M272.672 0.328125L0.328125 272.672" transform="translate(111 -39)" id="Line-2-Copy-25" fill="none" stroke="#BF8E6C" stroke-width="1" />
      <path d="M272.672 0.328125L0.328125 272.672" transform="translate(124 -39)" id="Line-2-Copy-26" fill="none" stroke="#BF8E6C" stroke-width="1" />
      <path d="M272.672 0.328125L0.328125 272.672" transform="translate(137 -39)" id="Line-2-Copy-27" fill="none" stroke="#BF8E6C" stroke-width="1" />
      <path d="M272.672 0.328125L0.328125 272.672" transform="translate(150 -39)" id="Line-2-Copy-28" fill="none" stroke="#BF8E6C" stroke-width="1" />
      <path d="M272.672 0.328125L0.328125 272.672" transform="translate(163 -39)" id="Line-2-Copy-29" fill="none" stroke="#BF8E6C" stroke-width="1" />
      <path d="M272.672 0.328125L0.328125 272.672" transform="translate(176 -39)" id="Line-2-Copy-30" fill="none" stroke="#BF8E6C" stroke-width="1" />
      <path d="M272.672 0.328125L0.328125 272.672" transform="translate(189 -39)" id="Line-2-Copy-31" fill="none" stroke="#BF8E6C" stroke-width="1" />
      <path d="M272.672 0.328125L0.328125 272.672" transform="translate(203 -39)" id="Line-2-Copy-32" fill="none" stroke="#BF8E6C" stroke-width="1" />
      <path d="M272.672 0.328125L0.328125 272.672" transform="translate(216 -39)" id="Line-2-Copy-33" fill="none" stroke="#BF8E6C" stroke-width="1" />
      <path d="M272.672 0.328125L0.328125 272.672" transform="translate(229 -39)" id="Line-2-Copy-34" fill="none" stroke="#BF8E6C" stroke-width="1" />
      <path d="M272.672 0.328125L0.328125 272.672" transform="translate(242 -39)" id="Line-2-Copy-35" fill="none" stroke="#BF8E6C" stroke-width="1" />
      <path d="M272.672 0.328125L0.328125 272.672" transform="translate(255 -39)" id="Line-2-Copy-36" fill="none" stroke="#BF8E6C" stroke-width="1" />
      <path d="M272.672 0.328125L0.328125 272.672" transform="translate(268 -39)" id="Line-2-Copy-37" fill="none" stroke="#BF8E6C" stroke-width="1" />
      <path d="M272.672 0.328125L0.328125 272.672" transform="translate(281 -39)" id="Line-2-Copy-38" fill="none" stroke="#BF8E6C" stroke-width="1" />
      <path d="M272.672 0.328125L0.328125 272.672" transform="translate(295 -39)" id="Line-2-Copy-39" fill="none" stroke="#BF8E6C" stroke-width="1" />
      <path d="M272.672 0.328125L0.328125 272.672" transform="translate(308 -39)" id="Line-2-Copy-40" fill="none" stroke="#BF8E6C" stroke-width="1" />
      <path d="M272.672 0.328125L0.328125 272.672" transform="translate(321 -39)" id="Line-2-Copy-41" fill="none" stroke="#BF8E6C" stroke-width="1" />
      <path d="M272.672 0.328125L0.328125 272.672" transform="translate(334 -39)" id="Line-2-Copy-42" fill="none" stroke="#BF8E6C" stroke-width="1" />
      <path d="M272.672 0.328125L0.328125 272.672" transform="translate(347 -39)" id="Line-2-Copy-43" fill="none" stroke="#BF8E6C" stroke-width="1" />
      <path d="M272.672 0.328125L0.328125 272.672" transform="translate(347 -39)" id="Line-2-Copy-44" fill="none" stroke="#BF8E6C" stroke-width="1" />
    </g>
  </g>
</svg>