<?xml version="1.0" encoding="utf-8"?>
<svg width="388px" height="388px" viewBox="0 0 388 388" version="1.1" xmlns:xlink="http://www.w3.org/1999/xlink" xmlns="http://www.w3.org/2000/svg">
  <desc>Created with Lunacy</desc>
  <g id="Group-883" transform="matrix(0.7071068 -0.7071068 0.7071068 0.7071068 0 200.8184)" opacity="0.2">
    <g id="Group-882" transform="translate(0 0.955)">
      <path d="M1.278 2.556C1.983 2.556 2.555 1.984 2.555 1.278C2.555 0.573 1.983 0 1.278 0C0.572 0 0 0.573 0 1.278C0 1.984 0.572 2.556 1.278 2.556" transform="translate(0.5999 0.8439)" id="Fill-62" fill="#000000" stroke="none" />
      <path d="M1.277 2.556C1.983 2.556 2.555 1.984 2.555 1.278C2.555 0.573 1.983 0 1.277 0C0.572 0 0 0.573 0 1.278C0 1.984 0.572 2.556 1.277 2.556" transform="translate(15.0003 0.8439)" id="Fill-64" fill="#000000" stroke="none" />
      <path d="M1.278 2.556C1.984 2.556 2.556 1.984 2.556 1.278C2.556 0.573 1.984 0 1.278 0C0.572 0 0 0.573 0 1.278C0 1.984 0.572 2.556 1.278 2.556" transform="translate(29.3997 0.8439)" id="Fill-66" fill="#000000" stroke="none" />
      <path d="M1.278 2.556C1.983 2.556 2.555 1.984 2.555 1.278C2.555 0.573 1.983 0 1.278 0C0.572 0 0 0.573 0 1.278C0 1.984 0.572 2.556 1.278 2.556" transform="translate(43.8 0.8439)" id="Fill-68" fill="#000000" stroke="none" />
      <path d="M1.277 2.556C1.983 2.556 2.555 1.984 2.555 1.278C2.555 0.573 1.983 0 1.277 0C0.572 0 0 0.573 0 1.278C0 1.984 0.572 2.556 1.277 2.556" transform="translate(58.2005 0.8439)" id="Fill-70" fill="#000000" stroke="none" />
      <path d="M1.278 2.556C1.983 2.556 2.555 1.984 2.555 1.278C2.555 0.573 1.983 0 1.278 0C0.572 0 0 0.573 0 1.278C0 1.984 0.572 2.556 1.278 2.556" transform="translate(72.5999 0.8439)" id="Fill-72" fill="#000000" stroke="none" />
      <path d="M1.277 2.556C1.983 2.556 2.555 1.984 2.555 1.278C2.555 0.573 1.983 0 1.277 0C0.572 0 0 0.573 0 1.278C0 1.984 0.572 2.556 1.277 2.556" transform="translate(87.0003 0.8439)" id="Fill-74" fill="#000000" stroke="none" />
      <path d="M1.278 2.556C1.984 2.556 2.556 1.984 2.556 1.278C2.556 0.573 1.984 0 1.278 0C0.572 0 0 0.573 0 1.278C0 1.984 0.572 2.556 1.278 2.556" transform="translate(101.3997 0.8439)" id="Fill-76" fill="#000000" stroke="none" />
      <path d="M1.278 2.556C1.983 2.556 2.555 1.984 2.555 1.278C2.555 0.573 1.983 0 1.278 0C0.572 0 0 0.573 0 1.278C0 1.984 0.572 2.556 1.278 2.556" transform="translate(115.8 0.8439)" id="Fill-78" fill="#000000" stroke="none" />
      <path d="M1.277 2.556C1.98299 2.556 2.55499 1.984 2.55499 1.278C2.55499 0.573 1.98299 0 1.277 0C0.571998 0 0 0.573 0 1.278C0 1.984 0.571998 2.556 1.277 2.556" transform="translate(130.2005 0.8439)" id="Fill-80" fill="#000000" stroke="none" />
      <path d="M1.278 2.556C1.98299 2.556 2.55499 1.984 2.55499 1.278C2.55499 0.573 1.98299 0 1.278 0C0.571998 0 0 0.573 0 1.278C0 1.984 0.571998 2.556 1.278 2.556" transform="translate(144.5999 0.8439)" id="Fill-82" fill="#000000" stroke="none" />
      <path d="M1.277 2.556C1.98299 2.556 2.55499 1.984 2.55499 1.278C2.55499 0.573 1.98299 0 1.277 0C0.571998 0 0 0.573 0 1.278C0 1.984 0.571998 2.556 1.277 2.556" transform="translate(159.0003 0.8439)" id="Fill-84" fill="#000000" stroke="none" />
      <path d="M1.278 2.556C1.984 2.556 2.556 1.984 2.556 1.278C2.556 0.573 1.984 0 1.278 0C0.572 0 0 0.573 0 1.278C0 1.984 0.572 2.556 1.278 2.556" transform="translate(173.3997 0.8439)" id="Fill-86" fill="#000000" stroke="none" />
      <path d="M1.278 2.556C1.98299 2.556 2.55499 1.984 2.55499 1.278C2.55499 0.573 1.98299 0 1.278 0C0.571998 0 0 0.573 0 1.278C0 1.984 0.571998 2.556 1.278 2.556" transform="translate(187.8 0.8439)" id="Fill-88" fill="#000000" stroke="none" />
      <path d="M1.277 2.556C1.98299 2.556 2.55499 1.984 2.55499 1.278C2.55499 0.573 1.98299 0 1.277 0C0.571998 0 0 0.573 0 1.278C0 1.984 0.571998 2.556 1.277 2.556" transform="translate(202.2005 0.8439)" id="Fill-90" fill="#000000" stroke="none" />
      <path d="M1.278 2.556C1.98299 2.556 2.55499 1.984 2.55499 1.278C2.55499 0.573 1.98299 0 1.278 0C0.571998 0 0 0.573 0 1.278C0 1.984 0.571998 2.556 1.278 2.556" transform="translate(216.5999 0.8439)" id="Fill-92" fill="#000000" stroke="none" />
      <path d="M1.277 2.556C1.98299 2.556 2.55499 1.984 2.55499 1.278C2.55499 0.573 1.98299 0 1.277 0C0.571998 0 0 0.573 0 1.278C0 1.984 0.571998 2.556 1.277 2.556" transform="translate(231.0003 0.8439)" id="Fill-94" fill="#000000" stroke="none" />
      <path d="M1.278 2.556C1.984 2.556 2.556 1.984 2.556 1.278C2.556 0.573 1.984 0 1.278 0C0.572 0 0 0.573 0 1.278C0 1.984 0.572 2.556 1.278 2.556" transform="translate(245.3996 0.8439)" id="Fill-96" fill="#000000" stroke="none" />
      <path d="M1.278 2.556C1.98299 2.556 2.55499 1.984 2.55499 1.278C2.55499 0.573 1.98299 0 1.278 0C0.571998 0 0 0.573 0 1.278C0 1.984 0.571998 2.556 1.278 2.556" transform="translate(259.8 0.8439)" id="Fill-98" fill="#000000" stroke="none" />
      <path d="M1.277 2.556C1.98299 2.556 2.55499 1.984 2.55499 1.278C2.55499 0.573 1.98299 0 1.277 0C0.571998 0 0 0.573 0 1.278C0 1.984 0.571998 2.556 1.277 2.556" transform="translate(274.2004 0.8439)" id="Fill-100" fill="#000000" stroke="none" />
      <path d="M1.278 2.555C1.983 2.555 2.555 1.983 2.555 1.277C2.555 0.572 1.983 0 1.278 0C0.572 0 0 0.572 0 1.277C0 1.983 0.572 2.555 1.278 2.555" transform="translate(7.8 15.2448)" id="Fill-102" fill="#000000" stroke="none" />
      <path d="M1.277 2.555C1.983 2.555 2.555 1.983 2.555 1.277C2.555 0.572 1.983 0 1.277 0C0.572 0 0 0.572 0 1.277C0 1.983 0.572 2.555 1.277 2.555" transform="translate(22.2005 15.2448)" id="Fill-104" fill="#000000" stroke="none" />
      <path d="M1.278 2.555C1.983 2.555 2.555 1.983 2.555 1.277C2.555 0.572 1.983 0 1.278 0C0.572 0 0 0.572 0 1.277C0 1.983 0.572 2.555 1.278 2.555" transform="translate(36.5999 15.2448)" id="Fill-106" fill="#000000" stroke="none" />
      <path d="M1.277 2.555C1.983 2.555 2.555 1.983 2.555 1.277C2.555 0.572 1.983 0 1.277 0C0.572 0 0 0.572 0 1.277C0 1.983 0.572 2.555 1.277 2.555" transform="translate(51.0003 15.2448)" id="Fill-108" fill="#000000" stroke="none" />
      <path d="M1.278 2.555C1.984 2.555 2.556 1.983 2.556 1.277C2.556 0.572 1.984 0 1.278 0C0.572 0 0 0.572 0 1.277C0 1.983 0.572 2.555 1.278 2.555" transform="translate(65.3997 15.2448)" id="Fill-110" fill="#000000" stroke="none" />
      <path d="M1.278 2.555C1.983 2.555 2.555 1.983 2.555 1.277C2.555 0.572 1.983 0 1.278 0C0.572 0 0 0.572 0 1.277C0 1.983 0.572 2.555 1.278 2.555" transform="translate(79.8 15.2448)" id="Fill-112" fill="#000000" stroke="none" />
      <path d="M1.277 2.555C1.983 2.555 2.555 1.983 2.555 1.277C2.555 0.572 1.983 0 1.277 0C0.572 0 0 0.572 0 1.277C0 1.983 0.572 2.555 1.277 2.555" transform="translate(94.2005 15.2448)" id="Fill-114" fill="#000000" stroke="none" />
      <path d="M1.278 2.555C1.983 2.555 2.555 1.983 2.555 1.277C2.555 0.572 1.983 0 1.278 0C0.572 0 0 0.572 0 1.277C0 1.983 0.572 2.555 1.278 2.555" transform="translate(108.5999 15.2448)" id="Fill-116" fill="#000000" stroke="none" />
      <path d="M1.277 2.555C1.983 2.555 2.555 1.983 2.555 1.277C2.555 0.572 1.983 0 1.277 0C0.572 0 0 0.572 0 1.277C0 1.983 0.572 2.555 1.277 2.555" transform="translate(123.0003 15.2448)" id="Fill-118" fill="#000000" stroke="none" />
      <path d="M1.278 2.555C1.984 2.555 2.556 1.983 2.556 1.277C2.556 0.572 1.984 0 1.278 0C0.572 0 0 0.572 0 1.277C0 1.983 0.572 2.555 1.278 2.555" transform="translate(137.3997 15.2448)" id="Fill-120" fill="#000000" stroke="none" />
      <path d="M1.278 2.555C1.98299 2.555 2.55499 1.983 2.55499 1.277C2.55499 0.572 1.98299 0 1.278 0C0.571998 0 0 0.572 0 1.277C0 1.983 0.571998 2.555 1.278 2.555" transform="translate(151.8 15.2448)" id="Fill-122" fill="#000000" stroke="none" />
      <path d="M1.277 2.555C1.98299 2.555 2.55499 1.983 2.55499 1.277C2.55499 0.572 1.98299 0 1.277 0C0.571998 0 0 0.572 0 1.277C0 1.983 0.571998 2.555 1.277 2.555" transform="translate(166.2005 15.2448)" id="Fill-124" fill="#000000" stroke="none" />
      <path d="M1.278 2.555C1.98299 2.555 2.55499 1.983 2.55499 1.277C2.55499 0.572 1.98299 0 1.278 0C0.571998 0 0 0.572 0 1.277C0 1.983 0.571998 2.555 1.278 2.555" transform="translate(180.5999 15.2448)" id="Fill-126" fill="#000000" stroke="none" />
      <path d="M1.277 2.555C1.98299 2.555 2.55499 1.983 2.55499 1.277C2.55499 0.572 1.98299 0 1.277 0C0.571998 0 0 0.572 0 1.277C0 1.983 0.571998 2.555 1.277 2.555" transform="translate(195.0003 15.2448)" id="Fill-128" fill="#000000" stroke="none" />
      <path d="M1.278 2.555C1.984 2.555 2.556 1.983 2.556 1.277C2.556 0.572 1.984 0 1.278 0C0.572 0 0 0.572 0 1.277C0 1.983 0.572 2.555 1.278 2.555" transform="translate(209.3997 15.2448)" id="Fill-130" fill="#000000" stroke="none" />
      <path d="M1.278 2.555C1.98299 2.555 2.55499 1.983 2.55499 1.277C2.55499 0.572 1.98299 0 1.278 0C0.571998 0 0 0.572 0 1.277C0 1.983 0.571998 2.555 1.278 2.555" transform="translate(223.8 15.2448)" id="Fill-132" fill="#000000" stroke="none" />
      <path d="M1.277 2.555C1.98299 2.555 2.55499 1.983 2.55499 1.277C2.55499 0.572 1.98299 0 1.277 0C0.571998 0 0 0.572 0 1.277C0 1.983 0.571998 2.555 1.277 2.555" transform="translate(238.2004 15.2448)" id="Fill-134" fill="#000000" stroke="none" />
      <path d="M1.278 2.555C1.98299 2.555 2.55499 1.983 2.55499 1.277C2.55499 0.572 1.98299 0 1.278 0C0.571998 0 0 0.572 0 1.277C0 1.983 0.571998 2.555 1.278 2.555" transform="translate(252.5998 15.2448)" id="Fill-136" fill="#000000" stroke="none" />
      <path d="M1.277 2.555C1.98299 2.555 2.55499 1.983 2.55499 1.277C2.55499 0.572 1.98299 0 1.277 0C0.571998 0 0 0.572 0 1.277C0 1.983 0.571998 2.555 1.277 2.555" transform="translate(267.0003 15.2448)" id="Fill-138" fill="#000000" stroke="none" />
      <path d="M1.278 2.555C1.984 2.555 2.556 1.983 2.556 1.277C2.556 0.572 1.984 0 1.278 0C0.572 0 0 0.572 0 1.277C0 1.983 0.572 2.555 1.278 2.555" transform="translate(281.3996 15.2448)" id="Fill-140" fill="#000000" stroke="none" />
      <path d="M1.278 2.555C1.983 2.555 2.555 1.983 2.555 1.278C2.555 0.572 1.983 0 1.278 0C0.572 0 0 0.572 0 1.278C0 1.983 0.572 2.555 1.278 2.555" transform="translate(0.5999 29.6447)" id="Fill-142" fill="#000000" stroke="none" />
      <path d="M1.277 2.555C1.983 2.555 2.555 1.983 2.555 1.278C2.555 0.572 1.983 0 1.277 0C0.572 0 0 0.572 0 1.278C0 1.983 0.572 2.555 1.277 2.555" transform="translate(15.0003 29.6447)" id="Fill-144" fill="#000000" stroke="none" />
      <path d="M1.278 2.555C1.984 2.555 2.556 1.983 2.556 1.278C2.556 0.572 1.984 0 1.278 0C0.572 0 0 0.572 0 1.278C0 1.983 0.572 2.555 1.278 2.555" transform="translate(29.3997 29.6447)" id="Fill-146" fill="#000000" stroke="none" />
      <path d="M1.278 2.555C1.983 2.555 2.555 1.983 2.555 1.278C2.555 0.572 1.983 0 1.278 0C0.572 0 0 0.572 0 1.278C0 1.983 0.572 2.555 1.278 2.555" transform="translate(43.8 29.6447)" id="Fill-148" fill="#000000" stroke="none" />
      <path d="M1.277 2.555C1.983 2.555 2.555 1.983 2.555 1.278C2.555 0.572 1.983 0 1.277 0C0.572 0 0 0.572 0 1.278C0 1.983 0.572 2.555 1.277 2.555" transform="translate(58.2005 29.6447)" id="Fill-150" fill="#000000" stroke="none" />
      <path d="M1.278 2.555C1.983 2.555 2.555 1.983 2.555 1.278C2.555 0.572 1.983 0 1.278 0C0.572 0 0 0.572 0 1.278C0 1.983 0.572 2.555 1.278 2.555" transform="translate(72.5999 29.6447)" id="Fill-152" fill="#000000" stroke="none" />
      <path d="M1.277 2.555C1.983 2.555 2.555 1.983 2.555 1.278C2.555 0.572 1.983 0 1.277 0C0.572 0 0 0.572 0 1.278C0 1.983 0.572 2.555 1.277 2.555" transform="translate(87.0003 29.6447)" id="Fill-154" fill="#000000" stroke="none" />
      <path d="M1.278 2.555C1.984 2.555 2.556 1.983 2.556 1.278C2.556 0.572 1.984 0 1.278 0C0.572 0 0 0.572 0 1.278C0 1.983 0.572 2.555 1.278 2.555" transform="translate(101.3997 29.6447)" id="Fill-156" fill="#000000" stroke="none" />
      <path d="M1.278 2.555C1.983 2.555 2.555 1.983 2.555 1.278C2.555 0.572 1.983 0 1.278 0C0.572 0 0 0.572 0 1.278C0 1.983 0.572 2.555 1.278 2.555" transform="translate(115.8 29.6447)" id="Fill-158" fill="#000000" stroke="none" />
      <path d="M1.277 2.555C1.98299 2.555 2.55499 1.983 2.55499 1.278C2.55499 0.572 1.98299 0 1.277 0C0.571998 0 0 0.572 0 1.278C0 1.983 0.571998 2.555 1.277 2.555" transform="translate(130.2005 29.6447)" id="Fill-160" fill="#000000" stroke="none" />
      <path d="M1.278 2.555C1.98299 2.555 2.55499 1.983 2.55499 1.278C2.55499 0.572 1.98299 0 1.278 0C0.571998 0 0 0.572 0 1.278C0 1.983 0.571998 2.555 1.278 2.555" transform="translate(144.5999 29.6447)" id="Fill-162" fill="#000000" stroke="none" />
      <path d="M1.277 2.555C1.98299 2.555 2.55499 1.983 2.55499 1.278C2.55499 0.572 1.98299 0 1.277 0C0.571998 0 0 0.572 0 1.278C0 1.983 0.571998 2.555 1.277 2.555" transform="translate(159.0003 29.6447)" id="Fill-164" fill="#000000" stroke="none" />
      <path d="M1.278 2.555C1.984 2.555 2.556 1.983 2.556 1.278C2.556 0.572 1.984 0 1.278 0C0.572 0 0 0.572 0 1.278C0 1.983 0.572 2.555 1.278 2.555" transform="translate(173.3997 29.6447)" id="Fill-166" fill="#000000" stroke="none" />
      <path d="M1.278 2.555C1.98299 2.555 2.55499 1.983 2.55499 1.278C2.55499 0.572 1.98299 0 1.278 0C0.571998 0 0 0.572 0 1.278C0 1.983 0.571998 2.555 1.278 2.555" transform="translate(187.8 29.6447)" id="Fill-168" fill="#000000" stroke="none" />
      <path d="M1.277 2.555C1.98299 2.555 2.55499 1.983 2.55499 1.278C2.55499 0.572 1.98299 0 1.277 0C0.571998 0 0 0.572 0 1.278C0 1.983 0.571998 2.555 1.277 2.555" transform="translate(202.2005 29.6447)" id="Fill-170" fill="#000000" stroke="none" />
      <path d="M1.278 2.555C1.98299 2.555 2.55499 1.983 2.55499 1.278C2.55499 0.572 1.98299 0 1.278 0C0.571998 0 0 0.572 0 1.278C0 1.983 0.571998 2.555 1.278 2.555" transform="translate(216.5999 29.6447)" id="Fill-172" fill="#000000" stroke="none" />
      <path d="M1.277 2.555C1.98299 2.555 2.55499 1.983 2.55499 1.278C2.55499 0.572 1.98299 0 1.277 0C0.571998 0 0 0.572 0 1.278C0 1.983 0.571998 2.555 1.277 2.555" transform="translate(231.0003 29.6447)" id="Fill-174" fill="#000000" stroke="none" />
      <path d="M1.278 2.555C1.984 2.555 2.556 1.983 2.556 1.278C2.556 0.572 1.984 0 1.278 0C0.572 0 0 0.572 0 1.278C0 1.983 0.572 2.555 1.278 2.555" transform="translate(245.3996 29.6447)" id="Fill-176" fill="#000000" stroke="none" />
      <path d="M1.278 2.555C1.98299 2.555 2.55499 1.983 2.55499 1.278C2.55499 0.572 1.98299 0 1.278 0C0.571998 0 0 0.572 0 1.278C0 1.983 0.571998 2.555 1.278 2.555" transform="translate(259.8 29.6447)" id="Fill-178" fill="#000000" stroke="none" />
      <path d="M1.277 2.555C1.98299 2.555 2.55499 1.983 2.55499 1.278C2.55499 0.572 1.98299 0 1.277 0C0.571998 0 0 0.572 0 1.278C0 1.983 0.571998 2.555 1.277 2.555" transform="translate(274.2004 29.6447)" id="Fill-180" fill="#000000" stroke="none" />
      <path d="M1.278 2.556C1.983 2.556 2.555 1.984 2.555 1.278C2.555 0.573 1.983 0 1.278 0C0.572 0 0 0.573 0 1.278C0 1.984 0.572 2.556 1.278 2.556" transform="translate(7.8 44.0441)" id="Fill-182" fill="#000000" stroke="none" />
      <path d="M1.277 2.556C1.983 2.556 2.555 1.984 2.555 1.278C2.555 0.573 1.983 0 1.277 0C0.572 0 0 0.573 0 1.278C0 1.984 0.572 2.556 1.277 2.556" transform="translate(22.2005 44.0441)" id="Fill-184" fill="#000000" stroke="none" />
      <path d="M1.278 2.556C1.983 2.556 2.555 1.984 2.555 1.278C2.555 0.573 1.983 0 1.278 0C0.572 0 0 0.573 0 1.278C0 1.984 0.572 2.556 1.278 2.556" transform="translate(36.5999 44.0441)" id="Fill-186" fill="#000000" stroke="none" />
      <path d="M1.277 2.556C1.983 2.556 2.555 1.984 2.555 1.278C2.555 0.573 1.983 0 1.277 0C0.572 0 0 0.573 0 1.278C0 1.984 0.572 2.556 1.277 2.556" transform="translate(51.0003 44.0441)" id="Fill-188" fill="#000000" stroke="none" />
      <path d="M1.278 2.556C1.984 2.556 2.556 1.984 2.556 1.278C2.556 0.573 1.984 0 1.278 0C0.572 0 0 0.573 0 1.278C0 1.984 0.572 2.556 1.278 2.556" transform="translate(65.3997 44.0441)" id="Fill-190" fill="#000000" stroke="none" />
      <path d="M1.278 2.556C1.983 2.556 2.555 1.984 2.555 1.278C2.555 0.573 1.983 0 1.278 0C0.572 0 0 0.573 0 1.278C0 1.984 0.572 2.556 1.278 2.556" transform="translate(79.8 44.0441)" id="Fill-192" fill="#000000" stroke="none" />
      <path d="M1.277 2.556C1.983 2.556 2.555 1.984 2.555 1.278C2.555 0.573 1.983 0 1.277 0C0.572 0 0 0.573 0 1.278C0 1.984 0.572 2.556 1.277 2.556" transform="translate(94.2005 44.0441)" id="Fill-194" fill="#000000" stroke="none" />
      <path d="M1.278 2.556C1.983 2.556 2.555 1.984 2.555 1.278C2.555 0.573 1.983 0 1.278 0C0.572 0 0 0.573 0 1.278C0 1.984 0.572 2.556 1.278 2.556" transform="translate(108.5999 44.0441)" id="Fill-196" fill="#000000" stroke="none" />
      <path d="M1.277 2.556C1.983 2.556 2.555 1.984 2.555 1.278C2.555 0.573 1.983 0 1.277 0C0.572 0 0 0.573 0 1.278C0 1.984 0.572 2.556 1.277 2.556" transform="translate(123.0003 44.0441)" id="Fill-198" fill="#000000" stroke="none" />
      <path d="M1.278 2.556C1.984 2.556 2.556 1.984 2.556 1.278C2.556 0.573 1.984 0 1.278 0C0.572 0 0 0.573 0 1.278C0 1.984 0.572 2.556 1.278 2.556" transform="translate(137.3997 44.0441)" id="Fill-200" fill="#000000" stroke="none" />
      <path d="M1.278 2.556C1.98299 2.556 2.55499 1.984 2.55499 1.278C2.55499 0.573 1.98299 0 1.278 0C0.571998 0 0 0.573 0 1.278C0 1.984 0.571998 2.556 1.278 2.556" transform="translate(151.8 44.0441)" id="Fill-202" fill="#000000" stroke="none" />
      <path d="M1.277 2.556C1.98299 2.556 2.55499 1.984 2.55499 1.278C2.55499 0.573 1.98299 0 1.277 0C0.571998 0 0 0.573 0 1.278C0 1.984 0.571998 2.556 1.277 2.556" transform="translate(166.2005 44.0441)" id="Fill-204" fill="#000000" stroke="none" />
      <path d="M1.278 2.556C1.98299 2.556 2.55499 1.984 2.55499 1.278C2.55499 0.573 1.98299 0 1.278 0C0.571998 0 0 0.573 0 1.278C0 1.984 0.571998 2.556 1.278 2.556" transform="translate(180.5999 44.0441)" id="Fill-206" fill="#000000" stroke="none" />
      <path d="M1.277 2.556C1.98299 2.556 2.55499 1.984 2.55499 1.278C2.55499 0.573 1.98299 0 1.277 0C0.571998 0 0 0.573 0 1.278C0 1.984 0.571998 2.556 1.277 2.556" transform="translate(195.0003 44.0441)" id="Fill-208" fill="#000000" stroke="none" />
      <path d="M1.278 2.556C1.984 2.556 2.556 1.984 2.556 1.278C2.556 0.573 1.984 0 1.278 0C0.572 0 0 0.573 0 1.278C0 1.984 0.572 2.556 1.278 2.556" transform="translate(209.3997 44.0441)" id="Fill-210" fill="#000000" stroke="none" />
      <path d="M1.278 2.556C1.98299 2.556 2.55499 1.984 2.55499 1.278C2.55499 0.573 1.98299 0 1.278 0C0.571998 0 0 0.573 0 1.278C0 1.984 0.571998 2.556 1.278 2.556" transform="translate(223.8 44.0441)" id="Fill-212" fill="#000000" stroke="none" />
      <path d="M1.277 2.556C1.98299 2.556 2.55499 1.984 2.55499 1.278C2.55499 0.573 1.98299 0 1.277 0C0.571998 0 0 0.573 0 1.278C0 1.984 0.571998 2.556 1.277 2.556" transform="translate(238.2004 44.0441)" id="Fill-214" fill="#000000" stroke="none" />
      <path d="M1.278 2.556C1.98299 2.556 2.55499 1.984 2.55499 1.278C2.55499 0.573 1.98299 0 1.278 0C0.571998 0 0 0.573 0 1.278C0 1.984 0.571998 2.556 1.278 2.556" transform="translate(252.5998 44.0441)" id="Fill-216" fill="#000000" stroke="none" />
      <path d="M1.277 2.556C1.98299 2.556 2.55499 1.984 2.55499 1.278C2.55499 0.573 1.98299 0 1.277 0C0.571998 0 0 0.573 0 1.278C0 1.984 0.571998 2.556 1.277 2.556" transform="translate(267.0003 44.0441)" id="Fill-218" fill="#000000" stroke="none" />
      <path d="M1.278 2.556C1.984 2.556 2.556 1.984 2.556 1.278C2.556 0.573 1.984 0 1.278 0C0.572 0 0 0.573 0 1.278C0 1.984 0.572 2.556 1.278 2.556" transform="translate(281.3996 44.0441)" id="Fill-220" fill="#000000" stroke="none" />
      <path d="M1.278 2.556C1.983 2.556 2.555 1.984 2.555 1.278C2.555 0.573 1.983 0 1.278 0C0.572 0 0 0.573 0 1.278C0 1.984 0.572 2.556 1.278 2.556" transform="translate(0.5999 58.444)" id="Fill-222" fill="#000000" stroke="none" />
      <path d="M1.277 2.556C1.983 2.556 2.555 1.984 2.555 1.278C2.555 0.573 1.983 0 1.277 0C0.572 0 0 0.573 0 1.278C0 1.984 0.572 2.556 1.277 2.556" transform="translate(15.0003 58.444)" id="Fill-224" fill="#000000" stroke="none" />
      <path d="M1.278 2.556C1.984 2.556 2.556 1.984 2.556 1.278C2.556 0.573 1.984 0 1.278 0C0.572 0 0 0.573 0 1.278C0 1.984 0.572 2.556 1.278 2.556" transform="translate(29.3997 58.444)" id="Fill-226" fill="#000000" stroke="none" />
      <path d="M1.278 2.556C1.983 2.556 2.555 1.984 2.555 1.278C2.555 0.573 1.983 0 1.278 0C0.572 0 0 0.573 0 1.278C0 1.984 0.572 2.556 1.278 2.556" transform="translate(43.8 58.444)" id="Fill-228" fill="#000000" stroke="none" />
      <path d="M1.277 2.556C1.983 2.556 2.555 1.984 2.555 1.278C2.555 0.573 1.983 0 1.277 0C0.572 0 0 0.573 0 1.278C0 1.984 0.572 2.556 1.277 2.556" transform="translate(58.2005 58.444)" id="Fill-230" fill="#000000" stroke="none" />
      <path d="M1.278 2.556C1.983 2.556 2.555 1.984 2.555 1.278C2.555 0.573 1.983 0 1.278 0C0.572 0 0 0.573 0 1.278C0 1.984 0.572 2.556 1.278 2.556" transform="translate(72.5999 58.444)" id="Fill-232" fill="#000000" stroke="none" />
      <path d="M1.277 2.556C1.983 2.556 2.555 1.984 2.555 1.278C2.555 0.573 1.983 0 1.277 0C0.572 0 0 0.573 0 1.278C0 1.984 0.572 2.556 1.277 2.556" transform="translate(87.0003 58.444)" id="Fill-234" fill="#000000" stroke="none" />
      <path d="M1.278 2.556C1.984 2.556 2.556 1.984 2.556 1.278C2.556 0.573 1.984 0 1.278 0C0.572 0 0 0.573 0 1.278C0 1.984 0.572 2.556 1.278 2.556" transform="translate(101.3997 58.444)" id="Fill-236" fill="#000000" stroke="none" />
      <path d="M1.278 2.556C1.983 2.556 2.555 1.984 2.555 1.278C2.555 0.573 1.983 0 1.278 0C0.572 0 0 0.573 0 1.278C0 1.984 0.572 2.556 1.278 2.556" transform="translate(115.8 58.444)" id="Fill-238" fill="#000000" stroke="none" />
      <path d="M1.277 2.556C1.98299 2.556 2.55499 1.984 2.55499 1.278C2.55499 0.573 1.98299 0 1.277 0C0.571998 0 0 0.573 0 1.278C0 1.984 0.571998 2.556 1.277 2.556" transform="translate(130.2005 58.444)" id="Fill-240" fill="#000000" stroke="none" />
      <path d="M1.278 2.556C1.98299 2.556 2.55499 1.984 2.55499 1.278C2.55499 0.573 1.98299 0 1.278 0C0.571998 0 0 0.573 0 1.278C0 1.984 0.571998 2.556 1.278 2.556" transform="translate(144.5999 58.444)" id="Fill-242" fill="#000000" stroke="none" />
      <path d="M1.277 2.556C1.98299 2.556 2.55499 1.984 2.55499 1.278C2.55499 0.573 1.98299 0 1.277 0C0.571998 0 0 0.573 0 1.278C0 1.984 0.571998 2.556 1.277 2.556" transform="translate(159.0003 58.444)" id="Fill-244" fill="#000000" stroke="none" />
      <path d="M1.278 2.556C1.984 2.556 2.556 1.984 2.556 1.278C2.556 0.573 1.984 0 1.278 0C0.572 0 0 0.573 0 1.278C0 1.984 0.572 2.556 1.278 2.556" transform="translate(173.3997 58.444)" id="Fill-246" fill="#000000" stroke="none" />
      <path d="M1.278 2.556C1.98299 2.556 2.55499 1.984 2.55499 1.278C2.55499 0.573 1.98299 0 1.278 0C0.571998 0 0 0.573 0 1.278C0 1.984 0.571998 2.556 1.278 2.556" transform="translate(187.8 58.444)" id="Fill-248" fill="#000000" stroke="none" />
      <path d="M1.277 2.556C1.98299 2.556 2.55499 1.984 2.55499 1.278C2.55499 0.573 1.98299 0 1.277 0C0.571998 0 0 0.573 0 1.278C0 1.984 0.571998 2.556 1.277 2.556" transform="translate(202.2005 58.444)" id="Fill-250" fill="#000000" stroke="none" />
      <path d="M1.278 2.556C1.98299 2.556 2.55499 1.984 2.55499 1.278C2.55499 0.573 1.98299 0 1.278 0C0.571998 0 0 0.573 0 1.278C0 1.984 0.571998 2.556 1.278 2.556" transform="translate(216.5999 58.444)" id="Fill-252" fill="#000000" stroke="none" />
      <path d="M1.277 2.556C1.98299 2.556 2.55499 1.984 2.55499 1.278C2.55499 0.573 1.98299 0 1.277 0C0.571998 0 0 0.573 0 1.278C0 1.984 0.571998 2.556 1.277 2.556" transform="translate(231.0003 58.444)" id="Fill-254" fill="#000000" stroke="none" />
      <path d="M1.278 2.556C1.984 2.556 2.556 1.984 2.556 1.278C2.556 0.573 1.984 0 1.278 0C0.572 0 0 0.573 0 1.278C0 1.984 0.572 2.556 1.278 2.556" transform="translate(245.3996 58.444)" id="Fill-256" fill="#000000" stroke="none" />
      <path d="M1.278 2.556C1.98299 2.556 2.55499 1.984 2.55499 1.278C2.55499 0.573 1.98299 0 1.278 0C0.571998 0 0 0.573 0 1.278C0 1.984 0.571998 2.556 1.278 2.556" transform="translate(259.8 58.444)" id="Fill-258" fill="#000000" stroke="none" />
      <path d="M1.277 2.556C1.98299 2.556 2.55499 1.984 2.55499 1.278C2.55499 0.573 1.98299 0 1.277 0C0.571998 0 0 0.573 0 1.278C0 1.984 0.571998 2.556 1.277 2.556" transform="translate(274.2004 58.444)" id="Fill-260" fill="#000000" stroke="none" />
      <path d="M1.278 2.556C1.983 2.556 2.555 1.984 2.555 1.278C2.555 0.573 1.983 0 1.278 0C0.572 0 0 0.573 0 1.278C0 1.984 0.572 2.556 1.278 2.556" transform="translate(7.8 72.8439)" id="Fill-262" fill="#000000" stroke="none" />
      <path d="M1.277 2.556C1.983 2.556 2.555 1.984 2.555 1.278C2.555 0.573 1.983 0 1.277 0C0.572 0 0 0.573 0 1.278C0 1.984 0.572 2.556 1.277 2.556" transform="translate(22.2005 72.8439)" id="Fill-264" fill="#000000" stroke="none" />
      <path d="M1.278 2.556C1.983 2.556 2.555 1.984 2.555 1.278C2.555 0.573 1.983 0 1.278 0C0.572 0 0 0.573 0 1.278C0 1.984 0.572 2.556 1.278 2.556" transform="translate(36.5999 72.8439)" id="Fill-266" fill="#000000" stroke="none" />
      <path d="M1.277 2.556C1.983 2.556 2.555 1.984 2.555 1.278C2.555 0.573 1.983 0 1.277 0C0.572 0 0 0.573 0 1.278C0 1.984 0.572 2.556 1.277 2.556" transform="translate(51.0003 72.8439)" id="Fill-268" fill="#000000" stroke="none" />
      <path d="M1.278 2.556C1.984 2.556 2.556 1.984 2.556 1.278C2.556 0.573 1.984 0 1.278 0C0.572 0 0 0.573 0 1.278C0 1.984 0.572 2.556 1.278 2.556" transform="translate(65.3997 72.8439)" id="Fill-270" fill="#000000" stroke="none" />
      <path d="M1.278 2.556C1.983 2.556 2.555 1.984 2.555 1.278C2.555 0.573 1.983 0 1.278 0C0.572 0 0 0.573 0 1.278C0 1.984 0.572 2.556 1.278 2.556" transform="translate(79.8 72.8439)" id="Fill-272" fill="#000000" stroke="none" />
      <path d="M1.277 2.556C1.983 2.556 2.555 1.984 2.555 1.278C2.555 0.573 1.983 0 1.277 0C0.572 0 0 0.573 0 1.278C0 1.984 0.572 2.556 1.277 2.556" transform="translate(94.2005 72.8439)" id="Fill-274" fill="#000000" stroke="none" />
      <path d="M1.278 2.556C1.983 2.556 2.555 1.984 2.555 1.278C2.555 0.573 1.983 0 1.278 0C0.572 0 0 0.573 0 1.278C0 1.984 0.572 2.556 1.278 2.556" transform="translate(108.5999 72.8439)" id="Fill-276" fill="#000000" stroke="none" />
      <path d="M1.277 2.556C1.983 2.556 2.555 1.984 2.555 1.278C2.555 0.573 1.983 0 1.277 0C0.572 0 0 0.573 0 1.278C0 1.984 0.572 2.556 1.277 2.556" transform="translate(123.0003 72.8439)" id="Fill-278" fill="#000000" stroke="none" />
      <path d="M1.278 2.556C1.984 2.556 2.556 1.984 2.556 1.278C2.556 0.573 1.984 0 1.278 0C0.572 0 0 0.573 0 1.278C0 1.984 0.572 2.556 1.278 2.556" transform="translate(137.3997 72.8439)" id="Fill-280" fill="#000000" stroke="none" />
      <path d="M1.278 2.556C1.98299 2.556 2.55499 1.984 2.55499 1.278C2.55499 0.573 1.98299 0 1.278 0C0.571998 0 0 0.573 0 1.278C0 1.984 0.571998 2.556 1.278 2.556" transform="translate(151.8 72.8439)" id="Fill-282" fill="#000000" stroke="none" />
      <path d="M1.277 2.556C1.98299 2.556 2.55499 1.984 2.55499 1.278C2.55499 0.573 1.98299 0 1.277 0C0.571998 0 0 0.573 0 1.278C0 1.984 0.571998 2.556 1.277 2.556" transform="translate(166.2005 72.8439)" id="Fill-284" fill="#000000" stroke="none" />
      <path d="M1.278 2.556C1.98299 2.556 2.55499 1.984 2.55499 1.278C2.55499 0.573 1.98299 0 1.278 0C0.571998 0 0 0.573 0 1.278C0 1.984 0.571998 2.556 1.278 2.556" transform="translate(180.5999 72.8439)" id="Fill-286" fill="#000000" stroke="none" />
      <path d="M1.277 2.556C1.98299 2.556 2.55499 1.984 2.55499 1.278C2.55499 0.573 1.98299 0 1.277 0C0.571998 0 0 0.573 0 1.278C0 1.984 0.571998 2.556 1.277 2.556" transform="translate(195.0003 72.8439)" id="Fill-288" fill="#000000" stroke="none" />
      <path d="M1.278 2.556C1.984 2.556 2.556 1.984 2.556 1.278C2.556 0.573 1.984 0 1.278 0C0.572 0 0 0.573 0 1.278C0 1.984 0.572 2.556 1.278 2.556" transform="translate(209.3997 72.8439)" id="Fill-290" fill="#000000" stroke="none" />
      <path d="M1.278 2.556C1.98299 2.556 2.55499 1.984 2.55499 1.278C2.55499 0.573 1.98299 0 1.278 0C0.571998 0 0 0.573 0 1.278C0 1.984 0.571998 2.556 1.278 2.556" transform="translate(223.8 72.8439)" id="Fill-292" fill="#000000" stroke="none" />
      <path d="M1.277 2.556C1.98299 2.556 2.55499 1.984 2.55499 1.278C2.55499 0.573 1.98299 0 1.277 0C0.571998 0 0 0.573 0 1.278C0 1.984 0.571998 2.556 1.277 2.556" transform="translate(238.2004 72.8439)" id="Fill-294" fill="#000000" stroke="none" />
      <path d="M1.278 2.556C1.98299 2.556 2.55499 1.984 2.55499 1.278C2.55499 0.573 1.98299 0 1.278 0C0.571998 0 0 0.573 0 1.278C0 1.984 0.571998 2.556 1.278 2.556" transform="translate(252.5998 72.8439)" id="Fill-296" fill="#000000" stroke="none" />
      <path d="M1.277 2.556C1.98299 2.556 2.55499 1.984 2.55499 1.278C2.55499 0.573 1.98299 0 1.277 0C0.571998 0 0 0.573 0 1.278C0 1.984 0.571998 2.556 1.277 2.556" transform="translate(267.0003 72.8439)" id="Fill-298" fill="#000000" stroke="none" />
      <path d="M1.278 2.556C1.984 2.556 2.556 1.984 2.556 1.278C2.556 0.573 1.984 0 1.278 0C0.572 0 0 0.573 0 1.278C0 1.984 0.572 2.556 1.278 2.556" transform="translate(281.3996 72.8439)" id="Fill-300" fill="#000000" stroke="none" />
      <path d="M1.278 2.555C1.983 2.555 2.555 1.983 2.555 1.277C2.555 0.572 1.983 0 1.278 0C0.572 0 0 0.572 0 1.277C0 1.983 0.572 2.555 1.278 2.555" transform="translate(0.5999 87.2448)" id="Fill-302" fill="#000000" stroke="none" />
      <path d="M1.277 2.555C1.983 2.555 2.555 1.983 2.555 1.277C2.555 0.572 1.983 0 1.277 0C0.572 0 0 0.572 0 1.277C0 1.983 0.572 2.555 1.277 2.555" transform="translate(15.0003 87.2448)" id="Fill-304" fill="#000000" stroke="none" />
      <path d="M1.278 2.555C1.984 2.555 2.556 1.983 2.556 1.277C2.556 0.572 1.984 0 1.278 0C0.572 0 0 0.572 0 1.277C0 1.983 0.572 2.555 1.278 2.555" transform="translate(29.3997 87.2448)" id="Fill-306" fill="#000000" stroke="none" />
      <path d="M1.278 2.555C1.983 2.555 2.555 1.983 2.555 1.277C2.555 0.572 1.983 0 1.278 0C0.572 0 0 0.572 0 1.277C0 1.983 0.572 2.555 1.278 2.555" transform="translate(43.8 87.2448)" id="Fill-308" fill="#000000" stroke="none" />
      <path d="M1.277 2.555C1.983 2.555 2.555 1.983 2.555 1.277C2.555 0.572 1.983 0 1.277 0C0.572 0 0 0.572 0 1.277C0 1.983 0.572 2.555 1.277 2.555" transform="translate(58.2005 87.2448)" id="Fill-310" fill="#000000" stroke="none" />
      <path d="M1.278 2.555C1.983 2.555 2.555 1.983 2.555 1.277C2.555 0.572 1.983 0 1.278 0C0.572 0 0 0.572 0 1.277C0 1.983 0.572 2.555 1.278 2.555" transform="translate(72.5999 87.2448)" id="Fill-312" fill="#000000" stroke="none" />
      <path d="M1.277 2.555C1.983 2.555 2.555 1.983 2.555 1.277C2.555 0.572 1.983 0 1.277 0C0.572 0 0 0.572 0 1.277C0 1.983 0.572 2.555 1.277 2.555" transform="translate(87.0003 87.2448)" id="Fill-314" fill="#000000" stroke="none" />
      <path d="M1.278 2.555C1.984 2.555 2.556 1.983 2.556 1.277C2.556 0.572 1.984 0 1.278 0C0.572 0 0 0.572 0 1.277C0 1.983 0.572 2.555 1.278 2.555" transform="translate(101.3997 87.2448)" id="Fill-316" fill="#000000" stroke="none" />
      <path d="M1.278 2.555C1.983 2.555 2.555 1.983 2.555 1.277C2.555 0.572 1.983 0 1.278 0C0.572 0 0 0.572 0 1.277C0 1.983 0.572 2.555 1.278 2.555" transform="translate(115.8 87.2448)" id="Fill-318" fill="#000000" stroke="none" />
      <path d="M1.277 2.555C1.98299 2.555 2.55499 1.983 2.55499 1.277C2.55499 0.572 1.98299 0 1.277 0C0.571998 0 0 0.572 0 1.277C0 1.983 0.571998 2.555 1.277 2.555" transform="translate(130.2005 87.2448)" id="Fill-320" fill="#000000" stroke="none" />
      <path d="M1.278 2.555C1.98299 2.555 2.55499 1.983 2.55499 1.277C2.55499 0.572 1.98299 0 1.278 0C0.571998 0 0 0.572 0 1.277C0 1.983 0.571998 2.555 1.278 2.555" transform="translate(144.5999 87.2448)" id="Fill-322" fill="#000000" stroke="none" />
      <path d="M1.277 2.555C1.98299 2.555 2.55499 1.983 2.55499 1.277C2.55499 0.572 1.98299 0 1.277 0C0.571998 0 0 0.572 0 1.277C0 1.983 0.571998 2.555 1.277 2.555" transform="translate(159.0003 87.2448)" id="Fill-324" fill="#000000" stroke="none" />
      <path d="M1.278 2.555C1.984 2.555 2.556 1.983 2.556 1.277C2.556 0.572 1.984 0 1.278 0C0.572 0 0 0.572 0 1.277C0 1.983 0.572 2.555 1.278 2.555" transform="translate(173.3997 87.2448)" id="Fill-326" fill="#000000" stroke="none" />
      <path d="M1.278 2.555C1.98299 2.555 2.55499 1.983 2.55499 1.277C2.55499 0.572 1.98299 0 1.278 0C0.571998 0 0 0.572 0 1.277C0 1.983 0.571998 2.555 1.278 2.555" transform="translate(187.8 87.2448)" id="Fill-328" fill="#000000" stroke="none" />
      <path d="M1.277 2.555C1.98299 2.555 2.55499 1.983 2.55499 1.277C2.55499 0.572 1.98299 0 1.277 0C0.571998 0 0 0.572 0 1.277C0 1.983 0.571998 2.555 1.277 2.555" transform="translate(202.2005 87.2448)" id="Fill-330" fill="#000000" stroke="none" />
      <path d="M1.278 2.555C1.98299 2.555 2.55499 1.983 2.55499 1.277C2.55499 0.572 1.98299 0 1.278 0C0.571998 0 0 0.572 0 1.277C0 1.983 0.571998 2.555 1.278 2.555" transform="translate(216.5999 87.2448)" id="Fill-332" fill="#000000" stroke="none" />
      <path d="M1.277 2.555C1.98299 2.555 2.55499 1.983 2.55499 1.277C2.55499 0.572 1.98299 0 1.277 0C0.571998 0 0 0.572 0 1.277C0 1.983 0.571998 2.555 1.277 2.555" transform="translate(231.0003 87.2448)" id="Fill-334" fill="#000000" stroke="none" />
      <path d="M1.278 2.555C1.984 2.555 2.556 1.983 2.556 1.277C2.556 0.572 1.984 0 1.278 0C0.572 0 0 0.572 0 1.277C0 1.983 0.572 2.555 1.278 2.555" transform="translate(245.3996 87.2448)" id="Fill-336" fill="#000000" stroke="none" />
      <path d="M1.278 2.555C1.98299 2.555 2.55499 1.983 2.55499 1.277C2.55499 0.572 1.98299 0 1.278 0C0.571998 0 0 0.572 0 1.277C0 1.983 0.571998 2.555 1.278 2.555" transform="translate(259.8 87.2448)" id="Fill-338" fill="#000000" stroke="none" />
      <path d="M1.277 2.555C1.98299 2.555 2.55499 1.983 2.55499 1.277C2.55499 0.572 1.98299 0 1.277 0C0.571998 0 0 0.572 0 1.277C0 1.983 0.571998 2.555 1.277 2.555" transform="translate(274.2004 87.2448)" id="Fill-340" fill="#000000" stroke="none" />
      <path d="M1.278 2.555C1.983 2.555 2.555 1.983 2.555 1.278C2.555 0.572 1.983 0 1.278 0C0.572 0 0 0.572 0 1.278C0 1.983 0.572 2.555 1.278 2.555" transform="translate(7.8 101.6447)" id="Fill-342" fill="#000000" stroke="none" />
      <path d="M1.277 2.555C1.983 2.555 2.555 1.983 2.555 1.278C2.555 0.572 1.983 0 1.277 0C0.572 0 0 0.572 0 1.278C0 1.983 0.572 2.555 1.277 2.555" transform="translate(22.2005 101.6447)" id="Fill-344" fill="#000000" stroke="none" />
      <path d="M1.278 2.555C1.983 2.555 2.555 1.983 2.555 1.278C2.555 0.572 1.983 0 1.278 0C0.572 0 0 0.572 0 1.278C0 1.983 0.572 2.555 1.278 2.555" transform="translate(36.5999 101.6447)" id="Fill-346" fill="#000000" stroke="none" />
      <path d="M1.277 2.555C1.983 2.555 2.555 1.983 2.555 1.278C2.555 0.572 1.983 0 1.277 0C0.572 0 0 0.572 0 1.278C0 1.983 0.572 2.555 1.277 2.555" transform="translate(51.0003 101.6447)" id="Fill-348" fill="#000000" stroke="none" />
      <path d="M1.278 2.555C1.984 2.555 2.556 1.983 2.556 1.278C2.556 0.572 1.984 0 1.278 0C0.572 0 0 0.572 0 1.278C0 1.983 0.572 2.555 1.278 2.555" transform="translate(65.3997 101.6447)" id="Fill-350" fill="#000000" stroke="none" />
      <path d="M1.278 2.555C1.983 2.555 2.555 1.983 2.555 1.278C2.555 0.572 1.983 0 1.278 0C0.572 0 0 0.572 0 1.278C0 1.983 0.572 2.555 1.278 2.555" transform="translate(79.8 101.6447)" id="Fill-352" fill="#000000" stroke="none" />
      <path d="M1.277 2.555C1.983 2.555 2.555 1.983 2.555 1.278C2.555 0.572 1.983 0 1.277 0C0.572 0 0 0.572 0 1.278C0 1.983 0.572 2.555 1.277 2.555" transform="translate(94.2005 101.6447)" id="Fill-354" fill="#000000" stroke="none" />
      <path d="M1.278 2.555C1.983 2.555 2.555 1.983 2.555 1.278C2.555 0.572 1.983 0 1.278 0C0.572 0 0 0.572 0 1.278C0 1.983 0.572 2.555 1.278 2.555" transform="translate(108.5999 101.6447)" id="Fill-356" fill="#000000" stroke="none" />
      <path d="M1.277 2.555C1.983 2.555 2.555 1.983 2.555 1.278C2.555 0.572 1.983 0 1.277 0C0.572 0 0 0.572 0 1.278C0 1.983 0.572 2.555 1.277 2.555" transform="translate(123.0003 101.6447)" id="Fill-358" fill="#000000" stroke="none" />
      <path d="M1.278 2.555C1.984 2.555 2.556 1.983 2.556 1.278C2.556 0.572 1.984 0 1.278 0C0.572 0 0 0.572 0 1.278C0 1.983 0.572 2.555 1.278 2.555" transform="translate(137.3997 101.6447)" id="Fill-360" fill="#000000" stroke="none" />
      <path d="M1.278 2.555C1.98299 2.555 2.55499 1.983 2.55499 1.278C2.55499 0.572 1.98299 0 1.278 0C0.571998 0 0 0.572 0 1.278C0 1.983 0.571998 2.555 1.278 2.555" transform="translate(151.8 101.6447)" id="Fill-362" fill="#000000" stroke="none" />
      <path d="M1.277 2.555C1.98299 2.555 2.55499 1.983 2.55499 1.278C2.55499 0.572 1.98299 0 1.277 0C0.571998 0 0 0.572 0 1.278C0 1.983 0.571998 2.555 1.277 2.555" transform="translate(166.2005 101.6447)" id="Fill-364" fill="#000000" stroke="none" />
      <path d="M1.278 2.555C1.98299 2.555 2.55499 1.983 2.55499 1.278C2.55499 0.572 1.98299 0 1.278 0C0.571998 0 0 0.572 0 1.278C0 1.983 0.571998 2.555 1.278 2.555" transform="translate(180.5999 101.6447)" id="Fill-366" fill="#000000" stroke="none" />
      <path d="M1.277 2.555C1.98299 2.555 2.55499 1.983 2.55499 1.278C2.55499 0.572 1.98299 0 1.277 0C0.571998 0 0 0.572 0 1.278C0 1.983 0.571998 2.555 1.277 2.555" transform="translate(195.0003 101.6447)" id="Fill-368" fill="#000000" stroke="none" />
      <path d="M1.278 2.555C1.984 2.555 2.556 1.983 2.556 1.278C2.556 0.572 1.984 0 1.278 0C0.572 0 0 0.572 0 1.278C0 1.983 0.572 2.555 1.278 2.555" transform="translate(209.3997 101.6447)" id="Fill-370" fill="#000000" stroke="none" />
      <path d="M1.278 2.555C1.98299 2.555 2.55499 1.983 2.55499 1.278C2.55499 0.572 1.98299 0 1.278 0C0.571998 0 0 0.572 0 1.278C0 1.983 0.571998 2.555 1.278 2.555" transform="translate(223.8 101.6447)" id="Fill-372" fill="#000000" stroke="none" />
      <path d="M1.277 2.555C1.98299 2.555 2.55499 1.983 2.55499 1.278C2.55499 0.572 1.98299 0 1.277 0C0.571998 0 0 0.572 0 1.278C0 1.983 0.571998 2.555 1.277 2.555" transform="translate(238.2004 101.6447)" id="Fill-374" fill="#000000" stroke="none" />
      <path d="M1.278 2.555C1.98299 2.555 2.55499 1.983 2.55499 1.278C2.55499 0.572 1.98299 0 1.278 0C0.571998 0 0 0.572 0 1.278C0 1.983 0.571998 2.555 1.278 2.555" transform="translate(252.5998 101.6447)" id="Fill-376" fill="#000000" stroke="none" />
      <path d="M1.277 2.555C1.98299 2.555 2.55499 1.983 2.55499 1.278C2.55499 0.572 1.98299 0 1.277 0C0.571998 0 0 0.572 0 1.278C0 1.983 0.571998 2.555 1.277 2.555" transform="translate(267.0003 101.6447)" id="Fill-378" fill="#000000" stroke="none" />
      <path d="M1.278 2.555C1.984 2.555 2.556 1.983 2.556 1.278C2.556 0.572 1.984 0 1.278 0C0.572 0 0 0.572 0 1.278C0 1.983 0.572 2.555 1.278 2.555" transform="translate(281.3996 101.6447)" id="Fill-380" fill="#000000" stroke="none" />
      <path d="M1.278 2.556C1.983 2.556 2.555 1.984 2.555 1.278C2.555 0.573 1.983 0 1.278 0C0.572 0 0 0.573 0 1.278C0 1.984 0.572 2.556 1.278 2.556" transform="translate(0.5999 116.0441)" id="Fill-382" fill="#000000" stroke="none" />
      <path d="M1.277 2.556C1.983 2.556 2.555 1.984 2.555 1.278C2.555 0.573 1.983 0 1.277 0C0.572 0 0 0.573 0 1.278C0 1.984 0.572 2.556 1.277 2.556" transform="translate(15.0003 116.0441)" id="Fill-384" fill="#000000" stroke="none" />
      <path d="M1.278 2.556C1.984 2.556 2.556 1.984 2.556 1.278C2.556 0.573 1.984 0 1.278 0C0.572 0 0 0.573 0 1.278C0 1.984 0.572 2.556 1.278 2.556" transform="translate(29.3997 116.0441)" id="Fill-386" fill="#000000" stroke="none" />
      <path d="M1.278 2.556C1.983 2.556 2.555 1.984 2.555 1.278C2.555 0.573 1.983 0 1.278 0C0.572 0 0 0.573 0 1.278C0 1.984 0.572 2.556 1.278 2.556" transform="translate(43.8 116.0441)" id="Fill-388" fill="#000000" stroke="none" />
      <path d="M1.277 2.556C1.983 2.556 2.555 1.984 2.555 1.278C2.555 0.573 1.983 0 1.277 0C0.572 0 0 0.573 0 1.278C0 1.984 0.572 2.556 1.277 2.556" transform="translate(58.2005 116.0441)" id="Fill-390" fill="#000000" stroke="none" />
      <path d="M1.278 2.556C1.983 2.556 2.555 1.984 2.555 1.278C2.555 0.573 1.983 0 1.278 0C0.572 0 0 0.573 0 1.278C0 1.984 0.572 2.556 1.278 2.556" transform="translate(72.5999 116.0441)" id="Fill-392" fill="#000000" stroke="none" />
      <path d="M1.277 2.556C1.983 2.556 2.555 1.984 2.555 1.278C2.555 0.573 1.983 0 1.277 0C0.572 0 0 0.573 0 1.278C0 1.984 0.572 2.556 1.277 2.556" transform="translate(87.0003 116.0441)" id="Fill-394" fill="#000000" stroke="none" />
      <path d="M1.278 2.556C1.984 2.556 2.556 1.984 2.556 1.278C2.556 0.573 1.984 0 1.278 0C0.572 0 0 0.573 0 1.278C0 1.984 0.572 2.556 1.278 2.556" transform="translate(101.3997 116.0441)" id="Fill-396" fill="#000000" stroke="none" />
      <path d="M1.278 2.556C1.983 2.556 2.555 1.984 2.555 1.278C2.555 0.573 1.983 0 1.278 0C0.572 0 0 0.573 0 1.278C0 1.984 0.572 2.556 1.278 2.556" transform="translate(115.8 116.0441)" id="Fill-398" fill="#000000" stroke="none" />
      <path d="M1.277 2.556C1.98299 2.556 2.55499 1.984 2.55499 1.278C2.55499 0.573 1.98299 0 1.277 0C0.571998 0 0 0.573 0 1.278C0 1.984 0.571998 2.556 1.277 2.556" transform="translate(130.2005 116.0441)" id="Fill-400" fill="#000000" stroke="none" />
      <path d="M1.278 2.556C1.98299 2.556 2.55499 1.984 2.55499 1.278C2.55499 0.573 1.98299 0 1.278 0C0.571998 0 0 0.573 0 1.278C0 1.984 0.571998 2.556 1.278 2.556" transform="translate(144.5999 116.0441)" id="Fill-402" fill="#000000" stroke="none" />
      <path d="M1.277 2.556C1.98299 2.556 2.55499 1.984 2.55499 1.278C2.55499 0.573 1.98299 0 1.277 0C0.571998 0 0 0.573 0 1.278C0 1.984 0.571998 2.556 1.277 2.556" transform="translate(159.0003 116.0441)" id="Fill-404" fill="#000000" stroke="none" />
      <path d="M1.278 2.556C1.984 2.556 2.556 1.984 2.556 1.278C2.556 0.573 1.984 0 1.278 0C0.572 0 0 0.573 0 1.278C0 1.984 0.572 2.556 1.278 2.556" transform="translate(173.3997 116.0441)" id="Fill-406" fill="#000000" stroke="none" />
      <path d="M1.278 2.556C1.98299 2.556 2.55499 1.984 2.55499 1.278C2.55499 0.573 1.98299 0 1.278 0C0.571998 0 0 0.573 0 1.278C0 1.984 0.571998 2.556 1.278 2.556" transform="translate(187.8 116.0441)" id="Fill-408" fill="#000000" stroke="none" />
      <path d="M1.277 2.556C1.98299 2.556 2.55499 1.984 2.55499 1.278C2.55499 0.573 1.98299 0 1.277 0C0.571998 0 0 0.573 0 1.278C0 1.984 0.571998 2.556 1.277 2.556" transform="translate(202.2005 116.0441)" id="Fill-410" fill="#000000" stroke="none" />
      <path d="M1.278 2.556C1.98299 2.556 2.55499 1.984 2.55499 1.278C2.55499 0.573 1.98299 0 1.278 0C0.571998 0 0 0.573 0 1.278C0 1.984 0.571998 2.556 1.278 2.556" transform="translate(216.5999 116.0441)" id="Fill-412" fill="#000000" stroke="none" />
      <path d="M1.277 2.556C1.98299 2.556 2.55499 1.984 2.55499 1.278C2.55499 0.573 1.98299 0 1.277 0C0.571998 0 0 0.573 0 1.278C0 1.984 0.571998 2.556 1.277 2.556" transform="translate(231.0003 116.0441)" id="Fill-414" fill="#000000" stroke="none" />
      <path d="M1.278 2.556C1.984 2.556 2.556 1.984 2.556 1.278C2.556 0.573 1.984 0 1.278 0C0.572 0 0 0.573 0 1.278C0 1.984 0.572 2.556 1.278 2.556" transform="translate(245.3996 116.0441)" id="Fill-416" fill="#000000" stroke="none" />
      <path d="M1.278 2.556C1.98299 2.556 2.55499 1.984 2.55499 1.278C2.55499 0.573 1.98299 0 1.278 0C0.571998 0 0 0.573 0 1.278C0 1.984 0.571998 2.556 1.278 2.556" transform="translate(259.8 116.0441)" id="Fill-418" fill="#000000" stroke="none" />
      <path d="M1.277 2.556C1.98299 2.556 2.55499 1.984 2.55499 1.278C2.55499 0.573 1.98299 0 1.277 0C0.571998 0 0 0.573 0 1.278C0 1.984 0.571998 2.556 1.277 2.556" transform="translate(274.2004 116.0441)" id="Fill-420" fill="#000000" stroke="none" />
      <path d="M1.278 2.556C1.983 2.556 2.555 1.984 2.555 1.278C2.555 0.573 1.983 0 1.278 0C0.572 0 0 0.573 0 1.278C0 1.984 0.572 2.556 1.278 2.556" transform="translate(7.8 130.444)" id="Fill-422" fill="#000000" stroke="none" />
      <path d="M1.277 2.556C1.983 2.556 2.555 1.984 2.555 1.278C2.555 0.573 1.983 0 1.277 0C0.572 0 0 0.573 0 1.278C0 1.984 0.572 2.556 1.277 2.556" transform="translate(22.2005 130.444)" id="Fill-424" fill="#000000" stroke="none" />
      <path d="M1.278 2.556C1.983 2.556 2.555 1.984 2.555 1.278C2.555 0.573 1.983 0 1.278 0C0.572 0 0 0.573 0 1.278C0 1.984 0.572 2.556 1.278 2.556" transform="translate(36.5999 130.444)" id="Fill-426" fill="#000000" stroke="none" />
      <path d="M1.277 2.556C1.983 2.556 2.555 1.984 2.555 1.278C2.555 0.573 1.983 0 1.277 0C0.572 0 0 0.573 0 1.278C0 1.984 0.572 2.556 1.277 2.556" transform="translate(51.0003 130.444)" id="Fill-428" fill="#000000" stroke="none" />
      <path d="M1.278 2.556C1.984 2.556 2.556 1.984 2.556 1.278C2.556 0.573 1.984 0 1.278 0C0.572 0 0 0.573 0 1.278C0 1.984 0.572 2.556 1.278 2.556" transform="translate(65.3997 130.444)" id="Fill-430" fill="#000000" stroke="none" />
      <path d="M1.278 2.556C1.983 2.556 2.555 1.984 2.555 1.278C2.555 0.573 1.983 0 1.278 0C0.572 0 0 0.573 0 1.278C0 1.984 0.572 2.556 1.278 2.556" transform="translate(79.8 130.444)" id="Fill-432" fill="#000000" stroke="none" />
      <path d="M1.277 2.556C1.983 2.556 2.555 1.984 2.555 1.278C2.555 0.573 1.983 0 1.277 0C0.572 0 0 0.573 0 1.278C0 1.984 0.572 2.556 1.277 2.556" transform="translate(94.2005 130.444)" id="Fill-434" fill="#000000" stroke="none" />
      <path d="M1.278 2.556C1.983 2.556 2.555 1.984 2.555 1.278C2.555 0.573 1.983 0 1.278 0C0.572 0 0 0.573 0 1.278C0 1.984 0.572 2.556 1.278 2.556" transform="translate(108.5999 130.444)" id="Fill-436" fill="#000000" stroke="none" />
      <path d="M1.277 2.556C1.983 2.556 2.555 1.984 2.555 1.278C2.555 0.573 1.983 0 1.277 0C0.572 0 0 0.573 0 1.278C0 1.984 0.572 2.556 1.277 2.556" transform="translate(123.0003 130.444)" id="Fill-438" fill="#000000" stroke="none" />
      <path d="M1.278 2.556C1.984 2.556 2.556 1.984 2.556 1.278C2.556 0.573 1.984 0 1.278 0C0.572 0 0 0.573 0 1.278C0 1.984 0.572 2.556 1.278 2.556" transform="translate(137.3997 130.444)" id="Fill-440" fill="#000000" stroke="none" />
      <path d="M1.278 2.556C1.98299 2.556 2.55499 1.984 2.55499 1.278C2.55499 0.573 1.98299 0 1.278 0C0.571998 0 0 0.573 0 1.278C0 1.984 0.571998 2.556 1.278 2.556" transform="translate(151.8 130.444)" id="Fill-442" fill="#000000" stroke="none" />
      <path d="M1.277 2.556C1.98299 2.556 2.55499 1.984 2.55499 1.278C2.55499 0.573 1.98299 0 1.277 0C0.571998 0 0 0.573 0 1.278C0 1.984 0.571998 2.556 1.277 2.556" transform="translate(166.2005 130.444)" id="Fill-444" fill="#000000" stroke="none" />
      <path d="M1.278 2.556C1.98299 2.556 2.55499 1.984 2.55499 1.278C2.55499 0.573 1.98299 0 1.278 0C0.571998 0 0 0.573 0 1.278C0 1.984 0.571998 2.556 1.278 2.556" transform="translate(180.5999 130.444)" id="Fill-446" fill="#000000" stroke="none" />
      <path d="M1.277 2.556C1.98299 2.556 2.55499 1.984 2.55499 1.278C2.55499 0.573 1.98299 0 1.277 0C0.571998 0 0 0.573 0 1.278C0 1.984 0.571998 2.556 1.277 2.556" transform="translate(195.0003 130.444)" id="Fill-448" fill="#000000" stroke="none" />
      <path d="M1.278 2.556C1.984 2.556 2.556 1.984 2.556 1.278C2.556 0.573 1.984 0 1.278 0C0.572 0 0 0.573 0 1.278C0 1.984 0.572 2.556 1.278 2.556" transform="translate(209.3997 130.444)" id="Fill-450" fill="#000000" stroke="none" />
      <path d="M1.278 2.556C1.98299 2.556 2.55499 1.984 2.55499 1.278C2.55499 0.573 1.98299 0 1.278 0C0.571998 0 0 0.573 0 1.278C0 1.984 0.571998 2.556 1.278 2.556" transform="translate(223.8 130.444)" id="Fill-452" fill="#000000" stroke="none" />
      <path d="M1.277 2.556C1.98299 2.556 2.55499 1.984 2.55499 1.278C2.55499 0.573 1.98299 0 1.277 0C0.571998 0 0 0.573 0 1.278C0 1.984 0.571998 2.556 1.277 2.556" transform="translate(238.2004 130.444)" id="Fill-454" fill="#000000" stroke="none" />
      <path d="M1.278 2.556C1.98299 2.556 2.55499 1.984 2.55499 1.278C2.55499 0.573 1.98299 0 1.278 0C0.571998 0 0 0.573 0 1.278C0 1.984 0.571998 2.556 1.278 2.556" transform="translate(252.5998 130.444)" id="Fill-456" fill="#000000" stroke="none" />
      <path d="M1.277 2.556C1.98299 2.556 2.55499 1.984 2.55499 1.278C2.55499 0.573 1.98299 0 1.277 0C0.571998 0 0 0.573 0 1.278C0 1.984 0.571998 2.556 1.277 2.556" transform="translate(267.0003 130.444)" id="Fill-458" fill="#000000" stroke="none" />
      <path d="M1.278 2.556C1.984 2.556 2.556 1.984 2.556 1.278C2.556 0.573 1.984 0 1.278 0C0.572 0 0 0.573 0 1.278C0 1.984 0.572 2.556 1.278 2.556" transform="translate(281.3996 130.444)" id="Fill-460" fill="#000000" stroke="none" />
      <path d="M1.278 2.556C1.983 2.556 2.555 1.984 2.555 1.278C2.555 0.573 1.983 0 1.278 0C0.572 0 0 0.573 0 1.278C0 1.984 0.572 2.556 1.278 2.556" transform="translate(0.5999 144.8444)" id="Fill-462" fill="#000000" stroke="none" />
      <path d="M1.277 2.556C1.983 2.556 2.555 1.984 2.555 1.278C2.555 0.573 1.983 0 1.277 0C0.572 0 0 0.573 0 1.278C0 1.984 0.572 2.556 1.277 2.556" transform="translate(15.0003 144.8444)" id="Fill-464" fill="#000000" stroke="none" />
      <path d="M1.278 2.556C1.984 2.556 2.556 1.984 2.556 1.278C2.556 0.573 1.984 0 1.278 0C0.572 0 0 0.573 0 1.278C0 1.984 0.572 2.556 1.278 2.556" transform="translate(29.3997 144.8444)" id="Fill-466" fill="#000000" stroke="none" />
      <path d="M1.278 2.556C1.983 2.556 2.555 1.984 2.555 1.278C2.555 0.573 1.983 0 1.278 0C0.572 0 0 0.573 0 1.278C0 1.984 0.572 2.556 1.278 2.556" transform="translate(43.8 144.8444)" id="Fill-468" fill="#000000" stroke="none" />
      <path d="M1.277 2.556C1.983 2.556 2.555 1.984 2.555 1.278C2.555 0.573 1.983 0 1.277 0C0.572 0 0 0.573 0 1.278C0 1.984 0.572 2.556 1.277 2.556" transform="translate(58.2005 144.8444)" id="Fill-470" fill="#000000" stroke="none" />
      <path d="M1.278 2.556C1.983 2.556 2.555 1.984 2.555 1.278C2.555 0.573 1.983 0 1.278 0C0.572 0 0 0.573 0 1.278C0 1.984 0.572 2.556 1.278 2.556" transform="translate(72.5999 144.8444)" id="Fill-472" fill="#000000" stroke="none" />
      <path d="M1.277 2.556C1.983 2.556 2.555 1.984 2.555 1.278C2.555 0.573 1.983 0 1.277 0C0.572 0 0 0.573 0 1.278C0 1.984 0.572 2.556 1.277 2.556" transform="translate(87.0003 144.8444)" id="Fill-474" fill="#000000" stroke="none" />
      <path d="M1.278 2.556C1.984 2.556 2.556 1.984 2.556 1.278C2.556 0.573 1.984 0 1.278 0C0.572 0 0 0.573 0 1.278C0 1.984 0.572 2.556 1.278 2.556" transform="translate(101.3997 144.8444)" id="Fill-476" fill="#000000" stroke="none" />
      <path d="M1.278 2.556C1.983 2.556 2.555 1.984 2.555 1.278C2.555 0.573 1.983 0 1.278 0C0.572 0 0 0.573 0 1.278C0 1.984 0.572 2.556 1.278 2.556" transform="translate(115.8 144.8444)" id="Fill-478" fill="#000000" stroke="none" />
      <path d="M1.277 2.556C1.98299 2.556 2.55499 1.984 2.55499 1.278C2.55499 0.573 1.98299 0 1.277 0C0.571998 0 0 0.573 0 1.278C0 1.984 0.571998 2.556 1.277 2.556" transform="translate(130.2005 144.8444)" id="Fill-480" fill="#000000" stroke="none" />
      <path d="M1.278 2.556C1.98299 2.556 2.55499 1.984 2.55499 1.278C2.55499 0.573 1.98299 0 1.278 0C0.571998 0 0 0.573 0 1.278C0 1.984 0.571998 2.556 1.278 2.556" transform="translate(144.5999 144.8444)" id="Fill-482" fill="#000000" stroke="none" />
      <path d="M1.277 2.556C1.98299 2.556 2.55499 1.984 2.55499 1.278C2.55499 0.573 1.98299 0 1.277 0C0.571998 0 0 0.573 0 1.278C0 1.984 0.571998 2.556 1.277 2.556" transform="translate(159.0003 144.8444)" id="Fill-484" fill="#000000" stroke="none" />
      <path d="M1.278 2.556C1.984 2.556 2.556 1.984 2.556 1.278C2.556 0.573 1.984 0 1.278 0C0.572 0 0 0.573 0 1.278C0 1.984 0.572 2.556 1.278 2.556" transform="translate(173.3997 144.8444)" id="Fill-486" fill="#000000" stroke="none" />
      <path d="M1.278 2.556C1.98299 2.556 2.55499 1.984 2.55499 1.278C2.55499 0.573 1.98299 0 1.278 0C0.571998 0 0 0.573 0 1.278C0 1.984 0.571998 2.556 1.278 2.556" transform="translate(187.8 144.8444)" id="Fill-488" fill="#000000" stroke="none" />
      <path d="M1.277 2.556C1.98299 2.556 2.55499 1.984 2.55499 1.278C2.55499 0.573 1.98299 0 1.277 0C0.571998 0 0 0.573 0 1.278C0 1.984 0.571998 2.556 1.277 2.556" transform="translate(202.2005 144.8444)" id="Fill-490" fill="#000000" stroke="none" />
      <path d="M1.278 2.556C1.98299 2.556 2.55499 1.984 2.55499 1.278C2.55499 0.573 1.98299 0 1.278 0C0.571998 0 0 0.573 0 1.278C0 1.984 0.571998 2.556 1.278 2.556" transform="translate(216.5999 144.8444)" id="Fill-492" fill="#000000" stroke="none" />
      <path d="M1.277 2.556C1.98299 2.556 2.55499 1.984 2.55499 1.278C2.55499 0.573 1.98299 0 1.277 0C0.571998 0 0 0.573 0 1.278C0 1.984 0.571998 2.556 1.277 2.556" transform="translate(231.0003 144.8444)" id="Fill-494" fill="#000000" stroke="none" />
      <path d="M1.278 2.556C1.984 2.556 2.556 1.984 2.556 1.278C2.556 0.573 1.984 0 1.278 0C0.572 0 0 0.573 0 1.278C0 1.984 0.572 2.556 1.278 2.556" transform="translate(245.3996 144.8444)" id="Fill-496" fill="#000000" stroke="none" />
      <path d="M1.278 2.556C1.98299 2.556 2.55499 1.984 2.55499 1.278C2.55499 0.573 1.98299 0 1.278 0C0.571998 0 0 0.573 0 1.278C0 1.984 0.571998 2.556 1.278 2.556" transform="translate(259.8 144.8444)" id="Fill-498" fill="#000000" stroke="none" />
      <path d="M1.277 2.556C1.98299 2.556 2.55499 1.984 2.55499 1.278C2.55499 0.573 1.98299 0 1.277 0C0.571998 0 0 0.573 0 1.278C0 1.984 0.571998 2.556 1.277 2.556" transform="translate(274.2004 144.8444)" id="Fill-500" fill="#000000" stroke="none" />
      <path d="M1.278 2.55499C1.983 2.55499 2.555 1.98399 2.555 1.278C2.555 0.571998 1.983 0 1.278 0C0.572 0 0 0.571998 0 1.278C0 1.98399 0.572 2.55499 1.278 2.55499" transform="translate(7.8 159.2448)" id="Fill-502" fill="#000000" stroke="none" />
      <path d="M1.277 2.55499C1.983 2.55499 2.555 1.98399 2.555 1.278C2.555 0.571998 1.983 0 1.277 0C0.572 0 0 0.571998 0 1.278C0 1.98399 0.572 2.55499 1.277 2.55499" transform="translate(22.2005 159.2448)" id="Fill-504" fill="#000000" stroke="none" />
      <path d="M1.278 2.55499C1.983 2.55499 2.555 1.98399 2.555 1.278C2.555 0.571998 1.983 0 1.278 0C0.572 0 0 0.571998 0 1.278C0 1.98399 0.572 2.55499 1.278 2.55499" transform="translate(36.5999 159.2448)" id="Fill-506" fill="#000000" stroke="none" />
      <path d="M1.277 2.55499C1.983 2.55499 2.555 1.98399 2.555 1.278C2.555 0.571998 1.983 0 1.277 0C0.572 0 0 0.571998 0 1.278C0 1.98399 0.572 2.55499 1.277 2.55499" transform="translate(51.0003 159.2448)" id="Fill-508" fill="#000000" stroke="none" />
      <path d="M1.278 2.55499C1.984 2.55499 2.556 1.98399 2.556 1.278C2.556 0.571998 1.984 0 1.278 0C0.572 0 0 0.571998 0 1.278C0 1.98399 0.572 2.55499 1.278 2.55499" transform="translate(65.3997 159.2448)" id="Fill-510" fill="#000000" stroke="none" />
      <path d="M1.278 2.55499C1.983 2.55499 2.555 1.98399 2.555 1.278C2.555 0.571998 1.983 0 1.278 0C0.572 0 0 0.571998 0 1.278C0 1.98399 0.572 2.55499 1.278 2.55499" transform="translate(79.8 159.2448)" id="Fill-512" fill="#000000" stroke="none" />
      <path d="M1.277 2.55499C1.983 2.55499 2.555 1.98399 2.555 1.278C2.555 0.571998 1.983 0 1.277 0C0.572 0 0 0.571998 0 1.278C0 1.98399 0.572 2.55499 1.277 2.55499" transform="translate(94.2005 159.2448)" id="Fill-514" fill="#000000" stroke="none" />
      <path d="M1.278 2.55499C1.983 2.55499 2.555 1.98399 2.555 1.278C2.555 0.571998 1.983 0 1.278 0C0.572 0 0 0.571998 0 1.278C0 1.98399 0.572 2.55499 1.278 2.55499" transform="translate(108.5999 159.2448)" id="Fill-516" fill="#000000" stroke="none" />
      <path d="M1.277 2.55499C1.983 2.55499 2.555 1.98399 2.555 1.278C2.555 0.571998 1.983 0 1.277 0C0.572 0 0 0.571998 0 1.278C0 1.98399 0.572 2.55499 1.277 2.55499" transform="translate(123.0003 159.2448)" id="Fill-518" fill="#000000" stroke="none" />
      <path d="M1.278 2.55499C1.984 2.55499 2.556 1.98399 2.556 1.278C2.556 0.571998 1.984 0 1.278 0C0.572 0 0 0.571998 0 1.278C0 1.98399 0.572 2.55499 1.278 2.55499" transform="translate(137.3997 159.2448)" id="Fill-520" fill="#000000" stroke="none" />
      <path d="M1.278 2.55499C1.98299 2.55499 2.55499 1.98399 2.55499 1.278C2.55499 0.571998 1.98299 0 1.278 0C0.571998 0 0 0.571998 0 1.278C0 1.98399 0.571998 2.55499 1.278 2.55499" transform="translate(151.8 159.2448)" id="Fill-522" fill="#000000" stroke="none" />
      <path d="M1.277 2.55499C1.98299 2.55499 2.55499 1.98399 2.55499 1.278C2.55499 0.571998 1.98299 0 1.277 0C0.571998 0 0 0.571998 0 1.278C0 1.98399 0.571998 2.55499 1.277 2.55499" transform="translate(166.2005 159.2448)" id="Fill-524" fill="#000000" stroke="none" />
      <path d="M1.278 2.55499C1.98299 2.55499 2.55499 1.98399 2.55499 1.278C2.55499 0.571998 1.98299 0 1.278 0C0.571998 0 0 0.571998 0 1.278C0 1.98399 0.571998 2.55499 1.278 2.55499" transform="translate(180.5999 159.2448)" id="Fill-526" fill="#000000" stroke="none" />
      <path d="M1.277 2.55499C1.98299 2.55499 2.55499 1.98399 2.55499 1.278C2.55499 0.571998 1.98299 0 1.277 0C0.571998 0 0 0.571998 0 1.278C0 1.98399 0.571998 2.55499 1.277 2.55499" transform="translate(195.0003 159.2448)" id="Fill-528" fill="#000000" stroke="none" />
      <path d="M1.278 2.55499C1.984 2.55499 2.556 1.98399 2.556 1.278C2.556 0.571998 1.984 0 1.278 0C0.572 0 0 0.571998 0 1.278C0 1.98399 0.572 2.55499 1.278 2.55499" transform="translate(209.3997 159.2448)" id="Fill-530" fill="#000000" stroke="none" />
      <path d="M1.278 2.55499C1.98299 2.55499 2.55499 1.98399 2.55499 1.278C2.55499 0.571998 1.98299 0 1.278 0C0.571998 0 0 0.571998 0 1.278C0 1.98399 0.571998 2.55499 1.278 2.55499" transform="translate(223.8 159.2448)" id="Fill-532" fill="#000000" stroke="none" />
      <path d="M1.277 2.55499C1.98299 2.55499 2.55499 1.98399 2.55499 1.278C2.55499 0.571998 1.98299 0 1.277 0C0.571998 0 0 0.571998 0 1.278C0 1.98399 0.571998 2.55499 1.277 2.55499" transform="translate(238.2004 159.2448)" id="Fill-534" fill="#000000" stroke="none" />
      <path d="M1.278 2.55499C1.98299 2.55499 2.55499 1.98399 2.55499 1.278C2.55499 0.571998 1.98299 0 1.278 0C0.571998 0 0 0.571998 0 1.278C0 1.98399 0.571998 2.55499 1.278 2.55499" transform="translate(252.5998 159.2448)" id="Fill-536" fill="#000000" stroke="none" />
      <path d="M1.277 2.55499C1.98299 2.55499 2.55499 1.98399 2.55499 1.278C2.55499 0.571998 1.98299 0 1.277 0C0.571998 0 0 0.571998 0 1.278C0 1.98399 0.571998 2.55499 1.277 2.55499" transform="translate(267.0003 159.2448)" id="Fill-538" fill="#000000" stroke="none" />
      <path d="M1.278 2.55499C1.984 2.55499 2.556 1.98399 2.556 1.278C2.556 0.571998 1.984 0 1.278 0C0.572 0 0 0.571998 0 1.278C0 1.98399 0.572 2.55499 1.278 2.55499" transform="translate(281.3996 159.2448)" id="Fill-540" fill="#000000" stroke="none" />
      <path d="M1.278 2.556C1.983 2.556 2.555 1.984 2.555 1.279C2.555 0.573 1.983 0 1.278 0C0.572 0 0 0.573 0 1.279C0 1.984 0.572 2.556 1.278 2.556" transform="translate(0.5999 173.6442)" id="Fill-542" fill="#000000" stroke="none" />
      <path d="M1.277 2.556C1.983 2.556 2.555 1.984 2.555 1.279C2.555 0.573 1.983 0 1.277 0C0.572 0 0 0.573 0 1.279C0 1.984 0.572 2.556 1.277 2.556" transform="translate(15.0003 173.6442)" id="Fill-544" fill="#000000" stroke="none" />
      <path d="M1.278 2.556C1.984 2.556 2.556 1.984 2.556 1.279C2.556 0.573 1.984 0 1.278 0C0.572 0 0 0.573 0 1.279C0 1.984 0.572 2.556 1.278 2.556" transform="translate(29.3997 173.6442)" id="Fill-546" fill="#000000" stroke="none" />
      <path d="M1.278 2.556C1.983 2.556 2.555 1.984 2.555 1.279C2.555 0.573 1.983 0 1.278 0C0.572 0 0 0.573 0 1.279C0 1.984 0.572 2.556 1.278 2.556" transform="translate(43.8 173.6442)" id="Fill-548" fill="#000000" stroke="none" />
      <path d="M1.277 2.556C1.983 2.556 2.555 1.984 2.555 1.279C2.555 0.573 1.983 0 1.277 0C0.572 0 0 0.573 0 1.279C0 1.984 0.572 2.556 1.277 2.556" transform="translate(58.2005 173.6442)" id="Fill-550" fill="#000000" stroke="none" />
      <path d="M1.278 2.556C1.983 2.556 2.555 1.984 2.555 1.279C2.555 0.573 1.983 0 1.278 0C0.572 0 0 0.573 0 1.279C0 1.984 0.572 2.556 1.278 2.556" transform="translate(72.5999 173.6442)" id="Fill-552" fill="#000000" stroke="none" />
      <path d="M1.277 2.556C1.983 2.556 2.555 1.984 2.555 1.279C2.555 0.573 1.983 0 1.277 0C0.572 0 0 0.573 0 1.279C0 1.984 0.572 2.556 1.277 2.556" transform="translate(87.0003 173.6442)" id="Fill-554" fill="#000000" stroke="none" />
      <path d="M1.278 2.556C1.984 2.556 2.556 1.984 2.556 1.279C2.556 0.573 1.984 0 1.278 0C0.572 0 0 0.573 0 1.279C0 1.984 0.572 2.556 1.278 2.556" transform="translate(101.3997 173.6442)" id="Fill-556" fill="#000000" stroke="none" />
      <path d="M1.278 2.556C1.983 2.556 2.555 1.984 2.555 1.279C2.555 0.573 1.983 0 1.278 0C0.572 0 0 0.573 0 1.279C0 1.984 0.572 2.556 1.278 2.556" transform="translate(115.8 173.6442)" id="Fill-558" fill="#000000" stroke="none" />
      <path d="M1.277 2.556C1.98299 2.556 2.55499 1.984 2.55499 1.279C2.55499 0.573 1.98299 0 1.277 0C0.571998 0 0 0.573 0 1.279C0 1.984 0.571998 2.556 1.277 2.556" transform="translate(130.2005 173.6442)" id="Fill-560" fill="#000000" stroke="none" />
      <path d="M1.278 2.556C1.98299 2.556 2.55499 1.984 2.55499 1.279C2.55499 0.573 1.98299 0 1.278 0C0.571998 0 0 0.573 0 1.279C0 1.984 0.571998 2.556 1.278 2.556" transform="translate(144.5999 173.6442)" id="Fill-562" fill="#000000" stroke="none" />
      <path d="M1.277 2.556C1.98299 2.556 2.55499 1.984 2.55499 1.279C2.55499 0.573 1.98299 0 1.277 0C0.571998 0 0 0.573 0 1.279C0 1.984 0.571998 2.556 1.277 2.556" transform="translate(159.0003 173.6442)" id="Fill-564" fill="#000000" stroke="none" />
      <path d="M1.278 2.556C1.984 2.556 2.556 1.984 2.556 1.279C2.556 0.573 1.984 0 1.278 0C0.572 0 0 0.573 0 1.279C0 1.984 0.572 2.556 1.278 2.556" transform="translate(173.3997 173.6442)" id="Fill-566" fill="#000000" stroke="none" />
      <path d="M1.278 2.556C1.98299 2.556 2.55499 1.984 2.55499 1.279C2.55499 0.573 1.98299 0 1.278 0C0.571998 0 0 0.573 0 1.279C0 1.984 0.571998 2.556 1.278 2.556" transform="translate(187.8 173.6442)" id="Fill-568" fill="#000000" stroke="none" />
      <path d="M1.277 2.556C1.98299 2.556 2.55499 1.984 2.55499 1.279C2.55499 0.573 1.98299 0 1.277 0C0.571998 0 0 0.573 0 1.279C0 1.984 0.571998 2.556 1.277 2.556" transform="translate(202.2005 173.6442)" id="Fill-570" fill="#000000" stroke="none" />
      <path d="M1.278 2.556C1.98299 2.556 2.55499 1.984 2.55499 1.279C2.55499 0.573 1.98299 0 1.278 0C0.571998 0 0 0.573 0 1.279C0 1.984 0.571998 2.556 1.278 2.556" transform="translate(216.5999 173.6442)" id="Fill-572" fill="#000000" stroke="none" />
      <path d="M1.277 2.556C1.98299 2.556 2.55499 1.984 2.55499 1.279C2.55499 0.573 1.98299 0 1.277 0C0.571998 0 0 0.573 0 1.279C0 1.984 0.571998 2.556 1.277 2.556" transform="translate(231.0003 173.6442)" id="Fill-574" fill="#000000" stroke="none" />
      <path d="M1.278 2.556C1.984 2.556 2.556 1.984 2.556 1.279C2.556 0.573 1.984 0 1.278 0C0.572 0 0 0.573 0 1.279C0 1.984 0.572 2.556 1.278 2.556" transform="translate(245.3996 173.6442)" id="Fill-576" fill="#000000" stroke="none" />
      <path d="M1.278 2.556C1.98299 2.556 2.55499 1.984 2.55499 1.279C2.55499 0.573 1.98299 0 1.278 0C0.571998 0 0 0.573 0 1.279C0 1.984 0.571998 2.556 1.278 2.556" transform="translate(259.8 173.6442)" id="Fill-578" fill="#000000" stroke="none" />
      <path d="M1.277 2.556C1.98299 2.556 2.55499 1.984 2.55499 1.279C2.55499 0.573 1.98299 0 1.277 0C0.571998 0 0 0.573 0 1.279C0 1.984 0.571998 2.556 1.277 2.556" transform="translate(274.2004 173.6442)" id="Fill-580" fill="#000000" stroke="none" />
      <path d="M1.278 2.556C1.983 2.556 2.555 1.984 2.555 1.278C2.555 0.572 1.983 0 1.278 0C0.572 0 0 0.572 0 1.278C0 1.984 0.572 2.556 1.278 2.556" transform="translate(7.8 188.0446)" id="Fill-582" fill="#000000" stroke="none" />
      <path d="M1.277 2.556C1.983 2.556 2.555 1.984 2.555 1.278C2.555 0.572 1.983 0 1.277 0C0.572 0 0 0.572 0 1.278C0 1.984 0.572 2.556 1.277 2.556" transform="translate(22.2005 188.0446)" id="Fill-584" fill="#000000" stroke="none" />
      <path d="M1.278 2.556C1.983 2.556 2.555 1.984 2.555 1.278C2.555 0.572 1.983 0 1.278 0C0.572 0 0 0.572 0 1.278C0 1.984 0.572 2.556 1.278 2.556" transform="translate(36.5999 188.0446)" id="Fill-586" fill="#000000" stroke="none" />
      <path d="M1.277 2.556C1.983 2.556 2.555 1.984 2.555 1.278C2.555 0.572 1.983 0 1.277 0C0.572 0 0 0.572 0 1.278C0 1.984 0.572 2.556 1.277 2.556" transform="translate(51.0003 188.0446)" id="Fill-588" fill="#000000" stroke="none" />
      <path d="M1.278 2.556C1.984 2.556 2.556 1.984 2.556 1.278C2.556 0.572 1.984 0 1.278 0C0.572 0 0 0.572 0 1.278C0 1.984 0.572 2.556 1.278 2.556" transform="translate(65.3997 188.0446)" id="Fill-590" fill="#000000" stroke="none" />
      <path d="M1.278 2.556C1.983 2.556 2.555 1.984 2.555 1.278C2.555 0.572 1.983 0 1.278 0C0.572 0 0 0.572 0 1.278C0 1.984 0.572 2.556 1.278 2.556" transform="translate(79.8 188.0446)" id="Fill-592" fill="#000000" stroke="none" />
      <path d="M1.277 2.556C1.983 2.556 2.555 1.984 2.555 1.278C2.555 0.572 1.983 0 1.277 0C0.572 0 0 0.572 0 1.278C0 1.984 0.572 2.556 1.277 2.556" transform="translate(94.2005 188.0446)" id="Fill-594" fill="#000000" stroke="none" />
      <path d="M1.278 2.556C1.983 2.556 2.555 1.984 2.555 1.278C2.555 0.572 1.983 0 1.278 0C0.572 0 0 0.572 0 1.278C0 1.984 0.572 2.556 1.278 2.556" transform="translate(108.5999 188.0446)" id="Fill-596" fill="#000000" stroke="none" />
      <path d="M1.277 2.556C1.983 2.556 2.555 1.984 2.555 1.278C2.555 0.572 1.983 0 1.277 0C0.572 0 0 0.572 0 1.278C0 1.984 0.572 2.556 1.277 2.556" transform="translate(123.0003 188.0446)" id="Fill-598" fill="#000000" stroke="none" />
      <path d="M1.278 2.556C1.984 2.556 2.556 1.984 2.556 1.278C2.556 0.572 1.984 0 1.278 0C0.572 0 0 0.572 0 1.278C0 1.984 0.572 2.556 1.278 2.556" transform="translate(137.3997 188.0446)" id="Fill-600" fill="#000000" stroke="none" />
      <path d="M1.278 2.556C1.98299 2.556 2.55499 1.984 2.55499 1.278C2.55499 0.572 1.98299 0 1.278 0C0.571998 0 0 0.572 0 1.278C0 1.984 0.571998 2.556 1.278 2.556" transform="translate(151.8 188.0446)" id="Fill-602" fill="#000000" stroke="none" />
      <path d="M1.277 2.556C1.98299 2.556 2.55499 1.984 2.55499 1.278C2.55499 0.572 1.98299 0 1.277 0C0.571998 0 0 0.572 0 1.278C0 1.984 0.571998 2.556 1.277 2.556" transform="translate(166.2005 188.0446)" id="Fill-604" fill="#000000" stroke="none" />
      <path d="M1.278 2.556C1.98299 2.556 2.55499 1.984 2.55499 1.278C2.55499 0.572 1.98299 0 1.278 0C0.571998 0 0 0.572 0 1.278C0 1.984 0.571998 2.556 1.278 2.556" transform="translate(180.5999 188.0446)" id="Fill-606" fill="#000000" stroke="none" />
      <path d="M1.277 2.556C1.98299 2.556 2.55499 1.984 2.55499 1.278C2.55499 0.572 1.98299 0 1.277 0C0.571998 0 0 0.572 0 1.278C0 1.984 0.571998 2.556 1.277 2.556" transform="translate(195.0003 188.0446)" id="Fill-608" fill="#000000" stroke="none" />
      <path d="M1.278 2.556C1.984 2.556 2.556 1.984 2.556 1.278C2.556 0.572 1.984 0 1.278 0C0.572 0 0 0.572 0 1.278C0 1.984 0.572 2.556 1.278 2.556" transform="translate(209.3997 188.0446)" id="Fill-610" fill="#000000" stroke="none" />
      <path d="M1.278 2.556C1.98299 2.556 2.55499 1.984 2.55499 1.278C2.55499 0.572 1.98299 0 1.278 0C0.571998 0 0 0.572 0 1.278C0 1.984 0.571998 2.556 1.278 2.556" transform="translate(223.8 188.0446)" id="Fill-612" fill="#000000" stroke="none" />
      <path d="M1.277 2.556C1.98299 2.556 2.55499 1.984 2.55499 1.278C2.55499 0.572 1.98299 0 1.277 0C0.571998 0 0 0.572 0 1.278C0 1.984 0.571998 2.556 1.277 2.556" transform="translate(238.2004 188.0446)" id="Fill-614" fill="#000000" stroke="none" />
      <path d="M1.278 2.556C1.98299 2.556 2.55499 1.984 2.55499 1.278C2.55499 0.572 1.98299 0 1.278 0C0.571998 0 0 0.572 0 1.278C0 1.984 0.571998 2.556 1.278 2.556" transform="translate(252.5998 188.0446)" id="Fill-616" fill="#000000" stroke="none" />
      <path d="M1.277 2.556C1.98299 2.556 2.55499 1.984 2.55499 1.278C2.55499 0.572 1.98299 0 1.277 0C0.571998 0 0 0.572 0 1.278C0 1.984 0.571998 2.556 1.277 2.556" transform="translate(267.0003 188.0446)" id="Fill-618" fill="#000000" stroke="none" />
      <path d="M1.278 2.556C1.984 2.556 2.556 1.984 2.556 1.278C2.556 0.572 1.984 0 1.278 0C0.572 0 0 0.572 0 1.278C0 1.984 0.572 2.556 1.278 2.556" transform="translate(281.3996 188.0446)" id="Fill-620" fill="#000000" stroke="none" />
      <path d="M1.278 2.556C1.983 2.556 2.555 1.984 2.555 1.279C2.555 0.573 1.983 0 1.278 0C0.572 0 0 0.573 0 1.279C0 1.984 0.572 2.556 1.278 2.556" transform="translate(0.5999 202.444)" id="Fill-622" fill="#000000" stroke="none" />
      <path d="M1.277 2.556C1.983 2.556 2.555 1.984 2.555 1.279C2.555 0.573 1.983 0 1.277 0C0.572 0 0 0.573 0 1.279C0 1.984 0.572 2.556 1.277 2.556" transform="translate(15.0003 202.444)" id="Fill-624" fill="#000000" stroke="none" />
      <path d="M1.278 2.556C1.984 2.556 2.556 1.984 2.556 1.279C2.556 0.573 1.984 0 1.278 0C0.572 0 0 0.573 0 1.279C0 1.984 0.572 2.556 1.278 2.556" transform="translate(29.3997 202.444)" id="Fill-626" fill="#000000" stroke="none" />
      <path d="M1.278 2.556C1.983 2.556 2.555 1.984 2.555 1.279C2.555 0.573 1.983 0 1.278 0C0.572 0 0 0.573 0 1.279C0 1.984 0.572 2.556 1.278 2.556" transform="translate(43.8 202.444)" id="Fill-628" fill="#000000" stroke="none" />
      <path d="M1.277 2.556C1.983 2.556 2.555 1.984 2.555 1.279C2.555 0.573 1.983 0 1.277 0C0.572 0 0 0.573 0 1.279C0 1.984 0.572 2.556 1.277 2.556" transform="translate(58.2005 202.444)" id="Fill-630" fill="#000000" stroke="none" />
      <path d="M1.278 2.556C1.983 2.556 2.555 1.984 2.555 1.279C2.555 0.573 1.983 0 1.278 0C0.572 0 0 0.573 0 1.279C0 1.984 0.572 2.556 1.278 2.556" transform="translate(72.5999 202.444)" id="Fill-632" fill="#000000" stroke="none" />
      <path d="M1.277 2.556C1.983 2.556 2.555 1.984 2.555 1.279C2.555 0.573 1.983 0 1.277 0C0.572 0 0 0.573 0 1.279C0 1.984 0.572 2.556 1.277 2.556" transform="translate(87.0003 202.444)" id="Fill-634" fill="#000000" stroke="none" />
      <path d="M1.278 2.556C1.984 2.556 2.556 1.984 2.556 1.279C2.556 0.573 1.984 0 1.278 0C0.572 0 0 0.573 0 1.279C0 1.984 0.572 2.556 1.278 2.556" transform="translate(101.3997 202.444)" id="Fill-636" fill="#000000" stroke="none" />
      <path d="M1.278 2.556C1.983 2.556 2.555 1.984 2.555 1.279C2.555 0.573 1.983 0 1.278 0C0.572 0 0 0.573 0 1.279C0 1.984 0.572 2.556 1.278 2.556" transform="translate(115.8 202.444)" id="Fill-638" fill="#000000" stroke="none" />
      <path d="M1.277 2.556C1.98299 2.556 2.55499 1.984 2.55499 1.279C2.55499 0.573 1.98299 0 1.277 0C0.571998 0 0 0.573 0 1.279C0 1.984 0.571998 2.556 1.277 2.556" transform="translate(130.2005 202.444)" id="Fill-640" fill="#000000" stroke="none" />
      <path d="M1.278 2.556C1.98299 2.556 2.55499 1.984 2.55499 1.279C2.55499 0.573 1.98299 0 1.278 0C0.571998 0 0 0.573 0 1.279C0 1.984 0.571998 2.556 1.278 2.556" transform="translate(144.5999 202.444)" id="Fill-642" fill="#000000" stroke="none" />
      <path d="M1.277 2.556C1.98299 2.556 2.55499 1.984 2.55499 1.279C2.55499 0.573 1.98299 0 1.277 0C0.571998 0 0 0.573 0 1.279C0 1.984 0.571998 2.556 1.277 2.556" transform="translate(159.0003 202.444)" id="Fill-644" fill="#000000" stroke="none" />
      <path d="M1.278 2.556C1.984 2.556 2.556 1.984 2.556 1.279C2.556 0.573 1.984 0 1.278 0C0.572 0 0 0.573 0 1.279C0 1.984 0.572 2.556 1.278 2.556" transform="translate(173.3997 202.444)" id="Fill-646" fill="#000000" stroke="none" />
      <path d="M1.278 2.556C1.98299 2.556 2.55499 1.984 2.55499 1.279C2.55499 0.573 1.98299 0 1.278 0C0.571998 0 0 0.573 0 1.279C0 1.984 0.571998 2.556 1.278 2.556" transform="translate(187.8 202.444)" id="Fill-648" fill="#000000" stroke="none" />
      <path d="M1.277 2.556C1.98299 2.556 2.55499 1.984 2.55499 1.279C2.55499 0.573 1.98299 0 1.277 0C0.571998 0 0 0.573 0 1.279C0 1.984 0.571998 2.556 1.277 2.556" transform="translate(202.2005 202.444)" id="Fill-650" fill="#000000" stroke="none" />
      <path d="M1.278 2.556C1.98299 2.556 2.55499 1.984 2.55499 1.279C2.55499 0.573 1.98299 0 1.278 0C0.571998 0 0 0.573 0 1.279C0 1.984 0.571998 2.556 1.278 2.556" transform="translate(216.5999 202.444)" id="Fill-652" fill="#000000" stroke="none" />
      <path d="M1.277 2.556C1.98299 2.556 2.55499 1.984 2.55499 1.279C2.55499 0.573 1.98299 0 1.277 0C0.571998 0 0 0.573 0 1.279C0 1.984 0.571998 2.556 1.277 2.556" transform="translate(231.0003 202.444)" id="Fill-654" fill="#000000" stroke="none" />
      <path d="M1.278 2.556C1.984 2.556 2.556 1.984 2.556 1.279C2.556 0.573 1.984 0 1.278 0C0.572 0 0 0.573 0 1.279C0 1.984 0.572 2.556 1.278 2.556" transform="translate(245.3996 202.444)" id="Fill-656" fill="#000000" stroke="none" />
      <path d="M1.278 2.556C1.98299 2.556 2.55499 1.984 2.55499 1.279C2.55499 0.573 1.98299 0 1.278 0C0.571998 0 0 0.573 0 1.279C0 1.984 0.571998 2.556 1.278 2.556" transform="translate(259.8 202.444)" id="Fill-658" fill="#000000" stroke="none" />
      <path d="M1.277 2.556C1.98299 2.556 2.55499 1.984 2.55499 1.279C2.55499 0.573 1.98299 0 1.277 0C0.571998 0 0 0.573 0 1.279C0 1.984 0.571998 2.556 1.277 2.556" transform="translate(274.2004 202.444)" id="Fill-660" fill="#000000" stroke="none" />
      <path d="M1.278 2.556C1.983 2.556 2.555 1.984 2.555 1.278C2.555 0.573 1.983 0 1.278 0C0.572 0 0 0.573 0 1.278C0 1.984 0.572 2.556 1.278 2.556" transform="translate(7.8 216.8444)" id="Fill-662" fill="#000000" stroke="none" />
      <path d="M1.277 2.556C1.983 2.556 2.555 1.984 2.555 1.278C2.555 0.573 1.983 0 1.277 0C0.572 0 0 0.573 0 1.278C0 1.984 0.572 2.556 1.277 2.556" transform="translate(22.2005 216.8444)" id="Fill-664" fill="#000000" stroke="none" />
      <path d="M1.278 2.556C1.983 2.556 2.555 1.984 2.555 1.278C2.555 0.573 1.983 0 1.278 0C0.572 0 0 0.573 0 1.278C0 1.984 0.572 2.556 1.278 2.556" transform="translate(36.5999 216.8444)" id="Fill-666" fill="#000000" stroke="none" />
      <path d="M1.277 2.556C1.983 2.556 2.555 1.984 2.555 1.278C2.555 0.573 1.983 0 1.277 0C0.572 0 0 0.573 0 1.278C0 1.984 0.572 2.556 1.277 2.556" transform="translate(51.0003 216.8444)" id="Fill-668" fill="#000000" stroke="none" />
      <path d="M1.278 2.556C1.984 2.556 2.556 1.984 2.556 1.278C2.556 0.573 1.984 0 1.278 0C0.572 0 0 0.573 0 1.278C0 1.984 0.572 2.556 1.278 2.556" transform="translate(65.3997 216.8444)" id="Fill-670" fill="#000000" stroke="none" />
      <path d="M1.278 2.556C1.983 2.556 2.555 1.984 2.555 1.278C2.555 0.573 1.983 0 1.278 0C0.572 0 0 0.573 0 1.278C0 1.984 0.572 2.556 1.278 2.556" transform="translate(79.8 216.8444)" id="Fill-672" fill="#000000" stroke="none" />
      <path d="M1.277 2.556C1.983 2.556 2.555 1.984 2.555 1.278C2.555 0.573 1.983 0 1.277 0C0.572 0 0 0.573 0 1.278C0 1.984 0.572 2.556 1.277 2.556" transform="translate(94.2005 216.8444)" id="Fill-674" fill="#000000" stroke="none" />
      <path d="M1.278 2.556C1.983 2.556 2.555 1.984 2.555 1.278C2.555 0.573 1.983 0 1.278 0C0.572 0 0 0.573 0 1.278C0 1.984 0.572 2.556 1.278 2.556" transform="translate(108.5999 216.8444)" id="Fill-676" fill="#000000" stroke="none" />
      <path d="M1.277 2.556C1.983 2.556 2.555 1.984 2.555 1.278C2.555 0.573 1.983 0 1.277 0C0.572 0 0 0.573 0 1.278C0 1.984 0.572 2.556 1.277 2.556" transform="translate(123.0003 216.8444)" id="Fill-678" fill="#000000" stroke="none" />
      <path d="M1.278 2.556C1.984 2.556 2.556 1.984 2.556 1.278C2.556 0.573 1.984 0 1.278 0C0.572 0 0 0.573 0 1.278C0 1.984 0.572 2.556 1.278 2.556" transform="translate(137.3997 216.8444)" id="Fill-680" fill="#000000" stroke="none" />
      <path d="M1.278 2.556C1.98299 2.556 2.55499 1.984 2.55499 1.278C2.55499 0.573 1.98299 0 1.278 0C0.571998 0 0 0.573 0 1.278C0 1.984 0.571998 2.556 1.278 2.556" transform="translate(151.8 216.8444)" id="Fill-682" fill="#000000" stroke="none" />
      <path d="M1.277 2.556C1.98299 2.556 2.55499 1.984 2.55499 1.278C2.55499 0.573 1.98299 0 1.277 0C0.571998 0 0 0.573 0 1.278C0 1.984 0.571998 2.556 1.277 2.556" transform="translate(166.2005 216.8444)" id="Fill-684" fill="#000000" stroke="none" />
      <path d="M1.278 2.556C1.98299 2.556 2.55499 1.984 2.55499 1.278C2.55499 0.573 1.98299 0 1.278 0C0.571998 0 0 0.573 0 1.278C0 1.984 0.571998 2.556 1.278 2.556" transform="translate(180.5999 216.8444)" id="Fill-686" fill="#000000" stroke="none" />
      <path d="M1.277 2.556C1.98299 2.556 2.55499 1.984 2.55499 1.278C2.55499 0.573 1.98299 0 1.277 0C0.571998 0 0 0.573 0 1.278C0 1.984 0.571998 2.556 1.277 2.556" transform="translate(195.0003 216.8444)" id="Fill-688" fill="#000000" stroke="none" />
      <path d="M1.278 2.556C1.984 2.556 2.556 1.984 2.556 1.278C2.556 0.573 1.984 0 1.278 0C0.572 0 0 0.573 0 1.278C0 1.984 0.572 2.556 1.278 2.556" transform="translate(209.3997 216.8444)" id="Fill-690" fill="#000000" stroke="none" />
      <path d="M1.278 2.556C1.98299 2.556 2.55499 1.984 2.55499 1.278C2.55499 0.573 1.98299 0 1.278 0C0.571998 0 0 0.573 0 1.278C0 1.984 0.571998 2.556 1.278 2.556" transform="translate(223.8 216.8444)" id="Fill-692" fill="#000000" stroke="none" />
      <path d="M1.277 2.556C1.98299 2.556 2.55499 1.984 2.55499 1.278C2.55499 0.573 1.98299 0 1.277 0C0.571998 0 0 0.573 0 1.278C0 1.984 0.571998 2.556 1.277 2.556" transform="translate(238.2004 216.8444)" id="Fill-694" fill="#000000" stroke="none" />
      <path d="M1.278 2.556C1.98299 2.556 2.55499 1.984 2.55499 1.278C2.55499 0.573 1.98299 0 1.278 0C0.571998 0 0 0.573 0 1.278C0 1.984 0.571998 2.556 1.278 2.556" transform="translate(252.5998 216.8444)" id="Fill-696" fill="#000000" stroke="none" />
      <path d="M1.277 2.556C1.98299 2.556 2.55499 1.984 2.55499 1.278C2.55499 0.573 1.98299 0 1.277 0C0.571998 0 0 0.573 0 1.278C0 1.984 0.571998 2.556 1.277 2.556" transform="translate(267.0003 216.8444)" id="Fill-698" fill="#000000" stroke="none" />
      <path d="M1.278 2.556C1.984 2.556 2.556 1.984 2.556 1.278C2.556 0.573 1.984 0 1.278 0C0.572 0 0 0.573 0 1.278C0 1.984 0.572 2.556 1.278 2.556" transform="translate(281.3996 216.8444)" id="Fill-700" fill="#000000" stroke="none" />
      <path d="M1.278 2.55499C1.983 2.55499 2.555 1.98399 2.555 1.278C2.555 0.571998 1.983 0 1.278 0C0.572 0 0 0.571998 0 1.278C0 1.98399 0.572 2.55499 1.278 2.55499" transform="translate(0.5999 231.2448)" id="Fill-702" fill="#000000" stroke="none" />
      <path d="M1.277 2.55499C1.983 2.55499 2.555 1.98399 2.555 1.278C2.555 0.571998 1.983 0 1.277 0C0.572 0 0 0.571998 0 1.278C0 1.98399 0.572 2.55499 1.277 2.55499" transform="translate(15.0003 231.2448)" id="Fill-704" fill="#000000" stroke="none" />
      <path d="M1.278 2.55499C1.984 2.55499 2.556 1.98399 2.556 1.278C2.556 0.571998 1.984 0 1.278 0C0.572 0 0 0.571998 0 1.278C0 1.98399 0.572 2.55499 1.278 2.55499" transform="translate(29.3997 231.2448)" id="Fill-706" fill="#000000" stroke="none" />
      <path d="M1.278 2.55499C1.983 2.55499 2.555 1.98399 2.555 1.278C2.555 0.571998 1.983 0 1.278 0C0.572 0 0 0.571998 0 1.278C0 1.98399 0.572 2.55499 1.278 2.55499" transform="translate(43.8 231.2448)" id="Fill-708" fill="#000000" stroke="none" />
      <path d="M1.277 2.55499C1.983 2.55499 2.555 1.98399 2.555 1.278C2.555 0.571998 1.983 0 1.277 0C0.572 0 0 0.571998 0 1.278C0 1.98399 0.572 2.55499 1.277 2.55499" transform="translate(58.2005 231.2448)" id="Fill-710" fill="#000000" stroke="none" />
      <path d="M1.278 2.55499C1.983 2.55499 2.555 1.98399 2.555 1.278C2.555 0.571998 1.983 0 1.278 0C0.572 0 0 0.571998 0 1.278C0 1.98399 0.572 2.55499 1.278 2.55499" transform="translate(72.5999 231.2448)" id="Fill-712" fill="#000000" stroke="none" />
      <path d="M1.277 2.55499C1.983 2.55499 2.555 1.98399 2.555 1.278C2.555 0.571998 1.983 0 1.277 0C0.572 0 0 0.571998 0 1.278C0 1.98399 0.572 2.55499 1.277 2.55499" transform="translate(87.0003 231.2448)" id="Fill-714" fill="#000000" stroke="none" />
      <path d="M1.278 2.55499C1.984 2.55499 2.556 1.98399 2.556 1.278C2.556 0.571998 1.984 0 1.278 0C0.572 0 0 0.571998 0 1.278C0 1.98399 0.572 2.55499 1.278 2.55499" transform="translate(101.3997 231.2448)" id="Fill-716" fill="#000000" stroke="none" />
      <path d="M1.278 2.55499C1.983 2.55499 2.555 1.98399 2.555 1.278C2.555 0.571998 1.983 0 1.278 0C0.572 0 0 0.571998 0 1.278C0 1.98399 0.572 2.55499 1.278 2.55499" transform="translate(115.8 231.2448)" id="Fill-718" fill="#000000" stroke="none" />
      <path d="M1.277 2.55499C1.98299 2.55499 2.55499 1.98399 2.55499 1.278C2.55499 0.571998 1.98299 0 1.277 0C0.571998 0 0 0.571998 0 1.278C0 1.98399 0.571998 2.55499 1.277 2.55499" transform="translate(130.2005 231.2448)" id="Fill-720" fill="#000000" stroke="none" />
      <path d="M1.278 2.55499C1.98299 2.55499 2.55499 1.98399 2.55499 1.278C2.55499 0.571998 1.98299 0 1.278 0C0.571998 0 0 0.571998 0 1.278C0 1.98399 0.571998 2.55499 1.278 2.55499" transform="translate(144.5999 231.2448)" id="Fill-722" fill="#000000" stroke="none" />
      <path d="M1.277 2.55499C1.98299 2.55499 2.55499 1.98399 2.55499 1.278C2.55499 0.571998 1.98299 0 1.277 0C0.571998 0 0 0.571998 0 1.278C0 1.98399 0.571998 2.55499 1.277 2.55499" transform="translate(159.0003 231.2448)" id="Fill-724" fill="#000000" stroke="none" />
      <path d="M1.278 2.55499C1.984 2.55499 2.556 1.98399 2.556 1.278C2.556 0.571998 1.984 0 1.278 0C0.572 0 0 0.571998 0 1.278C0 1.98399 0.572 2.55499 1.278 2.55499" transform="translate(173.3997 231.2448)" id="Fill-726" fill="#000000" stroke="none" />
      <path d="M1.278 2.55499C1.98299 2.55499 2.55499 1.98399 2.55499 1.278C2.55499 0.571998 1.98299 0 1.278 0C0.571998 0 0 0.571998 0 1.278C0 1.98399 0.571998 2.55499 1.278 2.55499" transform="translate(187.8 231.2448)" id="Fill-728" fill="#000000" stroke="none" />
      <path d="M1.277 2.55499C1.98299 2.55499 2.55499 1.98399 2.55499 1.278C2.55499 0.571998 1.98299 0 1.277 0C0.571998 0 0 0.571998 0 1.278C0 1.98399 0.571998 2.55499 1.277 2.55499" transform="translate(202.2005 231.2448)" id="Fill-730" fill="#000000" stroke="none" />
      <path d="M1.278 2.55499C1.98299 2.55499 2.55499 1.98399 2.55499 1.278C2.55499 0.571998 1.98299 0 1.278 0C0.571998 0 0 0.571998 0 1.278C0 1.98399 0.571998 2.55499 1.278 2.55499" transform="translate(216.5999 231.2448)" id="Fill-732" fill="#000000" stroke="none" />
      <path d="M1.277 2.55499C1.98299 2.55499 2.55499 1.98399 2.55499 1.278C2.55499 0.571998 1.98299 0 1.277 0C0.571998 0 0 0.571998 0 1.278C0 1.98399 0.571998 2.55499 1.277 2.55499" transform="translate(231.0003 231.2448)" id="Fill-734" fill="#000000" stroke="none" />
      <path d="M1.278 2.55499C1.984 2.55499 2.556 1.98399 2.556 1.278C2.556 0.571998 1.984 0 1.278 0C0.572 0 0 0.571998 0 1.278C0 1.98399 0.572 2.55499 1.278 2.55499" transform="translate(245.3996 231.2448)" id="Fill-736" fill="#000000" stroke="none" />
      <path d="M1.278 2.55499C1.98299 2.55499 2.55499 1.98399 2.55499 1.278C2.55499 0.571998 1.98299 0 1.278 0C0.571998 0 0 0.571998 0 1.278C0 1.98399 0.571998 2.55499 1.278 2.55499" transform="translate(259.8 231.2448)" id="Fill-738" fill="#000000" stroke="none" />
      <path d="M1.277 2.55499C1.98299 2.55499 2.55499 1.98399 2.55499 1.278C2.55499 0.571998 1.98299 0 1.277 0C0.571998 0 0 0.571998 0 1.278C0 1.98399 0.571998 2.55499 1.277 2.55499" transform="translate(274.2004 231.2448)" id="Fill-740" fill="#000000" stroke="none" />
      <path d="M1.278 2.556C1.983 2.556 2.555 1.984 2.555 1.279C2.555 0.573 1.983 0 1.278 0C0.572 0 0 0.573 0 1.279C0 1.984 0.572 2.556 1.278 2.556" transform="translate(7.8 245.6442)" id="Fill-742" fill="#000000" stroke="none" />
      <path d="M1.277 2.556C1.983 2.556 2.555 1.984 2.555 1.279C2.555 0.573 1.983 0 1.277 0C0.572 0 0 0.573 0 1.279C0 1.984 0.572 2.556 1.277 2.556" transform="translate(22.2005 245.6442)" id="Fill-744" fill="#000000" stroke="none" />
      <path d="M1.278 2.556C1.983 2.556 2.555 1.984 2.555 1.279C2.555 0.573 1.983 0 1.278 0C0.572 0 0 0.573 0 1.279C0 1.984 0.572 2.556 1.278 2.556" transform="translate(36.5999 245.6442)" id="Fill-746" fill="#000000" stroke="none" />
      <path d="M1.277 2.556C1.983 2.556 2.555 1.984 2.555 1.279C2.555 0.573 1.983 0 1.277 0C0.572 0 0 0.573 0 1.279C0 1.984 0.572 2.556 1.277 2.556" transform="translate(51.0003 245.6442)" id="Fill-748" fill="#000000" stroke="none" />
      <path d="M1.278 2.556C1.984 2.556 2.556 1.984 2.556 1.279C2.556 0.573 1.984 0 1.278 0C0.572 0 0 0.573 0 1.279C0 1.984 0.572 2.556 1.278 2.556" transform="translate(65.3997 245.6442)" id="Fill-750" fill="#000000" stroke="none" />
      <path d="M1.278 2.556C1.983 2.556 2.555 1.984 2.555 1.279C2.555 0.573 1.983 0 1.278 0C0.572 0 0 0.573 0 1.279C0 1.984 0.572 2.556 1.278 2.556" transform="translate(79.8 245.6442)" id="Fill-752" fill="#000000" stroke="none" />
      <path d="M1.277 2.556C1.983 2.556 2.555 1.984 2.555 1.279C2.555 0.573 1.983 0 1.277 0C0.572 0 0 0.573 0 1.279C0 1.984 0.572 2.556 1.277 2.556" transform="translate(94.2005 245.6442)" id="Fill-754" fill="#000000" stroke="none" />
      <path d="M1.278 2.556C1.983 2.556 2.555 1.984 2.555 1.279C2.555 0.573 1.983 0 1.278 0C0.572 0 0 0.573 0 1.279C0 1.984 0.572 2.556 1.278 2.556" transform="translate(108.5999 245.6442)" id="Fill-756" fill="#000000" stroke="none" />
      <path d="M1.277 2.556C1.983 2.556 2.555 1.984 2.555 1.279C2.555 0.573 1.983 0 1.277 0C0.572 0 0 0.573 0 1.279C0 1.984 0.572 2.556 1.277 2.556" transform="translate(123.0003 245.6442)" id="Fill-758" fill="#000000" stroke="none" />
      <path d="M1.278 2.556C1.984 2.556 2.556 1.984 2.556 1.279C2.556 0.573 1.984 0 1.278 0C0.572 0 0 0.573 0 1.279C0 1.984 0.572 2.556 1.278 2.556" transform="translate(137.3997 245.6442)" id="Fill-760" fill="#000000" stroke="none" />
      <path d="M1.278 2.556C1.98299 2.556 2.55499 1.984 2.55499 1.279C2.55499 0.573 1.98299 0 1.278 0C0.571998 0 0 0.573 0 1.279C0 1.984 0.571998 2.556 1.278 2.556" transform="translate(151.8 245.6442)" id="Fill-762" fill="#000000" stroke="none" />
      <path d="M1.277 2.556C1.98299 2.556 2.55499 1.984 2.55499 1.279C2.55499 0.573 1.98299 0 1.277 0C0.571998 0 0 0.573 0 1.279C0 1.984 0.571998 2.556 1.277 2.556" transform="translate(166.2005 245.6442)" id="Fill-764" fill="#000000" stroke="none" />
      <path d="M1.278 2.556C1.98299 2.556 2.55499 1.984 2.55499 1.279C2.55499 0.573 1.98299 0 1.278 0C0.571998 0 0 0.573 0 1.279C0 1.984 0.571998 2.556 1.278 2.556" transform="translate(180.5999 245.6442)" id="Fill-766" fill="#000000" stroke="none" />
      <path d="M1.277 2.556C1.98299 2.556 2.55499 1.984 2.55499 1.279C2.55499 0.573 1.98299 0 1.277 0C0.571998 0 0 0.573 0 1.279C0 1.984 0.571998 2.556 1.277 2.556" transform="translate(195.0003 245.6442)" id="Fill-768" fill="#000000" stroke="none" />
      <path d="M1.278 2.556C1.984 2.556 2.556 1.984 2.556 1.279C2.556 0.573 1.984 0 1.278 0C0.572 0 0 0.573 0 1.279C0 1.984 0.572 2.556 1.278 2.556" transform="translate(209.3997 245.6442)" id="Fill-770" fill="#000000" stroke="none" />
      <path d="M1.278 2.556C1.98299 2.556 2.55499 1.984 2.55499 1.279C2.55499 0.573 1.98299 0 1.278 0C0.571998 0 0 0.573 0 1.279C0 1.984 0.571998 2.556 1.278 2.556" transform="translate(223.8 245.6442)" id="Fill-772" fill="#000000" stroke="none" />
      <path d="M1.277 2.556C1.98299 2.556 2.55499 1.984 2.55499 1.279C2.55499 0.573 1.98299 0 1.277 0C0.571998 0 0 0.573 0 1.279C0 1.984 0.571998 2.556 1.277 2.556" transform="translate(238.2004 245.6442)" id="Fill-774" fill="#000000" stroke="none" />
      <path d="M1.278 2.556C1.98299 2.556 2.55499 1.984 2.55499 1.279C2.55499 0.573 1.98299 0 1.278 0C0.571998 0 0 0.573 0 1.279C0 1.984 0.571998 2.556 1.278 2.556" transform="translate(252.5998 245.6442)" id="Fill-776" fill="#000000" stroke="none" />
      <path d="M1.277 2.556C1.98299 2.556 2.55499 1.984 2.55499 1.279C2.55499 0.573 1.98299 0 1.277 0C0.571998 0 0 0.573 0 1.279C0 1.984 0.571998 2.556 1.277 2.556" transform="translate(267.0003 245.6442)" id="Fill-778" fill="#000000" stroke="none" />
      <path d="M1.278 2.556C1.984 2.556 2.556 1.984 2.556 1.279C2.556 0.573 1.984 0 1.278 0C0.572 0 0 0.573 0 1.279C0 1.984 0.572 2.556 1.278 2.556" transform="translate(281.3996 245.6442)" id="Fill-780" fill="#000000" stroke="none" />
      <path d="M1.278 2.556C1.983 2.556 2.555 1.984 2.555 1.278C2.555 0.572 1.983 0 1.278 0C0.572 0 0 0.572 0 1.278C0 1.984 0.572 2.556 1.278 2.556" transform="translate(0.5999 260.0446)" id="Fill-782" fill="#000000" stroke="none" />
      <path d="M1.277 2.556C1.983 2.556 2.555 1.984 2.555 1.278C2.555 0.572 1.983 0 1.277 0C0.572 0 0 0.572 0 1.278C0 1.984 0.572 2.556 1.277 2.556" transform="translate(15.0003 260.0446)" id="Fill-784" fill="#000000" stroke="none" />
      <path d="M1.278 2.556C1.984 2.556 2.556 1.984 2.556 1.278C2.556 0.572 1.984 0 1.278 0C0.572 0 0 0.572 0 1.278C0 1.984 0.572 2.556 1.278 2.556" transform="translate(29.3997 260.0446)" id="Fill-786" fill="#000000" stroke="none" />
      <path d="M1.278 2.556C1.983 2.556 2.555 1.984 2.555 1.278C2.555 0.572 1.983 0 1.278 0C0.572 0 0 0.572 0 1.278C0 1.984 0.572 2.556 1.278 2.556" transform="translate(43.8 260.0446)" id="Fill-788" fill="#000000" stroke="none" />
      <path d="M1.277 2.556C1.983 2.556 2.555 1.984 2.555 1.278C2.555 0.572 1.983 0 1.277 0C0.572 0 0 0.572 0 1.278C0 1.984 0.572 2.556 1.277 2.556" transform="translate(58.2005 260.0446)" id="Fill-790" fill="#000000" stroke="none" />
      <path d="M1.278 2.556C1.983 2.556 2.555 1.984 2.555 1.278C2.555 0.572 1.983 0 1.278 0C0.572 0 0 0.572 0 1.278C0 1.984 0.572 2.556 1.278 2.556" transform="translate(72.5999 260.0446)" id="Fill-792" fill="#000000" stroke="none" />
      <path d="M1.277 2.556C1.983 2.556 2.555 1.984 2.555 1.278C2.555 0.572 1.983 0 1.277 0C0.572 0 0 0.572 0 1.278C0 1.984 0.572 2.556 1.277 2.556" transform="translate(87.0003 260.0446)" id="Fill-794" fill="#000000" stroke="none" />
      <path d="M1.278 2.556C1.984 2.556 2.556 1.984 2.556 1.278C2.556 0.572 1.984 0 1.278 0C0.572 0 0 0.572 0 1.278C0 1.984 0.572 2.556 1.278 2.556" transform="translate(101.3997 260.0446)" id="Fill-796" fill="#000000" stroke="none" />
      <path d="M1.278 2.556C1.983 2.556 2.555 1.984 2.555 1.278C2.555 0.572 1.983 0 1.278 0C0.572 0 0 0.572 0 1.278C0 1.984 0.572 2.556 1.278 2.556" transform="translate(115.8 260.0446)" id="Fill-798" fill="#000000" stroke="none" />
      <path d="M1.277 2.556C1.98299 2.556 2.55499 1.984 2.55499 1.278C2.55499 0.572 1.98299 0 1.277 0C0.571998 0 0 0.572 0 1.278C0 1.984 0.571998 2.556 1.277 2.556" transform="translate(130.2005 260.0446)" id="Fill-800" fill="#000000" stroke="none" />
      <path d="M1.278 2.556C1.98299 2.556 2.55499 1.984 2.55499 1.278C2.55499 0.572 1.98299 0 1.278 0C0.571998 0 0 0.572 0 1.278C0 1.984 0.571998 2.556 1.278 2.556" transform="translate(144.5999 260.0446)" id="Fill-802" fill="#000000" stroke="none" />
      <path d="M1.277 2.556C1.98299 2.556 2.55499 1.984 2.55499 1.278C2.55499 0.572 1.98299 0 1.277 0C0.571998 0 0 0.572 0 1.278C0 1.984 0.571998 2.556 1.277 2.556" transform="translate(159.0003 260.0446)" id="Fill-804" fill="#000000" stroke="none" />
      <path d="M1.278 2.556C1.984 2.556 2.556 1.984 2.556 1.278C2.556 0.572 1.984 0 1.278 0C0.572 0 0 0.572 0 1.278C0 1.984 0.572 2.556 1.278 2.556" transform="translate(173.3997 260.0446)" id="Fill-806" fill="#000000" stroke="none" />
      <path d="M1.278 2.556C1.98299 2.556 2.55499 1.984 2.55499 1.278C2.55499 0.572 1.98299 0 1.278 0C0.571998 0 0 0.572 0 1.278C0 1.984 0.571998 2.556 1.278 2.556" transform="translate(187.8 260.0446)" id="Fill-808" fill="#000000" stroke="none" />
      <path d="M1.277 2.556C1.98299 2.556 2.55499 1.984 2.55499 1.278C2.55499 0.572 1.98299 0 1.277 0C0.571998 0 0 0.572 0 1.278C0 1.984 0.571998 2.556 1.277 2.556" transform="translate(202.2005 260.0446)" id="Fill-810" fill="#000000" stroke="none" />
      <path d="M1.278 2.556C1.98299 2.556 2.55499 1.984 2.55499 1.278C2.55499 0.572 1.98299 0 1.278 0C0.571998 0 0 0.572 0 1.278C0 1.984 0.571998 2.556 1.278 2.556" transform="translate(216.5999 260.0446)" id="Fill-812" fill="#000000" stroke="none" />
      <path d="M1.277 2.556C1.98299 2.556 2.55499 1.984 2.55499 1.278C2.55499 0.572 1.98299 0 1.277 0C0.571998 0 0 0.572 0 1.278C0 1.984 0.571998 2.556 1.277 2.556" transform="translate(231.0003 260.0446)" id="Fill-814" fill="#000000" stroke="none" />
      <path d="M1.278 2.556C1.984 2.556 2.556 1.984 2.556 1.278C2.556 0.572 1.984 0 1.278 0C0.572 0 0 0.572 0 1.278C0 1.984 0.572 2.556 1.278 2.556" transform="translate(245.3996 260.0446)" id="Fill-816" fill="#000000" stroke="none" />
      <path d="M1.278 2.556C1.98299 2.556 2.55499 1.984 2.55499 1.278C2.55499 0.572 1.98299 0 1.278 0C0.571998 0 0 0.572 0 1.278C0 1.984 0.571998 2.556 1.278 2.556" transform="translate(259.8 260.0446)" id="Fill-818" fill="#000000" stroke="none" />
      <path d="M1.277 2.556C1.98299 2.556 2.55499 1.984 2.55499 1.278C2.55499 0.572 1.98299 0 1.277 0C0.571998 0 0 0.572 0 1.278C0 1.984 0.571998 2.556 1.277 2.556" transform="translate(274.2004 260.0446)" id="Fill-820" fill="#000000" stroke="none" />
    </g>
  </g>
</svg>