<?xml version="1.0" encoding="UTF-8"?>
<svg width="234px" height="399px" viewBox="0 0 234 399" version="1.1" xmlns="http://www.w3.org/2000/svg" xmlns:xlink="http://www.w3.org/1999/xlink">
    <!-- Generator: Sketch 47 (45396) - http://www.bohemiancoding.com/sketch -->
    <title>Slice 6</title>
    <desc>Created with Sketch.</desc>
    <defs></defs>
    <g id="Page-1" stroke="none" stroke-width="1" fill="none" fill-rule="evenodd">
        <g id="bulb" transform="translate(16.000000, 16.000000)" stroke-width="32">
            <path d="M47.671875,318 C47.671875,292.395242 47.671875,283.689885 47.671875,251.883929 C47.671875,204.174995 16.90625,179.223214 2.921875,123.330357 C-11.0625,67.4375 30.890625,0.366071429 100.8125,0.366071429 C170.734375,0.366071429 212.6875,67.4375 198.703125,123.330357 C184.71875,179.223214 153.953125,204.174995 153.953125,251.883929 C153.953125,283.689885 153.953125,292.395242 153.953125,318" id="Path" stroke="#FFCC01"></path>
            <path d="M47.671875,295 L47.671875,331 C47.671875,355 65.3854167,367 100.8125,367 C153.953125,367 153.953125,331 153.953125,331 C153.953125,331 153.953125,319 153.953125,295 L47.671875,295 Z" id="Path-4" stroke="#666666" fill="#666666"></path>
        </g>
    </g>
</svg>