<?xml version="1.0" encoding="UTF-8"?>
<svg width="213px" height="346px" viewBox="0 0 213 346" version="1.1" xmlns="http://www.w3.org/2000/svg" xmlns:xlink="http://www.w3.org/1999/xlink">
    <!-- Generator: Sketch 47 (45396) - http://www.bohemiancoding.com/sketch -->
    <title>Slice 11</title>
    <desc>Created with Sketch.</desc>
    <defs></defs>
    <g id="Page-1" stroke="none" stroke-width="1" fill="none" fill-rule="evenodd">
        <g id="bulb" transform="translate(-49.000000, -26.000000)">
            <g id="Group-3">
                <polygon id="Triangle-3" fill="#FED12F" points="117 101 223 145 147 206"></polygon>
                <g id="Group-5" transform="translate(107.000000, 290.000000)">
                    <polygon id="Triangle-3" fill="#656565" points="-2.84217094e-14 63 18 55 23 72"></polygon>
                    <polygon id="Triangle-3" fill="#656565" points="23 72 62 36 49 82"></polygon>
                    <polygon id="Triangle-3" fill="#787778" points="0 0 0 63 18 55"></polygon>
                    <polygon id="Triangle-3" fill="#5C5C5C" points="62 36 49 82 101 62"></polygon>
                    <polygon id="Triangle-3" fill="#787778" points="101 62 47 26 101 0"></polygon>
                    <polygon id="Triangle-3" fill="#4A4A4A" points="0 0 101 0 23 72"></polygon>
                </g>
                <polygon id="Triangle-3" fill="#FED12F" points="196 27 258 89 223 145"></polygon>
                <polygon id="Triangle-3" fill="#FED12F" points="107 290 217 258 208 290"></polygon>
                <polygon id="Triangle-3" fill="#FED12F" points="90 258 147 206 107 290"></polygon>
                <polygon id="Triangle-3" fill="#FED12F" points="49 89 117 26 117 101"></polygon>
                <polygon id="Triangle-3" fill="#FFF3CB" points="147 206 217 258 223 145"></polygon>
                <polygon id="Triangle-3" fill="#FFF3CB" transform="translate(94.068947, 202.884205) rotate(140.000000) translate(-94.068947, -202.884205) " points="55.5242029 166.473943 119.669169 242.489885 132.613692 163.278526"></polygon>
                <polygon id="Triangle-3" fill="#FFDD63" transform="translate(193.467772, 91.857214) rotate(-53.000000) translate(-193.467772, -91.857214) " points="140.146565 36.2896019 246.788979 54.8474955 168.798995 147.424827"></polygon>
                <polygon id="Triangle-3" fill="#FFEDAC" transform="translate(117.800400, 171.223982) rotate(-53.000000) translate(-117.800400, -171.223982) " points="62.1987265 126.975414 173.402073 128.322907 107.599795 215.47255"></polygon>
                <polygon id="Triangle-3" fill="#FFDD63" transform="translate(154.569878, 268.401001) rotate(-53.000000) translate(-154.569878, -268.401001) " points="108.691884 243.40861 199.849867 224.801568 200.447872 312.000435"></polygon>
                <polygon id="Triangle-3" fill="#FFDD63" transform="translate(220.000000, 201.500000) rotate(-53.000000) translate(-220.000000, -201.500000) " points="173.071649 233.106642 266.928351 169.893358 255.259175 227.520004"></polygon>
                <polygon id="Triangle-3" fill="#FFDD63" transform="translate(58.968458, 126.890934) rotate(-53.000000) translate(-58.968458, -126.890934) " points="3.36678437 156.307939 83.2303354 96.1264364 114.570131 157.655431"></polygon>
                <polygon id="Triangle-3" fill="#FEE382" transform="translate(260.000000, 139.000000) rotate(-53.000000) translate(-260.000000, -139.000000) " points="232.941031 113.061376 298.728145 107.311978 221.271855 170.688022"></polygon>
                <polygon id="Triangle-3" fill="#FEF1C0" transform="translate(151.718681, 50.863434) rotate(160.000000) translate(-151.718681, -50.863434) " points="101.946077 58.1426229 201.491285 15.6249603 175.839774 86.1019069"></polygon>
            </g>
        </g>
    </g>
</svg>