<?xml version="1.0" encoding="UTF-8"?>
<svg width="234px" height="409px" viewBox="0 0 234 409" version="1.1" xmlns="http://www.w3.org/2000/svg" xmlns:xlink="http://www.w3.org/1999/xlink">
    <!-- Generator: Sketch 47 (45396) - http://www.bohemiancoding.com/sketch -->
    <title>Slice 6</title>
    <desc>Created with Sketch.</desc>
    <defs></defs>
    <g id="Page-1" stroke="none" stroke-width="1" fill="none" fill-rule="evenodd">
        <g id="bulb" transform="translate(16.000000, 16.000000)" stroke-width="32">
            <path d="M47.671875,338 C47.671875,312.395242 47.671875,283.689885 47.671875,251.883929 C47.671875,204.174995 16.90625,179.223214 2.921875,123.330357 C-11.0625,67.4375 30.890625,0.366071429 100.8125,0.366071429 C170.734375,0.366071429 212.6875,67.4375 198.703125,123.330357 C184.71875,179.223214 153.953125,204.174995 153.953125,251.883929 C153.953125,283.689885 153.953125,312.395242 153.953125,338 L47.671875,338 Z" id="Path" stroke="#FFCC01"></path>
            <path d="M47.671875,301.710887 L47.671875,312.123551 L47.671875,318.995336 L47.671875,326.099284 L47.671875,332.805376 L47.671875,339.753856 L47.671875,345.687763 L84.1785984,371.109282 L117.084231,371.109282 C141.663494,354.708911 153.953125,346.508725 153.953125,346.508725 C153.953125,346.508725 153.953125,341.940942 153.953125,332.805376 L153.953125,326.099284 L153.953125,318.995336 L153.953125,312.123551 L153.953125,308.583354 L153.953125,301.710887 L153.953125,295.064173 L153.953125,281.089286 L150.33173,281.089286 L47.671875,281.089286 L47.671875,301.710887 Z" id="Path-4" stroke="#666666" fill="#666666"></path>
        </g>
    </g>
</svg>