<?xml version="1.0" encoding="UTF-8"?>
<svg width="360px" height="399px" viewBox="0 0 360 399" version="1.1" xmlns="http://www.w3.org/2000/svg" xmlns:xlink="http://www.w3.org/1999/xlink">
    <!-- Generator: Sketch 47 (45396) - http://www.bohemiancoding.com/sketch -->
    <title>Slice 6</title>
    <desc>Created with Sketch.</desc>
    <defs></defs>
    <g id="Page-1" stroke="none" stroke-width="1" fill="none" fill-rule="evenodd">
        <path d="M296,121 L344,121 L344,121 C348.418278,121 352,117.418278 352,113 L352,113 L352,113 C352,108.581722 348.418278,105 344,105 L296,105" id="Line-5" stroke="#FFCC01" stroke-width="16" stroke-linecap="square"></path>
        <g id="bulb" transform="translate(78.000000, 16.000000)" stroke-width="32">
            <path d="M47.671875,318 C47.671875,292.395242 47.671875,283.689885 47.671875,251.883929 C47.671875,204.174995 16.90625,179.223214 2.921875,123.330357 C-11.0625,67.4375 30.890625,0.366071429 100.8125,0.366071429 C170.734375,0.366071429 212.6875,67.4375 198.703125,123.330357 C184.71875,179.223214 153.953125,204.174995 153.953125,251.883929 C153.953125,283.689885 153.953125,292.395242 153.953125,318" id="Path" stroke="#FFCC01"></path>
            <path d="M47.671875,265 L47.671875,331 C47.671875,355 65.3854167,367 100.8125,367 C153.953125,367 153.953125,331 153.953125,331 C153.953125,331 153.953125,309 153.953125,265" id="Path-4" stroke="#666666"></path>
        </g>
        <path d="M284,171 L332,171 L332,171 C336.418278,171 340,167.418278 340,163 L340,163 L340,163 C340,158.581722 336.418278,155 332,155 L284,155" id="Line-5" stroke="#FFCC01" stroke-width="16" stroke-linecap="square"></path>
        <path d="M8,121 L56,121 L56,121 C60.418278,121 64,117.418278 64,113 L64,113 L64,113 C64,108.581722 60.418278,105 56,105 L8,105" id="Line-5" stroke="#FFCC01" stroke-width="16" stroke-linecap="square" transform="translate(36.000000, 113.000000) rotate(180.000000) translate(-36.000000, -113.000000) "></path>
        <path d="M20,171 L68,171 L68,171 C72.418278,171 76,167.418278 76,163 L76,163 L76,163 C76,158.581722 72.418278,155 68,155 L20,155" id="Line-5" stroke="#FFCC01" stroke-width="16" stroke-linecap="square" transform="translate(48.000000, 163.000000) rotate(180.000000) translate(-48.000000, -163.000000) "></path>
    </g>
</svg>