<svg version="1.1" id="MindsLogo" xmlns="http://www.w3.org/2000/svg" x="0px" y="0px" viewBox="-204 311.3 201.3 170.7" xml:space="preserve"><style type="text/css">
	.st0{display:none;}
	.st1{display:inline;fill:#FFCC00;}
	.st2{display:inline;opacity:0.7;}
	.st3{filter:url(#glow);}
	.st4{fill:#FFCC00;}
	.st5{display:inline;fill:#999999;}
	.st6{display:inline;filter:url(#glow);}
	.st7{display:inline;}
	.st8{fill:#999999;}
	.st9{fill:#D1D1D1;}
	.st10{fill:#808080;}
</style><filter height="200%" width="200%" x="-50%" y="-50%" id="glow"><feGaussianBlur stdDeviation="13"/></filter><g id="Greyscale"><path id="XMLID_11_" class="st9" d="M-73.8 391.5L-73.8 391.5c3.1-5.2 4.9-11.2 4.9-17.7 0-19-15.4-34.4-34.4-34.4s-34.4 15.4-34.4 34.4c0 6.5 1.8 12.5 4.9 17.7l0 0c0 0 0 0 0.1 0.1 0.5 0.8 1 1.6 1.6 2.4l0.1 0.1c1.4 2.2 3.3 5 3.9 6.1 1 1.8 3.5 7 4.2 10.8 0.5 2.3 0.6 6.5 1.3 8.4 0.6 1.7 2.3 4.3 4.1 4.6 1.6 0.3 4.2 3.4 5.6 4.2 0.8 0.5 8.7 0.1 8.7 0.1s7.8 0.4 8.7-0.1c1.4-0.8 4-3.9 5.6-4.2 1.8-0.3 3.5-2.9 4.1-4.6 0.7-1.9 0.8-6.2 1.3-8.4 0.8-3.8 3.2-9 4.2-10.8 0.6-1.1 2.5-4 4-6.2C-74.9 393.2-74.3 392.4-73.8 391.5L-73.8 391.5z"/><g id="Glow_2_" class="st3"><path id="XMLID_8_" class="st9" d="M-64.3 378.2c0 21.7-17.6 39.2-39.2 39.2 -13.1 0-24.7-6.4-31.8-16.3 -4.7-6.5-7.4-14.4-7.4-23 0-21.7 17.6-39.2 39.2-39.2C-81.9 339-64.3 356.5-64.3 378.2z"/></g><g id="Metal_3_"><g id="Shine_1_"><path id="XMLID_2_" class="st9" d="M-91.5 447c0 0 0.1-0.1 0.2-0.2 0.2-0.1 0.4-0.3 0.6-0.6s0.5-0.6 0.8-1.1c0.1-0.2 0.2-0.5 0.2-0.7 0.1-0.3 0.1-0.5-0.1-0.8 -0.1-0.3-0.3-0.5-0.5-0.9 -0.1-0.2-0.2-0.5-0.1-0.8 0.1-0.3 0.2-0.4 0.3-0.6 0.2-0.3 0.4-0.7 0.6-1 0.1-0.2 0.2-0.3 0.2-0.4 0-0.1 0 0 0-0.1 0 0 0-0.1-0.1-0.1 -0.1-0.3-0.4-0.6-0.7-1.1 -0.2-0.5 0.1-0.8 0.1-1 0.1-0.2 0.2-0.4 0.3-0.6 0.1-0.2 0.2-0.4 0.3-0.5 0-0.1 0.1-0.2 0.1-0.2s0 0 0 0.1v-0.1 -0.1c-0.1-0.4-0.3-0.8-0.5-1.2 -0.1-0.2-0.2-0.4-0.3-0.8 0-0.2 0-0.1 0-0.3 0-0.1 0-0.2 0.1-0.3 0-0.1 0.1-0.2 0.2-0.3 0.2-0.4 0.4-0.8 0.5-1.1 0-0.1 0-0.2 0-0.3 -0.1-0.1-0.2-0.3-0.3-0.4 -0.1-0.2-0.3-0.3-0.4-0.6 -0.1-0.1-0.1-0.3-0.2-0.5 0-0.1 0-0.1 0-0.2v-0.1 -0.2c0.1-0.5 0.3-0.9 0.5-1.2 0.2-0.3 0.3-0.7 0.4-1 0-0.1 0-0.3 0-0.3 -0.1-0.2-0.1-0.3-0.2-0.5 -0.1-0.3-0.3-0.7-0.3-1.1 0-0.2-0.1-0.3 0-0.6 0-0.1 0.1-0.4 0.2-0.6 0.2-0.3 0.4-0.6 0.5-0.8 0.4-0.4 0.7-0.7 1-1 0.3-0.3 0.4-0.5 0.5-0.7s0.1-0.3 0.1-0.3 0 0.1 0 0.3 -0.1 0.5-0.3 0.9c-0.2 0.3-0.4 0.7-0.7 1.2 -0.1 0.2-0.2 0.5-0.3 0.7 0 0.1 0 0.1 0 0.3 0 0 0 0.2 0 0.3 0 0.3 0.1 0.6 0.3 0.9 0.1 0.2 0.1 0.3 0.2 0.5v0.1c0 0 0 0.1 0 0.2l0 0c0 0.1 0 0.1 0 0.1v0.1c0 0.1 0 0.2 0 0.3 -0.2 0.9-0.7 1.6-0.9 2.2 0 0 0 0 0 0.1v0.1l0 0v0.1c0.1 0.1 0.2 0.3 0.3 0.4 0.1 0.2 0.3 0.4 0.4 0.6 0.1 0.3 0.2 0.7 0.1 1 -0.1 0.5-0.4 0.9-0.6 1.3 0 0.1-0.1 0.2-0.1 0.3v0.1c0-0.1 0 0.1 0 0 0 0.1 0.1 0.3 0.2 0.5 0.2 0.4 0.4 0.8 0.5 1.2 0 0.1 0 0.1 0.1 0.2v0.1c0 0.1 0 0.2 0 0.2 0 0.2-0.1 0.3-0.1 0.5 -0.1 0.2-0.2 0.4-0.3 0.6 -0.1 0.2-0.2 0.4-0.3 0.5 -0.1 0.2-0.1 0.3-0.1 0.2 0.1 0.2 0.4 0.6 0.6 1 0.1 0.1 0.1 0.2 0.2 0.4 0 0.1 0 0.4 0 0.5 -0.1 0.3-0.2 0.4-0.3 0.6 -0.2 0.3-0.4 0.7-0.6 1 -0.1 0.1-0.2 0.3-0.2 0.4 0 0 0 0.1 0 0.2 0 0.3 0.2 0.6 0.3 1 0.1 0.8-0.2 1.5-0.5 1.9 -0.3 0.5-0.7 0.8-1 1 -0.3 0.2-0.6 0.4-0.7 0.5C-91.4 447-91.5 447-91.5 447z"/></g><path id="Metal_4_" class="st10" d="M-89.6 434.7c0-0.4 0.6-1.4 0.6-2 0-0.7-0.8-1.2-0.8-1.8 0-0.7 0.8-1.9 0.8-2.8 0-0.2-0.5-1.2-0.5-2.1 0-1.2 1.3-1.7 1.3-2.7h-15.2 -15c-0.3 0.1-0.4 0.4-0.4 1 0 1.1 1.6 2.1 1.6 3.2 0 0.9-0.5 1.9-0.5 2.1 0 1 0.8 2.2 0.8 2.8s-0.8 1.8-0.8 2.5c0 0.7 0.7 1.6 0.6 2 0 0.4-0.7 1.5-0.7 1.9s0.7 1.8 0.7 2.2c0 0.4-0.7 1.8-0.7 2.3s0.9 1 1 1.3c0.1 0.3-0.1 1 0 1.1 0 0 8.1 7.6 8.5 7.9 0.3 0.2 3.6-0.1 4.9-0.1 1.2 0 4.6 0.4 4.9 0.1 0.5-0.4 0.5-0.4 8.5-7.9 0-0.1 0.6-0.8 0.5-1.5 0-0.7-0.5-1-0.6-1.5s1-1.9 1-2.4 -0.6-1.2-0.7-1.6c0-0.4 0.9-1.6 0.8-2C-88.8 436.5-89.6 435.1-89.6 434.7z"/></g></g></svg>