<svg version="1.1" id="Layer_1" xmlns="http://www.w3.org/2000/svg" x="0" y="0" viewBox="613 616.3 688 283" xml:space="preserve"><style type="text/css">
	.st0{fill:#464646;}
	.st1{fill:#FFCC00;}
	.st2{filter:url(#glow);}
	.st3{fill:#999999;}
</style><filter height="200" width="200" id="glow" x="-50" y="-50"><feGaussianBlur stdDeviation="13"/></filter><g id="MindsLogo"><g id="Text"><path class="st0" d="M730.8 775.3c8.4 15.9 17.1 32.2 26.3 49 1.2-2.3 2.9-5.5 5.2-9.7 2.3-4.2 4.9-9 7.8-14.5 3-5.5 6.1-11.4 9.5-17.7 3.4-6.3 6.8-12.8 10.3-19.3 3.5-6.5 7-12.9 10.4-19.2 3.4-6.3 6.6-12.2 9.6-17.6h2.3c1.3 11.4 2.5 22.4 3.6 33 1.1 10.6 2.3 21.1 3.5 31.3 1.2 10.3 2.4 20.4 3.6 30.4 1.2 10 2.5 20 3.9 29.8 -1.4-0.2-2.8-0.4-4.2-0.4 -1.4 0-2.8 0-4.2 0s-2.8 0-4.2 0c-1.4 0-2.8 0.1-4.2 0.4 -1.3-15.8-2.6-31.1-3.9-45.9 -1.3-14.8-2.9-30-4.8-45.4H801c-8.2 15-16.2 29.8-24.1 44.6 -7.9 14.8-15.4 30.2-22.5 46.4h-1.6c-7.1-15-14.6-29.9-22.3-44.9 -7.8-15-15.6-30.3-23.4-46h-0.4c-0.8 7.4-1.8 15.3-2.8 23.9 -1 8.6-1.9 17.1-2.8 25.5 -0.8 8.4-1.5 16.3-2.1 23.7 -0.6 7.4-0.9 13.5-0.9 18.2 -1.9-0.2-4-0.4-6.2-0.4 -2.3 0-4.3 0.1-6.2 0.4 1.5-9.6 3.1-19.8 4.8-30.4 1.7-10.7 3.3-21.4 4.8-32.2 1.5-10.8 3-21.4 4.3-32 1.3-10.5 2.4-20.5 3.4-30h3C714.1 743 722.4 759.4 730.8 775.3z"/><path class="st0" d="M852.4 728.5c1.5 0.2 2 0.4 3.5 0.6 1.4 0.2 2.8 0.3 4.3 0.3s2.8-0.1 4.3-0.3c1.4-0.2 1.9-0.4 3.5-0.6 -0.4 7.8-0.4 38.3-0.4 46.1v30.6c0 7.8 0.1 15.5 0.4 23.1 0.3 7.6 0.6 15.1 1 22.4 -2.7-0.2-5.6-0.4-8.7-0.4 -3.1 0-6 0.1-8.7 0.4 0.4-7.4 0.7-14.8 1-22.4 0.3-7.6 0.4-15.3 0.4-23.1v-30.6C852.8 766.8 852.7 736.3 852.4 728.5z"/><path class="st0" d="M958.9 804.6c-15.4-16.6-30.9-33-46.3-49.4 -0.1 3.3-0.2 7.8-0.4 13.4 -0.1 5.6-0.2 13.2-0.2 22.8 0 2.5 0 5.6 0.1 9.3 0.1 3.7 0.1 7.5 0.2 11.6 0.1 4 0.1 8.1 0.3 12.3 0.1 4.2 0.2 8 0.4 11.6 0.1 3.6 0.2 6.7 0.4 9.3 0.1 2.7 0.2 4.5 0.4 5.4 -1.9-0.2-4-0.4-6.2-0.4 -2.4 0-4.6 0.1-6.6 0.4 0.2-1.2 0.5-3.4 0.8-6.6 0.3-3.2 0.6-7 0.8-11.5 0.2-4.5 0.5-9.3 0.8-14.5 0.3-5.2 0.5-10.4 0.7-15.7 0.2-5.2 0.3-10.3 0.4-15.3 0.1-5 0.2-9.4 0.2-13.3 0-11.4 0-21.2-0.1-29.4 -0.1-8.2-0.2-14.3-0.4-18.3h2.8c7.2 7.8 15 16.2 23.2 25.2 8.2 9 16.4 17.8 24.6 26.5 8.1 8.7 15.8 17 23.1 24.7 7.3 7.8 13.7 14.4 19.1 19.8v-24.2c0-12.5-0.1-24.6-0.3-36.4 -0.2-11.8-0.6-22.9-1.2-33.4 2.4 0.6 4.4 0.9 6.1 0.9 1.4 0 3.3-0.3 5.7-0.9 -0.2 2.6-0.5 6.5-0.8 11.7 -0.3 5.2-0.6 10.8-0.9 16.7 -0.3 5.9-0.6 11.7-0.8 17.4 -0.2 5.7-0.4 10.3-0.4 13.7 0 3 0 6.5 0 10.7 0 4 0 8.2 0.1 12.6 0.1 4.4 0.1 8.8 0.2 13.3 0.1 4.4 0.1 8.6 0.2 12.5 0.1 3.9 0.1 7.2 0.1 10.1 0 2.6 0 4.6 0 5.9h-2.5C988.8 837.3 974.3 821.1 958.9 804.6z"/><path class="st0" d="M1040.3 751.6c-0.3-7.5-0.6-15.2-1-23.1 4.5 0.2 9 0.4 13.4 0.6 4.5 0.2 8.9 0.3 13.4 0.3 4.5 0 9-0.1 13.4-0.4 4.5-0.3 8.9-0.4 13.4-0.4 10.4 0 19.4 1.4 26.8 4.1 7.4 2.7 13.5 6.6 18.2 11.7 4.7 5 8.2 11.2 10.4 18.5 2.2 7.3 3.3 15.5 3.3 24.7 0 11.9-2 21.9-6.1 30 -4.1 8.1-9.3 14.7-15.7 19.7 -6.3 5-13.3 8.5-21 10.6 -7.7 2.1-15 3.1-22 3.1 -4 0-8-0.1-11.9-0.2 -3.9-0.1-7.9-0.2-11.9-0.2 -4 0-8 0-11.9 0s-7.9 0.1-11.9 0.4c0.4-7.4 0.7-14.8 1-22.4 0.3-7.6 0.4-15.3 0.4-23.1v-30.6C1040.7 766.8 1040.6 759.1 1040.3 751.6zM1056.4 843c2.5 0.6 5.9 1 10.1 1.3 4.3 0.3 8.7 0.4 13.2 0.4 6.5 0 13.1-0.8 19.6-2.3 6.5-1.5 12.4-4.5 17.5-8.7 5.2-4.3 9.4-10.1 12.6-17.5 3.3-7.4 4.9-17 4.9-28.7 0-10.3-1.3-18.8-3.8-25.5 -2.6-6.6-6.1-11.9-10.5-15.8 -4.5-3.9-9.8-6.5-15.9-8 -6.2-1.5-12.9-2.2-20.3-2.2 -5.3 0-10.3 0.2-15 0.5 -4.6 0.4-8.8 0.8-12.5 1.2 -0.4 5.7-0.6 11.7-0.8 17.9 -0.2 6.2-0.3 12.5-0.3 19v30.6C1055.3 818 1055.7 830.6 1056.4 843z"/><path class="st0" d="M1179.1 834.1c1.6 2.2 3.6 4.2 5.9 6 2.3 1.8 5 3.2 8.1 4.4 3.1 1.1 6.5 1.7 10.3 1.7 3.9 0 7.4-0.7 10.6-2 3.1-1.4 5.8-3.2 8-5.5 2.2-2.3 3.9-5 5.1-8.2 1.2-3.1 1.8-6.5 1.8-10.1 0-5.5-1.4-9.8-4.2-13 -2.8-3.2-6.3-5.9-10.4-8 -4.2-2.1-8.6-4.1-13.4-5.9 -4.8-1.8-9.3-4-13.4-6.7 -4.2-2.7-7.6-6.1-10.4-10.2 -2.8-4.2-4.2-9.7-4.2-16.7 0-5 0.9-9.5 2.7-13.6 1.8-4.1 4.4-7.6 7.7-10.6 3.4-3 7.4-5.3 12.2-6.9 4.7-1.7 10.1-2.5 16-2.5 5.7 0 10.6 0.7 14.8 2 4.2 1.4 8 3.5 11.6 6.3 -1.1 2-2 4.2-2.7 6.4 -0.7 2.3-1.4 5.1-2.1 8.5h-2.1c-0.6-1.7-1.4-3.5-2.4-5.4 -1-2-2.4-3.8-4.1-5.4 -1.7-1.7-3.8-3.1-6.1-4.2 -2.4-1.1-5.2-1.7-8.5-1.7 -3.3 0-6.4 0.5-9.2 1.6 -2.8 1.1-5.2 2.6-7.3 4.5 -2.1 2-3.7 4.3-4.8 7 -1.1 2.7-1.7 5.7-1.7 8.9 0 5.6 1.4 10 4.2 13.2 2.8 3.2 6.3 5.9 10.4 8.1 4.2 2.2 8.6 4.2 13.4 5.9 4.8 1.7 9.3 3.8 13.4 6.3 4.2 2.5 7.6 5.7 10.4 9.6 2.8 3.9 4.2 9.1 4.2 15.7 0 5.5-1 10.6-2.9 15.5 -2 4.9-4.8 9.1-8.5 12.7 -3.7 3.6-8.3 6.4-13.7 8.4 -5.4 2-11.5 2.9-18.4 2.9 -7.4 0-13.3-1-17.9-2.9 -4.6-2-8.4-4.2-11.5-6.7 1.1-2.7 1.8-5.2 2.2-7.4 0.4-2.2 0.8-5 1.2-8.5h2.1C1176.3 829.8 1177.5 831.9 1179.1 834.1z"/></g><g id="Detailed"><path id="XMLID_12_" class="st1" d="M889.7 688.7L889.7 688.7c3.1-5.2 4.9-11.2 4.9-17.7 0-19-15.4-34.4-34.4-34.4S825.8 652 825.8 671c0 6.5 1.8 12.5 4.9 17.7l0 0c0 0 0 0 0.1 0.1 0.5 0.8 1 1.6 1.6 2.4l0.1 0.1c1.4 2.2 3.3 5 3.9 6.1 1 1.8 3.5 7 4.2 10.8 0.5 2.3 0.6 6.5 1.3 8.4 0.6 1.7 2.3 4.3 4.1 4.6 1.6 0.3 4.2 3.4 5.6 4.2 0.8 0.5 8.7 0.1 8.7 0.1s7.8 0.4 8.7-0.1c1.4-0.8 4-3.9 5.6-4.2 1.8-0.3 3.5-2.9 4.1-4.6 0.7-1.9 0.8-6.2 1.3-8.4 0.8-3.8 3.2-9 4.2-10.8 0.6-1.1 2.5-4 4-6.2C888.6 690.4 889.2 689.6 889.7 688.7L889.7 688.7z"/><g id="Glow_1_" class="st2"><g id="XMLID_2_"><path class="st1" d="M899.4 675.4c0 21.7-17.6 39.2-39.2 39.2 -13.1 0-24.7-6.4-31.8-16.3 -4.7-6.5-7.4-14.4-7.4-23 0-21.7 17.6-39.2 39.2-39.2C881.8 636.2 899.4 653.7 899.4 675.4z"/></g></g><g id="Metal_1_"><g id="Shine"><path id="XMLID_16_" class="st1" d="M872 744.2c0 0 0.1-0.1 0.2-0.2 0.2-0.1 0.4-0.3 0.6-0.6s0.5-0.6 0.8-1.1c0.1-0.2 0.2-0.5 0.2-0.7 0.1-0.3 0.1-0.5-0.1-0.8 -0.1-0.3-0.3-0.5-0.5-0.9 -0.1-0.2-0.2-0.5-0.1-0.8 0.1-0.3 0.2-0.4 0.3-0.6 0.2-0.3 0.4-0.7 0.6-1 0.1-0.2 0.2-0.3 0.2-0.4 0-0.1 0 0 0-0.1 0 0 0-0.1-0.1-0.1 -0.1-0.3-0.4-0.6-0.7-1.1 -0.2-0.5 0.1-0.8 0.1-1 0.1-0.2 0.2-0.4 0.3-0.6 0.1-0.2 0.2-0.4 0.3-0.5 0-0.1 0.1-0.2 0.1-0.2s0 0 0 0.1v-0.1 -0.1c-0.1-0.4-0.3-0.8-0.5-1.2 -0.1-0.2-0.2-0.4-0.3-0.8 0-0.2 0-0.1 0-0.3 0-0.1 0-0.2 0.1-0.3 0-0.1 0.1-0.2 0.2-0.3 0.2-0.4 0.4-0.8 0.5-1.1 0-0.1 0-0.2 0-0.3 -0.1-0.1-0.2-0.3-0.3-0.4 -0.1-0.2-0.3-0.3-0.4-0.6 -0.1-0.1-0.1-0.3-0.2-0.5 0-0.1 0-0.1 0-0.2v-0.1 -0.2c0.1-0.5 0.3-0.9 0.5-1.2 0.2-0.3 0.3-0.7 0.4-1 0-0.1 0-0.3 0-0.3 -0.1-0.2-0.1-0.3-0.2-0.5 -0.1-0.3-0.3-0.7-0.3-1.1 0-0.2-0.1-0.3 0-0.6 0-0.1 0.1-0.4 0.2-0.6 0.2-0.3 0.4-0.6 0.5-0.8 0.4-0.4 0.7-0.7 1-1 0.3-0.3 0.4-0.5 0.5-0.7 0.1-0.2 0.1-0.3 0.1-0.3s0 0.1 0 0.3c0 0.2-0.1 0.5-0.3 0.9 -0.2 0.3-0.4 0.7-0.7 1.2 -0.1 0.2-0.2 0.5-0.3 0.7 0 0.1 0 0.1 0 0.3 0 0 0 0.2 0 0.3 0 0.3 0.1 0.6 0.3 0.9 0.1 0.2 0.1 0.3 0.2 0.5v0.1c0 0 0 0.1 0 0.2l0 0c0 0.1 0 0.1 0 0.1v0.1c0 0.1 0 0.2 0 0.3 -0.2 0.9-0.7 1.6-0.9 2.2 0 0 0 0 0 0.1v0.1l0 0v0.1c0.1 0.1 0.2 0.3 0.3 0.4 0.1 0.2 0.3 0.4 0.4 0.6 0.1 0.3 0.2 0.7 0.1 1 -0.1 0.5-0.4 0.9-0.6 1.3 0 0.1-0.1 0.2-0.1 0.3v0.1c0-0.1 0 0.1 0 0 0 0.1 0.1 0.3 0.2 0.5 0.2 0.4 0.4 0.8 0.5 1.2 0 0.1 0 0.1 0.1 0.2v0.1c0 0.1 0 0.2 0 0.2 0 0.2-0.1 0.3-0.1 0.5 -0.1 0.2-0.2 0.4-0.3 0.6s-0.2 0.4-0.3 0.5c-0.1 0.2-0.1 0.3-0.1 0.2 0.1 0.2 0.4 0.6 0.6 1 0.1 0.1 0.1 0.2 0.2 0.4 0 0.1 0 0.4 0 0.5 -0.1 0.3-0.2 0.4-0.3 0.6 -0.2 0.3-0.4 0.7-0.6 1 -0.1 0.1-0.2 0.3-0.2 0.4 0 0 0 0.1 0 0.2 0 0.3 0.2 0.6 0.3 1 0.1 0.8-0.2 1.5-0.5 1.9 -0.3 0.5-0.7 0.8-1 1 -0.3 0.2-0.6 0.4-0.7 0.5C872.1 744.2 872 744.2 872 744.2z"/></g><path id="Metal_2_" class="st3" d="M873.9 731.9c0-0.4 0.6-1.4 0.6-2 0-0.7-0.8-1.2-0.8-1.8 0-0.7 0.8-1.9 0.8-2.8 0-0.2-0.5-1.2-0.5-2.1 0-1.2 1.3-1.7 1.3-2.7h-15.2 -15c-0.3 0.1-0.4 0.4-0.4 1 0 1.1 1.6 2.1 1.6 3.2 0 0.9-0.5 1.9-0.5 2.1 0 1 0.8 2.2 0.8 2.8s-0.8 1.8-0.8 2.5c0 0.7 0.7 1.6 0.6 2 0 0.4-0.7 1.5-0.7 1.9s0.7 1.8 0.7 2.2 -0.7 1.8-0.7 2.3 0.9 1 1 1.3 -0.1 1 0 1.1c0 0 8.1 7.6 8.5 7.9 0.3 0.2 3.6-0.1 4.9-0.1 1.2 0 4.6 0.4 4.9 0.1 0.5-0.4 0.5-0.4 8.5-7.9 0-0.1 0.6-0.8 0.5-1.5 0-0.7-0.5-1-0.6-1.5s1-1.9 1-2.4 -0.6-1.2-0.7-1.6c0-0.4 0.9-1.6 0.8-2C874.7 733.7 873.9 732.3 873.9 731.9z"/></g></g></g></svg>