<?xml version="1.0" encoding="UTF-8"?>
<svg width="246px" height="276px" viewBox="0 0 246 276" version="1.1" xmlns="http://www.w3.org/2000/svg" xmlns:xlink="http://www.w3.org/1999/xlink">
    <!-- Generator: Sketch 47 (45396) - http://www.bohemiancoding.com/sketch -->
    <title>Coin</title>
    <desc>Created with Sketch.</desc>
    <defs></defs>
    <g id="Page-1" stroke="none" stroke-width="1" fill="none" fill-rule="evenodd">
        <g id="Group" transform="translate(109.615400, 140.139109) rotate(22.000000) translate(-109.615400, -140.139109) translate(34.615400, 17.139109)" stroke="#FFFFFF">
            <path d="M43.758571,197.86555 C43.7100543,199.116481 43.6638939,200.313417 43.6516464,200.614722 C43.6151435,201.512738 43.585542,202.165246 43.5578638,202.658213 C43.5398697,202.978701 43.5222212,203.241699 43.5016168,203.475517 C43.484152,203.673708 43.4643776,203.857499 43.4353968,204.061375 C43.2788015,205.163005 43.1690319,205.662531 42.5105587,206.86145 C42.1458412,207.496517 42.1458412,207.496517 41.4091488,208.40217 C40.3457698,209.479707 40.3457698,209.479707 38.1799847,210.55045 C35.3233183,211.186215 35.3233183,211.186215 32.508065,210.437027 C30.4034557,209.292185 30.4034557,209.292185 29.3904973,208.188774 C28.2454488,206.518501 28.2454488,206.518501 27.9566762,205.706762 C27.7593846,205.098093 27.7593846,205.098093 27.6756554,204.736709 C27.5693714,204.261159 27.5287905,203.932573 27.4958065,203.534069 C27.4722305,203.24923 27.4581612,202.9495 27.446315,202.563976 C27.4278462,201.962926 27.4138219,201.0724 27.4028219,199.831482 C27.3809521,197.364324 27.3704416,193.405937 27.3704416,187.555553 C27.3704416,175.419545 24.5988356,165.131605 18.4413206,151.767646 C16.5187622,147.595022 8.57895118,131.67366 8.97057621,132.475085 C2.03490946,118.281878 -2.41232915,107.024961 -5.76256024,93.635702 C-11.5001891,70.7051649 -6.00999371,45.3155242 8.59098325,25.4754812 C23.9947213,4.54463352 47.7277977,-8 75,-8 C102.272202,-8 126.005279,4.54463352 141.409017,25.4754812 C156.009994,45.3155242 161.500189,70.7051649 155.76256,93.635702 C152.412329,107.024961 147.965091,118.281878 141.029424,132.475085 C141.421049,131.67366 133.481238,147.595022 131.558679,151.767646 C125.401164,165.131605 122.629558,175.419545 122.629558,187.555553 C122.629558,199.885648 115.557897,207.819406 104.046093,210.200328 C95.9043405,211.884241 85.706513,210.887941 73.64238,207.880433 C67.6634183,206.389918 61.3808867,204.43515 54.8879168,202.114524 C51.0817151,200.754165 47.3972612,199.340075 43.758571,197.86555 Z" id="Path" stroke-width="16" stroke-linecap="round" stroke-linejoin="round"></path>
            <path d="M35,191.264538 L35,199.477148 L35,204.897019 L35,210.5 L35,215.789186 L35,221.269547 L35,225.9497 L62.1358415,246 L86.5949533,246 C104.864984,233.064803 114,226.597205 114,226.597205 C114,226.597205 114,222.994532 114,215.789186 L114,210.5 L114,204.897019 L114,199.477148 L114,196.684947 L114,191.264538 L114,186.022184 L114,175 L111.308178,175 L35,175 L35,191.264538 Z" id="Path-4" stroke-width="30" fill="#FFFFFF"></path>
        </g>
        <path d="M14,96 L42,107" id="Line-3" stroke="#FFFFFF" stroke-width="16" stroke-linecap="square"></path>
        <path d="M189,155 L217,166" id="Line-3" stroke="#FFFFFF" stroke-width="16" stroke-linecap="square"></path>
        <path d="M206,123 L234,134" id="Line-3" stroke="#FFFFFF" stroke-width="16" stroke-linecap="square"></path>
        <path d="M23,58 L46,67" id="Line-3" stroke="#FFFFFF" stroke-width="16" stroke-linecap="square"></path>
    </g>
</svg>